<?xml version="1.0" encoding="utf-8" standalone="no"?>
<!DOCTYPE svg PUBLIC "-//W3C//DTD SVG 1.1//EN"
  "http://www.w3.org/Graphics/SVG/1.1/DTD/svg11.dtd">
<svg height="432pt" version="1.1" viewBox="0 0 1152 432" width="1152pt" xmlns="http://www.w3.org/2000/svg" xmlns:xlink="http://www.w3.org/1999/xlink">
 <metadata>
  <rdf:RDF xmlns:cc="http://creativecommons.org/ns#" xmlns:dc="http://purl.org/dc/elements/1.1/" xmlns:rdf="http://www.w3.org/1999/02/22-rdf-syntax-ns#">
   <cc:Work>
    <dc:type rdf:resource="http://purl.org/dc/dcmitype/StillImage"/>
    <dc:date>2021-08-27T15:06:12.096036</dc:date>
    <dc:format>image/svg+xml</dc:format>
    <dc:creator>
     <cc:Agent>
      <dc:title>Matplotlib v3.4.3, https://matplotlib.org/</dc:title>
     </cc:Agent>
    </dc:creator>
   </cc:Work>
  </rdf:RDF>
 </metadata>
 <defs>
  <style type="text/css">*{stroke-linecap:butt;stroke-linejoin:round;}</style>
 </defs>
 <g id="figure_1">
  <g id="patch_1">
   <path d="M 0 432 
L 1152 432 
L 1152 0 
L 0 0 
z
" style="fill:#ffffff;"/>
  </g>
  <g id="axes_1">
   <g id="patch_2">
    <path d="M 59.40208 381.453658 
L 570.305313 381.453658 
L 570.305313 13.719295 
L 59.40208 13.719295 
z
" style="fill:#ffffff;"/>
   </g>
   <g id="matplotlib.axis_1">
    <g id="xtick_1">
     <g id="line2d_1">
      <path clip-path="url(#p6b89b106cd)" d="M 111.491255 381.453658 
L 111.491255 13.719295 
" style="fill:none;stroke:#b0b0b0;stroke-dasharray:2.96,1.28;stroke-dashoffset:0;stroke-width:0.8;"/>
     </g>
     <g id="line2d_2">
      <defs>
       <path d="M 0 0 
L 0 3.5 
" id="m82e032cda1" style="stroke:#000000;stroke-width:0.8;"/>
      </defs>
      <g>
       <use style="stroke:#000000;stroke-width:0.8;" x="111.491255" xlink:href="#m82e032cda1" y="381.453658"/>
      </g>
     </g>
     <g id="text_1">
      <!-- $\mathdefault{0}$ -->
      <g transform="translate(109.000587 395.372156)scale(0.1 -0.1)">
       <defs>
        <path d="M 2688 2025 
C 2688 2416 2682 3080 2413 3591 
C 2176 4039 1798 4198 1466 4198 
C 1158 4198 768 4058 525 3597 
C 269 3118 243 2524 243 2025 
C 243 1661 250 1106 448 619 
C 723 -39 1216 -128 1466 -128 
C 1760 -128 2208 -7 2470 600 
C 2662 1042 2688 1559 2688 2025 
z
M 1466 -26 
C 1056 -26 813 325 723 812 
C 653 1188 653 1738 653 2096 
C 653 2588 653 2997 736 3387 
C 858 3929 1216 4096 1466 4096 
C 1728 4096 2067 3923 2189 3400 
C 2272 3036 2278 2607 2278 2096 
C 2278 1680 2278 1169 2202 792 
C 2067 95 1690 -26 1466 -26 
z
" id="CMR17-30" transform="scale(0.015625)"/>
       </defs>
       <use transform="scale(0.996264)" xlink:href="#CMR17-30"/>
      </g>
     </g>
    </g>
    <g id="xtick_2">
     <g id="line2d_3">
      <path clip-path="url(#p6b89b106cd)" d="M 173.422673 381.453658 
L 173.422673 13.719295 
" style="fill:none;stroke:#b0b0b0;stroke-dasharray:2.96,1.28;stroke-dashoffset:0;stroke-width:0.8;"/>
     </g>
     <g id="line2d_4">
      <g>
       <use style="stroke:#000000;stroke-width:0.8;" x="173.422673" xlink:href="#m82e032cda1" y="381.453658"/>
      </g>
     </g>
     <g id="text_2">
      <!-- $\mathdefault{10}$ -->
      <g transform="translate(168.441338 395.372156)scale(0.1 -0.1)">
       <defs>
        <path d="M 1702 4058 
C 1702 4192 1696 4192 1606 4192 
C 1357 3916 979 3827 621 3827 
C 602 3827 570 3827 563 3808 
C 557 3795 557 3782 557 3648 
C 755 3648 1088 3686 1344 3839 
L 1344 461 
C 1344 236 1331 160 781 160 
L 589 160 
L 589 0 
C 896 0 1216 0 1523 0 
C 1830 0 2150 0 2458 0 
L 2458 160 
L 2266 160 
C 1715 160 1702 230 1702 458 
L 1702 4058 
z
" id="CMR17-31" transform="scale(0.015625)"/>
       </defs>
       <use transform="scale(0.996264)" xlink:href="#CMR17-31"/>
       <use transform="translate(45.690477 0)scale(0.996264)" xlink:href="#CMR17-30"/>
      </g>
     </g>
    </g>
    <g id="xtick_3">
     <g id="line2d_5">
      <path clip-path="url(#p6b89b106cd)" d="M 235.354091 381.453658 
L 235.354091 13.719295 
" style="fill:none;stroke:#b0b0b0;stroke-dasharray:2.96,1.28;stroke-dashoffset:0;stroke-width:0.8;"/>
     </g>
     <g id="line2d_6">
      <g>
       <use style="stroke:#000000;stroke-width:0.8;" x="235.354091" xlink:href="#m82e032cda1" y="381.453658"/>
      </g>
     </g>
     <g id="text_3">
      <!-- $\mathdefault{20}$ -->
      <g transform="translate(230.372756 395.372156)scale(0.1 -0.1)">
       <defs>
        <path d="M 2669 989 
L 2554 989 
C 2490 536 2438 459 2413 420 
C 2381 369 1920 369 1830 369 
L 602 369 
C 832 619 1280 1072 1824 1597 
C 2214 1967 2669 2402 2669 3035 
C 2669 3790 2067 4224 1395 4224 
C 691 4224 262 3604 262 3030 
C 262 2780 448 2748 525 2748 
C 589 2748 781 2787 781 3010 
C 781 3207 614 3264 525 3264 
C 486 3264 448 3258 422 3245 
C 544 3790 915 4058 1306 4058 
C 1862 4058 2227 3617 2227 3035 
C 2227 2479 1901 2000 1536 1584 
L 262 146 
L 262 0 
L 2515 0 
L 2669 989 
z
" id="CMR17-32" transform="scale(0.015625)"/>
       </defs>
       <use transform="scale(0.996264)" xlink:href="#CMR17-32"/>
       <use transform="translate(45.690477 0)scale(0.996264)" xlink:href="#CMR17-30"/>
      </g>
     </g>
    </g>
    <g id="xtick_4">
     <g id="line2d_7">
      <path clip-path="url(#p6b89b106cd)" d="M 297.28551 381.453658 
L 297.28551 13.719295 
" style="fill:none;stroke:#b0b0b0;stroke-dasharray:2.96,1.28;stroke-dashoffset:0;stroke-width:0.8;"/>
     </g>
     <g id="line2d_8">
      <g>
       <use style="stroke:#000000;stroke-width:0.8;" x="297.28551" xlink:href="#m82e032cda1" y="381.453658"/>
      </g>
     </g>
     <g id="text_4">
      <!-- $\mathdefault{30}$ -->
      <g transform="translate(292.304174 395.372156)scale(0.1 -0.1)">
       <defs>
        <path d="M 1414 2157 
C 1984 2157 2234 1662 2234 1090 
C 2234 320 1824 25 1453 25 
C 1114 25 563 194 390 693 
C 422 680 454 680 486 680 
C 640 680 755 782 755 948 
C 755 1133 614 1216 486 1216 
C 378 1216 211 1165 211 926 
C 211 335 787 -128 1466 -128 
C 2176 -128 2720 430 2720 1085 
C 2720 1707 2208 2157 1600 2227 
C 2086 2328 2554 2756 2554 3329 
C 2554 3820 2048 4179 1472 4179 
C 890 4179 378 3829 378 3329 
C 378 3110 544 3072 627 3072 
C 762 3072 877 3155 877 3321 
C 877 3486 762 3569 627 3569 
C 602 3569 570 3569 544 3557 
C 730 3959 1235 4032 1459 4032 
C 1683 4032 2106 3925 2106 3320 
C 2106 3143 2080 2828 1862 2550 
C 1670 2304 1453 2304 1242 2284 
C 1210 2284 1062 2269 1037 2269 
C 992 2263 966 2257 966 2208 
C 966 2163 973 2157 1101 2157 
L 1414 2157 
z
" id="CMR17-33" transform="scale(0.015625)"/>
       </defs>
       <use transform="scale(0.996264)" xlink:href="#CMR17-33"/>
       <use transform="translate(45.690477 0)scale(0.996264)" xlink:href="#CMR17-30"/>
      </g>
     </g>
    </g>
    <g id="xtick_5">
     <g id="line2d_9">
      <path clip-path="url(#p6b89b106cd)" d="M 359.216928 381.453658 
L 359.216928 13.719295 
" style="fill:none;stroke:#b0b0b0;stroke-dasharray:2.96,1.28;stroke-dashoffset:0;stroke-width:0.8;"/>
     </g>
     <g id="line2d_10">
      <g>
       <use style="stroke:#000000;stroke-width:0.8;" x="359.216928" xlink:href="#m82e032cda1" y="381.453658"/>
      </g>
     </g>
     <g id="text_5">
      <!-- $\mathdefault{40}$ -->
      <g transform="translate(354.235593 395.372156)scale(0.1 -0.1)">
       <defs>
        <path d="M 2150 4122 
C 2150 4256 2144 4256 2029 4256 
L 128 1254 
L 128 1088 
L 1779 1088 
L 1779 457 
C 1779 224 1766 160 1318 160 
L 1197 160 
L 1197 0 
C 1402 0 1747 0 1965 0 
C 2182 0 2528 0 2733 0 
L 2733 160 
L 2611 160 
C 2163 160 2150 224 2150 457 
L 2150 1088 
L 2803 1088 
L 2803 1254 
L 2150 1254 
L 2150 4122 
z
M 1798 3703 
L 1798 1254 
L 256 1254 
L 1798 3703 
z
" id="CMR17-34" transform="scale(0.015625)"/>
       </defs>
       <use transform="scale(0.996264)" xlink:href="#CMR17-34"/>
       <use transform="translate(45.690477 0)scale(0.996264)" xlink:href="#CMR17-30"/>
      </g>
     </g>
    </g>
    <g id="xtick_6">
     <g id="line2d_11">
      <path clip-path="url(#p6b89b106cd)" d="M 421.148346 381.453658 
L 421.148346 13.719295 
" style="fill:none;stroke:#b0b0b0;stroke-dasharray:2.96,1.28;stroke-dashoffset:0;stroke-width:0.8;"/>
     </g>
     <g id="line2d_12">
      <g>
       <use style="stroke:#000000;stroke-width:0.8;" x="421.148346" xlink:href="#m82e032cda1" y="381.453658"/>
      </g>
     </g>
     <g id="text_6">
      <!-- $\mathdefault{50}$ -->
      <g transform="translate(416.167011 395.372156)scale(0.1 -0.1)">
       <defs>
        <path d="M 730 3692 
C 794 3666 1056 3584 1325 3584 
C 1920 3584 2246 3911 2432 4100 
C 2432 4157 2432 4192 2394 4192 
C 2387 4192 2374 4192 2323 4163 
C 2099 4058 1837 3973 1517 3973 
C 1325 3973 1037 3999 723 4139 
C 653 4171 640 4171 634 4171 
C 602 4171 595 4164 595 4037 
L 595 2203 
C 595 2089 595 2057 659 2057 
C 691 2057 704 2070 736 2114 
C 941 2401 1222 2522 1542 2522 
C 1766 2522 2246 2382 2246 1289 
C 2246 1085 2246 715 2054 421 
C 1894 159 1645 25 1370 25 
C 947 25 518 320 403 814 
C 429 807 480 795 506 795 
C 589 795 749 840 749 1038 
C 749 1210 627 1280 506 1280 
C 358 1280 262 1190 262 1011 
C 262 454 704 -128 1382 -128 
C 2042 -128 2669 440 2669 1264 
C 2669 2030 2170 2624 1549 2624 
C 1222 2624 947 2503 730 2274 
L 730 3692 
z
" id="CMR17-35" transform="scale(0.015625)"/>
       </defs>
       <use transform="scale(0.996264)" xlink:href="#CMR17-35"/>
       <use transform="translate(45.690477 0)scale(0.996264)" xlink:href="#CMR17-30"/>
      </g>
     </g>
    </g>
    <g id="xtick_7">
     <g id="line2d_13">
      <path clip-path="url(#p6b89b106cd)" d="M 483.079764 381.453658 
L 483.079764 13.719295 
" style="fill:none;stroke:#b0b0b0;stroke-dasharray:2.96,1.28;stroke-dashoffset:0;stroke-width:0.8;"/>
     </g>
     <g id="line2d_14">
      <g>
       <use style="stroke:#000000;stroke-width:0.8;" x="483.079764" xlink:href="#m82e032cda1" y="381.453658"/>
      </g>
     </g>
     <g id="text_7">
      <!-- $\mathdefault{60}$ -->
      <g transform="translate(478.098429 395.372156)scale(0.1 -0.1)">
       <defs>
        <path d="M 678 2176 
C 678 3690 1395 4032 1811 4032 
C 1946 4032 2272 4009 2400 3776 
C 2298 3776 2106 3776 2106 3553 
C 2106 3381 2246 3323 2336 3323 
C 2394 3323 2566 3348 2566 3560 
C 2566 3954 2246 4179 1805 4179 
C 1043 4179 243 3390 243 1984 
C 243 253 966 -128 1478 -128 
C 2099 -128 2688 427 2688 1283 
C 2688 2081 2170 2662 1517 2662 
C 1126 2662 838 2407 678 1960 
L 678 2176 
z
M 1478 25 
C 691 25 691 1200 691 1436 
C 691 1896 909 2560 1504 2560 
C 1613 2560 1926 2560 2138 2120 
C 2253 1870 2253 1609 2253 1289 
C 2253 944 2253 690 2118 434 
C 1978 171 1773 25 1478 25 
z
" id="CMR17-36" transform="scale(0.015625)"/>
       </defs>
       <use transform="scale(0.996264)" xlink:href="#CMR17-36"/>
       <use transform="translate(45.690477 0)scale(0.996264)" xlink:href="#CMR17-30"/>
      </g>
     </g>
    </g>
    <g id="xtick_8">
     <g id="line2d_15">
      <path clip-path="url(#p6b89b106cd)" d="M 545.011183 381.453658 
L 545.011183 13.719295 
" style="fill:none;stroke:#b0b0b0;stroke-dasharray:2.96,1.28;stroke-dashoffset:0;stroke-width:0.8;"/>
     </g>
     <g id="line2d_16">
      <g>
       <use style="stroke:#000000;stroke-width:0.8;" x="545.011183" xlink:href="#m82e032cda1" y="381.453658"/>
      </g>
     </g>
     <g id="text_8">
      <!-- $\mathdefault{70}$ -->
      <g transform="translate(540.029847 395.372156)scale(0.1 -0.1)">
       <defs>
        <path d="M 2886 3941 
L 2886 4081 
L 1382 4081 
C 634 4081 621 4165 595 4288 
L 480 4288 
L 294 3094 
L 410 3094 
C 429 3215 474 3540 550 3661 
C 589 3712 1062 3712 1171 3712 
L 2579 3712 
L 1869 2661 
C 1395 1954 1069 999 1069 165 
C 1069 89 1069 -128 1299 -128 
C 1530 -128 1530 89 1530 171 
L 1530 465 
C 1530 1508 1709 2196 2003 2636 
L 2886 3941 
z
" id="CMR17-37" transform="scale(0.015625)"/>
       </defs>
       <use transform="scale(0.996264)" xlink:href="#CMR17-37"/>
       <use transform="translate(45.690477 0)scale(0.996264)" xlink:href="#CMR17-30"/>
      </g>
     </g>
    </g>
    <g id="text_9">
     <!-- X ($m$) -->
     <g transform="translate(289.349986 416.235356)scale(0.2 -0.2)">
      <defs>
       <path d="M 2336 2398 
L 3283 3753 
C 3379 3886 3571 4160 4096 4160 
L 4096 4332 
C 3949 4319 3706 4319 3552 4319 
C 3341 4319 3078 4319 2918 4332 
L 2918 4166 
C 3123 4147 3174 4020 3174 3918 
C 3174 3843 3142 3792 3098 3728 
L 2253 2513 
L 1306 3887 
C 1261 3956 1254 3975 1254 3994 
C 1254 4052 1325 4160 1536 4160 
L 1536 4319 
C 1331 4319 1018 4319 806 4319 
C 640 4319 320 4319 166 4332 
L 166 4160 
C 518 4160 634 4148 774 3951 
L 2010 2163 
L 896 549 
C 621 153 205 153 83 153 
L 83 -13 
C 230 0 474 0 627 0 
C 800 0 1101 0 1261 -13 
L 1261 153 
C 1062 172 1005 299 1005 401 
C 1005 483 1037 528 1069 572 
L 2093 2048 
L 3206 422 
C 3258 352 3258 333 3258 314 
C 3258 263 3200 153 2976 153 
L 2976 0 
C 3181 0 3494 0 3706 0 
C 3872 0 4192 0 4346 -13 
L 4346 153 
C 3936 153 3872 184 3744 363 
L 2336 2398 
z
" id="CMR17-58" transform="scale(0.015625)"/>
       <path d="M 1958 -1561 
C 1958 -1555 1958 -1542 1939 -1523 
C 1645 -1224 858 -407 858 1581 
C 858 3569 1632 4379 1946 4697 
C 1946 4704 1958 4717 1958 4736 
C 1958 4755 1939 4768 1914 4768 
C 1843 4768 1299 4296 986 3594 
C 666 2887 576 2199 576 1588 
C 576 1128 621 351 1005 -471 
C 1312 -1135 1837 -1600 1914 -1600 
C 1946 -1600 1958 -1587 1958 -1561 
z
" id="CMR17-28" transform="scale(0.015625)"/>
       <path d="M 1318 1871 
C 1331 1910 1491 2229 1728 2433 
C 1894 2586 2112 2689 2362 2689 
C 2618 2689 2707 2497 2707 2242 
C 2707 2203 2707 2076 2630 1775 
L 2470 1118 
C 2419 926 2298 453 2285 383 
C 2259 287 2221 121 2221 96 
C 2221 6 2291 -64 2387 -64 
C 2579 -64 2611 83 2669 313 
L 3053 1839 
C 3066 1890 3398 2689 4102 2689 
C 4358 2689 4448 2497 4448 2242 
C 4448 1884 4198 1188 4058 805 
C 4000 651 3968 568 3968 453 
C 3968 166 4166 -64 4474 -64 
C 5069 -64 5293 875 5293 913 
C 5293 945 5267 971 5229 971 
C 5171 971 5165 952 5133 843 
C 4986 332 4749 64 4493 64 
C 4429 64 4326 64 4326 269 
C 4326 436 4403 640 4429 710 
C 4544 1018 4832 1773 4832 2145 
C 4832 2528 4608 2816 4122 2816 
C 3693 2816 3347 2574 3091 2197 
C 3072 2542 2861 2816 2381 2816 
C 1811 2816 1510 2415 1395 2255 
C 1376 2618 1114 2816 832 2816 
C 646 2816 499 2727 378 2484 
C 262 2254 173 1865 173 1839 
C 173 1814 198 1782 243 1782 
C 294 1782 301 1788 339 1935 
C 435 2312 557 2689 813 2689 
C 960 2689 1011 2586 1011 2395 
C 1011 2254 947 2005 902 1807 
L 723 1118 
C 698 996 627 709 595 594 
C 550 428 480 128 480 96 
C 480 6 550 -64 646 -64 
C 723 -64 813 -26 864 70 
C 877 102 934 326 966 453 
L 1107 1028 
L 1318 1871 
z
" id="CMMI12-6d" transform="scale(0.015625)"/>
       <path d="M 1683 1581 
C 1683 2040 1638 2817 1254 3639 
C 947 4303 422 4768 346 4768 
C 326 4768 301 4761 301 4729 
C 301 4717 307 4710 314 4697 
C 621 4378 1402 3568 1402 1584 
C 1402 -407 627 -1217 314 -1537 
C 307 -1549 301 -1556 301 -1568 
C 301 -1600 326 -1600 346 -1600 
C 416 -1600 960 -1128 1274 -426 
C 1594 281 1683 969 1683 1581 
z
" id="CMR17-29" transform="scale(0.015625)"/>
      </defs>
      <use transform="scale(0.996264)" xlink:href="#CMR17-58"/>
      <use transform="translate(99.148396 0)scale(0.996264)" xlink:href="#CMR17-28"/>
      <use transform="translate(134.429164 0)scale(0.996264)" xlink:href="#CMMI12-6d"/>
      <use transform="translate(219.756388 0)scale(0.996264)" xlink:href="#CMR17-29"/>
     </g>
    </g>
   </g>
   <g id="matplotlib.axis_2">
    <g id="ytick_1">
     <g id="line2d_17">
      <path clip-path="url(#p6b89b106cd)" d="M 59.40208 360.466837 
L 570.305313 360.466837 
" style="fill:none;stroke:#b0b0b0;stroke-dasharray:2.96,1.28;stroke-dashoffset:0;stroke-width:0.8;"/>
     </g>
     <g id="line2d_18">
      <defs>
       <path d="M 0 0 
L -3.5 0 
" id="m93560f113c" style="stroke:#000000;stroke-width:0.8;"/>
      </defs>
      <g>
       <use style="stroke:#000000;stroke-width:0.8;" x="59.40208" xlink:href="#m93560f113c" y="360.466837"/>
      </g>
     </g>
     <g id="text_10">
      <!-- $\mathdefault{−20}$ -->
      <g transform="translate(34.690666 363.926086)scale(0.1 -0.1)">
       <defs>
        <path d="M 4218 1472 
C 4326 1472 4442 1472 4442 1600 
C 4442 1728 4326 1728 4218 1728 
L 755 1728 
C 646 1728 531 1728 531 1600 
C 531 1472 646 1472 755 1472 
L 4218 1472 
z
" id="CMSY10-0" transform="scale(0.015625)"/>
       </defs>
       <use transform="scale(0.996264)" xlink:href="#CMSY10-0"/>
       <use transform="translate(77.487468 0)scale(0.996264)" xlink:href="#CMR17-32"/>
       <use transform="translate(123.177945 0)scale(0.996264)" xlink:href="#CMR17-30"/>
      </g>
     </g>
    </g>
    <g id="ytick_2">
     <g id="line2d_19">
      <path clip-path="url(#p6b89b106cd)" d="M 59.40208 298.535419 
L 570.305313 298.535419 
" style="fill:none;stroke:#b0b0b0;stroke-dasharray:2.96,1.28;stroke-dashoffset:0;stroke-width:0.8;"/>
     </g>
     <g id="line2d_20">
      <g>
       <use style="stroke:#000000;stroke-width:0.8;" x="59.40208" xlink:href="#m93560f113c" y="298.535419"/>
      </g>
     </g>
     <g id="text_11">
      <!-- $\mathdefault{−10}$ -->
      <g transform="translate(34.690666 301.994668)scale(0.1 -0.1)">
       <use transform="scale(0.996264)" xlink:href="#CMSY10-0"/>
       <use transform="translate(77.487468 0)scale(0.996264)" xlink:href="#CMR17-31"/>
       <use transform="translate(123.177945 0)scale(0.996264)" xlink:href="#CMR17-30"/>
      </g>
     </g>
    </g>
    <g id="ytick_3">
     <g id="line2d_21">
      <path clip-path="url(#p6b89b106cd)" d="M 59.40208 236.604 
L 570.305313 236.604 
" style="fill:none;stroke:#b0b0b0;stroke-dasharray:2.96,1.28;stroke-dashoffset:0;stroke-width:0.8;"/>
     </g>
     <g id="line2d_22">
      <g>
       <use style="stroke:#000000;stroke-width:0.8;" x="59.40208" xlink:href="#m93560f113c" y="236.604"/>
      </g>
     </g>
     <g id="text_12">
      <!-- $\mathdefault{0}$ -->
      <g transform="translate(47.420745 240.06325)scale(0.1 -0.1)">
       <use transform="scale(0.996264)" xlink:href="#CMR17-30"/>
      </g>
     </g>
    </g>
    <g id="ytick_4">
     <g id="line2d_23">
      <path clip-path="url(#p6b89b106cd)" d="M 59.40208 174.672582 
L 570.305313 174.672582 
" style="fill:none;stroke:#b0b0b0;stroke-dasharray:2.96,1.28;stroke-dashoffset:0;stroke-width:0.8;"/>
     </g>
     <g id="line2d_24">
      <g>
       <use style="stroke:#000000;stroke-width:0.8;" x="59.40208" xlink:href="#m93560f113c" y="174.672582"/>
      </g>
     </g>
     <g id="text_13">
      <!-- $\mathdefault{10}$ -->
      <g transform="translate(42.439409 178.131831)scale(0.1 -0.1)">
       <use transform="scale(0.996264)" xlink:href="#CMR17-31"/>
       <use transform="translate(45.690477 0)scale(0.996264)" xlink:href="#CMR17-30"/>
      </g>
     </g>
    </g>
    <g id="ytick_5">
     <g id="line2d_25">
      <path clip-path="url(#p6b89b106cd)" d="M 59.40208 112.741164 
L 570.305313 112.741164 
" style="fill:none;stroke:#b0b0b0;stroke-dasharray:2.96,1.28;stroke-dashoffset:0;stroke-width:0.8;"/>
     </g>
     <g id="line2d_26">
      <g>
       <use style="stroke:#000000;stroke-width:0.8;" x="59.40208" xlink:href="#m93560f113c" y="112.741164"/>
      </g>
     </g>
     <g id="text_14">
      <!-- $\mathdefault{20}$ -->
      <g transform="translate(42.439409 116.200413)scale(0.1 -0.1)">
       <use transform="scale(0.996264)" xlink:href="#CMR17-32"/>
       <use transform="translate(45.690477 0)scale(0.996264)" xlink:href="#CMR17-30"/>
      </g>
     </g>
    </g>
    <g id="ytick_6">
     <g id="line2d_27">
      <path clip-path="url(#p6b89b106cd)" d="M 59.40208 50.809746 
L 570.305313 50.809746 
" style="fill:none;stroke:#b0b0b0;stroke-dasharray:2.96,1.28;stroke-dashoffset:0;stroke-width:0.8;"/>
     </g>
     <g id="line2d_28">
      <g>
       <use style="stroke:#000000;stroke-width:0.8;" x="59.40208" xlink:href="#m93560f113c" y="50.809746"/>
      </g>
     </g>
     <g id="text_15">
      <!-- $\mathdefault{30}$ -->
      <g transform="translate(42.439409 54.268995)scale(0.1 -0.1)">
       <use transform="scale(0.996264)" xlink:href="#CMR17-33"/>
       <use transform="translate(45.690477 0)scale(0.996264)" xlink:href="#CMR17-30"/>
      </g>
     </g>
    </g>
    <g id="text_16">
     <!-- Y ($m$) -->
     <g transform="translate(25.726022 223.090187)rotate(-90)scale(0.2 -0.2)">
      <defs>
       <path d="M 3706 3766 
C 3955 4160 4301 4160 4416 4160 
L 4416 4332 
C 4269 4319 4102 4319 3942 4319 
C 3782 4319 3526 4319 3373 4332 
L 3373 4160 
C 3533 4160 3616 4077 3616 3957 
C 3616 3881 3584 3830 3533 3747 
L 2381 1912 
L 1120 3912 
C 1075 3988 1069 3994 1069 4039 
C 1069 4160 1293 4160 1382 4160 
L 1382 4319 
C 1178 4319 864 4319 653 4319 
C 486 4319 166 4319 13 4332 
L 13 4160 
C 378 4160 480 4141 595 3958 
L 2010 1728 
L 2010 445 
C 2010 160 1939 160 1498 160 
L 1498 0 
C 1683 0 2016 0 2214 0 
C 2413 0 2752 0 2938 0 
L 2938 160 
C 2477 160 2419 160 2419 471 
L 2419 1728 
L 3706 3766 
z
" id="CMR17-59" transform="scale(0.015625)"/>
      </defs>
      <use transform="scale(0.996264)" xlink:href="#CMR17-59"/>
      <use transform="translate(99.148396 0)scale(0.996264)" xlink:href="#CMR17-28"/>
      <use transform="translate(134.429164 0)scale(0.996264)" xlink:href="#CMMI12-6d"/>
      <use transform="translate(219.756388 0)scale(0.996264)" xlink:href="#CMR17-29"/>
     </g>
    </g>
   </g>
   <g id="line2d_29">
    <defs>
     <path d="M -4 0 
L 4 0 
M 0 4 
L 0 -4 
" id="mdff6bea318" style="stroke:#000000;stroke-width:3;"/>
    </defs>
    <g clip-path="url(#p6b89b106cd)">
     <use style="stroke:#000000;stroke-width:3;" x="85.399739" xlink:href="#mdff6bea318" y="259.319943"/>
     <use style="stroke:#000000;stroke-width:3;" x="90.669886" xlink:href="#mdff6bea318" y="248.917759"/>
     <use style="stroke:#000000;stroke-width:3;" x="101.881268" xlink:href="#mdff6bea318" y="243.001231"/>
     <use style="stroke:#000000;stroke-width:3;" x="130.277288" xlink:href="#mdff6bea318" y="235.698898"/>
     <use style="stroke:#000000;stroke-width:3;" x="153.594033" xlink:href="#mdff6bea318" y="237.694297"/>
     <use style="stroke:#000000;stroke-width:3;" x="155.098471" xlink:href="#mdff6bea318" y="237.854421"/>
     <use style="stroke:#000000;stroke-width:3;" x="179.977963" xlink:href="#mdff6bea318" y="237.656952"/>
     <use style="stroke:#000000;stroke-width:3;" x="214.936391" xlink:href="#mdff6bea318" y="227.698941"/>
     <use style="stroke:#000000;stroke-width:3;" x="234.132344" xlink:href="#mdff6bea318" y="208.634001"/>
     <use style="stroke:#000000;stroke-width:3;" x="252.953611" xlink:href="#mdff6bea318" y="190.429229"/>
     <use style="stroke:#000000;stroke-width:3;" x="277.299781" xlink:href="#mdff6bea318" y="180.165738"/>
     <use style="stroke:#000000;stroke-width:3;" x="289.779271" xlink:href="#mdff6bea318" y="178.148632"/>
     <use style="stroke:#000000;stroke-width:3;" x="320.80846" xlink:href="#mdff6bea318" y="146.37416"/>
     <use style="stroke:#000000;stroke-width:3;" x="334.919224" xlink:href="#mdff6bea318" y="132.240482"/>
     <use style="stroke:#000000;stroke-width:3;" x="345.18188" xlink:href="#mdff6bea318" y="128.170968"/>
     <use style="stroke:#000000;stroke-width:3;" x="365.070226" xlink:href="#mdff6bea318" y="124.508963"/>
     <use style="stroke:#000000;stroke-width:3;" x="408.031741" xlink:href="#mdff6bea318" y="130.133265"/>
     <use style="stroke:#000000;stroke-width:3;" x="432.769936" xlink:href="#mdff6bea318" y="129.02748"/>
     <use style="stroke:#000000;stroke-width:3;" x="456.825338" xlink:href="#mdff6bea318" y="118.681836"/>
     <use style="stroke:#000000;stroke-width:3;" x="483.211838" xlink:href="#mdff6bea318" y="90.152819"/>
     <use style="stroke:#000000;stroke-width:3;" x="493.60331" xlink:href="#mdff6bea318" y="80.587821"/>
     <use style="stroke:#000000;stroke-width:3;" x="514.539226" xlink:href="#mdff6bea318" y="68.638154"/>
     <use style="stroke:#000000;stroke-width:3;" x="534.706883" xlink:href="#mdff6bea318" y="70.674768"/>
     <use style="stroke:#000000;stroke-width:3;" x="545.016296" xlink:href="#mdff6bea318" y="76.115753"/>
     <use style="stroke:#000000;stroke-width:3;" x="546.551267" xlink:href="#mdff6bea318" y="87.260312"/>
     <use style="stroke:#000000;stroke-width:3;" x="535.668988" xlink:href="#mdff6bea318" y="113.202144"/>
     <use style="stroke:#000000;stroke-width:3;" x="520.104074" xlink:href="#mdff6bea318" y="137.059365"/>
     <use style="stroke:#000000;stroke-width:3;" x="505.37028" xlink:href="#mdff6bea318" y="160.828334"/>
     <use style="stroke:#000000;stroke-width:3;" x="498.034813" xlink:href="#mdff6bea318" y="171.10288"/>
     <use style="stroke:#000000;stroke-width:3;" x="471.260313" xlink:href="#mdff6bea318" y="183.215179"/>
     <use style="stroke:#000000;stroke-width:3;" x="443.016489" xlink:href="#mdff6bea318" y="184.34806"/>
     <use style="stroke:#000000;stroke-width:3;" x="415.974755" xlink:href="#mdff6bea318" y="185.894394"/>
     <use style="stroke:#000000;stroke-width:3;" x="392.404276" xlink:href="#mdff6bea318" y="187.605405"/>
     <use style="stroke:#000000;stroke-width:3;" x="370.437512" xlink:href="#mdff6bea318" y="198.125695"/>
     <use style="stroke:#000000;stroke-width:3;" x="344.390396" xlink:href="#mdff6bea318" y="203.971773"/>
     <use style="stroke:#000000;stroke-width:3;" x="333.783402" xlink:href="#mdff6bea318" y="204.406624"/>
     <use style="stroke:#000000;stroke-width:3;" x="298.98197" xlink:href="#mdff6bea318" y="228.577419"/>
     <use style="stroke:#000000;stroke-width:3;" x="281.182262" xlink:href="#mdff6bea318" y="248.508266"/>
     <use style="stroke:#000000;stroke-width:3;" x="271.363345" xlink:href="#mdff6bea318" y="257.817146"/>
     <use style="stroke:#000000;stroke-width:3;" x="247.173552" xlink:href="#mdff6bea318" y="275.80652"/>
     <use style="stroke:#000000;stroke-width:3;" x="218.834045" xlink:href="#mdff6bea318" y="293.822587"/>
     <use style="stroke:#000000;stroke-width:3;" x="190.680641" xlink:href="#mdff6bea318" y="310.137242"/>
     <use style="stroke:#000000;stroke-width:3;" x="163.876228" xlink:href="#mdff6bea318" y="323.843594"/>
     <use style="stroke:#000000;stroke-width:3;" x="134.199807" xlink:href="#mdff6bea318" y="326.749106"/>
     <use style="stroke:#000000;stroke-width:3;" x="106.337828" xlink:href="#mdff6bea318" y="319.098409"/>
     <use style="stroke:#000000;stroke-width:3;" x="95.783352" xlink:href="#mdff6bea318" y="310.006257"/>
     <use style="stroke:#000000;stroke-width:3;" x="83.214736" xlink:href="#mdff6bea318" y="284.31277"/>
    </g>
   </g>
   <g id="line2d_30">
    <path clip-path="url(#p6b89b106cd)" d="M 85.407163 259.326591 
L 86.550856 255.904726 
L 87.543354 253.569166 
L 88.606601 251.607178 
L 89.716125 250.01529 
L 90.833936 248.767758 
L 92.096869 247.66921 
L 93.694989 246.574768 
L 95.651235 245.510939 
L 98.204521 244.38784 
L 102.557464 242.765795 
L 111.931234 239.487566 
L 116.940247 237.976907 
L 120.996884 236.972184 
L 124.828579 236.255162 
L 128.200691 235.844407 
L 131.354561 235.670225 
L 134.777316 235.703636 
L 138.962395 235.983115 
L 144.408675 236.58878 
L 155.562436 237.879336 
L 160.744178 238.197341 
L 166.169952 238.304018 
L 171.858984 238.187405 
L 177.835828 237.839456 
L 184.125094 237.251137 
L 189.423416 236.547728 
L 194.178548 235.700184 
L 198.365901 234.738626 
L 202.220467 233.632151 
L 205.734834 232.396139 
L 208.909267 231.051649 
L 211.750357 229.624136 
L 214.474764 228.011323 
L 217.071714 226.204319 
L 219.736492 224.060085 
L 222.463816 221.57174 
L 225.427981 218.563787 
L 229.125051 214.469274 
L 241.086346 200.928079 
L 244.591935 197.421122 
L 247.880943 194.432916 
L 251.131915 191.787449 
L 254.137447 189.618122 
L 257.277677 187.620898 
L 260.542434 185.809448 
L 263.920438 184.197263 
L 267.165432 182.884229 
L 270.490067 181.767483 
L 273.885127 180.857975 
L 277.341447 180.166685 
L 281.588991 179.579197 
L 286.994677 178.802379 
L 289.581965 178.212777 
L 291.832928 177.47364 
L 293.986851 176.536899 
L 296.25213 175.295389 
L 298.417228 173.851325 
L 300.675467 172.067481 
L 303.01311 169.917521 
L 305.420694 167.384624 
L 308.056082 164.263135 
L 310.906103 160.532824 
L 314.734575 155.119921 
L 322.023537 144.736278 
L 324.875802 141.109834 
L 327.207988 138.484215 
L 329.497412 136.241563 
L 331.742232 134.370111 
L 333.930872 132.846762 
L 336.04344 131.639066 
L 338.49401 130.496185 
L 341.516847 129.34468 
L 345.587144 128.060416 
L 350.671354 126.690109 
L 355.054281 125.729482 
L 359.207738 125.044311 
L 363.123528 124.629528 
L 366.795815 124.469611 
L 370.467252 124.529169 
L 374.628222 124.822378 
L 379.280237 125.377411 
L 385.161459 126.321229 
L 406.087551 129.923823 
L 410.796526 130.37689 
L 415.265802 130.582947 
L 419.73503 130.558425 
L 423.948589 130.312134 
L 428.148091 129.838194 
L 432.0816 129.17464 
L 435.989003 128.29161 
L 439.849322 127.184449 
L 443.401973 125.940099 
L 446.86792 124.493401 
L 450.22524 122.841744 
L 453.241391 121.113011 
L 456.125952 119.201374 
L 458.863778 117.106714 
L 461.644624 114.678848 
L 464.465445 111.914987 
L 467.662871 108.451875 
L 471.543767 103.892647 
L 481.472724 92.043891 
L 484.69446 88.645594 
L 488.069852 85.411466 
L 492.176697 81.79719 
L 496.905092 77.933977 
L 500.616644 75.183181 
L 503.81192 73.096258 
L 506.652916 71.504196 
L 509.331916 70.260129 
L 511.833468 69.345595 
L 514.144179 68.72883 
L 516.488436 68.336514 
L 518.865627 68.159338 
L 521.518143 68.187653 
L 524.45586 68.453056 
L 527.68955 68.975285 
L 531.485656 69.821851 
L 536.127394 71.08881 
L 539.168352 72.110519 
L 541.2791 73.054655 
L 542.753392 73.935405 
L 544.033393 74.973746 
L 544.942717 76.009582 
L 545.655246 77.192909 
L 546.180287 78.508217 
L 546.581959 80.176624 
L 546.786079 81.951851 
L 546.817547 84.061123 
L 546.62231 86.732633 
L 546.150851 89.85883 
L 545.470216 92.864834 
L 544.522051 96.000516 
L 543.381438 99.02659 
L 541.862023 102.403495 
L 539.927658 106.112626 
L 537.443257 110.363796 
L 533.361573 116.841099 
L 525.884698 128.240627 
L 517.925732 140.491699 
L 510.883887 151.829956 
L 501.947532 166.214586 
L 500.039628 168.806091 
L 498.279049 170.858545 
L 496.351346 172.745973 
L 494.261104 174.463602 
L 492.025781 176.017333 
L 489.442463 177.532354 
L 486.730104 178.867064 
L 483.672467 180.118431 
L 480.519055 181.176971 
L 477.049091 182.112496 
L 473.286249 182.893124 
L 469.268919 183.490115 
L 465.023254 183.894426 
L 460.055113 184.141514 
L 453.137465 184.240957 
L 442.074132 184.387763 
L 435.442487 184.748463 
L 417.103611 185.875019 
L 410.556071 185.937389 
L 403.276937 186.056553 
L 399.325048 186.340513 
L 395.930566 186.811318 
L 393.081798 187.43028 
L 390.528199 188.203714 
L 387.799469 189.254921 
L 384.671666 190.693362 
L 380.481826 192.881196 
L 371.618568 197.583009 
L 368.193232 199.103905 
L 364.691729 200.410338 
L 361.123628 201.506667 
L 357.498779 202.397918 
L 353.580886 203.128216 
L 349.621768 203.637 
L 345.63378 203.930372 
L 340.880887 204.036764 
L 335.928528 204.196962 
L 333.262923 204.489085 
L 330.655035 205.006462 
L 328.105098 205.741792 
L 325.388039 206.773704 
L 322.736775 208.025106 
L 319.936957 209.604352 
L 317.003611 211.535504 
L 313.951975 213.833098 
L 310.797405 216.499613 
L 307.367722 219.705458 
L 303.518755 223.630905 
L 298.968032 228.60803 
L 290.877747 237.856104 
L 284.350146 245.170523 
L 279.941457 249.788589 
L 275.682621 253.932595 
L 271.256283 257.923061 
L 266.684015 261.732268 
L 261.59319 265.677583 
L 255.57994 270.045316 
L 247.818644 275.383863 
L 237.270855 282.360784 
L 227.439989 288.602416 
L 218.13629 294.24763 
L 207.241114 300.569569 
L 189.411899 310.904196 
L 178.841778 317.095726 
L 174.008808 319.646454 
L 169.984302 321.528572 
L 166.339579 322.999639 
L 162.854454 324.171071 
L 159.299999 325.124698 
L 155.683992 325.870462 
L 151.769058 326.450891 
L 147.555765 326.84101 
L 143.299817 327.015487 
L 138.761353 326.985418 
L 133.951451 326.737391 
L 129.144749 326.278075 
L 124.880582 325.658132 
L 120.929095 324.862886 
L 117.303669 323.90526 
L 114.009158 322.805365 
L 111.043368 321.588939 
L 108.182438 320.16915 
L 105.647193 318.665126 
L 103.221413 316.97297 
L 100.718447 314.945346 
L 98.34616 312.736684 
L 95.93837 310.180664 
L 93.685773 307.465554 
L 91.600201 304.609266 
L 89.696231 301.627412 
L 87.988429 298.535566 
L 86.491374 295.349356 
L 85.30269 292.319845 
L 84.319951 289.23488 
L 83.554824 286.10697 
L 83.018664 282.94847 
L 82.712635 279.768216 
L 82.62579 276.570799 
L 82.764014 273.113215 
L 83.128346 269.646196 
L 83.753064 265.927231 
L 84.602718 262.210346 
L 85.358374 259.489816 
L 85.358374 259.489816 
" style="fill:none;stroke:#000000;stroke-linecap:square;stroke-width:2;"/>
   </g>
   <g id="line2d_31">
    <path clip-path="url(#p6b89b106cd)" d="M 85.399739 259.319943 
L 86.296787 256.334358 
L 87.211442 254.045707 
L 88.205698 252.14139 
L 89.232963 250.597804 
L 90.447541 249.149118 
L 91.845062 247.832283 
L 93.349611 246.708472 
L 95.215161 245.60626 
L 97.462434 244.564918 
L 100.389391 243.486585 
L 106.014226 241.723982 
L 120.805367 237.281288 
L 124.726406 236.419164 
L 128.099511 235.904724 
L 131.209293 235.642033 
L 134.613443 235.587786 
L 138.306297 235.771241 
L 142.594567 236.21967 
L 158.521887 238.140382 
L 163.188704 238.344321 
L 168.164892 238.341326 
L 173.761336 238.115284 
L 180.292986 237.628829 
L 186.875371 236.922035 
L 192.143411 236.137276 
L 196.424346 235.289319 
L 200.340282 234.29404 
L 203.894526 233.16305 
L 207.093825 231.920032 
L 210.229813 230.454758 
L 213.02007 228.909805 
L 215.720783 227.164833 
L 218.485828 225.094617 
L 221.093632 222.866078 
L 224.007685 220.0633 
L 227.200315 216.658421 
L 231.699686 211.480186 
L 238.219327 203.997409 
L 242.033363 199.964824 
L 245.573421 196.535181 
L 249.048788 193.481755 
L 252.453133 190.798001 
L 255.561805 188.614353 
L 258.772727 186.628855 
L 261.799623 185.007005 
L 264.911712 183.587246 
L 268.113207 182.379566 
L 271.406411 181.38943 
L 274.789287 180.612007 
L 278.82423 179.935586 
L 288.274001 178.497438 
L 291.171259 177.771582 
L 293.809844 176.875503 
L 296.260393 175.795797 
L 298.538507 174.547702 
L 300.661289 173.147919 
L 302.883247 171.410887 
L 304.94826 169.520593 
L 307.080312 167.261667 
L 309.254882 164.610166 
L 311.458887 161.553312 
L 313.865329 157.825954 
L 317.960257 150.97241 
L 320.983034 146.107489 
L 323.34225 142.730375 
L 325.502878 140.036918 
L 327.63193 137.752899 
L 329.70418 135.853131 
L 331.941505 134.118171 
L 334.079785 132.72529 
L 336.55867 131.383186 
L 339.36511 130.141056 
L 342.537768 128.990515 
L 346.685191 127.745022 
L 351.522706 126.528182 
L 356.095124 125.589693 
L 360.402429 124.929455 
L 364.444363 124.546075 
L 368.203774 124.415196 
L 371.93836 124.498774 
L 375.955931 124.804954 
L 380.56158 125.387471 
L 386.057858 126.319473 
L 405.264965 129.809622 
L 409.89853 130.305912 
L 414.247447 130.553853 
L 418.586319 130.577084 
L 422.914979 130.371851 
L 427.233328 129.935927 
L 431.541137 129.264219 
L 435.526505 128.419244 
L 439.43044 127.359839 
L 442.947662 126.181006 
L 446.375901 124.795275 
L 449.43479 123.330488 
L 452.408371 121.667347 
L 455.291832 119.794662 
L 458.069082 117.71482 
L 460.688855 115.479665 
L 463.385725 112.892347 
L 466.361674 109.716206 
L 469.80491 105.701847 
L 480.211798 93.306678 
L 483.645717 89.717477 
L 487.418938 86.109682 
L 493.140791 80.992049 
L 498.405021 76.531338 
L 501.385692 74.272027 
L 503.972341 72.569298 
L 506.407164 71.224025 
L 508.674595 70.208935 
L 511.054833 69.391483 
L 513.241912 68.859073 
L 515.491506 68.519596 
L 518.014234 68.368655 
L 520.827751 68.441984 
L 523.931091 68.749135 
L 528.25132 69.421232 
L 534.400244 70.607459 
L 537.46152 71.370486 
L 539.51671 72.077022 
L 541.1856 72.858272 
L 542.743545 73.84974 
L 543.937908 74.872874 
L 545.016296 76.115753 
L 545.757111 77.275494 
L 546.418002 78.761686 
L 546.835054 80.281463 
L 547.044731 81.829802 
L 547.060412 83.720305 
L 546.85739 85.64093 
L 546.409219 87.871204 
L 545.556663 90.865964 
L 544.219559 94.663182 
L 542.257689 99.539277 
L 539.741681 105.188637 
L 537.280368 110.190462 
L 534.756057 114.824709 
L 531.884766 119.605959 
L 528.333912 125.052938 
L 521.323004 135.266744 
L 516.332096 142.763941 
L 512.044967 149.611502 
L 506.168518 159.495249 
L 502.91414 164.749785 
L 500.794507 167.776483 
L 498.86116 170.179513 
L 496.878489 172.299322 
L 494.71142 174.263509 
L 492.438551 175.993821 
L 490.066973 177.505937 
L 487.603925 178.815855 
L 484.768079 180.052198 
L 481.836088 181.076013 
L 478.816104 181.905316 
L 475.402433 182.614871 
L 471.582628 183.177161 
L 467.233943 183.587989 
L 461.960012 183.859153 
L 453.263064 184.044665 
L 443.947346 184.304276 
L 436.491059 184.754285 
L 420.957898 185.784029 
L 414.728114 185.900568 
L 402.577788 186.021613 
L 398.859844 186.342892 
L 395.776617 186.818086 
L 392.709957 187.521493 
L 389.732319 188.450174 
L 386.854289 189.578426 
L 383.502775 191.145563 
L 379.145171 193.46702 
L 371.268545 197.719617 
L 367.549732 199.433491 
L 364.331158 200.684868 
L 361.065701 201.727356 
L 357.752795 202.558436 
L 354.393375 203.182271 
L 350.678388 203.639313 
L 346.602198 203.904445 
L 340.330734 204.039335 
L 335.651222 204.232258 
L 332.401176 204.585188 
L 329.404386 205.14997 
L 326.563018 205.938531 
L 323.866761 206.936025 
L 321.302714 208.123876 
L 318.593623 209.645068 
L 316.016472 211.35623 
L 313.31642 213.432615 
L 310.510238 215.898371 
L 307.605667 218.764643 
L 304.385685 222.261137 
L 299.807119 227.596768 
L 290.694612 238.256654 
L 285.265961 244.239977 
L 280.100907 249.602411 
L 275.468605 254.102244 
L 271.128312 258.021896 
L 266.590887 261.815573 
L 261.679163 265.626732 
L 255.894349 269.826243 
L 248.206228 275.111968 
L 237.053407 282.490962 
L 227.345939 288.665394 
L 218.834045 293.822587 
L 208.906588 299.55994 
L 193.074174 308.704992 
L 177.272888 318.002131 
L 172.848851 320.257712 
L 168.87229 322.02497 
L 165.366613 323.349683 
L 161.75347 324.475728 
L 158.096325 325.374201 
L 154.417593 326.052189 
L 150.410193 326.560871 
L 146.07177 326.876208 
L 141.400784 326.982458 
L 136.396072 326.867756 
L 131.359582 326.53278 
L 126.673786 325.997755 
L 122.670963 325.322115 
L 119.034357 324.486105 
L 115.758346 323.510198 
L 112.834475 322.425187 
L 109.968316 321.130004 
L 107.165541 319.603993 
L 104.518554 317.890083 
L 102.043404 316.020178 
L 99.474499 313.784792 
L 97.04993 311.381857 
L 94.521083 308.547093 
L 92.163228 305.547226 
L 90.198262 302.701274 
L 88.430086 299.759057 
L 86.872102 296.714019 
L 85.651885 293.84986 
L 84.632894 290.887266 
L 83.830271 287.81883 
L 83.305131 284.960762 
L 82.960783 281.803274 
L 82.840247 278.683618 
L 82.923995 275.270911 
L 83.259452 271.258386 
L 83.843935 266.95672 
L 84.687677 262.366808 
L 85.321318 259.623999 
L 85.321318 259.623999 
" style="fill:none;stroke:#0072bd;stroke-linecap:square;stroke-width:2;"/>
   </g>
   <g id="patch_3">
    <path d="M 59.40208 381.453658 
L 59.40208 13.719295 
" style="fill:none;stroke:#000000;stroke-linecap:square;stroke-linejoin:miter;stroke-width:0.8;"/>
   </g>
   <g id="patch_4">
    <path d="M 570.305313 381.453658 
L 570.305313 13.719295 
" style="fill:none;stroke:#000000;stroke-linecap:square;stroke-linejoin:miter;stroke-width:0.8;"/>
   </g>
   <g id="patch_5">
    <path d="M 59.40208 381.453658 
L 570.305313 381.453658 
" style="fill:none;stroke:#000000;stroke-linecap:square;stroke-linejoin:miter;stroke-width:0.8;"/>
   </g>
   <g id="patch_6">
    <path d="M 59.40208 13.719295 
L 570.305313 13.719295 
" style="fill:none;stroke:#000000;stroke-linecap:square;stroke-linejoin:miter;stroke-width:0.8;"/>
   </g>
   <g id="legend_1">
    <g id="patch_7">
     <path d="M 345.889321 373.953658 
L 559.805313 373.953658 
Q 562.805313 373.953658 562.805313 370.953658 
L 562.805313 309.736423 
Q 562.805313 306.736423 559.805313 306.736423 
L 345.889321 306.736423 
Q 342.889321 306.736423 342.889321 309.736423 
L 342.889321 370.953658 
Q 342.889321 373.953658 345.889321 373.953658 
z
" style="fill:#ffffff;opacity:0.8;stroke:#cccccc;stroke-linejoin:miter;"/>
    </g>
    <g id="line2d_32"/>
    <g id="line2d_33">
     <g>
      <use style="stroke:#000000;stroke-width:3;" x="363.889321" xlink:href="#mdff6bea318" y="317.986423"/>
     </g>
    </g>
    <g id="text_17">
     <!-- Fixed points -->
     <g transform="translate(390.889321 323.236423)scale(0.15 -0.15)">
      <defs>
       <path d="M 3482 4325 
L 326 4325 
L 326 4160 
C 768 4160 838 4160 838 3874 
L 838 446 
C 838 160 768 160 326 160 
L 326 0 
C 512 0 870 0 1069 0 
C 1331 0 1638 0 1901 0 
L 1901 160 
L 1760 160 
C 1274 160 1261 223 1261 452 
L 1261 2075 
L 1837 2075 
C 2432 2075 2490 1865 2490 1332 
L 2605 1332 
L 2605 2987 
L 2490 2987 
C 2490 2450 2432 2240 1837 2240 
L 1261 2240 
L 1261 3911 
C 1261 4128 1274 4160 1530 4160 
L 2355 4160 
C 3322 4160 3430 3765 3520 2916 
L 3635 2916 
L 3482 4325 
z
" id="CMR17-46" transform="scale(0.015625)"/>
       <path d="M 992 3909 
C 992 4049 877 4170 730 4170 
C 589 4170 467 4056 467 3909 
C 467 3769 582 3648 730 3648 
C 870 3648 992 3763 992 3909 
z
M 243 2706 
L 243 2541 
C 602 2541 653 2502 653 2197 
L 653 427 
C 653 184 627 153 218 153 
L 218 -13 
C 371 0 646 0 806 0 
C 960 0 1222 0 1370 -13 
L 1370 153 
C 992 153 979 191 979 420 
L 979 2776 
L 243 2706 
z
" id="CMR17-69" transform="scale(0.015625)"/>
       <path d="M 1664 1477 
C 1856 1726 2074 2006 2253 2216 
C 2464 2458 2707 2560 2989 2560 
L 2989 2726 
C 2880 2726 2656 2726 2541 2726 
C 2368 2726 2170 2726 2022 2732 
L 2022 2566 
C 2112 2553 2163 2489 2163 2400 
C 2163 2285 2099 2215 2067 2171 
L 1594 1573 
L 1030 2306 
C 973 2376 973 2388 973 2420 
C 973 2497 1037 2560 1146 2560 
L 1146 2732 
C 992 2726 717 2726 557 2726 
C 384 2726 179 2726 38 2732 
L 38 2560 
C 384 2560 461 2534 614 2343 
L 1350 1395 
C 1363 1382 1395 1344 1395 1325 
C 1395 1299 838 619 768 530 
C 480 185 179 160 6 160 
L 6 0 
C 115 0 339 0 454 0 
C 582 0 864 0 979 -6 
L 979 160 
C 941 166 838 179 838 325 
C 838 440 890 510 947 586 
L 1478 1236 
L 2035 512 
C 2086 442 2163 346 2163 301 
C 2163 211 2086 160 1984 160 
L 1984 -6 
C 2138 0 2413 0 2573 0 
C 2746 0 2950 0 3091 -6 
L 3091 160 
C 2771 160 2675 172 2522 370 
L 1664 1477 
z
" id="CMR17-78" transform="scale(0.015625)"/>
       <path d="M 2438 1472 
C 2464 1498 2464 1511 2464 1576 
C 2464 2238 2118 2816 1389 2816 
C 710 2816 173 2169 173 1383 
C 173 551 781 -64 1459 -64 
C 2176 -64 2458 607 2458 740 
C 2458 784 2419 784 2406 784 
C 2362 784 2355 771 2330 696 
C 2189 265 1837 51 1504 51 
C 1229 51 954 203 781 480 
C 582 803 582 1176 582 1472 
L 2438 1472 
z
M 589 1568 
C 634 2505 1126 2714 1382 2714 
C 1818 2714 2112 2297 2118 1568 
L 589 1568 
z
" id="CMR17-65" transform="scale(0.015625)"/>
       <path d="M 1869 4326 
L 1869 4160 
C 2246 4160 2304 4122 2304 3820 
L 2304 2345 
C 2278 2377 2016 2790 1498 2790 
C 845 2790 211 2208 211 1364 
C 211 525 806 -64 1434 -64 
C 1978 -64 2259 337 2291 380 
L 2291 -63 
L 3066 -63 
L 3066 128 
C 2688 128 2630 166 2630 473 
L 2630 4396 
L 1869 4326 
z
M 2291 755 
C 2291 563 2176 390 2029 262 
C 1811 70 1594 38 1472 38 
C 1286 38 621 134 621 1356 
C 621 2612 1363 2688 1530 2688 
C 1824 2688 2061 2522 2208 2291 
C 2291 2157 2291 2138 2291 2023 
L 2291 755 
z
" id="CMR17-64" transform="scale(0.015625)"/>
       <path d="M 1408 -1063 
C 998 -1063 973 -1037 973 -789 
L 973 402 
C 1158 134 1427 -38 1766 -38 
C 2406 -38 3053 523 3053 1388 
C 3053 2191 2496 2802 1837 2802 
C 1453 2802 1139 2592 960 2338 
L 960 2802 
L 198 2732 
L 198 2567 
C 576 2567 634 2528 634 2223 
L 634 -789 
C 634 -1031 608 -1063 198 -1063 
L 198 -1228 
C 352 -1216 634 -1216 800 -1216 
C 966 -1216 1254 -1216 1408 -1228 
L 1408 -1063 
z
M 973 2012 
C 973 2102 973 2235 1222 2471 
C 1254 2497 1472 2688 1792 2688 
C 2259 2688 2643 2108 2643 1382 
C 2643 656 2234 64 1728 64 
C 1498 64 1248 172 1056 472 
C 973 612 973 650 973 752 
L 973 2012 
z
" id="CMR17-70" transform="scale(0.015625)"/>
       <path d="M 2758 1356 
C 2758 2176 2163 2816 1466 2816 
C 768 2816 173 2176 173 1356 
C 173 551 768 -64 1466 -64 
C 2163 -64 2758 551 2758 1356 
z
M 1466 51 
C 1165 51 909 230 762 480 
C 602 767 582 1126 582 1408 
C 582 1677 595 2010 762 2298 
C 890 2509 1139 2714 1466 2714 
C 1754 2714 1997 2554 2150 2330 
C 2349 2029 2349 1607 2349 1408 
C 2349 1158 2336 775 2163 467 
C 1984 173 1709 51 1466 51 
z
" id="CMR17-6f" transform="scale(0.015625)"/>
       <path d="M 2656 1933 
C 2656 2259 2592 2790 1837 2790 
C 1331 2790 1069 2400 973 2144 
L 966 2144 
L 966 2790 
L 211 2720 
L 211 2554 
C 589 2554 646 2515 646 2208 
L 646 428 
C 646 184 621 153 211 153 
L 211 -13 
C 365 0 646 0 813 0 
C 979 0 1267 0 1421 -13 
L 1421 153 
C 1011 153 986 178 986 428 
L 986 1658 
C 986 2247 1344 2688 1792 2688 
C 2266 2688 2317 2266 2317 1958 
L 2317 428 
C 2317 184 2291 153 1882 153 
L 1882 -13 
C 2035 0 2317 0 2483 0 
C 2650 0 2938 0 3091 -13 
L 3091 153 
C 2682 153 2656 178 2656 428 
L 2656 1933 
z
" id="CMR17-6e" transform="scale(0.015625)"/>
       <path d="M 966 2560 
L 1862 2560 
L 1862 2725 
L 966 2725 
L 966 3904 
L 851 3904 
C 838 3245 614 2668 70 2668 
L 70 2560 
L 627 2560 
L 627 771 
C 627 650 627 -64 1370 -64 
C 1747 -64 1965 306 1965 777 
L 1965 1140 
L 1850 1140 
L 1850 783 
C 1850 344 1677 51 1408 51 
C 1222 51 966 178 966 758 
L 966 2560 
z
" id="CMR17-74" transform="scale(0.015625)"/>
       <path d="M 1978 2697 
C 1978 2813 1971 2819 1933 2819 
C 1907 2819 1901 2813 1824 2717 
C 1805 2691 1747 2626 1728 2601 
C 1523 2819 1235 2819 1126 2819 
C 416 2819 160 2447 160 2076 
C 160 1498 813 1365 998 1325 
C 1402 1243 1542 1217 1677 1101 
C 1760 1025 1901 884 1901 654 
C 1901 384 1747 38 1158 38 
C 602 38 403 460 288 1021 
C 269 1110 269 1117 218 1117 
C 166 1117 160 1110 160 983 
L 160 63 
C 160 -51 166 -58 205 -58 
C 237 -58 243 -51 275 0 
C 314 57 410 211 448 276 
C 576 103 800 -64 1158 -64 
C 1792 -64 2131 283 2131 784 
C 2131 1112 1958 1285 1875 1362 
C 1683 1561 1459 1606 1190 1657 
C 838 1735 390 1825 390 2217 
C 390 2383 480 2737 1126 2737 
C 1811 2737 1850 2094 1862 1888 
C 1869 1856 1901 1849 1920 1849 
C 1978 1849 1978 1869 1978 1978 
L 1978 2697 
z
" id="CMR17-73" transform="scale(0.015625)"/>
      </defs>
      <use transform="scale(0.996264)" xlink:href="#CMR17-46"/>
      <use transform="translate(59.983847 0)scale(0.996264)" xlink:href="#CMR17-69"/>
      <use transform="translate(84.854905 0)scale(0.996264)" xlink:href="#CMR17-78"/>
      <use transform="translate(133.147821 0)scale(0.996264)" xlink:href="#CMR17-65"/>
      <use transform="translate(173.633481 0)scale(0.996264)" xlink:href="#CMR17-64"/>
      <use transform="translate(254.604818 0)scale(0.996264)" xlink:href="#CMR17-70"/>
      <use transform="translate(308.102626 0)scale(0.996264)" xlink:href="#CMR17-6f"/>
      <use transform="translate(353.793103 0)scale(0.996264)" xlink:href="#CMR17-69"/>
      <use transform="translate(378.664162 0)scale(0.996264)" xlink:href="#CMR17-6e"/>
      <use transform="translate(426.957077 0)scale(0.996264)" xlink:href="#CMR17-74"/>
      <use transform="translate(462.237845 0)scale(0.996264)" xlink:href="#CMR17-73"/>
     </g>
    </g>
    <g id="line2d_34">
     <path d="M 348.889321 338.892168 
L 378.889321 338.892168 
" style="fill:none;stroke:#000000;stroke-linecap:square;stroke-width:2;"/>
    </g>
    <g id="line2d_35"/>
    <g id="text_18">
     <!-- Cubic spline interpolation -->
     <g transform="translate(390.889321 344.142168)scale(0.15 -0.15)">
      <defs>
       <path d="M 3974 4289 
C 3974 4403 3968 4410 3930 4410 
C 3904 4410 3898 4403 3853 4327 
L 3571 3792 
C 3258 4187 2874 4416 2381 4416 
C 1286 4416 294 3456 294 2148 
C 294 826 1286 -128 2387 -128 
C 3366 -128 3974 730 3974 1461 
C 3974 1524 3974 1550 3917 1550 
C 3866 1550 3866 1531 3859 1474 
C 3808 585 3168 38 2477 38 
C 1824 38 781 495 781 2147 
C 781 3805 1843 4250 2464 4250 
C 3187 4250 3712 3628 3834 2745 
C 3846 2668 3846 2655 3904 2655 
C 3974 2655 3974 2668 3974 2783 
L 3974 4289 
z
" id="CMR17-43" transform="scale(0.015625)"/>
       <path d="M 1882 2693 
L 1882 2528 
C 2259 2528 2317 2489 2317 2186 
L 2317 1032 
C 2317 500 2029 38 1555 38 
C 1030 38 986 348 986 678 
L 986 2763 
L 211 2693 
L 211 2528 
C 467 2528 640 2528 646 2274 
L 646 1058 
C 646 633 646 361 813 183 
C 896 101 1056 -64 1517 -64 
C 2061 -64 2272 377 2323 506 
L 2330 506 
L 2330 -63 
L 3091 -63 
L 3091 128 
C 2714 128 2656 166 2656 473 
L 2656 2763 
L 1882 2693 
z
" id="CMR17-75" transform="scale(0.015625)"/>
       <path d="M 960 4396 
L 198 4326 
L 198 4160 
C 576 4160 634 4122 634 3817 
L 634 -13 
L 749 -13 
L 934 441 
C 1120 141 1395 -64 1766 -64 
C 2406 -64 3053 500 3053 1370 
C 3053 2188 2477 2790 1830 2790 
C 1434 2790 1152 2579 960 2330 
L 960 4396 
z
M 973 2004 
C 973 2118 973 2138 1062 2272 
C 1312 2657 1670 2688 1792 2688 
C 1984 2688 2643 2585 2643 1376 
C 2643 108 1888 38 1734 38 
C 1536 38 1248 114 1043 486 
C 973 608 973 621 973 735 
L 973 2004 
z
" id="CMR17-62" transform="scale(0.015625)"/>
       <path d="M 2234 2240 
C 2112 2240 1933 2240 1933 2017 
C 1933 1838 2080 1787 2163 1787 
C 2208 1787 2394 1807 2394 2024 
C 2394 2467 1958 2803 1466 2803 
C 787 2803 211 2178 211 1363 
C 211 516 813 -64 1466 -64 
C 2259 -64 2458 677 2458 748 
C 2458 774 2451 793 2406 793 
C 2362 793 2355 787 2330 703 
C 2163 180 1798 51 1523 51 
C 1114 51 621 427 621 1369 
C 621 2338 1094 2688 1472 2688 
C 1722 2688 2093 2573 2234 2240 
z
" id="CMR17-63" transform="scale(0.015625)"/>
       <path d="M 979 4396 
L 218 4326 
L 218 4160 
C 595 4160 653 4122 653 3817 
L 653 426 
C 653 184 627 153 218 153 
L 218 -13 
C 371 0 653 0 813 0 
C 979 0 1261 0 1414 -13 
L 1414 153 
C 1005 153 979 178 979 426 
L 979 4396 
z
" id="CMR17-6c" transform="scale(0.015625)"/>
       <path d="M 960 1497 
C 960 2112 1222 2688 1702 2688 
C 1747 2688 1792 2682 1837 2662 
C 1837 2662 1696 2617 1696 2452 
C 1696 2298 1818 2234 1914 2234 
C 1990 2234 2131 2279 2131 2458 
C 2131 2663 1926 2790 1709 2790 
C 1222 2790 1011 2317 947 2093 
L 941 2093 
L 941 2790 
L 198 2720 
L 198 2554 
C 576 2554 634 2515 634 2208 
L 634 428 
C 634 184 608 153 198 153 
L 198 -13 
C 352 0 646 0 813 0 
C 998 0 1325 0 1498 -13 
L 1498 153 
C 1037 153 960 153 960 440 
L 960 1497 
z
" id="CMR17-72" transform="scale(0.015625)"/>
       <path d="M 2304 1653 
C 2304 2072 2304 2294 2035 2543 
C 1798 2752 1523 2816 1306 2816 
C 800 2816 435 2407 435 1971 
C 435 1728 627 1728 666 1728 
C 749 1728 896 1778 896 1954 
C 896 2112 774 2181 666 2181 
C 640 2181 608 2174 589 2168 
C 723 2592 1069 2714 1293 2714 
C 1613 2714 1965 2429 1965 1885 
L 1965 1600 
C 1587 1600 1133 1549 774 1357 
C 371 1133 256 813 256 570 
C 256 77 832 -64 1171 -64 
C 1523 -64 1850 139 1990 511 
C 2003 233 2182 -18 2464 -18 
C 2598 -18 2938 70 2938 567 
L 2938 920 
L 2822 920 
L 2822 562 
C 2822 178 2650 128 2566 128 
C 2304 128 2304 458 2304 738 
L 2304 1653 
z
M 1965 870 
C 1965 317 1568 38 1216 38 
C 896 38 646 275 646 570 
C 646 761 730 1100 1101 1305 
C 1408 1478 1760 1504 1965 1504 
L 1965 870 
z
" id="CMR17-61" transform="scale(0.015625)"/>
      </defs>
      <use transform="scale(0.996264)" xlink:href="#CMR17-43"/>
      <use transform="translate(66.509881 0)scale(0.996264)" xlink:href="#CMR17-75"/>
      <use transform="translate(117.40525 0)scale(0.996264)" xlink:href="#CMR17-62"/>
      <use transform="translate(168.30062 0)scale(0.996264)" xlink:href="#CMR17-69"/>
      <use transform="translate(193.171679 0)scale(0.996264)" xlink:href="#CMR17-63"/>
      <use transform="translate(263.733305 0)scale(0.996264)" xlink:href="#CMR17-73"/>
      <use transform="translate(299.534643 0)scale(0.996264)" xlink:href="#CMR17-70"/>
      <use transform="translate(350.430013 0)scale(0.996264)" xlink:href="#CMR17-6c"/>
      <use transform="translate(375.301071 0)scale(0.996264)" xlink:href="#CMR17-69"/>
      <use transform="translate(400.17213 0)scale(0.996264)" xlink:href="#CMR17-6e"/>
      <use transform="translate(451.0675 0)scale(0.996264)" xlink:href="#CMR17-65"/>
      <use transform="translate(521.629126 0)scale(0.996264)" xlink:href="#CMR17-69"/>
      <use transform="translate(546.500185 0)scale(0.996264)" xlink:href="#CMR17-6e"/>
      <use transform="translate(594.793101 0)scale(0.996264)" xlink:href="#CMR17-74"/>
      <use transform="translate(630.073869 0)scale(0.996264)" xlink:href="#CMR17-65"/>
      <use transform="translate(670.559529 0)scale(0.996264)" xlink:href="#CMR17-72"/>
      <use transform="translate(705.840297 0)scale(0.996264)" xlink:href="#CMR17-70"/>
      <use transform="translate(759.338105 0)scale(0.996264)" xlink:href="#CMR17-6f"/>
      <use transform="translate(805.028582 0)scale(0.996264)" xlink:href="#CMR17-6c"/>
      <use transform="translate(829.899641 0)scale(0.996264)" xlink:href="#CMR17-61"/>
      <use transform="translate(875.590118 0)scale(0.996264)" xlink:href="#CMR17-74"/>
      <use transform="translate(910.870886 0)scale(0.996264)" xlink:href="#CMR17-69"/>
      <use transform="translate(935.741944 0)scale(0.996264)" xlink:href="#CMR17-6f"/>
      <use transform="translate(981.432421 0)scale(0.996264)" xlink:href="#CMR17-6e"/>
     </g>
    </g>
    <g id="line2d_36">
     <path d="M 348.889321 359.797913 
L 378.889321 359.797913 
" style="fill:none;stroke:#0072bd;stroke-linecap:square;stroke-width:2;"/>
    </g>
    <g id="line2d_37"/>
    <g id="text_19">
     <!-- Optimized curve -->
     <g transform="translate(390.889321 365.047913)scale(0.15 -0.15)">
      <defs>
       <path d="M 4307 2135 
C 4307 3437 3366 4416 2304 4416 
C 1216 4416 294 3424 294 2135 
C 294 845 1229 -128 2298 -128 
C 3392 -128 4307 864 4307 2135 
z
M 2304 -13 
C 1574 -13 781 711 781 2217 
C 781 3716 1651 4301 2298 4301 
C 2976 4301 3821 3698 3821 2217 
C 3821 686 3008 -13 2304 -13 
z
" id="CMR17-4f" transform="scale(0.015625)"/>
       <path d="M 4326 1933 
C 4326 2252 4269 2790 3507 2790 
C 3072 2790 2771 2496 2656 2151 
L 2650 2151 
C 2573 2676 2195 2790 1837 2790 
C 1331 2790 1069 2400 973 2144 
L 966 2144 
L 966 2790 
L 211 2720 
L 211 2554 
C 589 2554 646 2515 646 2208 
L 646 428 
C 646 184 621 153 211 153 
L 211 -13 
C 365 0 646 0 813 0 
C 979 0 1267 0 1421 -13 
L 1421 153 
C 1011 153 986 178 986 428 
L 986 1658 
C 986 2247 1344 2688 1792 2688 
C 2266 2688 2317 2266 2317 1958 
L 2317 428 
C 2317 184 2291 153 1882 153 
L 1882 -13 
C 2035 0 2317 0 2483 0 
C 2650 0 2938 0 3091 -13 
L 3091 153 
C 2682 153 2656 178 2656 428 
L 2656 1658 
C 2656 2247 3014 2688 3462 2688 
C 3936 2688 3987 2266 3987 1958 
L 3987 428 
C 3987 184 3962 153 3552 153 
L 3552 -13 
C 3706 0 3987 0 4154 0 
C 4320 0 4608 0 4762 -13 
L 4762 153 
C 4352 153 4326 178 4326 428 
L 4326 1933 
z
" id="CMR17-6d" transform="scale(0.015625)"/>
       <path d="M 2310 2605 
C 2362 2670 2362 2682 2362 2695 
C 2362 2752 2336 2752 2221 2752 
L 275 2752 
L 211 1760 
L 326 1760 
C 371 2381 442 2650 1178 2650 
L 1958 2650 
L 128 96 
C 128 0 134 0 269 0 
L 2291 0 
L 2381 1152 
L 2266 1152 
C 2214 442 2131 115 1350 115 
L 531 115 
L 2310 2605 
z
" id="CMR17-7a" transform="scale(0.015625)"/>
       <path d="M 2502 2163 
C 2560 2304 2662 2560 3034 2560 
L 3034 2726 
C 2912 2726 2752 2726 2630 2726 
C 2496 2726 2285 2726 2157 2732 
L 2157 2566 
C 2317 2553 2406 2477 2406 2311 
C 2406 2253 2406 2240 2368 2151 
L 1664 377 
L 902 2286 
C 864 2369 864 2381 864 2407 
C 864 2560 1075 2560 1171 2560 
L 1171 2732 
C 1018 2726 736 2726 576 2726 
C 403 2726 205 2726 64 2732 
L 64 2560 
C 307 2560 442 2560 518 2362 
L 1446 44 
C 1485 -51 1491 -64 1549 -64 
C 1606 -64 1613 -51 1651 44 
L 2502 2163 
z
" id="CMR17-76" transform="scale(0.015625)"/>
      </defs>
      <use transform="scale(0.996264)" xlink:href="#CMR17-4f"/>
      <use transform="translate(71.714788 0)scale(0.996264)" xlink:href="#CMR17-70"/>
      <use transform="translate(122.610158 0)scale(0.996264)" xlink:href="#CMR17-74"/>
      <use transform="translate(157.890926 0)scale(0.996264)" xlink:href="#CMR17-69"/>
      <use transform="translate(182.761984 0)scale(0.996264)" xlink:href="#CMR17-6d"/>
      <use transform="translate(259.681574 0)scale(0.996264)" xlink:href="#CMR17-69"/>
      <use transform="translate(284.552633 0)scale(0.996264)" xlink:href="#CMR17-7a"/>
      <use transform="translate(325.038293 0)scale(0.996264)" xlink:href="#CMR17-65"/>
      <use transform="translate(365.523954 0)scale(0.996264)" xlink:href="#CMR17-64"/>
      <use transform="translate(446.49529 0)scale(0.996264)" xlink:href="#CMR17-63"/>
      <use transform="translate(486.98095 0)scale(0.996264)" xlink:href="#CMR17-75"/>
      <use transform="translate(537.87632 0)scale(0.996264)" xlink:href="#CMR17-72"/>
      <use transform="translate(573.157088 0)scale(0.996264)" xlink:href="#CMR17-76"/>
      <use transform="translate(618.84755 0)scale(0.996264)" xlink:href="#CMR17-65"/>
     </g>
    </g>
   </g>
  </g>
  <g id="axes_2">
   <g id="patch_8">
    <path d="M 630.296767 381.453658 
L 1141.2 381.453658 
L 1141.2 13.719295 
L 630.296767 13.719295 
z
" style="fill:#ffffff;"/>
   </g>
   <g id="matplotlib.axis_3">
    <g id="xtick_9">
     <g id="line2d_38">
      <path clip-path="url(#p36f7feec54)" d="M 630.296767 381.453658 
L 630.296767 13.719295 
" style="fill:none;stroke:#b0b0b0;stroke-dasharray:2.96,1.28;stroke-dashoffset:0;stroke-width:0.8;"/>
     </g>
     <g id="line2d_39">
      <g>
       <use style="stroke:#000000;stroke-width:0.8;" x="630.296767" xlink:href="#m82e032cda1" y="381.453658"/>
      </g>
     </g>
     <g id="text_20">
      <!-- $\mathdefault{0}$ -->
      <g transform="translate(627.806099 395.372156)scale(0.1 -0.1)">
       <use transform="scale(0.996264)" xlink:href="#CMR17-30"/>
      </g>
     </g>
    </g>
    <g id="xtick_10">
     <g id="line2d_40">
      <path clip-path="url(#p36f7feec54)" d="M 698.985973 381.453658 
L 698.985973 13.719295 
" style="fill:none;stroke:#b0b0b0;stroke-dasharray:2.96,1.28;stroke-dashoffset:0;stroke-width:0.8;"/>
     </g>
     <g id="line2d_41">
      <g>
       <use style="stroke:#000000;stroke-width:0.8;" x="698.985973" xlink:href="#m82e032cda1" y="381.453658"/>
      </g>
     </g>
     <g id="text_21">
      <!-- $\mathdefault{25}$ -->
      <g transform="translate(694.004637 395.372156)scale(0.1 -0.1)">
       <use transform="scale(0.996264)" xlink:href="#CMR17-32"/>
       <use transform="translate(45.690477 0)scale(0.996264)" xlink:href="#CMR17-35"/>
      </g>
     </g>
    </g>
    <g id="xtick_11">
     <g id="line2d_42">
      <path clip-path="url(#p36f7feec54)" d="M 767.675179 381.453658 
L 767.675179 13.719295 
" style="fill:none;stroke:#b0b0b0;stroke-dasharray:2.96,1.28;stroke-dashoffset:0;stroke-width:0.8;"/>
     </g>
     <g id="line2d_43">
      <g>
       <use style="stroke:#000000;stroke-width:0.8;" x="767.675179" xlink:href="#m82e032cda1" y="381.453658"/>
      </g>
     </g>
     <g id="text_22">
      <!-- $\mathdefault{50}$ -->
      <g transform="translate(762.693844 395.372156)scale(0.1 -0.1)">
       <use transform="scale(0.996264)" xlink:href="#CMR17-35"/>
       <use transform="translate(45.690477 0)scale(0.996264)" xlink:href="#CMR17-30"/>
      </g>
     </g>
    </g>
    <g id="xtick_12">
     <g id="line2d_44">
      <path clip-path="url(#p36f7feec54)" d="M 836.364385 381.453658 
L 836.364385 13.719295 
" style="fill:none;stroke:#b0b0b0;stroke-dasharray:2.96,1.28;stroke-dashoffset:0;stroke-width:0.8;"/>
     </g>
     <g id="line2d_45">
      <g>
       <use style="stroke:#000000;stroke-width:0.8;" x="836.364385" xlink:href="#m82e032cda1" y="381.453658"/>
      </g>
     </g>
     <g id="text_23">
      <!-- $\mathdefault{75}$ -->
      <g transform="translate(831.38305 395.372156)scale(0.1 -0.1)">
       <use transform="scale(0.996264)" xlink:href="#CMR17-37"/>
       <use transform="translate(45.690477 0)scale(0.996264)" xlink:href="#CMR17-35"/>
      </g>
     </g>
    </g>
    <g id="xtick_13">
     <g id="line2d_46">
      <path clip-path="url(#p36f7feec54)" d="M 905.053591 381.453658 
L 905.053591 13.719295 
" style="fill:none;stroke:#b0b0b0;stroke-dasharray:2.96,1.28;stroke-dashoffset:0;stroke-width:0.8;"/>
     </g>
     <g id="line2d_47">
      <g>
       <use style="stroke:#000000;stroke-width:0.8;" x="905.053591" xlink:href="#m82e032cda1" y="381.453658"/>
      </g>
     </g>
     <g id="text_24">
      <!-- $\mathdefault{100}$ -->
      <g transform="translate(897.581588 395.372156)scale(0.1 -0.1)">
       <use transform="scale(0.996264)" xlink:href="#CMR17-31"/>
       <use transform="translate(45.690477 0)scale(0.996264)" xlink:href="#CMR17-30"/>
       <use transform="translate(91.380954 0)scale(0.996264)" xlink:href="#CMR17-30"/>
      </g>
     </g>
    </g>
    <g id="xtick_14">
     <g id="line2d_48">
      <path clip-path="url(#p36f7feec54)" d="M 973.742797 381.453658 
L 973.742797 13.719295 
" style="fill:none;stroke:#b0b0b0;stroke-dasharray:2.96,1.28;stroke-dashoffset:0;stroke-width:0.8;"/>
     </g>
     <g id="line2d_49">
      <g>
       <use style="stroke:#000000;stroke-width:0.8;" x="973.742797" xlink:href="#m82e032cda1" y="381.453658"/>
      </g>
     </g>
     <g id="text_25">
      <!-- $\mathdefault{125}$ -->
      <g transform="translate(966.270795 395.372156)scale(0.1 -0.1)">
       <use transform="scale(0.996264)" xlink:href="#CMR17-31"/>
       <use transform="translate(45.690477 0)scale(0.996264)" xlink:href="#CMR17-32"/>
       <use transform="translate(91.380954 0)scale(0.996264)" xlink:href="#CMR17-35"/>
      </g>
     </g>
    </g>
    <g id="xtick_15">
     <g id="line2d_50">
      <path clip-path="url(#p36f7feec54)" d="M 1042.432004 381.453658 
L 1042.432004 13.719295 
" style="fill:none;stroke:#b0b0b0;stroke-dasharray:2.96,1.28;stroke-dashoffset:0;stroke-width:0.8;"/>
     </g>
     <g id="line2d_51">
      <g>
       <use style="stroke:#000000;stroke-width:0.8;" x="1042.432004" xlink:href="#m82e032cda1" y="381.453658"/>
      </g>
     </g>
     <g id="text_26">
      <!-- $\mathdefault{150}$ -->
      <g transform="translate(1034.960001 395.372156)scale(0.1 -0.1)">
       <use transform="scale(0.996264)" xlink:href="#CMR17-31"/>
       <use transform="translate(45.690477 0)scale(0.996264)" xlink:href="#CMR17-35"/>
       <use transform="translate(91.380954 0)scale(0.996264)" xlink:href="#CMR17-30"/>
      </g>
     </g>
    </g>
    <g id="xtick_16">
     <g id="line2d_52">
      <path clip-path="url(#p36f7feec54)" d="M 1111.12121 381.453658 
L 1111.12121 13.719295 
" style="fill:none;stroke:#b0b0b0;stroke-dasharray:2.96,1.28;stroke-dashoffset:0;stroke-width:0.8;"/>
     </g>
     <g id="line2d_53">
      <g>
       <use style="stroke:#000000;stroke-width:0.8;" x="1111.12121" xlink:href="#m82e032cda1" y="381.453658"/>
      </g>
     </g>
     <g id="text_27">
      <!-- $\mathdefault{175}$ -->
      <g transform="translate(1103.649207 395.372156)scale(0.1 -0.1)">
       <use transform="scale(0.996264)" xlink:href="#CMR17-31"/>
       <use transform="translate(45.690477 0)scale(0.996264)" xlink:href="#CMR17-37"/>
       <use transform="translate(91.380954 0)scale(0.996264)" xlink:href="#CMR17-35"/>
      </g>
     </g>
    </g>
    <g id="text_28">
     <!-- Curve length ($m$) -->
     <g transform="translate(815.446266 416.235356)scale(0.2 -0.2)">
      <defs>
       <path d="M 710 1164 
C 832 1068 1043 960 1299 960 
C 1805 960 2240 1357 2240 1888 
C 2240 2054 2189 2310 1997 2509 
C 2176 2692 2438 2752 2586 2752 
C 2611 2752 2650 2752 2682 2734 
C 2656 2728 2598 2703 2598 2605 
C 2598 2527 2656 2471 2739 2471 
C 2835 2471 2886 2533 2886 2614 
C 2886 2731 2790 2854 2586 2854 
C 2330 2854 2106 2738 1926 2580 
C 1734 2753 1504 2816 1299 2816 
C 794 2816 358 2419 358 1888 
C 358 1522 570 1292 634 1228 
C 442 1004 442 743 442 711 
C 442 545 506 302 723 168 
C 390 85 128 -169 128 -486 
C 128 -943 736 -1280 1466 -1280 
C 2170 -1280 2803 -956 2803 -479 
C 2803 384 1856 384 1363 384 
C 1216 384 954 384 922 391 
C 723 423 589 602 589 826 
C 589 883 589 1024 710 1164 
z
M 1299 1068 
C 736 1068 736 1760 736 1889 
C 736 2016 736 2708 1299 2708 
C 1862 2708 1862 2016 1862 1889 
C 1862 1760 1862 1068 1299 1068 
z
M 1466 -1171 
C 826 -1171 384 -835 384 -486 
C 384 -289 493 -105 634 -4 
C 794 104 858 104 1293 104 
C 1818 104 2547 104 2547 -486 
C 2547 -835 2106 -1171 1466 -1171 
z
" id="CMR17-67" transform="scale(0.015625)"/>
       <path d="M 2656 1933 
C 2656 2259 2592 2790 1837 2790 
C 1312 2790 1056 2368 979 2157 
L 973 2157 
L 973 4396 
L 211 4326 
L 211 4160 
C 589 4160 646 4122 646 3817 
L 646 426 
C 646 184 621 153 211 153 
L 211 -13 
C 365 0 646 0 813 0 
C 979 0 1267 0 1421 -13 
L 1421 153 
C 1011 153 986 178 986 428 
L 986 1658 
C 986 2247 1344 2688 1792 2688 
C 2266 2688 2317 2266 2317 1958 
L 2317 428 
C 2317 184 2291 153 1882 153 
L 1882 -13 
C 2035 0 2317 0 2483 0 
C 2650 0 2938 0 3091 -13 
L 3091 153 
C 2682 153 2656 178 2656 428 
L 2656 1933 
z
" id="CMR17-68" transform="scale(0.015625)"/>
      </defs>
      <use transform="scale(0.996264)" xlink:href="#CMR17-43"/>
      <use transform="translate(66.509881 0)scale(0.996264)" xlink:href="#CMR17-75"/>
      <use transform="translate(117.40525 0)scale(0.996264)" xlink:href="#CMR17-72"/>
      <use transform="translate(152.686018 0)scale(0.996264)" xlink:href="#CMR17-76"/>
      <use transform="translate(198.37648 0)scale(0.996264)" xlink:href="#CMR17-65"/>
      <use transform="translate(268.938107 0)scale(0.996264)" xlink:href="#CMR17-6c"/>
      <use transform="translate(293.809165 0)scale(0.996264)" xlink:href="#CMR17-65"/>
      <use transform="translate(334.294826 0)scale(0.996264)" xlink:href="#CMR17-6e"/>
      <use transform="translate(385.190196 0)scale(0.996264)" xlink:href="#CMR17-67"/>
      <use transform="translate(430.880673 0)scale(0.996264)" xlink:href="#CMR17-74"/>
      <use transform="translate(466.16144 0)scale(0.996264)" xlink:href="#CMR17-68"/>
      <use transform="translate(547.132777 0)scale(0.996264)" xlink:href="#CMR17-28"/>
      <use transform="translate(582.413544 0)scale(0.996264)" xlink:href="#CMMI12-6d"/>
      <use transform="translate(667.740769 0)scale(0.996264)" xlink:href="#CMR17-29"/>
     </g>
    </g>
   </g>
   <g id="matplotlib.axis_4">
    <g id="ytick_7">
     <g id="line2d_54">
      <path clip-path="url(#p36f7feec54)" d="M 630.296767 354.854716 
L 1141.2 354.854716 
" style="fill:none;stroke:#b0b0b0;stroke-dasharray:2.96,1.28;stroke-dashoffset:0;stroke-width:0.8;"/>
     </g>
     <g id="line2d_55">
      <g>
       <use style="stroke:#000000;stroke-width:0.8;" x="630.296767" xlink:href="#m93560f113c" y="354.854716"/>
      </g>
     </g>
     <g id="text_29">
      <!-- $\mathdefault{−0.8}$ -->
      <g transform="translate(602.817944 358.313965)scale(0.1 -0.1)">
       <defs>
        <path d="M 1178 307 
C 1178 492 1024 619 870 619 
C 685 619 557 466 557 313 
C 557 128 710 0 864 0 
C 1050 0 1178 153 1178 307 
z
" id="CMMI12-3a" transform="scale(0.015625)"/>
        <path d="M 1741 2264 
C 2144 2467 2554 2773 2554 3263 
C 2554 3841 1990 4179 1472 4179 
C 890 4179 378 3759 378 3180 
C 378 3021 416 2747 666 2505 
C 730 2442 998 2251 1171 2130 
C 883 1983 211 1634 211 934 
C 211 279 838 -128 1459 -128 
C 2144 -128 2720 362 2720 1010 
C 2720 1590 2330 1857 2074 2029 
L 1741 2264 
z
M 902 2822 
C 851 2854 595 3051 595 3351 
C 595 3739 998 4032 1459 4032 
C 1965 4032 2336 3676 2336 3262 
C 2336 2669 1670 2331 1638 2331 
C 1632 2331 1626 2331 1574 2370 
L 902 2822 
z
M 2080 1519 
C 2176 1449 2483 1240 2483 851 
C 2483 381 2010 25 1472 25 
C 890 25 448 438 448 940 
C 448 1443 838 1862 1280 2060 
L 2080 1519 
z
" id="CMR17-38" transform="scale(0.015625)"/>
       </defs>
       <use transform="scale(0.996264)" xlink:href="#CMSY10-0"/>
       <use transform="translate(77.487468 0)scale(0.996264)" xlink:href="#CMR17-30"/>
       <use transform="translate(123.177945 0)scale(0.996264)" xlink:href="#CMMI12-3a"/>
       <use transform="translate(150.275122 0)scale(0.996264)" xlink:href="#CMR17-38"/>
      </g>
     </g>
    </g>
    <g id="ytick_8">
     <g id="line2d_56">
      <path clip-path="url(#p36f7feec54)" d="M 630.296767 293.156397 
L 1141.2 293.156397 
" style="fill:none;stroke:#b0b0b0;stroke-dasharray:2.96,1.28;stroke-dashoffset:0;stroke-width:0.8;"/>
     </g>
     <g id="line2d_57">
      <g>
       <use style="stroke:#000000;stroke-width:0.8;" x="630.296767" xlink:href="#m93560f113c" y="293.156397"/>
      </g>
     </g>
     <g id="text_30">
      <!-- $\mathdefault{−0.6}$ -->
      <g transform="translate(602.817944 296.615646)scale(0.1 -0.1)">
       <use transform="scale(0.996264)" xlink:href="#CMSY10-0"/>
       <use transform="translate(77.487468 0)scale(0.996264)" xlink:href="#CMR17-30"/>
       <use transform="translate(123.177945 0)scale(0.996264)" xlink:href="#CMMI12-3a"/>
       <use transform="translate(150.275122 0)scale(0.996264)" xlink:href="#CMR17-36"/>
      </g>
     </g>
    </g>
    <g id="ytick_9">
     <g id="line2d_58">
      <path clip-path="url(#p36f7feec54)" d="M 630.296767 231.458078 
L 1141.2 231.458078 
" style="fill:none;stroke:#b0b0b0;stroke-dasharray:2.96,1.28;stroke-dashoffset:0;stroke-width:0.8;"/>
     </g>
     <g id="line2d_59">
      <g>
       <use style="stroke:#000000;stroke-width:0.8;" x="630.296767" xlink:href="#m93560f113c" y="231.458078"/>
      </g>
     </g>
     <g id="text_31">
      <!-- $\mathdefault{−0.4}$ -->
      <g transform="translate(602.817944 234.917327)scale(0.1 -0.1)">
       <use transform="scale(0.996264)" xlink:href="#CMSY10-0"/>
       <use transform="translate(77.487468 0)scale(0.996264)" xlink:href="#CMR17-30"/>
       <use transform="translate(123.177945 0)scale(0.996264)" xlink:href="#CMMI12-3a"/>
       <use transform="translate(150.275122 0)scale(0.996264)" xlink:href="#CMR17-34"/>
      </g>
     </g>
    </g>
    <g id="ytick_10">
     <g id="line2d_60">
      <path clip-path="url(#p36f7feec54)" d="M 630.296767 169.759759 
L 1141.2 169.759759 
" style="fill:none;stroke:#b0b0b0;stroke-dasharray:2.96,1.28;stroke-dashoffset:0;stroke-width:0.8;"/>
     </g>
     <g id="line2d_61">
      <g>
       <use style="stroke:#000000;stroke-width:0.8;" x="630.296767" xlink:href="#m93560f113c" y="169.759759"/>
      </g>
     </g>
     <g id="text_32">
      <!-- $\mathdefault{−0.2}$ -->
      <g transform="translate(602.817944 173.219008)scale(0.1 -0.1)">
       <use transform="scale(0.996264)" xlink:href="#CMSY10-0"/>
       <use transform="translate(77.487468 0)scale(0.996264)" xlink:href="#CMR17-30"/>
       <use transform="translate(123.177945 0)scale(0.996264)" xlink:href="#CMMI12-3a"/>
       <use transform="translate(150.275122 0)scale(0.996264)" xlink:href="#CMR17-32"/>
      </g>
     </g>
    </g>
    <g id="ytick_11">
     <g id="line2d_62">
      <path clip-path="url(#p36f7feec54)" d="M 630.296767 108.06144 
L 1141.2 108.06144 
" style="fill:none;stroke:#b0b0b0;stroke-dasharray:2.96,1.28;stroke-dashoffset:0;stroke-width:0.8;"/>
     </g>
     <g id="line2d_63">
      <g>
       <use style="stroke:#000000;stroke-width:0.8;" x="630.296767" xlink:href="#m93560f113c" y="108.06144"/>
      </g>
     </g>
     <g id="text_33">
      <!-- $\mathdefault{0.0}$ -->
      <g transform="translate(610.566688 111.520689)scale(0.1 -0.1)">
       <use transform="scale(0.996264)" xlink:href="#CMR17-30"/>
       <use transform="translate(45.690477 0)scale(0.996264)" xlink:href="#CMMI12-3a"/>
       <use transform="translate(72.787654 0)scale(0.996264)" xlink:href="#CMR17-30"/>
      </g>
     </g>
    </g>
    <g id="ytick_12">
     <g id="line2d_64">
      <path clip-path="url(#p36f7feec54)" d="M 630.296767 46.363121 
L 1141.2 46.363121 
" style="fill:none;stroke:#b0b0b0;stroke-dasharray:2.96,1.28;stroke-dashoffset:0;stroke-width:0.8;"/>
     </g>
     <g id="line2d_65">
      <g>
       <use style="stroke:#000000;stroke-width:0.8;" x="630.296767" xlink:href="#m93560f113c" y="46.363121"/>
      </g>
     </g>
     <g id="text_34">
      <!-- $\mathdefault{0.2}$ -->
      <g transform="translate(610.566688 49.822371)scale(0.1 -0.1)">
       <use transform="scale(0.996264)" xlink:href="#CMR17-30"/>
       <use transform="translate(45.690477 0)scale(0.996264)" xlink:href="#CMMI12-3a"/>
       <use transform="translate(72.787654 0)scale(0.996264)" xlink:href="#CMR17-32"/>
      </g>
     </g>
    </g>
    <g id="text_35">
     <!-- Curvature -->
     <g transform="translate(594.94231 237.927165)rotate(-90)scale(0.2 -0.2)">
      <use transform="scale(0.996264)" xlink:href="#CMR17-43"/>
      <use transform="translate(66.509881 0)scale(0.996264)" xlink:href="#CMR17-75"/>
      <use transform="translate(117.40525 0)scale(0.996264)" xlink:href="#CMR17-72"/>
      <use transform="translate(152.686018 0)scale(0.996264)" xlink:href="#CMR17-76"/>
      <use transform="translate(195.774117 0)scale(0.996264)" xlink:href="#CMR17-61"/>
      <use transform="translate(241.464594 0)scale(0.996264)" xlink:href="#CMR17-74"/>
      <use transform="translate(276.745362 0)scale(0.996264)" xlink:href="#CMR17-75"/>
      <use transform="translate(327.640732 0)scale(0.996264)" xlink:href="#CMR17-72"/>
      <use transform="translate(362.9215 0)scale(0.996264)" xlink:href="#CMR17-65"/>
     </g>
    </g>
   </g>
   <g id="line2d_66">
    <path clip-path="url(#p36f7feec54)" d="M 630.296767 132.190382 
L 631.670039 155.49132 
L 632.688609 176.60861 
L 633.68689 202.165528 
L 635.5134 257.044836 
L 635.619349 254.606282 
L 636.575922 224.435983 
L 638.099424 176.624267 
L 639.221077 148.216018 
L 640.591868 119.242042 
L 641.280147 107.497158 
L 643.896367 114.878261 
L 646.248842 122.187401 
L 648.783821 130.848628 
L 653.650666 147.7895 
L 654.189475 149.351222 
L 654.297341 149.26356 
L 657.779375 128.296126 
L 660.318603 114.571156 
L 664.751267 91.985812 
L 666.620341 92.560734 
L 668.701042 93.437887 
L 671.109883 94.710621 
L 674.193045 96.614579 
L 676.418707 97.982848 
L 679.571185 93.033417 
L 681.71707 89.252135 
L 683.629905 85.449382 
L 685.529047 81.18823 
L 687.630396 75.890474 
L 690.685371 67.460395 
L 692.631065 62.289454 
L 692.846955 63.011794 
L 695.22805 74.052971 
L 698.185281 87.41685 
L 700.62673 97.367223 
L 704.650355 112.605795 
L 705.096815 113.632906 
L 708.760893 121.535723 
L 716.330332 138.220753 
L 716.769316 138.320928 
L 718.419789 138.686164 
L 720.186384 139.306491 
L 722.179517 140.251118 
L 724.622297 141.679064 
L 728.078957 143.927146 
L 728.190853 143.706096 
L 732.191056 68.537064 
L 733.481967 38.215991 
L 733.800065 30.434493 
L 734.221725 31.149654 
L 734.745713 32.612083 
L 735.371648 35.111689 
L 736.204515 39.470885 
L 737.457984 47.451419 
L 740.995203 70.718721 
L 742.5507 79.201034 
L 744.139022 86.588812 
L 745.755663 93.041972 
L 747.629117 99.58577 
L 750.700278 109.326419 
L 753.169099 117.421992 
L 753.983583 120.493913 
L 755.707811 130.072969 
L 757.399126 140.819015 
L 759.38428 155.08041 
L 761.762133 172.109599 
L 762.730983 177.531775 
L 762.838903 177.624806 
L 765.129845 148.975009 
L 766.793807 131.142907 
L 767.797363 122.103793 
L 770.356083 127.100342 
L 772.896629 132.562548 
L 776.721475 141.433625 
L 776.830175 141.14418 
L 778.893926 135.298002 
L 785.572954 115.973825 
L 790.227797 103.577285 
L 795.658243 88.94162 
L 796.100235 87.987698 
L 805.583444 82.229962 
L 807.689376 81.294499 
L 809.024491 80.607368 
L 810.472599 79.611502 
L 812.031278 78.25313 
L 813.697408 76.480091 
L 815.467528 74.252221 
L 817.55791 71.229177 
L 818.652994 69.522438 
L 818.762327 69.589867 
L 820.509417 75.603424 
L 827.659702 100.944767 
L 834.851375 125.261996 
L 836.055935 129.357392 
L 837.36525 127.307734 
L 839.003157 124.280252 
L 842.213598 117.755495 
L 842.326034 117.937229 
L 845.392953 131.379074 
L 846.869268 139.007611 
L 848.218308 147.203715 
L 849.547848 156.718274 
L 851.070448 169.406752 
L 853.093203 187.106277 
L 853.831389 182.368826 
L 854.888578 173.909523 
L 858.708162 141.788649 
L 860.194799 131.793642 
L 861.719678 123.123543 
L 862.076648 121.286825 
L 862.196046 122.230921 
L 863.630308 158.899569 
L 864.450526 186.627916 
L 865.133159 217.211273 
L 865.900216 262.848419 
L 867.453068 364.738459 
L 868.276861 307.359982 
L 869.244893 245.94192 
L 870.033816 210.538732 
L 870.73116 188.206072 
L 871.560081 169.092918 
L 872.392241 155.05446 
L 872.510458 153.339395 
L 873.445629 152.987757 
L 874.021493 152.453024 
L 874.70515 151.486157 
L 875.494207 149.939444 
L 876.386945 147.680136 
L 877.492854 144.245614 
L 878.91981 139.039646 
L 881.104672 130.127552 
L 885.149058 113.192829 
L 892.071184 108.246218 
L 897.898178 104.279589 
L 906.234147 107.395781 
L 910.097775 108.817524 
L 910.319532 110.68271 
L 913.418765 145.02146 
L 915.823775 173.284967 
L 917.130288 168.296545 
L 921.433888 151.219681 
L 922.896026 146.531016 
L 924.255755 142.848019 
L 925.621421 139.779381 
L 926.874457 137.48142 
L 928.124113 135.649142 
L 929.253154 134.063677 
L 930.819047 129.98526 
L 932.923993 123.805589 
L 936.000638 113.980587 
L 941.567812 95.353591 
L 941.6768 95.523555 
L 949.890004 114.185218 
L 953.325069 121.397884 
L 953.547941 121.843044 
L 953.659439 121.565207 
L 960.448434 77.448606 
L 963.055968 57.397414 
L 964.132615 49.539727 
L 966.617417 72.386647 
L 968.919701 92.332469 
L 971.695957 114.156204 
L 975.033778 139.685474 
L 977.357674 138.439774 
L 981.332983 135.99642 
L 985.538658 133.492962 
L 986.87046 132.675041 
L 990.405284 67.567337 
L 991.59779 43.12685 
L 991.705521 43.345046 
L 992.350254 44.924742 
L 993.207149 47.657874 
L 994.385184 52.270754 
L 996.761512 62.79204 
L 998.964159 72.075698 
L 1000.64712 78.264387 
L 1002.354742 83.690523 
L 1004.081978 88.419803 
L 1005.937656 92.845805 
L 1008.259598 97.776209 
L 1011.015406 103.158612 
L 1013.040047 105.686872 
L 1015.47259 109.111994 
L 1022.656244 119.581035 
L 1025.067545 120.014891 
L 1027.379971 120.65119 
L 1028.702038 121.041818 
L 1033.870215 117.010222 
L 1042.116563 110.531281 
L 1057.171891 111.827104 
L 1071.347699 104.272905 
L 1073.455485 109.734146 
L 1078.110494 122.068102 
L 1081.29712 131.218211 
L 1084.783942 141.308387 
L 1087.179009 138.046616 
L 1092.789211 130.296446 
L 1095.35465 127.180571 
L 1097.826089 124.514843 
L 1098.051412 124.290715 
L 1100.193789 128.475894 
L 1102.106189 132.693941 
L 1104.00683 137.421288 
L 1106.112128 143.264662 
L 1110.923281 156.96914 
L 1111.032323 157.032117 
L 1115.0962 146.25724 
L 1116.874711 142.283614 
L 1117.321079 141.604282 
L 1118.439265 141.484804 
L 1119.559681 141.580497 
L 1120.681094 141.887103 
L 1121.914384 142.463869 
L 1123.145972 143.287366 
L 1124.486058 144.460897 
L 1125.932172 146.044043 
L 1127.481559 148.084721 
L 1129.241301 150.776555 
L 1130.116905 152.03223 
L 1131.208345 150.571925 
L 1132.626069 148.250867 
L 1134.705549 144.33084 
L 1139.381254 135.379907 
L 1141.2 132.311094 
L 1141.2 132.311094 
" style="fill:none;stroke:#000000;stroke-linecap:square;stroke-width:3;"/>
   </g>
   <g id="line2d_67">
    <path clip-path="url(#p36f7feec54)" d="M 630.296767 147.142532 
L 631.129163 161.802764 
L 634.00075 216.722447 
L 634.550472 223.157432 
L 634.967235 226.112389 
L 635.248095 226.945832 
L 635.389626 226.95967 
L 635.531983 226.673552 
L 635.818277 225.211579 
L 636.242 221.197991 
L 636.79919 213.226716 
L 637.625676 197.373069 
L 638.998767 165.552855 
L 640.520611 131.572143 
L 641.216631 119.919981 
L 641.902145 112.294581 
L 642.450435 108.387502 
L 642.998704 106.042389 
L 643.40992 105.132948 
L 643.684077 104.872926 
L 643.958248 104.858277 
L 644.232432 105.064658 
L 644.643735 105.740751 
L 645.192177 107.224996 
L 645.877759 109.830776 
L 646.837493 114.499487 
L 648.344973 123.234372 
L 651.22111 140.185473 
L 652.181684 144.654248 
L 652.869761 147.066742 
L 653.421988 148.352234 
L 653.837478 148.841188 
L 654.115206 148.897832 
L 654.392534 148.714025 
L 654.806395 148.041612 
L 655.356592 146.517992 
L 656.042347 143.808275 
L 657.000047 138.90117 
L 658.22972 131.327649 
L 660.690196 114.390288 
L 662.605587 101.878357 
L 663.699744 95.995728 
L 664.519937 92.654276 
L 665.19357 90.83609 
L 665.743956 89.872327 
L 666.298251 89.325731 
L 666.851959 89.130881 
L 667.405158 89.218741 
L 667.957932 89.532529 
L 668.648439 90.171629 
L 669.614584 91.396217 
L 671.132367 93.751126 
L 673.479235 97.396237 
L 674.446483 98.530042 
L 675.137763 99.071358 
L 675.691034 99.282073 
L 676.24454 99.24019 
L 676.803782 98.897291 
L 677.504372 98.106727 
L 678.343739 96.754001 
L 679.460476 94.465078 
L 680.991139 90.755587 
L 683.621871 83.688576 
L 687.069623 74.558425 
L 688.591806 71.093834 
L 689.706061 69.045328 
L 690.547973 67.923712 
L 691.113089 67.454738 
L 691.68187 67.279801 
L 692.111177 67.389467 
L 692.543061 67.75233 
L 693.108646 68.634848 
L 693.807193 70.212987 
L 694.780069 73.09503 
L 696.025325 77.583044 
L 697.819463 84.976207 
L 703.764009 110.256538 
L 705.007378 114.307927 
L 706.241853 117.471855 
L 707.611998 120.346906 
L 709.254066 123.275779 
L 711.851223 127.393458 
L 715.000264 132.433591 
L 716.518101 135.252862 
L 720.432051 143.014282 
L 721.675444 144.928349 
L 722.50298 145.865945 
L 723.192647 146.357153 
L 723.744891 146.504601 
L 724.1596 146.438899 
L 724.574925 146.193054 
L 724.991013 145.735724 
L 725.547224 144.731849 
L 726.105347 143.177716 
L 726.665642 140.938782 
L 727.228289 137.847186 
L 727.934994 132.461885 
L 728.765878 123.781011 
L 729.860498 109.503696 
L 733.281363 62.517588 
L 734.151733 54.095397 
L 734.784114 49.783945 
L 735.402262 47.251667 
L 735.857342 46.227038 
L 736.305848 45.780227 
L 736.601538 45.743918 
L 736.894814 45.883098 
L 737.330624 46.369442 
L 737.905018 47.437169 
L 738.614181 49.285312 
L 739.594729 52.555562 
L 740.84224 57.54451 
L 742.634434 65.738886 
L 744.98649 77.60682 
L 748.069235 94.359805 
L 751.752393 115.640206 
L 754.717151 133.991423 
L 757.653724 152.334102 
L 759.039325 159.612874 
L 760.009188 163.624459 
L 760.704219 165.699502 
L 761.262824 166.728977 
L 761.683875 167.040397 
L 761.965795 166.986746 
L 762.248831 166.692658 
L 762.675738 165.730654 
L 763.105814 164.016911 
L 763.653547 160.953147 
L 764.47196 154.993571 
L 767.740994 129.251069 
L 768.291612 126.846914 
L 768.845935 125.34057 
L 769.261319 124.715828 
L 769.676445 124.450595 
L 770.091347 124.488478 
L 770.506052 124.780404 
L 771.05873 125.491283 
L 771.749237 126.775011 
L 772.85357 129.407346 
L 775.478428 135.935382 
L 776.17121 137.11998 
L 776.726584 137.718619 
L 777.144346 137.904874 
L 777.562447 137.862161 
L 778.118342 137.505141 
L 778.672662 136.867164 
L 779.501718 135.499893 
L 780.466195 133.442561 
L 781.840894 129.920429 
L 783.763321 124.297323 
L 786.92408 114.248238 
L 792.151648 97.634491 
L 794.07508 92.280771 
L 795.310864 89.408909 
L 796.272137 87.673348 
L 797.10388 86.60498 
L 797.933422 85.874439 
L 798.898858 85.32408 
L 799.999819 84.961373 
L 801.511152 84.724809 
L 804.81034 84.313636 
L 805.914305 83.925833 
L 806.883495 83.338584 
L 807.718499 82.566727 
L 808.829576 81.220562 
L 810.622215 78.629921 
L 814.180817 73.380467 
L 815.413036 71.948621 
L 816.374984 71.153429 
L 817.065076 70.837927 
L 817.619467 70.789486 
L 818.176308 70.972608 
L 818.735959 71.446684 
L 819.296946 72.272692 
L 819.994605 73.736944 
L 820.966869 76.387434 
L 822.211898 80.501316 
L 824.005771 87.288144 
L 827.17982 100.353431 
L 830.496094 113.74945 
L 832.15344 119.588824 
L 833.257521 122.794047 
L 834.085219 124.642696 
L 834.774849 125.685557 
L 835.326563 126.102041 
L 835.740404 126.116819 
L 836.154327 125.829968 
L 836.565006 125.221068 
L 837.110192 124.009212 
L 837.927677 121.602933 
L 840.379609 113.944286 
L 840.924533 112.921303 
L 841.333246 112.500908 
L 841.605731 112.423972 
L 841.878225 112.535945 
L 842.150727 112.8614 
L 842.5595 113.807495 
L 843.118742 116.057816 
L 843.817018 120.073466 
L 844.792474 127.309102 
L 846.179759 139.542928 
L 849.479276 169.42539 
L 850.580658 177.24196 
L 851.274987 180.93417 
L 851.835972 182.94913 
L 852.26101 183.748415 
L 852.546838 183.865071 
L 852.834919 183.588701 
L 853.125496 182.857222 
L 853.561137 180.800965 
L 854.126585 176.735377 
L 854.966143 168.550743 
L 856.215112 153.685602 
L 858.291135 128.975041 
L 859.122663 121.612542 
L 859.677463 118.312791 
L 860.093762 116.961504 
L 860.37138 116.702434 
L 860.510213 116.789184 
L 860.78793 117.438541 
L 861.065718 118.785009 
L 861.48256 122.293069 
L 861.899659 127.869516 
L 862.456418 139.165852 
L 863.159376 159.907075 
L 864.407508 205.926031 
L 865.908365 260.385672 
L 866.735776 283.212723 
L 867.304873 293.499122 
L 867.598596 296.460067 
L 867.748516 297.255953 
L 867.905109 297.472279 
L 868.058926 297.101773 
L 868.359509 294.911205 
L 868.796795 288.835427 
L 869.363363 277.031427 
L 870.197676 254.038405 
L 871.883541 198.710966 
L 872.902929 168.40446 
L 873.735352 151.450169 
L 874.425175 141.326419 
L 875.113122 133.900375 
L 875.800016 128.539761 
L 876.48632 124.769309 
L 877.172303 122.225063 
L 877.720967 120.880696 
L 878.269579 120.023761 
L 878.818179 119.558595 
L 879.3668 119.405397 
L 879.915472 119.496932 
L 880.601428 119.868784 
L 881.562103 120.701222 
L 884.173402 123.16682 
L 884.86204 123.471108 
L 885.413552 123.484699 
L 885.964289 123.264073 
L 886.652233 122.717318 
L 887.47722 121.754207 
L 888.57659 120.095686 
L 890.087701 117.370168 
L 892.835264 111.845077 
L 895.446043 106.7434 
L 896.820116 104.46953 
L 897.91926 103.062695 
L 898.746388 102.337821 
L 899.711844 101.806853 
L 900.677108 101.540391 
L 901.64222 101.490389 
L 902.745086 101.672525 
L 903.710051 102.047114 
L 904.675027 102.655246 
L 905.640052 103.558176 
L 906.467273 104.639832 
L 907.294546 106.09898 
L 908.121857 108.059701 
L 908.949172 110.691722 
L 909.776451 114.22576 
L 910.602796 118.958828 
L 911.561306 125.930369 
L 913.611849 143.090496 
L 914.978763 153.691756 
L 915.801533 158.753258 
L 916.521233 162.010981 
L 917.106535 163.641352 
L 917.540401 164.329984 
L 917.970345 164.652617 
L 918.396788 164.674655 
L 918.820149 164.448837 
L 919.380538 163.83454 
L 920.075732 162.670577 
L 920.904374 160.837085 
L 922.003902 157.86135 
L 923.51443 153.094172 
L 925.588786 145.766878 
L 932.445973 120.844094 
L 935.202269 112.291892 
L 937.269898 106.545757 
L 938.648286 103.275872 
L 939.750871 101.194368 
L 940.577737 100.091048 
L 941.128964 99.647357 
L 941.680192 99.497593 
L 942.093938 99.614484 
L 942.646429 100.064505 
L 943.33704 101.008393 
L 944.1658 102.563881 
L 945.409039 105.472359 
L 947.895683 112.095803 
L 949.553272 116.17411 
L 950.520127 118.064258 
L 951.210762 119.049304 
L 951.763324 119.5416 
L 952.177798 119.696726 
L 952.592332 119.63288 
L 953.006939 119.312695 
L 953.421632 118.692853 
L 953.836419 117.723091 
L 954.389489 115.831996 
L 955.081049 112.660042 
L 956.049567 107.10477 
L 957.571299 96.784641 
L 961.161024 71.740209 
L 962.266385 65.768596 
L 962.959473 62.974517 
L 963.516008 61.458038 
L 963.935003 60.848677 
L 964.215237 60.741757 
L 964.496286 60.912499 
L 964.912146 61.650481 
L 965.464409 63.389756 
L 966.152015 66.532305 
L 967.111444 72.277703 
L 968.342727 81.229365 
L 970.258752 97.022525 
L 973.27298 121.850626 
L 974.504921 130.297857 
L 975.466976 135.432361 
L 976.171296 138.229609 
L 976.872126 140.264365 
L 977.569727 141.700838 
L 978.264496 142.659967 
L 978.956918 143.228129 
L 979.509528 143.441166 
L 980.06127 143.460626 
L 980.612439 143.29676 
L 981.301041 142.836699 
L 981.989766 142.079862 
L 982.679149 140.99289 
L 983.369683 139.519928 
L 984.061796 137.578727 
L 984.755836 135.054967 
L 985.452029 131.794602 
L 986.150447 127.594065 
L 986.850957 122.188327 
L 987.687776 113.837887 
L 988.934869 98.641083 
L 991.151515 71.266391 
L 991.983822 63.47012 
L 992.602165 58.89712 
L 993.209861 55.932863 
L 993.807521 54.180287 
L 994.249723 53.477917 
L 994.687234 53.189943 
L 995.120507 53.238545 
L 995.549994 53.561495 
L 996.117513 54.334249 
L 996.820033 55.725834 
L 997.793817 58.247757 
L 999.035095 62.150886 
L 1000.819748 68.594536 
L 1003.437111 78.972635 
L 1008.765534 100.317387 
L 1010.184623 105.084574 
L 1011.17946 107.795467 
L 1012.011171 109.474166 
L 1012.976514 110.919712 
L 1013.941779 111.988729 
L 1015.044822 112.89473 
L 1016.423462 113.723531 
L 1018.353393 114.583686 
L 1022.076239 116.167525 
L 1023.453009 117.021508 
L 1025.363469 118.532752 
L 1027.273447 119.960016 
L 1028.36509 120.504639 
L 1029.184138 120.670582 
L 1030.013557 120.56972 
L 1030.980374 120.178503 
L 1032.084466 119.480586 
L 1033.601661 118.245201 
L 1036.083528 115.889535 
L 1039.80747 112.3748 
L 1041.325376 111.237493 
L 1042.429557 110.659872 
L 1043.395507 110.394754 
L 1044.637298 110.309359 
L 1046.154938 110.451974 
L 1048.362246 110.915827 
L 1054.432113 112.32262 
L 1055.949872 112.387166 
L 1057.053875 112.230834 
L 1058.017872 111.887963 
L 1059.255233 111.203699 
L 1061.04253 109.927599 
L 1067.09194 105.349551 
L 1068.329295 104.777984 
L 1069.291691 104.569345 
L 1070.11662 104.629141 
L 1070.804081 104.906624 
L 1071.491563 105.454712 
L 1072.180104 106.347575 
L 1073.008286 107.855079 
L 1074.112551 110.396165 
L 1075.630536 114.522259 
L 1078.249952 122.417687 
L 1081.279753 131.392175 
L 1082.796904 135.236583 
L 1083.903742 137.455593 
L 1084.737 138.621442 
L 1085.294479 139.071537 
L 1085.856849 139.218679 
L 1086.417 139.099967 
L 1087.114472 138.659856 
L 1087.948137 137.810738 
L 1089.055494 136.303131 
L 1090.573364 133.818059 
L 1094.849737 126.587126 
L 1095.957471 125.222872 
L 1096.790061 124.536427 
L 1097.346066 124.302533 
L 1097.90289 124.299258 
L 1098.321085 124.481153 
L 1098.881553 125.018065 
L 1099.583627 126.108205 
L 1100.423569 127.871467 
L 1101.539287 130.750204 
L 1103.342885 136.128198 
L 1107.206348 147.863059 
L 1108.452921 150.947548 
L 1109.429208 152.790859 
L 1110.131933 153.658939 
L 1110.698247 153.98352 
L 1111.125817 153.951655 
L 1111.556122 153.623466 
L 1112.110611 152.813789 
L 1112.800996 151.356718 
L 1113.901649 148.391272 
L 1116.375807 141.456683 
L 1117.203575 139.882451 
L 1117.756973 139.283098 
L 1118.18586 139.096189 
L 1118.612969 139.116476 
L 1119.179901 139.406889 
L 1119.884849 140.10135 
L 1120.725961 141.289301 
L 1121.97942 143.533477 
L 1124.329769 148.366098 
L 1126.124555 151.853821 
L 1127.234734 153.585966 
L 1128.073202 154.507763 
L 1128.636043 154.861696 
L 1129.202704 154.937333 
L 1129.630599 154.764465 
L 1130.061291 154.348932 
L 1130.495057 153.639667 
L 1131.201519 151.859491 
L 1132.037589 149.049973 
L 1133.282831 144.008645 
L 1136.171291 132.016096 
L 1137.133592 129.067674 
L 1137.821509 127.671612 
L 1138.23456 127.216131 
L 1138.647873 127.11325 
L 1138.923578 127.271603 
L 1139.337406 127.902827 
L 1139.751603 129.079896 
L 1140.16623 130.898021 
L 1140.719878 134.515096 
L 1141.274725 139.794425 
L 1141.274725 139.794425 
" style="fill:none;stroke:#0072bd;stroke-linecap:square;stroke-width:3;"/>
   </g>
   <g id="patch_9">
    <path d="M 630.296767 381.453658 
L 630.296767 13.719295 
" style="fill:none;stroke:#000000;stroke-linecap:square;stroke-linejoin:miter;stroke-width:0.8;"/>
   </g>
   <g id="patch_10">
    <path d="M 1141.2 381.453658 
L 1141.2 13.719295 
" style="fill:none;stroke:#000000;stroke-linecap:square;stroke-linejoin:miter;stroke-width:0.8;"/>
   </g>
   <g id="patch_11">
    <path d="M 630.296767 381.453658 
L 1141.2 381.453658 
" style="fill:none;stroke:#000000;stroke-linecap:square;stroke-linejoin:miter;stroke-width:0.8;"/>
   </g>
   <g id="patch_12">
    <path d="M 630.296767 13.719295 
L 1141.2 13.719295 
" style="fill:none;stroke:#000000;stroke-linecap:square;stroke-linejoin:miter;stroke-width:0.8;"/>
   </g>
   <g id="legend_2">
    <g id="patch_13">
     <path d="M 938.326256 373.953658 
L 1130.7 373.953658 
Q 1133.7 373.953658 1133.7 370.953658 
L 1133.7 330.642168 
Q 1133.7 327.642168 1130.7 327.642168 
L 938.326256 327.642168 
Q 935.326256 327.642168 935.326256 330.642168 
L 935.326256 370.953658 
Q 935.326256 373.953658 938.326256 373.953658 
z
" style="fill:#ffffff;opacity:0.8;stroke:#cccccc;stroke-linejoin:miter;"/>
    </g>
    <g id="line2d_68">
     <path d="M 941.326256 338.892168 
L 971.326256 338.892168 
" style="fill:none;stroke:#000000;stroke-linecap:square;stroke-width:3;"/>
    </g>
    <g id="line2d_69"/>
    <g id="text_36">
     <!-- Cubic spline curvature -->
     <g transform="translate(983.326256 344.142168)scale(0.15 -0.15)">
      <use transform="scale(0.996264)" xlink:href="#CMR17-43"/>
      <use transform="translate(66.509881 0)scale(0.996264)" xlink:href="#CMR17-75"/>
      <use transform="translate(117.40525 0)scale(0.996264)" xlink:href="#CMR17-62"/>
      <use transform="translate(168.30062 0)scale(0.996264)" xlink:href="#CMR17-69"/>
      <use transform="translate(193.171679 0)scale(0.996264)" xlink:href="#CMR17-63"/>
      <use transform="translate(263.733305 0)scale(0.996264)" xlink:href="#CMR17-73"/>
      <use transform="translate(299.534643 0)scale(0.996264)" xlink:href="#CMR17-70"/>
      <use transform="translate(350.430013 0)scale(0.996264)" xlink:href="#CMR17-6c"/>
      <use transform="translate(375.301071 0)scale(0.996264)" xlink:href="#CMR17-69"/>
      <use transform="translate(400.17213 0)scale(0.996264)" xlink:href="#CMR17-6e"/>
      <use transform="translate(451.0675 0)scale(0.996264)" xlink:href="#CMR17-65"/>
      <use transform="translate(521.629126 0)scale(0.996264)" xlink:href="#CMR17-63"/>
      <use transform="translate(562.114787 0)scale(0.996264)" xlink:href="#CMR17-75"/>
      <use transform="translate(613.010157 0)scale(0.996264)" xlink:href="#CMR17-72"/>
      <use transform="translate(648.290924 0)scale(0.996264)" xlink:href="#CMR17-76"/>
      <use transform="translate(691.379024 0)scale(0.996264)" xlink:href="#CMR17-61"/>
      <use transform="translate(737.069501 0)scale(0.996264)" xlink:href="#CMR17-74"/>
      <use transform="translate(772.350269 0)scale(0.996264)" xlink:href="#CMR17-75"/>
      <use transform="translate(823.245638 0)scale(0.996264)" xlink:href="#CMR17-72"/>
      <use transform="translate(858.526406 0)scale(0.996264)" xlink:href="#CMR17-65"/>
     </g>
    </g>
    <g id="line2d_70">
     <path d="M 941.326256 359.797913 
L 971.326256 359.797913 
" style="fill:none;stroke:#0072bd;stroke-linecap:square;stroke-width:3;"/>
    </g>
    <g id="line2d_71"/>
    <g id="text_37">
     <!-- Optimized curvature -->
     <g transform="translate(983.326256 365.047913)scale(0.15 -0.15)">
      <use transform="scale(0.996264)" xlink:href="#CMR17-4f"/>
      <use transform="translate(71.714788 0)scale(0.996264)" xlink:href="#CMR17-70"/>
      <use transform="translate(122.610158 0)scale(0.996264)" xlink:href="#CMR17-74"/>
      <use transform="translate(157.890926 0)scale(0.996264)" xlink:href="#CMR17-69"/>
      <use transform="translate(182.761984 0)scale(0.996264)" xlink:href="#CMR17-6d"/>
      <use transform="translate(259.681574 0)scale(0.996264)" xlink:href="#CMR17-69"/>
      <use transform="translate(284.552633 0)scale(0.996264)" xlink:href="#CMR17-7a"/>
      <use transform="translate(325.038293 0)scale(0.996264)" xlink:href="#CMR17-65"/>
      <use transform="translate(365.523954 0)scale(0.996264)" xlink:href="#CMR17-64"/>
      <use transform="translate(446.49529 0)scale(0.996264)" xlink:href="#CMR17-63"/>
      <use transform="translate(486.98095 0)scale(0.996264)" xlink:href="#CMR17-75"/>
      <use transform="translate(537.87632 0)scale(0.996264)" xlink:href="#CMR17-72"/>
      <use transform="translate(573.157088 0)scale(0.996264)" xlink:href="#CMR17-76"/>
      <use transform="translate(616.245187 0)scale(0.996264)" xlink:href="#CMR17-61"/>
      <use transform="translate(661.935664 0)scale(0.996264)" xlink:href="#CMR17-74"/>
      <use transform="translate(697.216432 0)scale(0.996264)" xlink:href="#CMR17-75"/>
      <use transform="translate(748.111802 0)scale(0.996264)" xlink:href="#CMR17-72"/>
      <use transform="translate(783.39257 0)scale(0.996264)" xlink:href="#CMR17-65"/>
     </g>
    </g>
   </g>
  </g>
 </g>
 <defs>
  <clipPath id="p6b89b106cd">
   <rect height="367.734362" width="510.903233" x="59.40208" y="13.719295"/>
  </clipPath>
  <clipPath id="p36f7feec54">
   <rect height="367.734362" width="510.903233" x="630.296767" y="13.719295"/>
  </clipPath>
 </defs>
</svg>
