<?xml version="1.0" encoding="utf-8" standalone="no"?>
<!DOCTYPE svg PUBLIC "-//W3C//DTD SVG 1.1//EN"
  "http://www.w3.org/Graphics/SVG/1.1/DTD/svg11.dtd">
<svg xmlns:xlink="http://www.w3.org/1999/xlink" width="720pt" height="432pt" viewBox="0 0 720 432" xmlns="http://www.w3.org/2000/svg" version="1.1">
 <metadata>
  <rdf:RDF xmlns:dc="http://purl.org/dc/elements/1.1/" xmlns:cc="http://creativecommons.org/ns#" xmlns:rdf="http://www.w3.org/1999/02/22-rdf-syntax-ns#">
   <cc:Work>
    <dc:type rdf:resource="http://purl.org/dc/dcmitype/StillImage"/>
    <dc:date>2022-04-19T12:14:15.163156</dc:date>
    <dc:format>image/svg+xml</dc:format>
    <dc:creator>
     <cc:Agent>
      <dc:title>Matplotlib v3.5.1, https://matplotlib.org/</dc:title>
     </cc:Agent>
    </dc:creator>
   </cc:Work>
  </rdf:RDF>
 </metadata>
 <defs>
  <style type="text/css">*{stroke-linejoin: round; stroke-linecap: butt}</style>
 </defs>
 <g id="figure_1">
  <g id="patch_1">
   <path d="M 0 432 
L 720 432 
L 720 0 
L 0 0 
z
" style="fill: #ffffff"/>
  </g>
  <g id="axes_1">
   <g id="patch_2">
    <path d="M 59.40208 381.453658 
L 708.599488 381.453658 
L 708.599488 10.8 
L 59.40208 10.8 
z
" style="fill: #ffffff"/>
   </g>
   <g id="matplotlib.axis_1">
    <g id="xtick_1">
     <g id="line2d_1">
      <path d="M 180.943598 381.453658 
L 180.943598 10.8 
" clip-path="url(#pb6da763864)" style="fill: none; stroke-dasharray: 2.96,1.28; stroke-dashoffset: 0; stroke: #b0b0b0; stroke-width: 0.8"/>
     </g>
     <g id="line2d_2">
      <defs>
       <path id="m2e3867cf31" d="M 0 0 
L 0 3.5 
" style="stroke: #000000; stroke-width: 0.8"/>
      </defs>
      <g>
       <use xlink:href="#m2e3867cf31" x="180.943598" y="381.453658" style="stroke: #000000; stroke-width: 0.8"/>
      </g>
     </g>
     <g id="text_1">
      <!-- $\mathdefault{0}$ -->
      <g transform="translate(178.45293 395.372156)scale(0.1 -0.1)">
       <defs>
        <path id="CMR17-30" d="M 2688 2025 
C 2688 2416 2682 3080 2413 3591 
C 2176 4039 1798 4198 1466 4198 
C 1158 4198 768 4058 525 3597 
C 269 3118 243 2524 243 2025 
C 243 1661 250 1106 448 619 
C 723 -39 1216 -128 1466 -128 
C 1760 -128 2208 -7 2470 600 
C 2662 1042 2688 1559 2688 2025 
z
M 1466 -26 
C 1056 -26 813 325 723 812 
C 653 1188 653 1738 653 2096 
C 653 2588 653 2997 736 3387 
C 858 3929 1216 4096 1466 4096 
C 1728 4096 2067 3923 2189 3400 
C 2272 3036 2278 2607 2278 2096 
C 2278 1680 2278 1169 2202 792 
C 2067 95 1690 -26 1466 -26 
z
" transform="scale(0.015625)"/>
       </defs>
       <use xlink:href="#CMR17-30" transform="scale(0.996264)"/>
      </g>
     </g>
    </g>
    <g id="xtick_2">
     <g id="line2d_3">
      <path d="M 308.208467 381.453658 
L 308.208467 10.8 
" clip-path="url(#pb6da763864)" style="fill: none; stroke-dasharray: 2.96,1.28; stroke-dashoffset: 0; stroke: #b0b0b0; stroke-width: 0.8"/>
     </g>
     <g id="line2d_4">
      <g>
       <use xlink:href="#m2e3867cf31" x="308.208467" y="381.453658" style="stroke: #000000; stroke-width: 0.8"/>
      </g>
     </g>
     <g id="text_2">
      <!-- $\mathdefault{20}$ -->
      <g transform="translate(303.227132 395.372156)scale(0.1 -0.1)">
       <defs>
        <path id="CMR17-32" d="M 2669 989 
L 2554 989 
C 2490 536 2438 459 2413 420 
C 2381 369 1920 369 1830 369 
L 602 369 
C 832 619 1280 1072 1824 1597 
C 2214 1967 2669 2402 2669 3035 
C 2669 3790 2067 4224 1395 4224 
C 691 4224 262 3604 262 3030 
C 262 2780 448 2748 525 2748 
C 589 2748 781 2787 781 3010 
C 781 3207 614 3264 525 3264 
C 486 3264 448 3258 422 3245 
C 544 3790 915 4058 1306 4058 
C 1862 4058 2227 3617 2227 3035 
C 2227 2479 1901 2000 1536 1584 
L 262 146 
L 262 0 
L 2515 0 
L 2669 989 
z
" transform="scale(0.015625)"/>
       </defs>
       <use xlink:href="#CMR17-32" transform="scale(0.996264)"/>
       <use xlink:href="#CMR17-30" transform="translate(45.690477 0)scale(0.996264)"/>
      </g>
     </g>
    </g>
    <g id="xtick_3">
     <g id="line2d_5">
      <path d="M 435.473337 381.453658 
L 435.473337 10.8 
" clip-path="url(#pb6da763864)" style="fill: none; stroke-dasharray: 2.96,1.28; stroke-dashoffset: 0; stroke: #b0b0b0; stroke-width: 0.8"/>
     </g>
     <g id="line2d_6">
      <g>
       <use xlink:href="#m2e3867cf31" x="435.473337" y="381.453658" style="stroke: #000000; stroke-width: 0.8"/>
      </g>
     </g>
     <g id="text_3">
      <!-- $\mathdefault{40}$ -->
      <g transform="translate(430.492001 395.372156)scale(0.1 -0.1)">
       <defs>
        <path id="CMR17-34" d="M 2150 4122 
C 2150 4256 2144 4256 2029 4256 
L 128 1254 
L 128 1088 
L 1779 1088 
L 1779 457 
C 1779 224 1766 160 1318 160 
L 1197 160 
L 1197 0 
C 1402 0 1747 0 1965 0 
C 2182 0 2528 0 2733 0 
L 2733 160 
L 2611 160 
C 2163 160 2150 224 2150 457 
L 2150 1088 
L 2803 1088 
L 2803 1254 
L 2150 1254 
L 2150 4122 
z
M 1798 3703 
L 1798 1254 
L 256 1254 
L 1798 3703 
z
" transform="scale(0.015625)"/>
       </defs>
       <use xlink:href="#CMR17-34" transform="scale(0.996264)"/>
       <use xlink:href="#CMR17-30" transform="translate(45.690477 0)scale(0.996264)"/>
      </g>
     </g>
    </g>
    <g id="xtick_4">
     <g id="line2d_7">
      <path d="M 562.738206 381.453658 
L 562.738206 10.8 
" clip-path="url(#pb6da763864)" style="fill: none; stroke-dasharray: 2.96,1.28; stroke-dashoffset: 0; stroke: #b0b0b0; stroke-width: 0.8"/>
     </g>
     <g id="line2d_8">
      <g>
       <use xlink:href="#m2e3867cf31" x="562.738206" y="381.453658" style="stroke: #000000; stroke-width: 0.8"/>
      </g>
     </g>
     <g id="text_4">
      <!-- $\mathdefault{60}$ -->
      <g transform="translate(557.756871 395.372156)scale(0.1 -0.1)">
       <defs>
        <path id="CMR17-36" d="M 678 2176 
C 678 3690 1395 4032 1811 4032 
C 1946 4032 2272 4009 2400 3776 
C 2298 3776 2106 3776 2106 3553 
C 2106 3381 2246 3323 2336 3323 
C 2394 3323 2566 3348 2566 3560 
C 2566 3954 2246 4179 1805 4179 
C 1043 4179 243 3390 243 1984 
C 243 253 966 -128 1478 -128 
C 2099 -128 2688 427 2688 1283 
C 2688 2081 2170 2662 1517 2662 
C 1126 2662 838 2407 678 1960 
L 678 2176 
z
M 1478 25 
C 691 25 691 1200 691 1436 
C 691 1896 909 2560 1504 2560 
C 1613 2560 1926 2560 2138 2120 
C 2253 1870 2253 1609 2253 1289 
C 2253 944 2253 690 2118 434 
C 1978 171 1773 25 1478 25 
z
" transform="scale(0.015625)"/>
       </defs>
       <use xlink:href="#CMR17-36" transform="scale(0.996264)"/>
       <use xlink:href="#CMR17-30" transform="translate(45.690477 0)scale(0.996264)"/>
      </g>
     </g>
    </g>
    <g id="xtick_5">
     <g id="line2d_9">
      <path d="M 690.003075 381.453658 
L 690.003075 10.8 
" clip-path="url(#pb6da763864)" style="fill: none; stroke-dasharray: 2.96,1.28; stroke-dashoffset: 0; stroke: #b0b0b0; stroke-width: 0.8"/>
     </g>
     <g id="line2d_10">
      <g>
       <use xlink:href="#m2e3867cf31" x="690.003075" y="381.453658" style="stroke: #000000; stroke-width: 0.8"/>
      </g>
     </g>
     <g id="text_5">
      <!-- $\mathdefault{80}$ -->
      <g transform="translate(685.02174 395.372156)scale(0.1 -0.1)">
       <defs>
        <path id="CMR17-38" d="M 1741 2264 
C 2144 2467 2554 2773 2554 3263 
C 2554 3841 1990 4179 1472 4179 
C 890 4179 378 3759 378 3180 
C 378 3021 416 2747 666 2505 
C 730 2442 998 2251 1171 2130 
C 883 1983 211 1634 211 934 
C 211 279 838 -128 1459 -128 
C 2144 -128 2720 362 2720 1010 
C 2720 1590 2330 1857 2074 2029 
L 1741 2264 
z
M 902 2822 
C 851 2854 595 3051 595 3351 
C 595 3739 998 4032 1459 4032 
C 1965 4032 2336 3676 2336 3262 
C 2336 2669 1670 2331 1638 2331 
C 1632 2331 1626 2331 1574 2370 
L 902 2822 
z
M 2080 1519 
C 2176 1449 2483 1240 2483 851 
C 2483 381 2010 25 1472 25 
C 890 25 448 438 448 940 
C 448 1443 838 1862 1280 2060 
L 2080 1519 
z
" transform="scale(0.015625)"/>
       </defs>
       <use xlink:href="#CMR17-38" transform="scale(0.996264)"/>
       <use xlink:href="#CMR17-30" transform="translate(45.690477 0)scale(0.996264)"/>
      </g>
     </g>
    </g>
    <g id="text_6">
     <!-- X ($m$) -->
     <g transform="translate(358.497073 416.235356)scale(0.2 -0.2)">
      <defs>
       <path id="CMR17-58" d="M 2336 2398 
L 3283 3753 
C 3379 3886 3571 4160 4096 4160 
L 4096 4332 
C 3949 4319 3706 4319 3552 4319 
C 3341 4319 3078 4319 2918 4332 
L 2918 4166 
C 3123 4147 3174 4020 3174 3918 
C 3174 3843 3142 3792 3098 3728 
L 2253 2513 
L 1306 3887 
C 1261 3956 1254 3975 1254 3994 
C 1254 4052 1325 4160 1536 4160 
L 1536 4319 
C 1331 4319 1018 4319 806 4319 
C 640 4319 320 4319 166 4332 
L 166 4160 
C 518 4160 634 4148 774 3951 
L 2010 2163 
L 896 549 
C 621 153 205 153 83 153 
L 83 -13 
C 230 0 474 0 627 0 
C 800 0 1101 0 1261 -13 
L 1261 153 
C 1062 172 1005 299 1005 401 
C 1005 483 1037 528 1069 572 
L 2093 2048 
L 3206 422 
C 3258 352 3258 333 3258 314 
C 3258 263 3200 153 2976 153 
L 2976 0 
C 3181 0 3494 0 3706 0 
C 3872 0 4192 0 4346 -13 
L 4346 153 
C 3936 153 3872 184 3744 363 
L 2336 2398 
z
" transform="scale(0.015625)"/>
       <path id="CMR17-28" d="M 1958 -1561 
C 1958 -1555 1958 -1542 1939 -1523 
C 1645 -1224 858 -407 858 1581 
C 858 3569 1632 4379 1946 4697 
C 1946 4704 1958 4717 1958 4736 
C 1958 4755 1939 4768 1914 4768 
C 1843 4768 1299 4296 986 3594 
C 666 2887 576 2199 576 1588 
C 576 1128 621 351 1005 -471 
C 1312 -1135 1837 -1600 1914 -1600 
C 1946 -1600 1958 -1587 1958 -1561 
z
" transform="scale(0.015625)"/>
       <path id="CMMI12-6d" d="M 1318 1871 
C 1331 1910 1491 2229 1728 2433 
C 1894 2586 2112 2689 2362 2689 
C 2618 2689 2707 2497 2707 2242 
C 2707 2203 2707 2076 2630 1775 
L 2470 1118 
C 2419 926 2298 453 2285 383 
C 2259 287 2221 121 2221 96 
C 2221 6 2291 -64 2387 -64 
C 2579 -64 2611 83 2669 313 
L 3053 1839 
C 3066 1890 3398 2689 4102 2689 
C 4358 2689 4448 2497 4448 2242 
C 4448 1884 4198 1188 4058 805 
C 4000 651 3968 568 3968 453 
C 3968 166 4166 -64 4474 -64 
C 5069 -64 5293 875 5293 913 
C 5293 945 5267 971 5229 971 
C 5171 971 5165 952 5133 843 
C 4986 332 4749 64 4493 64 
C 4429 64 4326 64 4326 269 
C 4326 436 4403 640 4429 710 
C 4544 1018 4832 1773 4832 2145 
C 4832 2528 4608 2816 4122 2816 
C 3693 2816 3347 2574 3091 2197 
C 3072 2542 2861 2816 2381 2816 
C 1811 2816 1510 2415 1395 2255 
C 1376 2618 1114 2816 832 2816 
C 646 2816 499 2727 378 2484 
C 262 2254 173 1865 173 1839 
C 173 1814 198 1782 243 1782 
C 294 1782 301 1788 339 1935 
C 435 2312 557 2689 813 2689 
C 960 2689 1011 2586 1011 2395 
C 1011 2254 947 2005 902 1807 
L 723 1118 
C 698 996 627 709 595 594 
C 550 428 480 128 480 96 
C 480 6 550 -64 646 -64 
C 723 -64 813 -26 864 70 
C 877 102 934 326 966 453 
L 1107 1028 
L 1318 1871 
z
" transform="scale(0.015625)"/>
       <path id="CMR17-29" d="M 1683 1581 
C 1683 2040 1638 2817 1254 3639 
C 947 4303 422 4768 346 4768 
C 326 4768 301 4761 301 4729 
C 301 4717 307 4710 314 4697 
C 621 4378 1402 3568 1402 1584 
C 1402 -407 627 -1217 314 -1537 
C 307 -1549 301 -1556 301 -1568 
C 301 -1600 326 -1600 346 -1600 
C 416 -1600 960 -1128 1274 -426 
C 1594 281 1683 969 1683 1581 
z
" transform="scale(0.015625)"/>
      </defs>
      <use xlink:href="#CMR17-58" transform="scale(0.996264)"/>
      <use xlink:href="#CMR17-28" transform="translate(99.148396 0)scale(0.996264)"/>
      <use xlink:href="#CMMI12-6d" transform="translate(134.429164 0)scale(0.996264)"/>
      <use xlink:href="#CMR17-29" transform="translate(219.756388 0)scale(0.996264)"/>
     </g>
    </g>
   </g>
   <g id="matplotlib.axis_2">
    <g id="ytick_1">
     <g id="line2d_11">
      <path d="M 59.40208 354.925733 
L 708.599488 354.925733 
" clip-path="url(#pb6da763864)" style="fill: none; stroke-dasharray: 2.96,1.28; stroke-dashoffset: 0; stroke: #b0b0b0; stroke-width: 0.8"/>
     </g>
     <g id="line2d_12">
      <defs>
       <path id="mad4820b2f6" d="M 0 0 
L -3.5 0 
" style="stroke: #000000; stroke-width: 0.8"/>
      </defs>
      <g>
       <use xlink:href="#mad4820b2f6" x="59.40208" y="354.925733" style="stroke: #000000; stroke-width: 0.8"/>
      </g>
     </g>
     <g id="text_7">
      <!-- $\mathdefault{−50}$ -->
      <g transform="translate(34.690666 358.384982)scale(0.1 -0.1)">
       <defs>
        <path id="CMSY10-0" d="M 4218 1472 
C 4326 1472 4442 1472 4442 1600 
C 4442 1728 4326 1728 4218 1728 
L 755 1728 
C 646 1728 531 1728 531 1600 
C 531 1472 646 1472 755 1472 
L 4218 1472 
z
" transform="scale(0.015625)"/>
        <path id="CMR17-35" d="M 730 3692 
C 794 3666 1056 3584 1325 3584 
C 1920 3584 2246 3911 2432 4100 
C 2432 4157 2432 4192 2394 4192 
C 2387 4192 2374 4192 2323 4163 
C 2099 4058 1837 3973 1517 3973 
C 1325 3973 1037 3999 723 4139 
C 653 4171 640 4171 634 4171 
C 602 4171 595 4164 595 4037 
L 595 2203 
C 595 2089 595 2057 659 2057 
C 691 2057 704 2070 736 2114 
C 941 2401 1222 2522 1542 2522 
C 1766 2522 2246 2382 2246 1289 
C 2246 1085 2246 715 2054 421 
C 1894 159 1645 25 1370 25 
C 947 25 518 320 403 814 
C 429 807 480 795 506 795 
C 589 795 749 840 749 1038 
C 749 1210 627 1280 506 1280 
C 358 1280 262 1190 262 1011 
C 262 454 704 -128 1382 -128 
C 2042 -128 2669 440 2669 1264 
C 2669 2030 2170 2624 1549 2624 
C 1222 2624 947 2503 730 2274 
L 730 3692 
z
" transform="scale(0.015625)"/>
       </defs>
       <use xlink:href="#CMSY10-0" transform="scale(0.996264)"/>
       <use xlink:href="#CMR17-35" transform="translate(77.487468 0)scale(0.996264)"/>
       <use xlink:href="#CMR17-30" transform="translate(123.177945 0)scale(0.996264)"/>
      </g>
     </g>
    </g>
    <g id="ytick_2">
     <g id="line2d_13">
      <path d="M 59.40208 291.293298 
L 708.599488 291.293298 
" clip-path="url(#pb6da763864)" style="fill: none; stroke-dasharray: 2.96,1.28; stroke-dashoffset: 0; stroke: #b0b0b0; stroke-width: 0.8"/>
     </g>
     <g id="line2d_14">
      <g>
       <use xlink:href="#mad4820b2f6" x="59.40208" y="291.293298" style="stroke: #000000; stroke-width: 0.8"/>
      </g>
     </g>
     <g id="text_8">
      <!-- $\mathdefault{−40}$ -->
      <g transform="translate(34.690666 294.752547)scale(0.1 -0.1)">
       <use xlink:href="#CMSY10-0" transform="scale(0.996264)"/>
       <use xlink:href="#CMR17-34" transform="translate(77.487468 0)scale(0.996264)"/>
       <use xlink:href="#CMR17-30" transform="translate(123.177945 0)scale(0.996264)"/>
      </g>
     </g>
    </g>
    <g id="ytick_3">
     <g id="line2d_15">
      <path d="M 59.40208 227.660863 
L 708.599488 227.660863 
" clip-path="url(#pb6da763864)" style="fill: none; stroke-dasharray: 2.96,1.28; stroke-dashoffset: 0; stroke: #b0b0b0; stroke-width: 0.8"/>
     </g>
     <g id="line2d_16">
      <g>
       <use xlink:href="#mad4820b2f6" x="59.40208" y="227.660863" style="stroke: #000000; stroke-width: 0.8"/>
      </g>
     </g>
     <g id="text_9">
      <!-- $\mathdefault{−30}$ -->
      <g transform="translate(34.690666 231.120112)scale(0.1 -0.1)">
       <defs>
        <path id="CMR17-33" d="M 1414 2157 
C 1984 2157 2234 1662 2234 1090 
C 2234 320 1824 25 1453 25 
C 1114 25 563 194 390 693 
C 422 680 454 680 486 680 
C 640 680 755 782 755 948 
C 755 1133 614 1216 486 1216 
C 378 1216 211 1165 211 926 
C 211 335 787 -128 1466 -128 
C 2176 -128 2720 430 2720 1085 
C 2720 1707 2208 2157 1600 2227 
C 2086 2328 2554 2756 2554 3329 
C 2554 3820 2048 4179 1472 4179 
C 890 4179 378 3829 378 3329 
C 378 3110 544 3072 627 3072 
C 762 3072 877 3155 877 3321 
C 877 3486 762 3569 627 3569 
C 602 3569 570 3569 544 3557 
C 730 3959 1235 4032 1459 4032 
C 1683 4032 2106 3925 2106 3320 
C 2106 3143 2080 2828 1862 2550 
C 1670 2304 1453 2304 1242 2284 
C 1210 2284 1062 2269 1037 2269 
C 992 2263 966 2257 966 2208 
C 966 2163 973 2157 1101 2157 
L 1414 2157 
z
" transform="scale(0.015625)"/>
       </defs>
       <use xlink:href="#CMSY10-0" transform="scale(0.996264)"/>
       <use xlink:href="#CMR17-33" transform="translate(77.487468 0)scale(0.996264)"/>
       <use xlink:href="#CMR17-30" transform="translate(123.177945 0)scale(0.996264)"/>
      </g>
     </g>
    </g>
    <g id="ytick_4">
     <g id="line2d_17">
      <path d="M 59.40208 164.028429 
L 708.599488 164.028429 
" clip-path="url(#pb6da763864)" style="fill: none; stroke-dasharray: 2.96,1.28; stroke-dashoffset: 0; stroke: #b0b0b0; stroke-width: 0.8"/>
     </g>
     <g id="line2d_18">
      <g>
       <use xlink:href="#mad4820b2f6" x="59.40208" y="164.028429" style="stroke: #000000; stroke-width: 0.8"/>
      </g>
     </g>
     <g id="text_10">
      <!-- $\mathdefault{−20}$ -->
      <g transform="translate(34.690666 167.487678)scale(0.1 -0.1)">
       <use xlink:href="#CMSY10-0" transform="scale(0.996264)"/>
       <use xlink:href="#CMR17-32" transform="translate(77.487468 0)scale(0.996264)"/>
       <use xlink:href="#CMR17-30" transform="translate(123.177945 0)scale(0.996264)"/>
      </g>
     </g>
    </g>
    <g id="ytick_5">
     <g id="line2d_19">
      <path d="M 59.40208 100.395994 
L 708.599488 100.395994 
" clip-path="url(#pb6da763864)" style="fill: none; stroke-dasharray: 2.96,1.28; stroke-dashoffset: 0; stroke: #b0b0b0; stroke-width: 0.8"/>
     </g>
     <g id="line2d_20">
      <g>
       <use xlink:href="#mad4820b2f6" x="59.40208" y="100.395994" style="stroke: #000000; stroke-width: 0.8"/>
      </g>
     </g>
     <g id="text_11">
      <!-- $\mathdefault{−10}$ -->
      <g transform="translate(34.690666 103.855243)scale(0.1 -0.1)">
       <defs>
        <path id="CMR17-31" d="M 1702 4058 
C 1702 4192 1696 4192 1606 4192 
C 1357 3916 979 3827 621 3827 
C 602 3827 570 3827 563 3808 
C 557 3795 557 3782 557 3648 
C 755 3648 1088 3686 1344 3839 
L 1344 461 
C 1344 236 1331 160 781 160 
L 589 160 
L 589 0 
C 896 0 1216 0 1523 0 
C 1830 0 2150 0 2458 0 
L 2458 160 
L 2266 160 
C 1715 160 1702 230 1702 458 
L 1702 4058 
z
" transform="scale(0.015625)"/>
       </defs>
       <use xlink:href="#CMSY10-0" transform="scale(0.996264)"/>
       <use xlink:href="#CMR17-31" transform="translate(77.487468 0)scale(0.996264)"/>
       <use xlink:href="#CMR17-30" transform="translate(123.177945 0)scale(0.996264)"/>
      </g>
     </g>
    </g>
    <g id="ytick_6">
     <g id="line2d_21">
      <path d="M 59.40208 36.763559 
L 708.599488 36.763559 
" clip-path="url(#pb6da763864)" style="fill: none; stroke-dasharray: 2.96,1.28; stroke-dashoffset: 0; stroke: #b0b0b0; stroke-width: 0.8"/>
     </g>
     <g id="line2d_22">
      <g>
       <use xlink:href="#mad4820b2f6" x="59.40208" y="36.763559" style="stroke: #000000; stroke-width: 0.8"/>
      </g>
     </g>
     <g id="text_12">
      <!-- $\mathdefault{0}$ -->
      <g transform="translate(47.420745 40.222808)scale(0.1 -0.1)">
       <use xlink:href="#CMR17-30" transform="scale(0.996264)"/>
      </g>
     </g>
    </g>
    <g id="text_13">
     <!-- Y ($m$) -->
     <g transform="translate(25.726022 221.63054)rotate(-90)scale(0.2 -0.2)">
      <defs>
       <path id="CMR17-59" d="M 3706 3766 
C 3955 4160 4301 4160 4416 4160 
L 4416 4332 
C 4269 4319 4102 4319 3942 4319 
C 3782 4319 3526 4319 3373 4332 
L 3373 4160 
C 3533 4160 3616 4077 3616 3957 
C 3616 3881 3584 3830 3533 3747 
L 2381 1912 
L 1120 3912 
C 1075 3988 1069 3994 1069 4039 
C 1069 4160 1293 4160 1382 4160 
L 1382 4319 
C 1178 4319 864 4319 653 4319 
C 486 4319 166 4319 13 4332 
L 13 4160 
C 378 4160 480 4141 595 3958 
L 2010 1728 
L 2010 445 
C 2010 160 1939 160 1498 160 
L 1498 0 
C 1683 0 2016 0 2214 0 
C 2413 0 2752 0 2938 0 
L 2938 160 
C 2477 160 2419 160 2419 471 
L 2419 1728 
L 3706 3766 
z
" transform="scale(0.015625)"/>
      </defs>
      <use xlink:href="#CMR17-59" transform="scale(0.996264)"/>
      <use xlink:href="#CMR17-28" transform="translate(99.148396 0)scale(0.996264)"/>
      <use xlink:href="#CMMI12-6d" transform="translate(134.429164 0)scale(0.996264)"/>
      <use xlink:href="#CMR17-29" transform="translate(219.756388 0)scale(0.996264)"/>
     </g>
    </g>
   </g>
   <g id="line2d_23">
    <defs>
     <path id="m3b53d0fd03" d="M 0 2 
C 0.530406 2 1.03916 1.789267 1.414214 1.414214 
C 1.789267 1.03916 2 0.530406 2 0 
C 2 -0.530406 1.789267 -1.03916 1.414214 -1.414214 
C 1.03916 -1.789267 0.530406 -2 0 -2 
C -0.530406 -2 -1.03916 -1.789267 -1.414214 -1.414214 
C -1.789267 -1.03916 -2 -0.530406 -2 0 
C -2 0.530406 -1.789267 1.03916 -1.414214 1.414214 
C -1.03916 1.789267 -0.530406 2 0 2 
z
" style="stroke: #d95319"/>
    </defs>
    <g clip-path="url(#pb6da763864)">
     <use xlink:href="#m3b53d0fd03" x="207.441993" y="25.363839" style="fill: #d95319; stroke: #d95319"/>
     <use xlink:href="#m3b53d0fd03" x="232.325333" y="25.331051" style="fill: #d95319; stroke: #d95319"/>
     <use xlink:href="#m3b53d0fd03" x="257.208672" y="25.298263" style="fill: #d95319; stroke: #d95319"/>
     <use xlink:href="#m3b53d0fd03" x="287.075917" y="25.46245" style="fill: #d95319; stroke: #d95319"/>
     <use xlink:href="#m3b53d0fd03" x="316.9567" y="26.685746" style="fill: #d95319; stroke: #d95319"/>
     <use xlink:href="#m3b53d0fd03" x="348.658081" y="27.054238" style="fill: #d95319; stroke: #d95319"/>
     <use xlink:href="#m3b53d0fd03" x="379.97969" y="27.337034" style="fill: #d95319; stroke: #d95319"/>
     <use xlink:href="#m3b53d0fd03" x="411.901988" y="27.56323" style="fill: #d95319; stroke: #d95319"/>
     <use xlink:href="#m3b53d0fd03" x="439.224494" y="36.265115" style="fill: #d95319; stroke: #d95319"/>
     <use xlink:href="#m3b53d0fd03" x="454.366731" y="46.878757" style="fill: #d95319; stroke: #d95319"/>
     <use xlink:href="#m3b53d0fd03" x="465.176951" y="55.537819" style="fill: #d95319; stroke: #d95319"/>
     <use xlink:href="#m3b53d0fd03" x="473.777008" y="65.589713" style="fill: #d95319; stroke: #d95319"/>
     <use xlink:href="#m3b53d0fd03" x="484.217021" y="80.091747" style="fill: #d95319; stroke: #d95319"/>
     <use xlink:href="#m3b53d0fd03" x="490.54715" y="96.742356" style="fill: #d95319; stroke: #d95319"/>
     <use xlink:href="#m3b53d0fd03" x="490.17465" y="120.672899" style="fill: #d95319; stroke: #d95319"/>
     <use xlink:href="#m3b53d0fd03" x="483.807071" y="138.717897" style="fill: #d95319; stroke: #d95319"/>
     <use xlink:href="#m3b53d0fd03" x="474.997907" y="157.451957" style="fill: #d95319; stroke: #d95319"/>
     <use xlink:href="#m3b53d0fd03" x="472.286691" y="173.698822" style="fill: #d95319; stroke: #d95319"/>
     <use xlink:href="#m3b53d0fd03" x="472.791377" y="193.199411" style="fill: #d95319; stroke: #d95319"/>
     <use xlink:href="#m3b53d0fd03" x="477.305025" y="208.17924" style="fill: #d95319; stroke: #d95319"/>
     <use xlink:href="#m3b53d0fd03" x="488.25399" y="224.040362" style="fill: #d95319; stroke: #d95319"/>
     <use xlink:href="#m3b53d0fd03" x="497.703774" y="233.05351" style="fill: #d95319; stroke: #d95319"/>
     <use xlink:href="#m3b53d0fd03" x="513.509184" y="240.704383" style="fill: #d95319; stroke: #d95319"/>
     <use xlink:href="#m3b53d0fd03" x="531.661284" y="239.221471" style="fill: #d95319; stroke: #d95319"/>
     <use xlink:href="#m3b53d0fd03" x="554.804989" y="235.13586" style="fill: #d95319; stroke: #d95319"/>
     <use xlink:href="#m3b53d0fd03" x="575.871107" y="234.202367" style="fill: #d95319; stroke: #d95319"/>
     <use xlink:href="#m3b53d0fd03" x="600.184181" y="235.285785" style="fill: #d95319; stroke: #d95319"/>
     <use xlink:href="#m3b53d0fd03" x="617.314748" y="238.294733" style="fill: #d95319; stroke: #d95319"/>
     <use xlink:href="#m3b53d0fd03" x="636.838751" y="253.051973" style="fill: #d95319; stroke: #d95319"/>
     <use xlink:href="#m3b53d0fd03" x="651.641465" y="267.764307" style="fill: #d95319; stroke: #d95319"/>
     <use xlink:href="#m3b53d0fd03" x="660.450875" y="282.01583" style="fill: #d95319; stroke: #d95319"/>
     <use xlink:href="#m3b53d0fd03" x="666.622375" y="302.983833" style="fill: #d95319; stroke: #d95319"/>
     <use xlink:href="#m3b53d0fd03" x="662.66606" y="326.342365" style="fill: #d95319; stroke: #d95319"/>
     <use xlink:href="#m3b53d0fd03" x="652.572262" y="346.038697" style="fill: #d95319; stroke: #d95319"/>
     <use xlink:href="#m3b53d0fd03" x="641.394145" y="356.169391" style="fill: #d95319; stroke: #d95319"/>
     <use xlink:href="#m3b53d0fd03" x="626.844823" y="362.651544" style="fill: #d95319; stroke: #d95319"/>
     <use xlink:href="#m3b53d0fd03" x="600.374462" y="366.955394" style="fill: #d95319; stroke: #d95319"/>
     <use xlink:href="#m3b53d0fd03" x="571.698464" y="363.014619" style="fill: #d95319; stroke: #d95319"/>
     <use xlink:href="#m3b53d0fd03" x="542.415728" y="359.591065" style="fill: #d95319; stroke: #d95319"/>
     <use xlink:href="#m3b53d0fd03" x="523.606962" y="357.657683" style="fill: #d95319; stroke: #d95319"/>
     <use xlink:href="#m3b53d0fd03" x="508.501989" y="355.489021" style="fill: #d95319; stroke: #d95319"/>
     <use xlink:href="#m3b53d0fd03" x="483.778607" y="352.150266" style="fill: #d95319; stroke: #d95319"/>
     <use xlink:href="#m3b53d0fd03" x="456.240816" y="347.741934" style="fill: #d95319; stroke: #d95319"/>
     <use xlink:href="#m3b53d0fd03" x="435.838305" y="343.820765" style="fill: #d95319; stroke: #d95319"/>
     <use xlink:href="#m3b53d0fd03" x="409.122916" y="337.466475" style="fill: #d95319; stroke: #d95319"/>
     <use xlink:href="#m3b53d0fd03" x="384.737822" y="331.749341" style="fill: #d95319; stroke: #d95319"/>
     <use xlink:href="#m3b53d0fd03" x="359.346923" y="322.207194" style="fill: #d95319; stroke: #d95319"/>
     <use xlink:href="#m3b53d0fd03" x="339.286737" y="307.905121" style="fill: #d95319; stroke: #d95319"/>
     <use xlink:href="#m3b53d0fd03" x="326.340814" y="298.915237" style="fill: #d95319; stroke: #d95319"/>
     <use xlink:href="#m3b53d0fd03" x="318.175834" y="288.151693" style="fill: #d95319; stroke: #d95319"/>
     <use xlink:href="#m3b53d0fd03" x="311.880777" y="268.115893" style="fill: #d95319; stroke: #d95319"/>
     <use xlink:href="#m3b53d0fd03" x="307.863321" y="249.38754" style="fill: #d95319; stroke: #d95319"/>
     <use xlink:href="#m3b53d0fd03" x="310.092354" y="222.946668" style="fill: #d95319; stroke: #d95319"/>
     <use xlink:href="#m3b53d0fd03" x="316.293426" y="205.790502" style="fill: #d95319; stroke: #d95319"/>
     <use xlink:href="#m3b53d0fd03" x="316.271951" y="182.650627" style="fill: #d95319; stroke: #d95319"/>
     <use xlink:href="#m3b53d0fd03" x="309.965854" y="160.118646" style="fill: #d95319; stroke: #d95319"/>
     <use xlink:href="#m3b53d0fd03" x="301.323598" y="145.671718" style="fill: #d95319; stroke: #d95319"/>
     <use xlink:href="#m3b53d0fd03" x="293.176699" y="133.027805" style="fill: #d95319; stroke: #d95319"/>
     <use xlink:href="#m3b53d0fd03" x="279.758442" y="122.62831" style="fill: #d95319; stroke: #d95319"/>
     <use xlink:href="#m3b53d0fd03" x="263.690537" y="121.004633" style="fill: #d95319; stroke: #d95319"/>
     <use xlink:href="#m3b53d0fd03" x="247.320452" y="123.566185" style="fill: #d95319; stroke: #d95319"/>
     <use xlink:href="#m3b53d0fd03" x="228.501304" y="133.970722" style="fill: #d95319; stroke: #d95319"/>
     <use xlink:href="#m3b53d0fd03" x="217.165773" y="155.628099" style="fill: #d95319; stroke: #d95319"/>
     <use xlink:href="#m3b53d0fd03" x="214.041286" y="182.324966" style="fill: #d95319; stroke: #d95319"/>
     <use xlink:href="#m3b53d0fd03" x="217.670407" y="199.078839" style="fill: #d95319; stroke: #d95319"/>
     <use xlink:href="#m3b53d0fd03" x="226.457061" y="218.5567" style="fill: #d95319; stroke: #d95319"/>
     <use xlink:href="#m3b53d0fd03" x="237.889038" y="237.849782" style="fill: #d95319; stroke: #d95319"/>
     <use xlink:href="#m3b53d0fd03" x="246.236376" y="255.207199" style="fill: #d95319; stroke: #d95319"/>
     <use xlink:href="#m3b53d0fd03" x="249.947993" y="264.658125" style="fill: #d95319; stroke: #d95319"/>
     <use xlink:href="#m3b53d0fd03" x="250.582446" y="277.285018" style="fill: #d95319; stroke: #d95319"/>
     <use xlink:href="#m3b53d0fd03" x="242.196672" y="295.197449" style="fill: #d95319; stroke: #d95319"/>
     <use xlink:href="#m3b53d0fd03" x="231.788074" y="306.188295" style="fill: #d95319; stroke: #d95319"/>
     <use xlink:href="#m3b53d0fd03" x="212.986744" y="320.882197" style="fill: #d95319; stroke: #d95319"/>
     <use xlink:href="#m3b53d0fd03" x="192.796353" y="322.74228" style="fill: #d95319; stroke: #d95319"/>
     <use xlink:href="#m3b53d0fd03" x="172.794554" y="316.316956" style="fill: #d95319; stroke: #d95319"/>
     <use xlink:href="#m3b53d0fd03" x="154.86707" y="308.937264" style="fill: #d95319; stroke: #d95319"/>
     <use xlink:href="#m3b53d0fd03" x="138.864015" y="298.285749" style="fill: #d95319; stroke: #d95319"/>
     <use xlink:href="#m3b53d0fd03" x="120.984783" y="281.378256" style="fill: #d95319; stroke: #d95319"/>
     <use xlink:href="#m3b53d0fd03" x="108.817142" y="263.491585" style="fill: #d95319; stroke: #d95319"/>
     <use xlink:href="#m3b53d0fd03" x="105.635977" y="246.217853" style="fill: #d95319; stroke: #d95319"/>
     <use xlink:href="#m3b53d0fd03" x="103.480296" y="220.839004" style="fill: #d95319; stroke: #d95319"/>
     <use xlink:href="#m3b53d0fd03" x="102.33655" y="190.196596" style="fill: #d95319; stroke: #d95319"/>
     <use xlink:href="#m3b53d0fd03" x="101.379194" y="166.428963" style="fill: #d95319; stroke: #d95319"/>
     <use xlink:href="#m3b53d0fd03" x="101.667354" y="144.239337" style="fill: #d95319; stroke: #d95319"/>
     <use xlink:href="#m3b53d0fd03" x="101.936851" y="121.550317" style="fill: #d95319; stroke: #d95319"/>
     <use xlink:href="#m3b53d0fd03" x="105.322583" y="95.738619" style="fill: #d95319; stroke: #d95319"/>
     <use xlink:href="#m3b53d0fd03" x="113.2937" y="72.136153" style="fill: #d95319; stroke: #d95319"/>
     <use xlink:href="#m3b53d0fd03" x="125.305773" y="60.345323" style="fill: #d95319; stroke: #d95319"/>
     <use xlink:href="#m3b53d0fd03" x="141.694697" y="45.833446" style="fill: #d95319; stroke: #d95319"/>
     <use xlink:href="#m3b53d0fd03" x="159.918687" y="32.570925" style="fill: #d95319; stroke: #d95319"/>
     <use xlink:href="#m3b53d0fd03" x="180.085983" y="25.606433" style="fill: #d95319; stroke: #d95319"/>
    </g>
   </g>
   <g id="line2d_24">
    <path d="M 204.334852 52.187011 
L 210.410776 52.298105 
L 216.478658 52.160874 
L 225.571289 51.671189 
L 237.694019 50.994224 
L 249.825674 50.592894 
L 265.578435 50.327965 
L 278.878588 50.275047 
L 291.693851 50.481818 
L 313.270297 50.994152 
L 322.536577 50.978242 
L 347.326962 50.624629 
L 357.391183 50.840602 
L 367.455399 51.057227 
L 374.166434 50.982057 
L 380.688863 50.630915 
L 393.352998 49.683333 
L 396.519624 49.580467 
L 399.686787 49.599207 
L 402.85463 49.771991 
L 406.023289 50.129391 
L 409.192884 50.698957 
L 412.40462 51.508934 
L 415.518771 52.537913 
L 418.547603 53.758368 
L 421.504084 55.141196 
L 424.400787 56.658181 
L 430.058616 59.996419 
L 435.201634 63.437022 
L 437.678332 65.282504 
L 440.072079 67.237509 
L 442.369057 69.320278 
L 444.522717 71.507797 
L 446.550633 73.795203 
L 448.470548 76.168403 
L 452.06099 81.112909 
L 455.588689 86.537166 
L 457.296885 89.471338 
L 458.829008 92.490741 
L 460.126711 95.623619 
L 461.135795 98.896209 
L 461.798131 102.287581 
L 462.084817 105.667546 
L 462.052308 109.037818 
L 461.751529 112.399943 
L 461.227993 115.755305 
L 460.522123 119.105129 
L 458.856936 125.056306 
L 456.808615 130.88672 
L 454.412979 136.640379 
L 446.572963 154.014813 
L 444.151365 160.149023 
L 442.019706 166.396374 
L 441.042999 169.85103 
L 440.341226 173.34021 
L 440.041457 176.879871 
L 440.250737 180.483455 
L 441.029738 183.786424 
L 442.200263 186.923204 
L 443.6306 189.949703 
L 448.121252 198.535655 
L 450.577375 203.942637 
L 452.796385 209.450129 
L 458.622006 224.567583 
L 459.995654 227.696671 
L 461.476808 230.778912 
L 463.085634 233.805515 
L 464.710297 236.536438 
L 468.237438 241.798075 
L 472.04632 246.856672 
L 476.040373 251.781826 
L 480.038285 256.401772 
L 482.114393 258.626526 
L 484.266212 260.767656 
L 486.513284 262.803574 
L 488.875243 264.712594 
L 491.371796 266.47295 
L 494.023021 268.062464 
L 496.880881 269.477263 
L 499.787189 270.595456 
L 502.738693 271.436953 
L 505.732482 272.019577 
L 508.766313 272.357061 
L 511.838517 272.459624 
L 514.94774 272.335554 
L 518.092481 271.994035 
L 521.244477 271.453523 
L 527.450971 269.966538 
L 536.709497 267.522821 
L 542.933404 266.226106 
L 555.474045 264.148963 
L 567.036781 262.183461 
L 572.861097 261.48056 
L 576.115501 261.240354 
L 579.366287 261.138883 
L 582.613558 261.17215 
L 585.857565 261.330594 
L 592.336685 261.988501 
L 595.589189 262.491001 
L 598.795933 263.136763 
L 601.945123 263.962716 
L 605.024129 265.008399 
L 608.019976 266.314428 
L 610.918908 267.923878 
L 613.692879 269.878388 
L 616.154169 272.108363 
L 618.320253 274.598407 
L 620.205896 277.335515 
L 621.827 280.305675 
L 623.240722 283.526933 
L 626.990809 293.384592 
L 629.711216 299.220013 
L 630.909374 302.192673 
L 631.767111 305.28077 
L 632.129006 308.537007 
L 631.86547 312.10158 
L 630.838913 315.297007 
L 629.323068 318.255718 
L 627.487496 321.059746 
L 619.481997 331.880903 
L 617.371521 334.461551 
L 615.023446 336.829207 
L 612.329551 338.886856 
L 609.288631 340.476698 
L 606.154607 341.447397 
L 602.951657 341.959729 
L 599.696433 342.124446 
L 596.403027 342.035241 
L 589.826812 341.444318 
L 580.082153 340.214249 
L 570.365506 338.772614 
L 558.390529 336.70404 
L 518.407746 329.404138 
L 500.655574 326.503366 
L 475.736183 322.154158 
L 453.131244 318.859622 
L 425.642043 314.376942 
L 393.974839 309.637619 
L 387.590043 308.297307 
L 384.418861 307.471657 
L 381.302712 306.506199 
L 378.25337 305.371016 
L 375.282034 304.037661 
L 372.399196 302.479479 
L 369.614186 300.672766 
L 366.906686 298.584568 
L 364.398014 296.308583 
L 362.046969 293.883723 
L 357.6477 288.747995 
L 349.357555 278.651188 
L 345.387215 273.773504 
L 343.489534 271.265548 
L 341.687186 268.682281 
L 339.987638 265.982033 
L 338.451081 263.215097 
L 337.083017 260.379221 
L 335.886197 257.47328 
L 334.863204 254.496217 
L 334.01788 251.446461 
L 333.356493 248.321446 
L 332.908451 245.207155 
L 332.672232 242.112949 
L 332.645252 239.038582 
L 332.82692 235.983999 
L 333.218292 232.9493 
L 333.821456 229.934683 
L 334.638072 226.940304 
L 335.665837 223.965947 
L 336.832054 221.177702 
L 343.126179 207.445583 
L 344.160944 204.333652 
L 344.923331 201.201686 
L 345.410804 198.049499 
L 345.630403 194.877608 
L 345.590191 191.686607 
L 345.297243 188.477017 
L 344.75882 185.24937 
L 344.014137 182.168414 
L 343.106126 179.142501 
L 340.97619 173.196466 
L 337.657046 164.462647 
L 334.666923 155.902093 
L 331.707789 147.33061 
L 329.559135 141.629678 
L 327.146812 136.005574 
L 324.395262 130.556861 
L 322.865976 127.911875 
L 321.221405 125.326495 
L 319.453163 122.805058 
L 317.469093 120.227293 
L 315.372184 117.766536 
L 313.170627 115.414295 
L 310.874147 113.160485 
L 306.035517 108.907613 
L 300.924742 104.936942 
L 295.772144 101.381925 
L 293.119813 99.744338 
L 290.404458 98.222734 
L 287.61612 96.835444 
L 284.744969 95.600554 
L 281.781826 94.534959 
L 278.68409 93.639589 
L 275.563266 92.960943 
L 272.421289 92.480865 
L 269.260197 92.180207 
L 266.08194 92.040682 
L 262.8883 92.045544 
L 259.680802 92.1805 
L 256.525121 92.433252 
L 253.393749 92.798241 
L 250.286779 93.275894 
L 247.20485 93.869157 
L 244.148888 94.582315 
L 241.119994 95.420443 
L 238.119372 96.389103 
L 235.148262 97.494022 
L 232.281026 98.713231 
L 229.485684 100.050515 
L 226.759425 101.501261 
L 224.099571 103.061068 
L 221.50372 104.725994 
L 218.969808 106.492646 
L 216.49616 108.358273 
L 214.081608 110.320959 
L 211.641343 112.448725 
L 209.294746 114.658155 
L 207.041846 116.949272 
L 204.882968 119.32236 
L 202.818941 121.778144 
L 200.851377 124.318027 
L 198.98315 126.944516 
L 197.219365 129.662061 
L 195.569306 132.478965 
L 194.080995 135.359855 
L 192.772359 138.311822 
L 191.661435 141.342002 
L 190.765329 144.457161 
L 190.098402 147.662981 
L 189.643939 151.072803 
L 189.441317 154.481837 
L 189.434431 157.890257 
L 189.767717 164.706009 
L 190.173153 171.521536 
L 190.333546 177.91041 
L 190.453602 187.500069 
L 190.811072 193.878563 
L 191.169327 197.058355 
L 191.685196 200.229845 
L 192.406475 203.556003 
L 193.325201 206.80904 
L 194.431415 209.992645 
L 195.709997 213.112416 
L 197.142673 216.175121 
L 200.348561 222.128436 
L 203.694744 227.972016 
L 205.291679 230.936498 
L 206.688802 233.788524 
L 209.180199 239.609777 
L 211.348083 245.556231 
L 213.285346 251.591934 
L 214.163275 254.641774 
L 214.92542 257.706104 
L 215.511967 260.792412 
L 215.861507 263.908383 
L 215.915963 267.061285 
L 215.621495 270.257857 
L 214.918761 273.6377 
L 213.801514 276.852839 
L 212.342054 279.931999 
L 210.598799 282.898394 
L 208.585398 285.793068 
L 206.343783 288.47223 
L 203.838939 290.902814 
L 201.022475 293.039121 
L 197.423878 295.121889 
L 194.018851 296.067361 
L 190.722781 296.372677 
L 187.505669 296.214082 
L 184.352219 295.681453 
L 181.252907 294.830745 
L 178.200731 293.703094 
L 175.189645 292.334022 
L 172.213685 290.758576 
L 169.266571 289.013648 
L 163.508451 285.20282 
L 158.022287 281.112008 
L 155.387425 278.932815 
L 152.84029 276.645169 
L 150.392395 274.234837 
L 148.059131 271.696993 
L 145.866774 269.057211 
L 143.808 266.32079 
L 141.874391 263.493822 
L 140.057845 260.582165 
L 138.351519 257.590772 
L 135.59673 252.037064 
L 133.205957 246.337675 
L 131.183441 240.490909 
L 129.454824 234.178919 
L 128.729583 230.823922 
L 128.141019 227.445025 
L 127.687043 224.042593 
L 127.361279 220.617741 
L 127.0298 213.897946 
L 126.717921 203.811158 
L 126.319171 197.751046 
L 124.866734 179.063114 
L 124.681768 172.468538 
L 124.778015 166.173702 
L 125.105799 160.196957 
L 125.907997 151.252885 
L 126.895328 141.50005 
L 127.300962 134.976543 
L 127.4023 128.257707 
L 127.494376 121.538659 
L 127.685946 118.18247 
L 128.051653 114.6988 
L 128.625625 111.264214 
L 129.41846 107.881212 
L 130.43352 104.550584 
L 131.671386 101.272469 
L 133.105883 98.11053 
L 134.714983 95.055669 
L 136.477041 92.094609 
L 138.371247 89.21459 
L 142.478445 83.65005 
L 146.812788 78.392306 
L 151.342467 73.310656 
L 156.029512 68.37087 
L 160.730982 63.739103 
L 163.087009 61.60597 
L 165.523118 59.588185 
L 168.064149 57.721521 
L 170.734399 56.04098 
L 173.557185 54.580142 
L 176.554786 53.371097 
L 179.609823 52.497288 
L 182.677941 51.930378 
L 185.756713 51.61342 
L 188.843926 51.494504 
L 195.035358 51.655648 
L 201.235903 52.030589 
L 201.235903 52.030589 
" clip-path="url(#pb6da763864)" style="fill: none; stroke: #ebb120; stroke-width: 3; stroke-linecap: square"/>
   </g>
   <g id="line2d_25">
    <path d="M 208.409829 36.259979 
L 214.752059 35.741187 
L 221.107164 35.414975 
L 230.650206 35.218698 
L 240.195218 35.286539 
L 252.91751 35.636067 
L 294.256861 37.02614 
L 306.983208 37.16273 
L 319.710106 37.093653 
L 335.615438 36.757594 
L 367.421773 35.906445 
L 376.96701 35.881517 
L 386.508966 36.124902 
L 392.861799 36.492819 
L 399.199111 37.068477 
L 405.509075 37.890702 
L 411.775026 38.998902 
L 417.974617 40.431933 
L 424.079136 42.226754 
L 430.053063 44.416855 
L 432.978064 45.669225 
L 435.853994 47.03051 
L 438.674539 48.50312 
L 441.43304 50.088908 
L 444.12253 51.78911 
L 446.735794 53.604292 
L 449.26543 55.534308 
L 451.703931 57.578258 
L 454.043761 59.734458 
L 456.277456 62.000423 
L 458.397666 64.372805 
L 460.397431 66.847559 
L 462.270128 69.419809 
L 464.009649 72.083926 
L 465.610525 74.833588 
L 467.068045 77.661853 
L 468.378365 80.561251 
L 469.53861 83.5239 
L 470.546966 86.54163 
L 471.40275 89.606124 
L 472.10647 92.709075 
L 472.659862 95.842335 
L 473.065889 98.99797 
L 473.328816 102.168745 
L 473.454032 105.347947 
L 473.447969 108.529618 
L 473.317988 111.70865 
L 472.719592 118.042947 
L 471.731563 124.328593 
L 470.433857 130.557968 
L 468.910645 136.736298 
L 465.532605 149.006674 
L 463.047753 158.222633 
L 461.572106 164.412451 
L 460.334808 170.654068 
L 459.410554 176.949221 
L 458.866778 183.288319 
L 458.756389 186.468 
L 458.76256 189.649585 
L 458.891189 192.828569 
L 459.147508 195.999807 
L 459.536056 199.157568 
L 460.060647 202.295593 
L 460.72435 205.407163 
L 461.529471 208.48517 
L 462.477547 211.522189 
L 463.569337 214.510552 
L 464.804836 217.442419 
L 466.183281 220.309853 
L 467.703174 223.104885 
L 469.362188 225.819353 
L 471.157533 228.445639 
L 473.08562 230.976077 
L 475.142141 233.403285 
L 477.322085 235.720276 
L 479.619764 237.920563 
L 482.028858 239.998267 
L 484.54248 241.94821 
L 487.153258 243.766014 
L 489.853429 245.448171 
L 492.634943 246.992114 
L 495.489581 248.396261 
L 498.409073 249.660051 
L 501.385222 250.783954 
L 504.410019 251.769472 
L 507.475762 252.619114 
L 510.575156 253.336366 
L 513.701414 253.925641 
L 516.848329 254.392217 
L 523.182596 254.982307 
L 529.541991 255.163493 
L 535.902171 255.001763 
L 542.249954 254.569878 
L 551.742858 253.585853 
L 570.706911 251.417347 
L 577.051363 250.938249 
L 583.409804 250.716623 
L 589.770833 250.829846 
L 596.111252 251.350147 
L 599.262931 251.783535 
L 602.39482 252.342224 
L 605.500312 253.032687 
L 608.572014 253.860587 
L 611.601803 254.830698 
L 614.580889 255.946823 
L 617.499905 257.211731 
L 620.348999 258.6271 
L 623.117942 260.193472 
L 625.796242 261.910226 
L 628.373258 263.775563 
L 630.838325 265.786509 
L 633.180866 267.938934 
L 635.390503 270.227582 
L 637.45716 272.646115 
L 639.371157 275.187171 
L 641.123282 277.842427 
L 642.704863 280.602665 
L 644.107812 283.45784 
L 645.324818 286.397466 
L 646.34886 289.409748 
L 647.173862 292.482511 
L 647.794605 295.602955 
L 648.206834 298.757721 
L 648.407356 301.932979 
L 648.394125 305.114533 
L 648.166322 308.287948 
L 647.724404 311.438686 
L 647.070148 314.552267 
L 646.206656 317.614425 
L 645.138353 320.611282 
L 643.870943 323.529516 
L 642.411348 326.356529 
L 640.767626 329.080606 
L 638.948851 331.691063 
L 636.964989 334.178376 
L 634.826745 336.534297 
L 632.545233 338.752127 
L 630.132285 340.8262 
L 627.599793 342.752495 
L 624.959656 344.528399 
L 622.223607 346.152662 
L 619.403058 347.625319 
L 616.508958 348.947601 
L 613.551687 350.121834 
L 610.540964 351.151318 
L 607.485776 352.040216 
L 604.394337 352.79343 
L 601.274056 353.41648 
L 598.131536 353.915393 
L 594.972573 354.296594 
L 588.624646 354.732928 
L 582.261706 354.781125 
L 575.904729 354.497527 
L 569.566015 353.937132 
L 563.251092 353.152048 
L 556.960613 352.190321 
L 547.564466 350.509618 
L 535.084716 348.012197 
L 510.143165 342.928693 
L 497.628407 340.61358 
L 485.072133 338.535607 
L 472.478824 336.695088 
L 456.701467 334.653124 
L 428.291065 331.065785 
L 418.852275 329.6438 
L 409.455315 327.968591 
L 403.227057 326.663636 
L 397.040591 325.173333 
L 390.910167 323.467351 
L 384.853559 321.515709 
L 378.892464 319.289611 
L 373.052774 316.762393 
L 367.364675 313.910581 
L 361.862485 310.715017 
L 356.584205 307.162009 
L 354.041722 305.248954 
L 351.570709 303.244436 
L 349.176532 301.148749 
L 346.864565 298.962704 
L 344.640138 296.687642 
L 342.508472 294.325445 
L 340.474615 291.878531 
L 338.543367 289.349846 
L 336.719215 286.742849 
L 335.006257 284.061481 
L 333.408127 281.310128 
L 331.927927 278.493576 
L 330.568155 275.616948 
L 329.330643 272.685645 
L 328.216497 269.705264 
L 327.226045 266.681523 
L 326.35879 263.620168 
L 325.613377 260.526882 
L 324.98756 257.407196 
L 324.478183 254.26639 
L 323.791521 247.940755 
L 323.509685 241.584134 
L 323.574916 235.221339 
L 323.918688 228.867268 
L 324.46541 222.527252 
L 326.198 206.712765 
L 327.097486 197.21022 
L 327.489276 190.859029 
L 327.641848 184.497754 
L 327.499805 178.136405 
L 327.014199 171.792199 
L 326.142807 165.489476 
L 325.551186 162.36322 
L 324.85054 159.259581 
L 324.037667 156.18343 
L 323.109866 153.139971 
L 322.064945 150.134712 
L 320.901231 147.173428 
L 319.617584 144.262126 
L 318.213396 141.407012 
L 316.688602 138.614447 
L 315.043677 135.890914 
L 313.279639 133.242975 
L 311.398048 130.677236 
L 309.400998 128.200305 
L 307.291112 125.818754 
L 305.071538 123.539086 
L 302.74593 121.367694 
L 300.318445 119.310825 
L 297.793721 117.37455 
L 295.176866 115.564725 
L 292.47344 113.886963 
L 289.689436 112.346601 
L 286.831257 110.94867 
L 283.905699 109.697866 
L 280.919925 108.598524 
L 277.88144 107.65459 
L 274.798067 106.869598 
L 271.677918 106.246644 
L 268.529365 105.788364 
L 265.361011 105.496915 
L 262.181658 105.373955 
L 259.000269 105.420621 
L 255.825939 105.63752 
L 252.667854 106.024708 
L 249.535252 106.581682 
L 246.437383 107.307371 
L 243.383466 108.200127 
L 240.382646 109.257722 
L 237.443949 110.477347 
L 234.576233 111.855617 
L 231.78814 113.388578 
L 229.088051 115.071715 
L 226.484033 116.899973 
L 223.983793 118.867772 
L 221.594625 120.969037 
L 219.323369 123.197229 
L 217.17636 125.545376 
L 215.159384 128.006119 
L 213.277641 130.571756 
L 211.535703 133.234293 
L 209.937481 135.985502 
L 208.4862 138.816976 
L 207.184369 141.7202 
L 206.033765 144.68661 
L 205.035421 147.707668 
L 204.18962 150.774933 
L 203.495893 153.88013 
L 202.953026 157.015224 
L 202.559076 160.172491 
L 202.311384 163.344587 
L 202.206604 166.524616 
L 202.240733 169.706191 
L 202.409141 172.883493 
L 202.706611 176.051322 
L 203.127378 179.205148 
L 203.665168 182.341144 
L 205.064436 188.548063 
L 206.845594 194.656618 
L 208.944067 200.663886 
L 211.290264 206.579109 
L 215.111209 215.326427 
L 221.612883 229.846896 
L 224.003797 235.744629 
L 226.129646 241.742711 
L 227.885944 247.858804 
L 228.591816 250.961633 
L 229.164706 254.091741 
L 229.591171 257.245131 
L 229.858121 260.416004 
L 229.953045 263.596669 
L 229.864273 266.777503 
L 229.581248 269.946953 
L 229.094829 273.091606 
L 228.397583 276.196316 
L 227.484075 279.244397 
L 226.351141 282.217893 
L 224.998109 285.097902 
L 223.426979 287.864962 
L 221.64253 290.499492 
L 219.652349 292.982258 
L 217.46677 295.294863 
L 215.098721 297.420236 
L 212.563477 299.343095 
L 209.878321 301.050369 
L 207.062131 302.531563 
L 204.134897 303.779041 
L 201.117834 304.787946 
L 198.030954 305.557219 
L 194.894307 306.088357 
L 191.726903 306.385462 
L 188.546345 306.454836 
L 185.368578 306.304526 
L 182.207768 305.943845 
L 179.07629 305.382907 
L 175.984661 304.632143 
L 172.942203 303.701961 
L 169.956716 302.602592 
L 167.034781 301.344019 
L 164.181901 299.935918 
L 161.402619 298.387619 
L 158.700628 296.708078 
L 156.078873 294.90586 
L 153.539635 292.989135 
L 151.084607 290.965676 
L 148.714967 288.842863 
L 146.431433 286.627691 
L 144.23432 284.32678 
L 142.123581 281.946387 
L 138.159489 276.970449 
L 134.533027 271.743184 
L 131.234432 266.302948 
L 128.250958 260.683416 
L 125.567744 254.914387 
L 123.168178 249.021648 
L 121.034587 243.027409 
L 119.148761 236.950608 
L 117.492426 230.807237 
L 116.047658 224.610655 
L 114.797263 218.371911 
L 113.725129 212.100046 
L 112.816544 205.802385 
L 111.732398 196.320084 
L 110.952223 186.807877 
L 110.452992 177.27676 
L 110.225921 167.735275 
L 110.278514 158.191267 
L 110.636592 148.653918 
L 111.06687 142.305633 
L 111.671344 135.971592 
L 112.471325 129.659304 
L 113.490064 123.378663 
L 114.751777 117.142353 
L 116.280616 110.966171 
L 118.099634 104.869228 
L 120.229734 98.873969 
L 122.688649 93.005999 
L 125.489994 87.293671 
L 128.642441 81.767436 
L 132.149068 76.458969 
L 136.006947 71.400089 
L 138.065009 68.973933 
L 140.207009 66.621555 
L 142.430883 64.346421 
L 144.734222 62.151775 
L 147.114293 60.04059 
L 149.568071 58.015544 
L 152.092265 56.078979 
L 154.683353 54.232875 
L 160.05121 50.818014 
L 165.640344 47.778697 
L 171.418342 45.115699 
L 177.353567 42.822446 
L 183.414717 40.886045 
L 189.573659 39.287317 
L 195.805705 38.002245 
L 202.090039 37.003173 
L 205.246402 36.601539 
L 205.246402 36.601539 
" clip-path="url(#pb6da763864)" style="fill: none; stroke: #0072bd; stroke-width: 3; stroke-linecap: square"/>
   </g>
   <g id="patch_3">
    <path d="M 59.40208 381.453658 
L 59.40208 10.8 
" style="fill: none; stroke: #000000; stroke-width: 0.8; stroke-linejoin: miter; stroke-linecap: square"/>
   </g>
   <g id="patch_4">
    <path d="M 708.599488 381.453658 
L 708.599488 10.8 
" style="fill: none; stroke: #000000; stroke-width: 0.8; stroke-linejoin: miter; stroke-linecap: square"/>
   </g>
   <g id="patch_5">
    <path d="M 59.40208 381.453658 
L 708.599488 381.453658 
" style="fill: none; stroke: #000000; stroke-width: 0.8; stroke-linejoin: miter; stroke-linecap: square"/>
   </g>
   <g id="patch_6">
    <path d="M 59.40208 10.8 
L 708.599488 10.8 
" style="fill: none; stroke: #000000; stroke-width: 0.8; stroke-linejoin: miter; stroke-linecap: square"/>
   </g>
   <g id="legend_1">
    <g id="patch_7">
     <path d="M 575.435813 106.422979 
L 698.099488 106.422979 
Q 701.099488 106.422979 701.099488 103.422979 
L 701.099488 21.3 
Q 701.099488 18.3 698.099488 18.3 
L 575.435813 18.3 
Q 572.435813 18.3 572.435813 21.3 
L 572.435813 103.422979 
Q 572.435813 106.422979 575.435813 106.422979 
z
" style="fill: #ffffff; opacity: 0.8; stroke: #cccccc; stroke-linejoin: miter"/>
    </g>
    <g id="line2d_26">
     <g>
      <use xlink:href="#m3b53d0fd03" x="593.435813" y="29.55" style="fill: #d95319; stroke: #d95319"/>
     </g>
    </g>
    <g id="text_14">
     <!-- Left cones -->
     <g transform="translate(620.435813 34.8)scale(0.15 -0.15)">
      <defs>
       <path id="CMR17-4c" d="M 3469 1615 
L 3354 1615 
C 3302 983 3219 166 2125 166 
L 1530 166 
C 1274 166 1261 197 1261 414 
L 1261 3898 
C 1261 4129 1274 4192 1760 4192 
L 1901 4192 
L 1901 4352 
C 1638 4352 1331 4352 1069 4352 
C 870 4352 512 4352 326 4352 
L 326 4192 
C 768 4192 838 4192 838 3905 
L 838 452 
C 838 166 768 166 326 166 
L 326 0 
L 3315 0 
L 3469 1615 
z
" transform="scale(0.015625)"/>
       <path id="CMR17-65" d="M 2438 1472 
C 2464 1498 2464 1511 2464 1576 
C 2464 2238 2118 2816 1389 2816 
C 710 2816 173 2169 173 1383 
C 173 551 781 -64 1459 -64 
C 2176 -64 2458 607 2458 740 
C 2458 784 2419 784 2406 784 
C 2362 784 2355 771 2330 696 
C 2189 265 1837 51 1504 51 
C 1229 51 954 203 781 480 
C 582 803 582 1176 582 1472 
L 2438 1472 
z
M 589 1568 
C 634 2505 1126 2714 1382 2714 
C 1818 2714 2112 2297 2118 1568 
L 589 1568 
z
" transform="scale(0.015625)"/>
       <path id="CMR17-66" d="M 979 2560 
L 1709 2560 
L 1709 2725 
L 966 2725 
L 966 3494 
C 966 4022 1235 4352 1510 4352 
C 1594 4352 1690 4327 1754 4282 
C 1702 4269 1568 4225 1568 4067 
C 1568 3901 1696 3850 1786 3850 
C 1875 3850 2003 3901 2003 4067 
C 2003 4308 1773 4454 1517 4454 
C 1152 4454 653 4156 653 3481 
L 653 2725 
L 141 2725 
L 141 2560 
L 653 2560 
L 653 427 
C 653 184 627 153 218 153 
L 218 -13 
C 371 0 666 0 832 0 
C 1018 0 1344 0 1517 -13 
L 1517 153 
C 1056 153 979 153 979 439 
L 979 2560 
z
" transform="scale(0.015625)"/>
       <path id="CMR17-74" d="M 966 2560 
L 1862 2560 
L 1862 2725 
L 966 2725 
L 966 3904 
L 851 3904 
C 838 3245 614 2668 70 2668 
L 70 2560 
L 627 2560 
L 627 771 
C 627 650 627 -64 1370 -64 
C 1747 -64 1965 306 1965 777 
L 1965 1140 
L 1850 1140 
L 1850 783 
C 1850 344 1677 51 1408 51 
C 1222 51 966 178 966 758 
L 966 2560 
z
" transform="scale(0.015625)"/>
       <path id="CMR17-63" d="M 2234 2240 
C 2112 2240 1933 2240 1933 2017 
C 1933 1838 2080 1787 2163 1787 
C 2208 1787 2394 1807 2394 2024 
C 2394 2467 1958 2803 1466 2803 
C 787 2803 211 2178 211 1363 
C 211 516 813 -64 1466 -64 
C 2259 -64 2458 677 2458 748 
C 2458 774 2451 793 2406 793 
C 2362 793 2355 787 2330 703 
C 2163 180 1798 51 1523 51 
C 1114 51 621 427 621 1369 
C 621 2338 1094 2688 1472 2688 
C 1722 2688 2093 2573 2234 2240 
z
" transform="scale(0.015625)"/>
       <path id="CMR17-6f" d="M 2758 1356 
C 2758 2176 2163 2816 1466 2816 
C 768 2816 173 2176 173 1356 
C 173 551 768 -64 1466 -64 
C 2163 -64 2758 551 2758 1356 
z
M 1466 51 
C 1165 51 909 230 762 480 
C 602 767 582 1126 582 1408 
C 582 1677 595 2010 762 2298 
C 890 2509 1139 2714 1466 2714 
C 1754 2714 1997 2554 2150 2330 
C 2349 2029 2349 1607 2349 1408 
C 2349 1158 2336 775 2163 467 
C 1984 173 1709 51 1466 51 
z
" transform="scale(0.015625)"/>
       <path id="CMR17-6e" d="M 2656 1933 
C 2656 2259 2592 2790 1837 2790 
C 1331 2790 1069 2400 973 2144 
L 966 2144 
L 966 2790 
L 211 2720 
L 211 2554 
C 589 2554 646 2515 646 2208 
L 646 428 
C 646 184 621 153 211 153 
L 211 -13 
C 365 0 646 0 813 0 
C 979 0 1267 0 1421 -13 
L 1421 153 
C 1011 153 986 178 986 428 
L 986 1658 
C 986 2247 1344 2688 1792 2688 
C 2266 2688 2317 2266 2317 1958 
L 2317 428 
C 2317 184 2291 153 1882 153 
L 1882 -13 
C 2035 0 2317 0 2483 0 
C 2650 0 2938 0 3091 -13 
L 3091 153 
C 2682 153 2656 178 2656 428 
L 2656 1933 
z
" transform="scale(0.015625)"/>
       <path id="CMR17-73" d="M 1978 2697 
C 1978 2813 1971 2819 1933 2819 
C 1907 2819 1901 2813 1824 2717 
C 1805 2691 1747 2626 1728 2601 
C 1523 2819 1235 2819 1126 2819 
C 416 2819 160 2447 160 2076 
C 160 1498 813 1365 998 1325 
C 1402 1243 1542 1217 1677 1101 
C 1760 1025 1901 884 1901 654 
C 1901 384 1747 38 1158 38 
C 602 38 403 460 288 1021 
C 269 1110 269 1117 218 1117 
C 166 1117 160 1110 160 983 
L 160 63 
C 160 -51 166 -58 205 -58 
C 237 -58 243 -51 275 0 
C 314 57 410 211 448 276 
C 576 103 800 -64 1158 -64 
C 1792 -64 2131 283 2131 784 
C 2131 1112 1958 1285 1875 1362 
C 1683 1561 1459 1606 1190 1657 
C 838 1735 390 1825 390 2217 
C 390 2383 480 2737 1126 2737 
C 1811 2737 1850 2094 1862 1888 
C 1869 1856 1901 1849 1920 1849 
C 1978 1849 1978 1869 1978 1978 
L 1978 2697 
z
" transform="scale(0.015625)"/>
      </defs>
      <use xlink:href="#CMR17-4c" transform="scale(0.996264)"/>
      <use xlink:href="#CMR17-65" transform="translate(57.381408 0)scale(0.996264)"/>
      <use xlink:href="#CMR17-66" transform="translate(97.867068 0)scale(0.996264)"/>
      <use xlink:href="#CMR17-74" transform="translate(125.340581 0)scale(0.996264)"/>
      <use xlink:href="#CMR17-63" transform="translate(190.697315 0)scale(0.996264)"/>
      <use xlink:href="#CMR17-6f" transform="translate(231.182975 0)scale(0.996264)"/>
      <use xlink:href="#CMR17-6e" transform="translate(276.873452 0)scale(0.996264)"/>
      <use xlink:href="#CMR17-65" transform="translate(327.768822 0)scale(0.996264)"/>
      <use xlink:href="#CMR17-73" transform="translate(368.254483 0)scale(0.996264)"/>
     </g>
    </g>
    <g id="line2d_27">
     <defs>
      <path id="m3c99e4d49a" d="M 0 2 
C 0.530406 2 1.03916 1.789267 1.414214 1.414214 
C 1.789267 1.03916 2 0.530406 2 0 
C 2 -0.530406 1.789267 -1.03916 1.414214 -1.414214 
C 1.03916 -1.789267 0.530406 -2 0 -2 
C -0.530406 -2 -1.03916 -1.789267 -1.414214 -1.414214 
C -1.789267 -1.03916 -2 -0.530406 -2 0 
C -2 0.530406 -1.789267 1.03916 -1.414214 1.414214 
C -1.03916 1.789267 -0.530406 2 0 2 
z
" style="stroke: #0072bd"/>
     </defs>
     <g>
      <use xlink:href="#m3c99e4d49a" x="593.435813" y="50.455745" style="fill: #0072bd; stroke: #0072bd"/>
     </g>
    </g>
    <g id="text_15">
     <!-- Right cones -->
     <g transform="translate(620.435813 55.705745)scale(0.15 -0.15)">
      <defs>
       <path id="CMR17-52" d="M 2509 2146 
C 3117 2268 3629 2676 3629 3186 
C 3629 3785 2950 4326 2054 4326 
L 333 4326 
L 333 4160 
C 774 4160 845 4160 845 3873 
L 845 415 
C 845 128 774 128 333 128 
L 333 -26 
C 518 -26 851 -26 1050 -26 
C 1248 -26 1581 -26 1766 -26 
L 1766 128 
C 1325 128 1254 128 1254 417 
L 1254 2112 
L 2003 2112 
C 2368 2112 2573 1964 2662 1881 
C 2918 1632 2918 1459 2918 1024 
C 2918 595 2918 377 3110 160 
C 3354 -102 3680 -128 3821 -128 
C 4294 -128 4365 396 4365 503 
C 4365 540 4365 585 4307 585 
C 4256 585 4250 547 4250 522 
C 4218 112 4032 -26 3834 -26 
C 3482 -26 3443 375 3405 764 
C 3386 898 3373 993 3360 1133 
C 3322 1452 3270 1917 2509 2146 
z
M 1984 2214 
L 1254 2214 
L 1254 3913 
C 1254 4129 1267 4160 1523 4160 
L 1990 4160 
C 2522 4160 3142 3977 3142 3190 
C 3142 2372 2464 2214 1984 2214 
z
" transform="scale(0.015625)"/>
       <path id="CMR17-69" d="M 992 3909 
C 992 4049 877 4170 730 4170 
C 589 4170 467 4056 467 3909 
C 467 3769 582 3648 730 3648 
C 870 3648 992 3763 992 3909 
z
M 243 2706 
L 243 2541 
C 602 2541 653 2502 653 2197 
L 653 427 
C 653 184 627 153 218 153 
L 218 -13 
C 371 0 646 0 806 0 
C 960 0 1222 0 1370 -13 
L 1370 153 
C 992 153 979 191 979 420 
L 979 2776 
L 243 2706 
z
" transform="scale(0.015625)"/>
       <path id="CMR17-67" d="M 710 1164 
C 832 1068 1043 960 1299 960 
C 1805 960 2240 1357 2240 1888 
C 2240 2054 2189 2310 1997 2509 
C 2176 2692 2438 2752 2586 2752 
C 2611 2752 2650 2752 2682 2734 
C 2656 2728 2598 2703 2598 2605 
C 2598 2527 2656 2471 2739 2471 
C 2835 2471 2886 2533 2886 2614 
C 2886 2731 2790 2854 2586 2854 
C 2330 2854 2106 2738 1926 2580 
C 1734 2753 1504 2816 1299 2816 
C 794 2816 358 2419 358 1888 
C 358 1522 570 1292 634 1228 
C 442 1004 442 743 442 711 
C 442 545 506 302 723 168 
C 390 85 128 -169 128 -486 
C 128 -943 736 -1280 1466 -1280 
C 2170 -1280 2803 -956 2803 -479 
C 2803 384 1856 384 1363 384 
C 1216 384 954 384 922 391 
C 723 423 589 602 589 826 
C 589 883 589 1024 710 1164 
z
M 1299 1068 
C 736 1068 736 1760 736 1889 
C 736 2016 736 2708 1299 2708 
C 1862 2708 1862 2016 1862 1889 
C 1862 1760 1862 1068 1299 1068 
z
M 1466 -1171 
C 826 -1171 384 -835 384 -486 
C 384 -289 493 -105 634 -4 
C 794 104 858 104 1293 104 
C 1818 104 2547 104 2547 -486 
C 2547 -835 2106 -1171 1466 -1171 
z
" transform="scale(0.015625)"/>
       <path id="CMR17-68" d="M 2656 1933 
C 2656 2259 2592 2790 1837 2790 
C 1312 2790 1056 2368 979 2157 
L 973 2157 
L 973 4396 
L 211 4326 
L 211 4160 
C 589 4160 646 4122 646 3817 
L 646 426 
C 646 184 621 153 211 153 
L 211 -13 
C 365 0 646 0 813 0 
C 979 0 1267 0 1421 -13 
L 1421 153 
C 1011 153 986 178 986 428 
L 986 1658 
C 986 2247 1344 2688 1792 2688 
C 2266 2688 2317 2266 2317 1958 
L 2317 428 
C 2317 184 2291 153 1882 153 
L 1882 -13 
C 2035 0 2317 0 2483 0 
C 2650 0 2938 0 3091 -13 
L 3091 153 
C 2682 153 2656 178 2656 428 
L 2656 1933 
z
" transform="scale(0.015625)"/>
      </defs>
      <use xlink:href="#CMR17-52" transform="scale(0.996264)"/>
      <use xlink:href="#CMR17-69" transform="translate(67.791102 0)scale(0.996264)"/>
      <use xlink:href="#CMR17-67" transform="translate(92.66216 0)scale(0.996264)"/>
      <use xlink:href="#CMR17-68" transform="translate(138.352638 0)scale(0.996264)"/>
      <use xlink:href="#CMR17-74" transform="translate(186.645553 0)scale(0.996264)"/>
      <use xlink:href="#CMR17-63" transform="translate(252.002288 0)scale(0.996264)"/>
      <use xlink:href="#CMR17-6f" transform="translate(292.487948 0)scale(0.996264)"/>
      <use xlink:href="#CMR17-6e" transform="translate(338.178425 0)scale(0.996264)"/>
      <use xlink:href="#CMR17-65" transform="translate(389.073795 0)scale(0.996264)"/>
      <use xlink:href="#CMR17-73" transform="translate(429.559455 0)scale(0.996264)"/>
     </g>
    </g>
    <g id="line2d_28">
     <path d="M 578.435813 71.361489 
L 593.435813 71.361489 
L 608.435813 71.361489 
" style="fill: none; stroke: #ebb120; stroke-width: 3; stroke-linecap: square"/>
    </g>
    <g id="text_16">
     <!-- CO-Fixed -->
     <g transform="translate(620.435813 76.611489)scale(0.15 -0.15)">
      <defs>
       <path id="CMR17-43" d="M 3974 4289 
C 3974 4403 3968 4410 3930 4410 
C 3904 4410 3898 4403 3853 4327 
L 3571 3792 
C 3258 4187 2874 4416 2381 4416 
C 1286 4416 294 3456 294 2148 
C 294 826 1286 -128 2387 -128 
C 3366 -128 3974 730 3974 1461 
C 3974 1524 3974 1550 3917 1550 
C 3866 1550 3866 1531 3859 1474 
C 3808 585 3168 38 2477 38 
C 1824 38 781 495 781 2147 
C 781 3805 1843 4250 2464 4250 
C 3187 4250 3712 3628 3834 2745 
C 3846 2668 3846 2655 3904 2655 
C 3974 2655 3974 2668 3974 2783 
L 3974 4289 
z
" transform="scale(0.015625)"/>
       <path id="CMR17-4f" d="M 4307 2135 
C 4307 3437 3366 4416 2304 4416 
C 1216 4416 294 3424 294 2135 
C 294 845 1229 -128 2298 -128 
C 3392 -128 4307 864 4307 2135 
z
M 2304 -13 
C 1574 -13 781 711 781 2217 
C 781 3716 1651 4301 2298 4301 
C 2976 4301 3821 3698 3821 2217 
C 3821 686 3008 -13 2304 -13 
z
" transform="scale(0.015625)"/>
       <path id="CMR17-2d" d="M 1632 1216 
L 1632 1496 
L 26 1496 
L 26 1216 
L 1632 1216 
z
" transform="scale(0.015625)"/>
       <path id="CMR17-46" d="M 3482 4325 
L 326 4325 
L 326 4160 
C 768 4160 838 4160 838 3874 
L 838 446 
C 838 160 768 160 326 160 
L 326 0 
C 512 0 870 0 1069 0 
C 1331 0 1638 0 1901 0 
L 1901 160 
L 1760 160 
C 1274 160 1261 223 1261 452 
L 1261 2075 
L 1837 2075 
C 2432 2075 2490 1865 2490 1332 
L 2605 1332 
L 2605 2987 
L 2490 2987 
C 2490 2450 2432 2240 1837 2240 
L 1261 2240 
L 1261 3911 
C 1261 4128 1274 4160 1530 4160 
L 2355 4160 
C 3322 4160 3430 3765 3520 2916 
L 3635 2916 
L 3482 4325 
z
" transform="scale(0.015625)"/>
       <path id="CMR17-78" d="M 1664 1477 
C 1856 1726 2074 2006 2253 2216 
C 2464 2458 2707 2560 2989 2560 
L 2989 2726 
C 2880 2726 2656 2726 2541 2726 
C 2368 2726 2170 2726 2022 2732 
L 2022 2566 
C 2112 2553 2163 2489 2163 2400 
C 2163 2285 2099 2215 2067 2171 
L 1594 1573 
L 1030 2306 
C 973 2376 973 2388 973 2420 
C 973 2497 1037 2560 1146 2560 
L 1146 2732 
C 992 2726 717 2726 557 2726 
C 384 2726 179 2726 38 2732 
L 38 2560 
C 384 2560 461 2534 614 2343 
L 1350 1395 
C 1363 1382 1395 1344 1395 1325 
C 1395 1299 838 619 768 530 
C 480 185 179 160 6 160 
L 6 0 
C 115 0 339 0 454 0 
C 582 0 864 0 979 -6 
L 979 160 
C 941 166 838 179 838 325 
C 838 440 890 510 947 586 
L 1478 1236 
L 2035 512 
C 2086 442 2163 346 2163 301 
C 2163 211 2086 160 1984 160 
L 1984 -6 
C 2138 0 2413 0 2573 0 
C 2746 0 2950 0 3091 -6 
L 3091 160 
C 2771 160 2675 172 2522 370 
L 1664 1477 
z
" transform="scale(0.015625)"/>
       <path id="CMR17-64" d="M 1869 4326 
L 1869 4160 
C 2246 4160 2304 4122 2304 3820 
L 2304 2345 
C 2278 2377 2016 2790 1498 2790 
C 845 2790 211 2208 211 1364 
C 211 525 806 -64 1434 -64 
C 1978 -64 2259 337 2291 380 
L 2291 -63 
L 3066 -63 
L 3066 128 
C 2688 128 2630 166 2630 473 
L 2630 4396 
L 1869 4326 
z
M 2291 755 
C 2291 563 2176 390 2029 262 
C 1811 70 1594 38 1472 38 
C 1286 38 621 134 621 1356 
C 621 2612 1363 2688 1530 2688 
C 1824 2688 2061 2522 2208 2291 
C 2291 2157 2291 2138 2291 2023 
L 2291 755 
z
" transform="scale(0.015625)"/>
      </defs>
      <use xlink:href="#CMR17-43" transform="scale(0.996264)"/>
      <use xlink:href="#CMR17-4f" transform="translate(66.509881 0)scale(0.996264)"/>
      <use xlink:href="#CMR17-2d" transform="translate(138.224669 0)scale(0.996264)"/>
      <use xlink:href="#CMR17-46" transform="translate(168.300635 0)scale(0.996264)"/>
      <use xlink:href="#CMR17-69" transform="translate(228.284482 0)scale(0.996264)"/>
      <use xlink:href="#CMR17-78" transform="translate(253.15554 0)scale(0.996264)"/>
      <use xlink:href="#CMR17-65" transform="translate(301.448456 0)scale(0.996264)"/>
      <use xlink:href="#CMR17-64" transform="translate(341.934117 0)scale(0.996264)"/>
     </g>
    </g>
    <g id="line2d_29">
     <path d="M 578.435813 92.267234 
L 593.435813 92.267234 
L 608.435813 92.267234 
" style="fill: none; stroke: #0072bd; stroke-width: 3; stroke-linecap: square"/>
    </g>
    <g id="text_17">
     <!-- CO-Free -->
     <g transform="translate(620.435813 97.517234)scale(0.15 -0.15)">
      <defs>
       <path id="CMR17-72" d="M 960 1497 
C 960 2112 1222 2688 1702 2688 
C 1747 2688 1792 2682 1837 2662 
C 1837 2662 1696 2617 1696 2452 
C 1696 2298 1818 2234 1914 2234 
C 1990 2234 2131 2279 2131 2458 
C 2131 2663 1926 2790 1709 2790 
C 1222 2790 1011 2317 947 2093 
L 941 2093 
L 941 2790 
L 198 2720 
L 198 2554 
C 576 2554 634 2515 634 2208 
L 634 428 
C 634 184 608 153 198 153 
L 198 -13 
C 352 0 646 0 813 0 
C 998 0 1325 0 1498 -13 
L 1498 153 
C 1037 153 960 153 960 440 
L 960 1497 
z
" transform="scale(0.015625)"/>
      </defs>
      <use xlink:href="#CMR17-43" transform="scale(0.996264)"/>
      <use xlink:href="#CMR17-4f" transform="translate(66.509881 0)scale(0.996264)"/>
      <use xlink:href="#CMR17-2d" transform="translate(138.224669 0)scale(0.996264)"/>
      <use xlink:href="#CMR17-46" transform="translate(168.300635 0)scale(0.996264)"/>
      <use xlink:href="#CMR17-72" transform="translate(220.477227 0)scale(0.996264)"/>
      <use xlink:href="#CMR17-65" transform="translate(255.757994 0)scale(0.996264)"/>
      <use xlink:href="#CMR17-65" transform="translate(296.243655 0)scale(0.996264)"/>
     </g>
    </g>
   </g>
   <g id="line2d_30">
    <g clip-path="url(#pb6da763864)">
     <use xlink:href="#m3c99e4d49a" x="204.334852" y="52.187011" style="fill: #0072bd; stroke: #0072bd"/>
     <use xlink:href="#m3c99e4d49a" x="231.631694" y="51.303057" style="fill: #0072bd; stroke: #0072bd"/>
     <use xlink:href="#m3c99e4d49a" x="258.928535" y="50.419102" style="fill: #0072bd; stroke: #0072bd"/>
     <use xlink:href="#m3c99e4d49a" x="285.528931" y="50.346735" style="fill: #0072bd; stroke: #0072bd"/>
     <use xlink:href="#m3c99e4d49a" x="319.437581" y="51.007996" style="fill: #0072bd; stroke: #0072bd"/>
     <use xlink:href="#m3c99e4d49a" x="347.326962" y="50.624629" style="fill: #0072bd; stroke: #0072bd"/>
     <use xlink:href="#m3c99e4d49a" x="377.522701" y="50.838837" style="fill: #0072bd; stroke: #0072bd"/>
     <use xlink:href="#m3c99e4d49a" x="409.192884" y="50.698957" style="fill: #0072bd; stroke: #0072bd"/>
     <use xlink:href="#m3c99e4d49a" x="430.058616" y="59.996419" style="fill: #0072bd; stroke: #0072bd"/>
     <use xlink:href="#m3c99e4d49a" x="442.369057" y="69.320278" style="fill: #0072bd; stroke: #0072bd"/>
     <use xlink:href="#m3c99e4d49a" x="453.76087" y="83.660899" style="fill: #0072bd; stroke: #0072bd"/>
     <use xlink:href="#m3c99e4d49a" x="461.135795" y="98.896209" style="fill: #0072bd; stroke: #0072bd"/>
     <use xlink:href="#m3c99e4d49a" x="460.522123" y="119.105129" style="fill: #0072bd; stroke: #0072bd"/>
     <use xlink:href="#m3c99e4d49a" x="456.808615" y="130.88672" style="fill: #0072bd; stroke: #0072bd"/>
     <use xlink:href="#m3c99e4d49a" x="449.211926" y="147.965424" style="fill: #0072bd; stroke: #0072bd"/>
     <use xlink:href="#m3c99e4d49a" x="442.019706" y="166.396374" style="fill: #0072bd; stroke: #0072bd"/>
     <use xlink:href="#m3c99e4d49a" x="440.250737" y="180.483455" style="fill: #0072bd; stroke: #0072bd"/>
     <use xlink:href="#m3c99e4d49a" x="446.785166" y="195.877954" style="fill: #0072bd; stroke: #0072bd"/>
     <use xlink:href="#m3c99e4d49a" x="454.894497" y="215.008868" style="fill: #0072bd; stroke: #0072bd"/>
     <use xlink:href="#m3c99e4d49a" x="463.085634" y="233.805515" style="fill: #0072bd; stroke: #0072bd"/>
     <use xlink:href="#m3c99e4d49a" x="476.040373" y="251.781826" style="fill: #0072bd; stroke: #0072bd"/>
     <use xlink:href="#m3c99e4d49a" x="494.023021" y="268.062464" style="fill: #0072bd; stroke: #0072bd"/>
     <use xlink:href="#m3c99e4d49a" x="518.092481" y="271.994035" style="fill: #0072bd; stroke: #0072bd"/>
     <use xlink:href="#m3c99e4d49a" x="536.709497" y="267.522821" style="fill: #0072bd; stroke: #0072bd"/>
     <use xlink:href="#m3c99e4d49a" x="555.474045" y="264.148963" style="fill: #0072bd; stroke: #0072bd"/>
     <use xlink:href="#m3c99e4d49a" x="572.861097" y="261.48056" style="fill: #0072bd; stroke: #0072bd"/>
     <use xlink:href="#m3c99e4d49a" x="592.336685" y="261.988501" style="fill: #0072bd; stroke: #0072bd"/>
     <use xlink:href="#m3c99e4d49a" x="610.918908" y="267.923878" style="fill: #0072bd; stroke: #0072bd"/>
     <use xlink:href="#m3c99e4d49a" x="621.827" y="280.305675" style="fill: #0072bd; stroke: #0072bd"/>
     <use xlink:href="#m3c99e4d49a" x="626.990809" y="293.384592" style="fill: #0072bd; stroke: #0072bd"/>
     <use xlink:href="#m3c99e4d49a" x="632.129006" y="308.537007" style="fill: #0072bd; stroke: #0072bd"/>
     <use xlink:href="#m3c99e4d49a" x="623.444445" y="326.487875" style="fill: #0072bd; stroke: #0072bd"/>
     <use xlink:href="#m3c99e4d49a" x="612.329551" y="338.886856" style="fill: #0072bd; stroke: #0072bd"/>
     <use xlink:href="#m3c99e4d49a" x="593.084771" y="341.78079" style="fill: #0072bd; stroke: #0072bd"/>
     <use xlink:href="#m3c99e4d49a" x="570.365506" y="338.772614" style="fill: #0072bd; stroke: #0072bd"/>
     <use xlink:href="#m3c99e4d49a" x="543.463653" y="333.887868" style="fill: #0072bd; stroke: #0072bd"/>
     <use xlink:href="#m3c99e4d49a" x="521.366596" y="329.886651" style="fill: #0072bd; stroke: #0072bd"/>
     <use xlink:href="#m3c99e4d49a" x="500.655574" y="326.503366" style="fill: #0072bd; stroke: #0072bd"/>
     <use xlink:href="#m3c99e4d49a" x="479.134754" y="322.673534" style="fill: #0072bd; stroke: #0072bd"/>
     <use xlink:href="#m3c99e4d49a" x="462.116158" y="320.258033" style="fill: #0072bd; stroke: #0072bd"/>
     <use xlink:href="#m3c99e4d49a" x="438.184888" y="316.354232" style="fill: #0072bd; stroke: #0072bd"/>
     <use xlink:href="#m3c99e4d49a" x="409.931974" y="312.115382" style="fill: #0072bd; stroke: #0072bd"/>
     <use xlink:href="#m3c99e4d49a" x="390.804225" y="309.013717" style="fill: #0072bd; stroke: #0072bd"/>
     <use xlink:href="#m3c99e4d49a" x="369.614186" y="300.672766" style="fill: #0072bd; stroke: #0072bd"/>
     <use xlink:href="#m3c99e4d49a" x="353.381905" y="283.486205" style="fill: #0072bd; stroke: #0072bd"/>
     <use xlink:href="#m3c99e4d49a" x="341.687186" y="268.682281" style="fill: #0072bd; stroke: #0072bd"/>
     <use xlink:href="#m3c99e4d49a" x="333.356493" y="248.321446" style="fill: #0072bd; stroke: #0072bd"/>
     <use xlink:href="#m3c99e4d49a" x="335.665837" y="223.965947" style="fill: #0072bd; stroke: #0072bd"/>
     <use xlink:href="#m3c99e4d49a" x="343.126179" y="207.445583" style="fill: #0072bd; stroke: #0072bd"/>
     <use xlink:href="#m3c99e4d49a" x="344.75882" y="185.24937" style="fill: #0072bd; stroke: #0072bd"/>
     <use xlink:href="#m3c99e4d49a" x="338.708639" y="167.296809" style="fill: #0072bd; stroke: #0072bd"/>
     <use xlink:href="#m3c99e4d49a" x="330.66649" y="144.492817" style="fill: #0072bd; stroke: #0072bd"/>
     <use xlink:href="#m3c99e4d49a" x="319.453163" y="122.805058" style="fill: #0072bd; stroke: #0072bd"/>
     <use xlink:href="#m3c99e4d49a" x="300.924742" y="104.936942" style="fill: #0072bd; stroke: #0072bd"/>
     <use xlink:href="#m3c99e4d49a" x="281.781826" y="94.534959" style="fill: #0072bd; stroke: #0072bd"/>
     <use xlink:href="#m3c99e4d49a" x="259.680802" y="92.1805" style="fill: #0072bd; stroke: #0072bd"/>
     <use xlink:href="#m3c99e4d49a" x="235.148262" y="97.494022" style="fill: #0072bd; stroke: #0072bd"/>
     <use xlink:href="#m3c99e4d49a" x="214.081608" y="110.320959" style="fill: #0072bd; stroke: #0072bd"/>
     <use xlink:href="#m3c99e4d49a" x="197.219365" y="129.662061" style="fill: #0072bd; stroke: #0072bd"/>
     <use xlink:href="#m3c99e4d49a" x="190.098402" y="147.662981" style="fill: #0072bd; stroke: #0072bd"/>
     <use xlink:href="#m3c99e4d49a" x="190.173153" y="171.521536" style="fill: #0072bd; stroke: #0072bd"/>
     <use xlink:href="#m3c99e4d49a" x="191.685196" y="200.229845" style="fill: #0072bd; stroke: #0072bd"/>
     <use xlink:href="#m3c99e4d49a" x="198.706468" y="219.189269" style="fill: #0072bd; stroke: #0072bd"/>
     <use xlink:href="#m3c99e4d49a" x="205.291679" y="230.936498" style="fill: #0072bd; stroke: #0072bd"/>
     <use xlink:href="#m3c99e4d49a" x="213.285346" y="251.591934" style="fill: #0072bd; stroke: #0072bd"/>
     <use xlink:href="#m3c99e4d49a" x="215.621495" y="270.257857" style="fill: #0072bd; stroke: #0072bd"/>
     <use xlink:href="#m3c99e4d49a" x="210.598799" y="282.898394" style="fill: #0072bd; stroke: #0072bd"/>
     <use xlink:href="#m3c99e4d49a" x="201.022475" y="293.039121" style="fill: #0072bd; stroke: #0072bd"/>
     <use xlink:href="#m3c99e4d49a" x="166.341976" y="287.136416" style="fill: #0072bd; stroke: #0072bd"/>
     <use xlink:href="#m3c99e4d49a" x="150.392395" y="274.234837" style="fill: #0072bd; stroke: #0072bd"/>
     <use xlink:href="#m3c99e4d49a" x="138.351519" y="257.590772" style="fill: #0072bd; stroke: #0072bd"/>
     <use xlink:href="#m3c99e4d49a" x="130.315222" y="237.510281" style="fill: #0072bd; stroke: #0072bd"/>
     <use xlink:href="#m3c99e4d49a" x="127.361279" y="220.617741" style="fill: #0072bd; stroke: #0072bd"/>
     <use xlink:href="#m3c99e4d49a" x="126.717921" y="203.811158" style="fill: #0072bd; stroke: #0072bd"/>
     <use xlink:href="#m3c99e4d49a" x="125.289154" y="185.649112" style="fill: #0072bd; stroke: #0072bd"/>
     <use xlink:href="#m3c99e4d49a" x="124.693798" y="169.167475" style="fill: #0072bd; stroke: #0072bd"/>
     <use xlink:href="#m3c99e4d49a" x="125.907997" y="151.252885" style="fill: #0072bd; stroke: #0072bd"/>
     <use xlink:href="#m3c99e4d49a" x="127.300962" y="134.976543" style="fill: #0072bd; stroke: #0072bd"/>
     <use xlink:href="#m3c99e4d49a" x="127.685946" y="118.18247" style="fill: #0072bd; stroke: #0072bd"/>
     <use xlink:href="#m3c99e4d49a" x="131.671386" y="101.272469" style="fill: #0072bd; stroke: #0072bd"/>
     <use xlink:href="#m3c99e4d49a" x="142.478445" y="83.65005" style="fill: #0072bd; stroke: #0072bd"/>
     <use xlink:href="#m3c99e4d49a" x="158.431506" y="65.953687" style="fill: #0072bd; stroke: #0072bd"/>
     <use xlink:href="#m3c99e4d49a" x="176.554786" y="53.371097" style="fill: #0072bd; stroke: #0072bd"/>
    </g>
   </g>
  </g>
 </g>
 <defs>
  <clipPath id="pb6da763864">
   <rect x="59.40208" y="10.8" width="649.197409" height="370.653658"/>
  </clipPath>
 </defs>
</svg>
