<?xml version="1.0" encoding="utf-8" standalone="no"?>
<!DOCTYPE svg PUBLIC "-//W3C//DTD SVG 1.1//EN"
  "http://www.w3.org/Graphics/SVG/1.1/DTD/svg11.dtd">
<svg xmlns:xlink="http://www.w3.org/1999/xlink" width="720pt" height="432pt" viewBox="0 0 720 432" xmlns="http://www.w3.org/2000/svg" version="1.1">
 <metadata>
  <rdf:RDF xmlns:dc="http://purl.org/dc/elements/1.1/" xmlns:cc="http://creativecommons.org/ns#" xmlns:rdf="http://www.w3.org/1999/02/22-rdf-syntax-ns#">
   <cc:Work>
    <dc:type rdf:resource="http://purl.org/dc/dcmitype/StillImage"/>
    <dc:date>2022-04-19T12:14:15.369569</dc:date>
    <dc:format>image/svg+xml</dc:format>
    <dc:creator>
     <cc:Agent>
      <dc:title>Matplotlib v3.5.1, https://matplotlib.org/</dc:title>
     </cc:Agent>
    </dc:creator>
   </cc:Work>
  </rdf:RDF>
 </metadata>
 <defs>
  <style type="text/css">*{stroke-linejoin: round; stroke-linecap: butt}</style>
 </defs>
 <g id="figure_1">
  <g id="patch_1">
   <path d="M 0 432 
L 720 432 
L 720 0 
L 0 0 
z
" style="fill: #ffffff"/>
  </g>
  <g id="axes_1">
   <g id="patch_2">
    <path d="M 59.991453 381.453658 
L 702.834961 381.453658 
L 702.834961 10.8 
L 59.991453 10.8 
z
" style="fill: #ffffff"/>
   </g>
   <g id="matplotlib.axis_1">
    <g id="xtick_1">
     <g id="line2d_1">
      <path d="M 59.991453 381.453658 
L 59.991453 10.8 
" clip-path="url(#p5794537906)" style="fill: none; stroke-dasharray: 2.96,1.28; stroke-dashoffset: 0; stroke: #b0b0b0; stroke-width: 0.8"/>
     </g>
     <g id="line2d_2">
      <defs>
       <path id="m2a301ca2e6" d="M 0 0 
L 0 3.5 
" style="stroke: #000000; stroke-width: 0.8"/>
      </defs>
      <g>
       <use xlink:href="#m2a301ca2e6" x="59.991453" y="381.453658" style="stroke: #000000; stroke-width: 0.8"/>
      </g>
     </g>
     <g id="text_1">
      <!-- $\mathdefault{0.0}$ -->
      <g transform="translate(53.626414 395.372156)scale(0.1 -0.1)">
       <defs>
        <path id="CMR17-30" d="M 2688 2025 
C 2688 2416 2682 3080 2413 3591 
C 2176 4039 1798 4198 1466 4198 
C 1158 4198 768 4058 525 3597 
C 269 3118 243 2524 243 2025 
C 243 1661 250 1106 448 619 
C 723 -39 1216 -128 1466 -128 
C 1760 -128 2208 -7 2470 600 
C 2662 1042 2688 1559 2688 2025 
z
M 1466 -26 
C 1056 -26 813 325 723 812 
C 653 1188 653 1738 653 2096 
C 653 2588 653 2997 736 3387 
C 858 3929 1216 4096 1466 4096 
C 1728 4096 2067 3923 2189 3400 
C 2272 3036 2278 2607 2278 2096 
C 2278 1680 2278 1169 2202 792 
C 2067 95 1690 -26 1466 -26 
z
" transform="scale(0.015625)"/>
        <path id="CMMI12-3a" d="M 1178 307 
C 1178 492 1024 619 870 619 
C 685 619 557 466 557 313 
C 557 128 710 0 864 0 
C 1050 0 1178 153 1178 307 
z
" transform="scale(0.015625)"/>
       </defs>
       <use xlink:href="#CMR17-30" transform="scale(0.996264)"/>
       <use xlink:href="#CMMI12-3a" transform="translate(45.690477 0)scale(0.996264)"/>
       <use xlink:href="#CMR17-30" transform="translate(72.787654 0)scale(0.996264)"/>
      </g>
     </g>
    </g>
    <g id="xtick_2">
     <g id="line2d_3">
      <path d="M 188.560155 381.453658 
L 188.560155 10.8 
" clip-path="url(#p5794537906)" style="fill: none; stroke-dasharray: 2.96,1.28; stroke-dashoffset: 0; stroke: #b0b0b0; stroke-width: 0.8"/>
     </g>
     <g id="line2d_4">
      <g>
       <use xlink:href="#m2a301ca2e6" x="188.560155" y="381.453658" style="stroke: #000000; stroke-width: 0.8"/>
      </g>
     </g>
     <g id="text_2">
      <!-- $\mathdefault{0.2}$ -->
      <g transform="translate(182.195115 395.372156)scale(0.1 -0.1)">
       <defs>
        <path id="CMR17-32" d="M 2669 989 
L 2554 989 
C 2490 536 2438 459 2413 420 
C 2381 369 1920 369 1830 369 
L 602 369 
C 832 619 1280 1072 1824 1597 
C 2214 1967 2669 2402 2669 3035 
C 2669 3790 2067 4224 1395 4224 
C 691 4224 262 3604 262 3030 
C 262 2780 448 2748 525 2748 
C 589 2748 781 2787 781 3010 
C 781 3207 614 3264 525 3264 
C 486 3264 448 3258 422 3245 
C 544 3790 915 4058 1306 4058 
C 1862 4058 2227 3617 2227 3035 
C 2227 2479 1901 2000 1536 1584 
L 262 146 
L 262 0 
L 2515 0 
L 2669 989 
z
" transform="scale(0.015625)"/>
       </defs>
       <use xlink:href="#CMR17-30" transform="scale(0.996264)"/>
       <use xlink:href="#CMMI12-3a" transform="translate(45.690477 0)scale(0.996264)"/>
       <use xlink:href="#CMR17-32" transform="translate(72.787654 0)scale(0.996264)"/>
      </g>
     </g>
    </g>
    <g id="xtick_3">
     <g id="line2d_5">
      <path d="M 317.128856 381.453658 
L 317.128856 10.8 
" clip-path="url(#p5794537906)" style="fill: none; stroke-dasharray: 2.96,1.28; stroke-dashoffset: 0; stroke: #b0b0b0; stroke-width: 0.8"/>
     </g>
     <g id="line2d_6">
      <g>
       <use xlink:href="#m2a301ca2e6" x="317.128856" y="381.453658" style="stroke: #000000; stroke-width: 0.8"/>
      </g>
     </g>
     <g id="text_3">
      <!-- $\mathdefault{0.4}$ -->
      <g transform="translate(310.763817 395.372156)scale(0.1 -0.1)">
       <defs>
        <path id="CMR17-34" d="M 2150 4122 
C 2150 4256 2144 4256 2029 4256 
L 128 1254 
L 128 1088 
L 1779 1088 
L 1779 457 
C 1779 224 1766 160 1318 160 
L 1197 160 
L 1197 0 
C 1402 0 1747 0 1965 0 
C 2182 0 2528 0 2733 0 
L 2733 160 
L 2611 160 
C 2163 160 2150 224 2150 457 
L 2150 1088 
L 2803 1088 
L 2803 1254 
L 2150 1254 
L 2150 4122 
z
M 1798 3703 
L 1798 1254 
L 256 1254 
L 1798 3703 
z
" transform="scale(0.015625)"/>
       </defs>
       <use xlink:href="#CMR17-30" transform="scale(0.996264)"/>
       <use xlink:href="#CMMI12-3a" transform="translate(45.690477 0)scale(0.996264)"/>
       <use xlink:href="#CMR17-34" transform="translate(72.787654 0)scale(0.996264)"/>
      </g>
     </g>
    </g>
    <g id="xtick_4">
     <g id="line2d_7">
      <path d="M 445.697558 381.453658 
L 445.697558 10.8 
" clip-path="url(#p5794537906)" style="fill: none; stroke-dasharray: 2.96,1.28; stroke-dashoffset: 0; stroke: #b0b0b0; stroke-width: 0.8"/>
     </g>
     <g id="line2d_8">
      <g>
       <use xlink:href="#m2a301ca2e6" x="445.697558" y="381.453658" style="stroke: #000000; stroke-width: 0.8"/>
      </g>
     </g>
     <g id="text_4">
      <!-- $\mathdefault{0.6}$ -->
      <g transform="translate(439.332518 395.372156)scale(0.1 -0.1)">
       <defs>
        <path id="CMR17-36" d="M 678 2176 
C 678 3690 1395 4032 1811 4032 
C 1946 4032 2272 4009 2400 3776 
C 2298 3776 2106 3776 2106 3553 
C 2106 3381 2246 3323 2336 3323 
C 2394 3323 2566 3348 2566 3560 
C 2566 3954 2246 4179 1805 4179 
C 1043 4179 243 3390 243 1984 
C 243 253 966 -128 1478 -128 
C 2099 -128 2688 427 2688 1283 
C 2688 2081 2170 2662 1517 2662 
C 1126 2662 838 2407 678 1960 
L 678 2176 
z
M 1478 25 
C 691 25 691 1200 691 1436 
C 691 1896 909 2560 1504 2560 
C 1613 2560 1926 2560 2138 2120 
C 2253 1870 2253 1609 2253 1289 
C 2253 944 2253 690 2118 434 
C 1978 171 1773 25 1478 25 
z
" transform="scale(0.015625)"/>
       </defs>
       <use xlink:href="#CMR17-30" transform="scale(0.996264)"/>
       <use xlink:href="#CMMI12-3a" transform="translate(45.690477 0)scale(0.996264)"/>
       <use xlink:href="#CMR17-36" transform="translate(72.787654 0)scale(0.996264)"/>
      </g>
     </g>
    </g>
    <g id="xtick_5">
     <g id="line2d_9">
      <path d="M 574.266259 381.453658 
L 574.266259 10.8 
" clip-path="url(#p5794537906)" style="fill: none; stroke-dasharray: 2.96,1.28; stroke-dashoffset: 0; stroke: #b0b0b0; stroke-width: 0.8"/>
     </g>
     <g id="line2d_10">
      <g>
       <use xlink:href="#m2a301ca2e6" x="574.266259" y="381.453658" style="stroke: #000000; stroke-width: 0.8"/>
      </g>
     </g>
     <g id="text_5">
      <!-- $\mathdefault{0.8}$ -->
      <g transform="translate(567.90122 395.372156)scale(0.1 -0.1)">
       <defs>
        <path id="CMR17-38" d="M 1741 2264 
C 2144 2467 2554 2773 2554 3263 
C 2554 3841 1990 4179 1472 4179 
C 890 4179 378 3759 378 3180 
C 378 3021 416 2747 666 2505 
C 730 2442 998 2251 1171 2130 
C 883 1983 211 1634 211 934 
C 211 279 838 -128 1459 -128 
C 2144 -128 2720 362 2720 1010 
C 2720 1590 2330 1857 2074 2029 
L 1741 2264 
z
M 902 2822 
C 851 2854 595 3051 595 3351 
C 595 3739 998 4032 1459 4032 
C 1965 4032 2336 3676 2336 3262 
C 2336 2669 1670 2331 1638 2331 
C 1632 2331 1626 2331 1574 2370 
L 902 2822 
z
M 2080 1519 
C 2176 1449 2483 1240 2483 851 
C 2483 381 2010 25 1472 25 
C 890 25 448 438 448 940 
C 448 1443 838 1862 1280 2060 
L 2080 1519 
z
" transform="scale(0.015625)"/>
       </defs>
       <use xlink:href="#CMR17-30" transform="scale(0.996264)"/>
       <use xlink:href="#CMMI12-3a" transform="translate(45.690477 0)scale(0.996264)"/>
       <use xlink:href="#CMR17-38" transform="translate(72.787654 0)scale(0.996264)"/>
      </g>
     </g>
    </g>
    <g id="xtick_6">
     <g id="line2d_11">
      <path d="M 702.834961 381.453658 
L 702.834961 10.8 
" clip-path="url(#p5794537906)" style="fill: none; stroke-dasharray: 2.96,1.28; stroke-dashoffset: 0; stroke: #b0b0b0; stroke-width: 0.8"/>
     </g>
     <g id="line2d_12">
      <g>
       <use xlink:href="#m2a301ca2e6" x="702.834961" y="381.453658" style="stroke: #000000; stroke-width: 0.8"/>
      </g>
     </g>
     <g id="text_6">
      <!-- $\mathdefault{1.0}$ -->
      <g transform="translate(696.469921 395.372156)scale(0.1 -0.1)">
       <defs>
        <path id="CMR17-31" d="M 1702 4058 
C 1702 4192 1696 4192 1606 4192 
C 1357 3916 979 3827 621 3827 
C 602 3827 570 3827 563 3808 
C 557 3795 557 3782 557 3648 
C 755 3648 1088 3686 1344 3839 
L 1344 461 
C 1344 236 1331 160 781 160 
L 589 160 
L 589 0 
C 896 0 1216 0 1523 0 
C 1830 0 2150 0 2458 0 
L 2458 160 
L 2266 160 
C 1715 160 1702 230 1702 458 
L 1702 4058 
z
" transform="scale(0.015625)"/>
       </defs>
       <use xlink:href="#CMR17-31" transform="scale(0.996264)"/>
       <use xlink:href="#CMMI12-3a" transform="translate(45.690477 0)scale(0.996264)"/>
       <use xlink:href="#CMR17-30" transform="translate(72.787654 0)scale(0.996264)"/>
      </g>
     </g>
    </g>
    <g id="text_7">
     <!-- Curve length ($\%$) -->
     <g transform="translate(311.951855 416.235356)scale(0.2 -0.2)">
      <defs>
       <path id="CMR17-43" d="M 3974 4289 
C 3974 4403 3968 4410 3930 4410 
C 3904 4410 3898 4403 3853 4327 
L 3571 3792 
C 3258 4187 2874 4416 2381 4416 
C 1286 4416 294 3456 294 2148 
C 294 826 1286 -128 2387 -128 
C 3366 -128 3974 730 3974 1461 
C 3974 1524 3974 1550 3917 1550 
C 3866 1550 3866 1531 3859 1474 
C 3808 585 3168 38 2477 38 
C 1824 38 781 495 781 2147 
C 781 3805 1843 4250 2464 4250 
C 3187 4250 3712 3628 3834 2745 
C 3846 2668 3846 2655 3904 2655 
C 3974 2655 3974 2668 3974 2783 
L 3974 4289 
z
" transform="scale(0.015625)"/>
       <path id="CMR17-75" d="M 1882 2693 
L 1882 2528 
C 2259 2528 2317 2489 2317 2186 
L 2317 1032 
C 2317 500 2029 38 1555 38 
C 1030 38 986 348 986 678 
L 986 2763 
L 211 2693 
L 211 2528 
C 467 2528 640 2528 646 2274 
L 646 1058 
C 646 633 646 361 813 183 
C 896 101 1056 -64 1517 -64 
C 2061 -64 2272 377 2323 506 
L 2330 506 
L 2330 -63 
L 3091 -63 
L 3091 128 
C 2714 128 2656 166 2656 473 
L 2656 2763 
L 1882 2693 
z
" transform="scale(0.015625)"/>
       <path id="CMR17-72" d="M 960 1497 
C 960 2112 1222 2688 1702 2688 
C 1747 2688 1792 2682 1837 2662 
C 1837 2662 1696 2617 1696 2452 
C 1696 2298 1818 2234 1914 2234 
C 1990 2234 2131 2279 2131 2458 
C 2131 2663 1926 2790 1709 2790 
C 1222 2790 1011 2317 947 2093 
L 941 2093 
L 941 2790 
L 198 2720 
L 198 2554 
C 576 2554 634 2515 634 2208 
L 634 428 
C 634 184 608 153 198 153 
L 198 -13 
C 352 0 646 0 813 0 
C 998 0 1325 0 1498 -13 
L 1498 153 
C 1037 153 960 153 960 440 
L 960 1497 
z
" transform="scale(0.015625)"/>
       <path id="CMR17-76" d="M 2502 2163 
C 2560 2304 2662 2560 3034 2560 
L 3034 2726 
C 2912 2726 2752 2726 2630 2726 
C 2496 2726 2285 2726 2157 2732 
L 2157 2566 
C 2317 2553 2406 2477 2406 2311 
C 2406 2253 2406 2240 2368 2151 
L 1664 377 
L 902 2286 
C 864 2369 864 2381 864 2407 
C 864 2560 1075 2560 1171 2560 
L 1171 2732 
C 1018 2726 736 2726 576 2726 
C 403 2726 205 2726 64 2732 
L 64 2560 
C 307 2560 442 2560 518 2362 
L 1446 44 
C 1485 -51 1491 -64 1549 -64 
C 1606 -64 1613 -51 1651 44 
L 2502 2163 
z
" transform="scale(0.015625)"/>
       <path id="CMR17-65" d="M 2438 1472 
C 2464 1498 2464 1511 2464 1576 
C 2464 2238 2118 2816 1389 2816 
C 710 2816 173 2169 173 1383 
C 173 551 781 -64 1459 -64 
C 2176 -64 2458 607 2458 740 
C 2458 784 2419 784 2406 784 
C 2362 784 2355 771 2330 696 
C 2189 265 1837 51 1504 51 
C 1229 51 954 203 781 480 
C 582 803 582 1176 582 1472 
L 2438 1472 
z
M 589 1568 
C 634 2505 1126 2714 1382 2714 
C 1818 2714 2112 2297 2118 1568 
L 589 1568 
z
" transform="scale(0.015625)"/>
       <path id="CMR17-6c" d="M 979 4396 
L 218 4326 
L 218 4160 
C 595 4160 653 4122 653 3817 
L 653 426 
C 653 184 627 153 218 153 
L 218 -13 
C 371 0 653 0 813 0 
C 979 0 1261 0 1414 -13 
L 1414 153 
C 1005 153 979 178 979 426 
L 979 4396 
z
" transform="scale(0.015625)"/>
       <path id="CMR17-6e" d="M 2656 1933 
C 2656 2259 2592 2790 1837 2790 
C 1331 2790 1069 2400 973 2144 
L 966 2144 
L 966 2790 
L 211 2720 
L 211 2554 
C 589 2554 646 2515 646 2208 
L 646 428 
C 646 184 621 153 211 153 
L 211 -13 
C 365 0 646 0 813 0 
C 979 0 1267 0 1421 -13 
L 1421 153 
C 1011 153 986 178 986 428 
L 986 1658 
C 986 2247 1344 2688 1792 2688 
C 2266 2688 2317 2266 2317 1958 
L 2317 428 
C 2317 184 2291 153 1882 153 
L 1882 -13 
C 2035 0 2317 0 2483 0 
C 2650 0 2938 0 3091 -13 
L 3091 153 
C 2682 153 2656 178 2656 428 
L 2656 1933 
z
" transform="scale(0.015625)"/>
       <path id="CMR17-67" d="M 710 1164 
C 832 1068 1043 960 1299 960 
C 1805 960 2240 1357 2240 1888 
C 2240 2054 2189 2310 1997 2509 
C 2176 2692 2438 2752 2586 2752 
C 2611 2752 2650 2752 2682 2734 
C 2656 2728 2598 2703 2598 2605 
C 2598 2527 2656 2471 2739 2471 
C 2835 2471 2886 2533 2886 2614 
C 2886 2731 2790 2854 2586 2854 
C 2330 2854 2106 2738 1926 2580 
C 1734 2753 1504 2816 1299 2816 
C 794 2816 358 2419 358 1888 
C 358 1522 570 1292 634 1228 
C 442 1004 442 743 442 711 
C 442 545 506 302 723 168 
C 390 85 128 -169 128 -486 
C 128 -943 736 -1280 1466 -1280 
C 2170 -1280 2803 -956 2803 -479 
C 2803 384 1856 384 1363 384 
C 1216 384 954 384 922 391 
C 723 423 589 602 589 826 
C 589 883 589 1024 710 1164 
z
M 1299 1068 
C 736 1068 736 1760 736 1889 
C 736 2016 736 2708 1299 2708 
C 1862 2708 1862 2016 1862 1889 
C 1862 1760 1862 1068 1299 1068 
z
M 1466 -1171 
C 826 -1171 384 -835 384 -486 
C 384 -289 493 -105 634 -4 
C 794 104 858 104 1293 104 
C 1818 104 2547 104 2547 -486 
C 2547 -835 2106 -1171 1466 -1171 
z
" transform="scale(0.015625)"/>
       <path id="CMR17-74" d="M 966 2560 
L 1862 2560 
L 1862 2725 
L 966 2725 
L 966 3904 
L 851 3904 
C 838 3245 614 2668 70 2668 
L 70 2560 
L 627 2560 
L 627 771 
C 627 650 627 -64 1370 -64 
C 1747 -64 1965 306 1965 777 
L 1965 1140 
L 1850 1140 
L 1850 783 
C 1850 344 1677 51 1408 51 
C 1222 51 966 178 966 758 
L 966 2560 
z
" transform="scale(0.015625)"/>
       <path id="CMR17-68" d="M 2656 1933 
C 2656 2259 2592 2790 1837 2790 
C 1312 2790 1056 2368 979 2157 
L 973 2157 
L 973 4396 
L 211 4326 
L 211 4160 
C 589 4160 646 4122 646 3817 
L 646 426 
C 646 184 621 153 211 153 
L 211 -13 
C 365 0 646 0 813 0 
C 979 0 1267 0 1421 -13 
L 1421 153 
C 1011 153 986 178 986 428 
L 986 1658 
C 986 2247 1344 2688 1792 2688 
C 2266 2688 2317 2266 2317 1958 
L 2317 428 
C 2317 184 2291 153 1882 153 
L 1882 -13 
C 2035 0 2317 0 2483 0 
C 2650 0 2938 0 3091 -13 
L 3091 153 
C 2682 153 2656 178 2656 428 
L 2656 1933 
z
" transform="scale(0.015625)"/>
       <path id="CMR17-28" d="M 1958 -1561 
C 1958 -1555 1958 -1542 1939 -1523 
C 1645 -1224 858 -407 858 1581 
C 858 3569 1632 4379 1946 4697 
C 1946 4704 1958 4717 1958 4736 
C 1958 4755 1939 4768 1914 4768 
C 1843 4768 1299 4296 986 3594 
C 666 2887 576 2199 576 1588 
C 576 1128 621 351 1005 -471 
C 1312 -1135 1837 -1600 1914 -1600 
C 1946 -1600 1958 -1587 1958 -1561 
z
" transform="scale(0.015625)"/>
       <path id="CMR17-25" d="M 4640 959 
C 4640 1698 4275 2240 3846 2240 
C 3411 2240 2970 1736 2970 959 
C 2970 183 3405 -320 3846 -320 
C 4275 -320 4640 215 4640 959 
z
M 3853 -218 
C 3686 -218 3270 -66 3270 959 
C 3270 1991 3686 2138 3853 2138 
C 4205 2138 4525 1634 4525 959 
C 4525 285 4205 -218 3853 -218 
z
M 4083 4577 
C 4128 4647 4134 4653 4134 4685 
C 4134 4761 4077 4800 4026 4800 
C 3962 4800 3936 4756 3891 4706 
C 3520 4190 3008 4134 2746 4134 
C 2106 4134 1715 4494 1594 4607 
C 1510 4682 1389 4800 1171 4800 
C 736 4800 294 4296 294 3519 
C 294 2743 730 2240 1171 2240 
C 1600 2240 1965 2778 1965 3527 
C 1965 3969 1830 4270 1811 4308 
C 2202 4064 2586 4032 2752 4032 
C 3162 4032 3456 4183 3616 4289 
L 3622 4283 
L 858 -84 
C 800 -174 800 -187 800 -206 
C 800 -276 858 -320 915 -320 
C 973 -320 992 -289 1037 -218 
L 4083 4577 
z
M 1178 2342 
C 1011 2342 595 2494 595 3519 
C 595 4551 1011 4698 1178 4698 
C 1530 4698 1850 4194 1850 3519 
C 1850 2845 1530 2342 1178 2342 
z
" transform="scale(0.015625)"/>
       <path id="CMR17-29" d="M 1683 1581 
C 1683 2040 1638 2817 1254 3639 
C 947 4303 422 4768 346 4768 
C 326 4768 301 4761 301 4729 
C 301 4717 307 4710 314 4697 
C 621 4378 1402 3568 1402 1584 
C 1402 -407 627 -1217 314 -1537 
C 307 -1549 301 -1556 301 -1568 
C 301 -1600 326 -1600 346 -1600 
C 416 -1600 960 -1128 1274 -426 
C 1594 281 1683 969 1683 1581 
z
" transform="scale(0.015625)"/>
      </defs>
      <use xlink:href="#CMR17-43" transform="scale(0.996264)"/>
      <use xlink:href="#CMR17-75" transform="translate(66.509881 0)scale(0.996264)"/>
      <use xlink:href="#CMR17-72" transform="translate(117.40525 0)scale(0.996264)"/>
      <use xlink:href="#CMR17-76" transform="translate(152.686018 0)scale(0.996264)"/>
      <use xlink:href="#CMR17-65" transform="translate(198.37648 0)scale(0.996264)"/>
      <use xlink:href="#CMR17-6c" transform="translate(268.938107 0)scale(0.996264)"/>
      <use xlink:href="#CMR17-65" transform="translate(293.809165 0)scale(0.996264)"/>
      <use xlink:href="#CMR17-6e" transform="translate(334.294826 0)scale(0.996264)"/>
      <use xlink:href="#CMR17-67" transform="translate(385.190196 0)scale(0.996264)"/>
      <use xlink:href="#CMR17-74" transform="translate(430.880673 0)scale(0.996264)"/>
      <use xlink:href="#CMR17-68" transform="translate(466.16144 0)scale(0.996264)"/>
      <use xlink:href="#CMR17-28" transform="translate(547.132777 0)scale(0.996264)"/>
      <use xlink:href="#CMR17-25" transform="translate(582.413544 0)scale(0.996264)"/>
      <use xlink:href="#CMR17-29" transform="translate(659.333134 0)scale(0.996264)"/>
     </g>
    </g>
   </g>
   <g id="matplotlib.axis_2">
    <g id="ytick_1">
     <g id="line2d_13">
      <path d="M 59.991453 368.296465 
L 702.834961 368.296465 
" clip-path="url(#p5794537906)" style="fill: none; stroke-dasharray: 2.96,1.28; stroke-dashoffset: 0; stroke: #b0b0b0; stroke-width: 0.8"/>
     </g>
     <g id="line2d_14">
      <defs>
       <path id="m8aded82685" d="M 0 0 
L -3.5 0 
" style="stroke: #000000; stroke-width: 0.8"/>
      </defs>
      <g>
       <use xlink:href="#m8aded82685" x="59.991453" y="368.296465" style="stroke: #000000; stroke-width: 0.8"/>
      </g>
     </g>
     <g id="text_8">
      <!-- $\mathdefault{−0.4}$ -->
      <g transform="translate(32.51263 371.755714)scale(0.1 -0.1)">
       <defs>
        <path id="CMSY10-0" d="M 4218 1472 
C 4326 1472 4442 1472 4442 1600 
C 4442 1728 4326 1728 4218 1728 
L 755 1728 
C 646 1728 531 1728 531 1600 
C 531 1472 646 1472 755 1472 
L 4218 1472 
z
" transform="scale(0.015625)"/>
       </defs>
       <use xlink:href="#CMSY10-0" transform="scale(0.996264)"/>
       <use xlink:href="#CMR17-30" transform="translate(77.487468 0)scale(0.996264)"/>
       <use xlink:href="#CMMI12-3a" transform="translate(123.177945 0)scale(0.996264)"/>
       <use xlink:href="#CMR17-34" transform="translate(150.275122 0)scale(0.996264)"/>
      </g>
     </g>
    </g>
    <g id="ytick_2">
     <g id="line2d_15">
      <path d="M 59.991453 318.659318 
L 702.834961 318.659318 
" clip-path="url(#p5794537906)" style="fill: none; stroke-dasharray: 2.96,1.28; stroke-dashoffset: 0; stroke: #b0b0b0; stroke-width: 0.8"/>
     </g>
     <g id="line2d_16">
      <g>
       <use xlink:href="#m8aded82685" x="59.991453" y="318.659318" style="stroke: #000000; stroke-width: 0.8"/>
      </g>
     </g>
     <g id="text_9">
      <!-- $\mathdefault{−0.3}$ -->
      <g transform="translate(32.51263 322.118568)scale(0.1 -0.1)">
       <defs>
        <path id="CMR17-33" d="M 1414 2157 
C 1984 2157 2234 1662 2234 1090 
C 2234 320 1824 25 1453 25 
C 1114 25 563 194 390 693 
C 422 680 454 680 486 680 
C 640 680 755 782 755 948 
C 755 1133 614 1216 486 1216 
C 378 1216 211 1165 211 926 
C 211 335 787 -128 1466 -128 
C 2176 -128 2720 430 2720 1085 
C 2720 1707 2208 2157 1600 2227 
C 2086 2328 2554 2756 2554 3329 
C 2554 3820 2048 4179 1472 4179 
C 890 4179 378 3829 378 3329 
C 378 3110 544 3072 627 3072 
C 762 3072 877 3155 877 3321 
C 877 3486 762 3569 627 3569 
C 602 3569 570 3569 544 3557 
C 730 3959 1235 4032 1459 4032 
C 1683 4032 2106 3925 2106 3320 
C 2106 3143 2080 2828 1862 2550 
C 1670 2304 1453 2304 1242 2284 
C 1210 2284 1062 2269 1037 2269 
C 992 2263 966 2257 966 2208 
C 966 2163 973 2157 1101 2157 
L 1414 2157 
z
" transform="scale(0.015625)"/>
       </defs>
       <use xlink:href="#CMSY10-0" transform="scale(0.996264)"/>
       <use xlink:href="#CMR17-30" transform="translate(77.487468 0)scale(0.996264)"/>
       <use xlink:href="#CMMI12-3a" transform="translate(123.177945 0)scale(0.996264)"/>
       <use xlink:href="#CMR17-33" transform="translate(150.275122 0)scale(0.996264)"/>
      </g>
     </g>
    </g>
    <g id="ytick_3">
     <g id="line2d_17">
      <path d="M 59.991453 269.022172 
L 702.834961 269.022172 
" clip-path="url(#p5794537906)" style="fill: none; stroke-dasharray: 2.96,1.28; stroke-dashoffset: 0; stroke: #b0b0b0; stroke-width: 0.8"/>
     </g>
     <g id="line2d_18">
      <g>
       <use xlink:href="#m8aded82685" x="59.991453" y="269.022172" style="stroke: #000000; stroke-width: 0.8"/>
      </g>
     </g>
     <g id="text_10">
      <!-- $\mathdefault{−0.2}$ -->
      <g transform="translate(32.51263 272.481421)scale(0.1 -0.1)">
       <use xlink:href="#CMSY10-0" transform="scale(0.996264)"/>
       <use xlink:href="#CMR17-30" transform="translate(77.487468 0)scale(0.996264)"/>
       <use xlink:href="#CMMI12-3a" transform="translate(123.177945 0)scale(0.996264)"/>
       <use xlink:href="#CMR17-32" transform="translate(150.275122 0)scale(0.996264)"/>
      </g>
     </g>
    </g>
    <g id="ytick_4">
     <g id="line2d_19">
      <path d="M 59.991453 219.385026 
L 702.834961 219.385026 
" clip-path="url(#p5794537906)" style="fill: none; stroke-dasharray: 2.96,1.28; stroke-dashoffset: 0; stroke: #b0b0b0; stroke-width: 0.8"/>
     </g>
     <g id="line2d_20">
      <g>
       <use xlink:href="#m8aded82685" x="59.991453" y="219.385026" style="stroke: #000000; stroke-width: 0.8"/>
      </g>
     </g>
     <g id="text_11">
      <!-- $\mathdefault{−0.1}$ -->
      <g transform="translate(32.51263 222.844275)scale(0.1 -0.1)">
       <use xlink:href="#CMSY10-0" transform="scale(0.996264)"/>
       <use xlink:href="#CMR17-30" transform="translate(77.487468 0)scale(0.996264)"/>
       <use xlink:href="#CMMI12-3a" transform="translate(123.177945 0)scale(0.996264)"/>
       <use xlink:href="#CMR17-31" transform="translate(150.275122 0)scale(0.996264)"/>
      </g>
     </g>
    </g>
    <g id="ytick_5">
     <g id="line2d_21">
      <path d="M 59.991453 169.74788 
L 702.834961 169.74788 
" clip-path="url(#p5794537906)" style="fill: none; stroke-dasharray: 2.96,1.28; stroke-dashoffset: 0; stroke: #b0b0b0; stroke-width: 0.8"/>
     </g>
     <g id="line2d_22">
      <g>
       <use xlink:href="#m8aded82685" x="59.991453" y="169.74788" style="stroke: #000000; stroke-width: 0.8"/>
      </g>
     </g>
     <g id="text_12">
      <!-- $\mathdefault{0.0}$ -->
      <g transform="translate(40.261374 173.207129)scale(0.1 -0.1)">
       <use xlink:href="#CMR17-30" transform="scale(0.996264)"/>
       <use xlink:href="#CMMI12-3a" transform="translate(45.690477 0)scale(0.996264)"/>
       <use xlink:href="#CMR17-30" transform="translate(72.787654 0)scale(0.996264)"/>
      </g>
     </g>
    </g>
    <g id="ytick_6">
     <g id="line2d_23">
      <path d="M 59.991453 120.110734 
L 702.834961 120.110734 
" clip-path="url(#p5794537906)" style="fill: none; stroke-dasharray: 2.96,1.28; stroke-dashoffset: 0; stroke: #b0b0b0; stroke-width: 0.8"/>
     </g>
     <g id="line2d_24">
      <g>
       <use xlink:href="#m8aded82685" x="59.991453" y="120.110734" style="stroke: #000000; stroke-width: 0.8"/>
      </g>
     </g>
     <g id="text_13">
      <!-- $\mathdefault{0.1}$ -->
      <g transform="translate(40.261374 123.569983)scale(0.1 -0.1)">
       <use xlink:href="#CMR17-30" transform="scale(0.996264)"/>
       <use xlink:href="#CMMI12-3a" transform="translate(45.690477 0)scale(0.996264)"/>
       <use xlink:href="#CMR17-31" transform="translate(72.787654 0)scale(0.996264)"/>
      </g>
     </g>
    </g>
    <g id="ytick_7">
     <g id="line2d_25">
      <path d="M 59.991453 70.473587 
L 702.834961 70.473587 
" clip-path="url(#p5794537906)" style="fill: none; stroke-dasharray: 2.96,1.28; stroke-dashoffset: 0; stroke: #b0b0b0; stroke-width: 0.8"/>
     </g>
     <g id="line2d_26">
      <g>
       <use xlink:href="#m8aded82685" x="59.991453" y="70.473587" style="stroke: #000000; stroke-width: 0.8"/>
      </g>
     </g>
     <g id="text_14">
      <!-- $\mathdefault{0.2}$ -->
      <g transform="translate(40.261374 73.932837)scale(0.1 -0.1)">
       <use xlink:href="#CMR17-30" transform="scale(0.996264)"/>
       <use xlink:href="#CMMI12-3a" transform="translate(45.690477 0)scale(0.996264)"/>
       <use xlink:href="#CMR17-32" transform="translate(72.787654 0)scale(0.996264)"/>
      </g>
     </g>
    </g>
    <g id="ytick_8">
     <g id="line2d_27">
      <path d="M 59.991453 20.836441 
L 702.834961 20.836441 
" clip-path="url(#p5794537906)" style="fill: none; stroke-dasharray: 2.96,1.28; stroke-dashoffset: 0; stroke: #b0b0b0; stroke-width: 0.8"/>
     </g>
     <g id="line2d_28">
      <g>
       <use xlink:href="#m8aded82685" x="59.991453" y="20.836441" style="stroke: #000000; stroke-width: 0.8"/>
      </g>
     </g>
     <g id="text_15">
      <!-- $\mathdefault{0.3}$ -->
      <g transform="translate(40.261374 24.29569)scale(0.1 -0.1)">
       <use xlink:href="#CMR17-30" transform="scale(0.996264)"/>
       <use xlink:href="#CMMI12-3a" transform="translate(45.690477 0)scale(0.996264)"/>
       <use xlink:href="#CMR17-33" transform="translate(72.787654 0)scale(0.996264)"/>
      </g>
     </g>
    </g>
    <g id="text_16">
     <!-- Curvature -->
     <g transform="translate(24.636997 236.467517)rotate(-90)scale(0.2 -0.2)">
      <defs>
       <path id="CMR17-61" d="M 2304 1653 
C 2304 2072 2304 2294 2035 2543 
C 1798 2752 1523 2816 1306 2816 
C 800 2816 435 2407 435 1971 
C 435 1728 627 1728 666 1728 
C 749 1728 896 1778 896 1954 
C 896 2112 774 2181 666 2181 
C 640 2181 608 2174 589 2168 
C 723 2592 1069 2714 1293 2714 
C 1613 2714 1965 2429 1965 1885 
L 1965 1600 
C 1587 1600 1133 1549 774 1357 
C 371 1133 256 813 256 570 
C 256 77 832 -64 1171 -64 
C 1523 -64 1850 139 1990 511 
C 2003 233 2182 -18 2464 -18 
C 2598 -18 2938 70 2938 567 
L 2938 920 
L 2822 920 
L 2822 562 
C 2822 178 2650 128 2566 128 
C 2304 128 2304 458 2304 738 
L 2304 1653 
z
M 1965 870 
C 1965 317 1568 38 1216 38 
C 896 38 646 275 646 570 
C 646 761 730 1100 1101 1305 
C 1408 1478 1760 1504 1965 1504 
L 1965 870 
z
" transform="scale(0.015625)"/>
      </defs>
      <use xlink:href="#CMR17-43" transform="scale(0.996264)"/>
      <use xlink:href="#CMR17-75" transform="translate(66.509881 0)scale(0.996264)"/>
      <use xlink:href="#CMR17-72" transform="translate(117.40525 0)scale(0.996264)"/>
      <use xlink:href="#CMR17-76" transform="translate(152.686018 0)scale(0.996264)"/>
      <use xlink:href="#CMR17-61" transform="translate(195.774117 0)scale(0.996264)"/>
      <use xlink:href="#CMR17-74" transform="translate(241.464594 0)scale(0.996264)"/>
      <use xlink:href="#CMR17-75" transform="translate(276.745362 0)scale(0.996264)"/>
      <use xlink:href="#CMR17-72" transform="translate(327.640732 0)scale(0.996264)"/>
      <use xlink:href="#CMR17-65" transform="translate(362.9215 0)scale(0.996264)"/>
     </g>
    </g>
   </g>
   <g id="line2d_29">
    <path d="M 59.991453 146.667254 
L 61.096615 148.070101 
L 62.200532 151.208503 
L 64.406833 159.598616 
L 66.613325 168.448583 
L 67.716821 172.357947 
L 68.820357 175.307712 
L 69.923815 176.348035 
L 71.027129 176.406085 
L 72.130313 175.961881 
L 74.336471 174.456101 
L 76.542609 172.812537 
L 77.645724 172.13673 
L 78.748879 171.732643 
L 79.852071 171.900817 
L 81.060806 172.384354 
L 85.895487 174.854991 
L 87.10415 175.22352 
L 88.312864 175.183807 
L 89.521672 173.996282 
L 91.763137 171.232831 
L 97.366927 163.714689 
L 98.487654 162.504536 
L 99.608403 161.679016 
L 100.729229 161.608744 
L 101.850208 162.994567 
L 102.976732 165.157328 
L 105.229792 170.381589 
L 107.482906 175.669917 
L 108.609435 177.940832 
L 109.73595 179.5588 
L 110.862508 179.874659 
L 111.989212 178.181005 
L 113.208829 174.491499 
L 115.648418 165.194691 
L 118.088024 155.731964 
L 119.307636 151.747587 
L 120.527271 149.133308 
L 121.747333 149.386534 
L 122.968433 156.65275 
L 124.121798 165.568276 
L 126.430958 186.410314 
L 129.889862 218.249497 
L 131.041133 227.582426 
L 132.194342 235.205207 
L 133.35344 239.543698 
L 134.524028 237.752295 
L 135.728034 230.992293 
L 139.293606 204.70363 
L 140.482195 197.793118 
L 141.674284 194.671512 
L 142.870336 199.247661 
L 143.996023 206.765791 
L 145.119797 215.235243 
L 146.242513 222.709148 
L 147.365949 226.86958 
L 148.493022 223.270097 
L 149.608871 216.300773 
L 151.829638 200.684692 
L 152.939632 195.406785 
L 154.051063 195.252591 
L 155.164443 205.651943 
L 158.868093 257.677196 
L 160.100712 268.411565 
L 161.345551 266.698487 
L 162.60159 256.829291 
L 166.286741 219.322241 
L 167.521158 209.830692 
L 168.765544 204.519209 
L 169.889487 202.80882 
L 171.012185 201.728382 
L 172.134909 199.581403 
L 173.258774 194.269027 
L 175.524416 179.40015 
L 177.789381 164.248017 
L 178.92195 158.344068 
L 180.054433 154.908103 
L 181.25436 152.766484 
L 182.453556 150.875923 
L 183.65227 147.904364 
L 184.85089 141.937779 
L 186.049984 129.434254 
L 187.250583 102.611048 
L 188.555558 68.99236 
L 189.849259 41.438287 
L 191.140517 27.647894 
L 192.452612 54.772226 
L 194.903174 127.88678 
L 196.119965 163.600069 
L 197.340116 191.780737 
L 198.560967 197.944629 
L 199.642237 197.053072 
L 200.722023 193.19269 
L 201.801103 187.797071 
L 203.959516 175.012058 
L 207.363054 152.940401 
L 208.606337 145.127542 
L 209.848872 138.030631 
L 211.091055 132.157553 
L 212.334085 128.677402 
L 213.580014 132.529381 
L 214.735077 137.228506 
L 217.037938 147.584183 
L 218.188609 152.14618 
L 219.339815 155.277528 
L 220.491852 155.420972 
L 221.644841 149.555834 
L 222.756632 141.162217 
L 224.971873 121.154222 
L 227.17749 101.179864 
L 228.281417 92.319366 
L 229.391814 85.095815 
L 230.515454 80.508261 
L 231.674602 80.346137 
L 232.806527 82.381551 
L 233.922139 85.447667 
L 235.030785 89.16664 
L 236.140372 93.619781 
L 237.257728 99.333149 
L 238.388816 107.547716 
L 239.538638 121.217966 
L 244.181739 187.037314 
L 245.342112 196.552616 
L 246.502107 195.418942 
L 247.658087 189.263689 
L 251.123484 165.204658 
L 252.278729 161.695095 
L 253.433886 167.083619 
L 254.499783 174.831974 
L 257.697285 201.645094 
L 258.763132 207.599738 
L 259.829994 210.706937 
L 261.016175 209.928131 
L 263.378829 204.312925 
L 264.559417 202.593074 
L 265.741704 204.19077 
L 266.926997 213.072549 
L 269.312334 238.388268 
L 271.677757 263.452612 
L 272.865716 273.845317 
L 274.070974 280.914873 
L 275.304453 281.689097 
L 276.511716 278.125143 
L 277.711376 269.833196 
L 278.91955 253.148429 
L 280.149532 219.430476 
L 281.428248 177.06386 
L 282.706267 140.719604 
L 283.984514 125.958752 
L 285.262355 168.525348 
L 288.767699 330.488018 
L 289.932704 362.679199 
L 291.123621 364.605764 
L 292.422864 320.668444 
L 294.851268 222.283393 
L 296.069489 179.629507 
L 297.298397 155.729529 
L 298.529797 176.197516 
L 299.746506 215.301563 
L 302.174206 301.506445 
L 303.386302 329.835381 
L 304.618494 328.499915 
L 305.865809 304.206688 
L 309.422238 217.619189 
L 310.619817 194.384988 
L 311.82953 183.354216 
L 313.020083 178.60376 
L 314.210272 176.749127 
L 315.400352 176.283833 
L 316.590416 176.439727 
L 317.780522 176.777965 
L 318.970727 176.956268 
L 321.26555 175.411564 
L 324.578501 172.720666 
L 330.100093 168.18552 
L 332.4324 166.463431 
L 333.598528 165.717489 
L 334.764644 165.117724 
L 335.930763 164.801047 
L 337.09691 165.048269 
L 338.263114 166.674346 
L 340.442593 170.53933 
L 342.622084 174.332549 
L 343.711822 175.632531 
L 344.801565 175.937139 
L 345.891345 174.48841 
L 347.026436 171.812097 
L 350.431772 162.384717 
L 351.566865 160.079386 
L 352.701972 159.278024 
L 353.837192 160.765889 
L 355.0869 164.579588 
L 357.58619 173.497686 
L 358.835846 176.777346 
L 360.085485 176.437323 
L 361.187321 175.397709 
L 363.390823 172.357567 
L 365.594314 169.068413 
L 366.69607 167.610874 
L 367.797822 166.51353 
L 368.899565 166.036144 
L 370.053525 165.979108 
L 371.207436 166.162056 
L 373.51518 166.885244 
L 374.669043 167.389053 
L 375.822916 168.041815 
L 376.976803 168.970277 
L 378.130705 170.438414 
L 379.284615 172.966199 
L 380.458802 176.174597 
L 381.632917 179.791626 
L 382.806926 183.846222 
L 383.980872 188.595184 
L 385.154937 194.658724 
L 386.329544 203.528639 
L 389.903522 233.274287 
L 391.08626 241.620054 
L 392.270089 247.736397 
L 393.461262 249.518971 
L 394.667964 242.726786 
L 395.910839 229.257617 
L 399.598088 181.83358 
L 400.828144 168.613856 
L 402.059313 160.791391 
L 403.290368 165.809818 
L 404.433633 174.71441 
L 409.006417 217.895909 
L 410.151384 223.569867 
L 411.311146 226.748956 
L 412.461594 228.58627 
L 413.606104 229.80903 
L 415.892736 231.986503 
L 417.043107 233.673194 
L 419.347885 237.68212 
L 420.475889 239.406373 
L 421.593451 240.760047 
L 422.705741 241.477165 
L 423.817978 241.018761 
L 424.935497 238.267337 
L 426.063691 230.871696 
L 427.207583 211.60548 
L 429.404427 166.189235 
L 431.601716 121.002812 
L 432.699884 103.635888 
L 433.799151 91.984651 
L 434.991221 87.095491 
L 436.162921 86.627407 
L 437.322348 88.35279 
L 438.478076 91.442353 
L 439.638084 95.91304 
L 440.809606 102.614217 
L 441.999055 115.772752 
L 446.595604 171.185763 
L 447.744363 180.197677 
L 448.893052 181.421241 
L 449.991887 179.402271 
L 451.090592 175.766926 
L 453.288036 166.431461 
L 457.682994 146.523363 
L 459.912278 137.487831 
L 462.133283 129.388693 
L 463.242668 125.882787 
L 464.353245 123.097647 
L 465.467038 121.670548 
L 466.586483 121.753352 
L 467.768901 124.410033 
L 468.944086 128.191706 
L 471.284805 136.554245 
L 472.454877 140.29541 
L 473.626777 142.981988 
L 474.80143 143.426627 
L 475.979525 139.566311 
L 477.119216 133.703875 
L 480.519754 113.303131 
L 481.65182 107.709598 
L 482.787909 104.215585 
L 483.932529 104.554216 
L 485.104636 108.272367 
L 487.420905 118.989422 
L 488.575134 124.520058 
L 489.73153 129.466985 
L 490.892406 133.011659 
L 492.05935 133.877233 
L 493.2101 133.285812 
L 494.356047 132.006957 
L 498.922561 125.672217 
L 500.068699 124.694608 
L 501.220949 125.23951 
L 502.353488 126.274097 
L 504.60243 128.868985 
L 506.844244 131.463426 
L 507.967073 132.542367 
L 509.093295 133.25039 
L 511.401223 132.135215 
L 513.740783 131.138659 
L 514.906936 130.476109 
L 516.07302 129.489425 
L 517.240873 127.825306 
L 518.412475 124.763014 
L 519.590111 118.800842 
L 521.955461 105.391785 
L 523.1292 99.718587 
L 524.302348 96.006069 
L 525.480614 96.23146 
L 526.670866 103.144641 
L 527.921282 116.840626 
L 532.882195 179.299831 
L 534.12347 188.263813 
L 535.364023 185.124771 
L 536.52534 178.238879 
L 537.687154 169.310481 
L 542.334449 129.473023 
L 543.495746 121.14789 
L 544.6589 115.319378 
L 545.826875 112.906919 
L 547.06402 114.655532 
L 548.292738 118.64833 
L 549.517835 124.117797 
L 550.7434 131.251778 
L 551.972464 141.250936 
L 553.206774 157.283432 
L 555.654476 191.512281 
L 556.878308 203.894954 
L 558.102288 204.589999 
L 559.256695 201.609928 
L 562.708795 188.604736 
L 563.859462 187.263729 
L 565.01101 191.202619 
L 566.163745 205.896299 
L 569.607112 265.281034 
L 570.746859 280.802651 
L 571.893096 289.205846 
L 573.059956 286.196218 
L 574.31479 270.045406 
L 575.55203 252.645264 
L 576.790653 241.583359 
L 578.041334 248.606126 
L 579.323033 263.291083 
L 580.592812 280.771578 
L 581.86151 299.99954 
L 583.146471 331.870334 
L 584.657837 318.382726 
L 588.316441 269.387803 
L 590.647198 241.556049 
L 593.032291 215.233824 
L 594.256272 203.491917 
L 595.501226 195.018147 
L 596.764459 194.403733 
L 598.011396 197.532689 
L 599.256059 202.258263 
L 601.742131 212.213235 
L 602.986605 215.589229 
L 604.235354 215.65109 
L 605.488481 213.875662 
L 609.225528 206.145293 
L 610.472991 204.395021 
L 611.72481 202.243757 
L 612.853124 201.791365 
L 613.978554 201.98808 
L 615.102283 202.497062 
L 618.474565 204.353548 
L 619.60304 206.239912 
L 620.853712 206.915341 
L 622.101407 206.433679 
L 623.348115 204.610235 
L 624.595845 200.460645 
L 625.846384 191.018483 
L 629.514928 159.325972 
L 630.737719 152.708918 
L 631.960439 154.995298 
L 633.064361 159.220072 
L 635.271798 170.30812 
L 636.375551 175.905406 
L 637.479298 180.746396 
L 638.583007 184.414651 
L 639.78275 187.195554 
L 640.981979 189.116018 
L 642.180965 190.414063 
L 643.380145 190.995498 
L 645.66873 187.32102 
L 646.756778 185.340978 
L 647.844592 182.974875 
L 648.932452 179.890232 
L 650.020537 175.435061 
L 651.10891 168.779358 
L 653.484547 151.421017 
L 654.67219 145.244241 
L 655.859859 144.245149 
L 657.048228 153.454322 
L 658.269464 168.602743 
L 660.712294 202.485355 
L 661.93353 216.309562 
L 663.155476 224.386847 
L 664.428734 228.192174 
L 665.694504 229.477631 
L 666.95753 229.262932 
L 668.223176 227.625963 
L 669.496883 222.997197 
L 672.01404 210.984369 
L 674.519538 198.8723 
L 675.774978 193.741633 
L 677.033849 190.105336 
L 678.272953 187.490495 
L 679.510853 185.451472 
L 680.748193 183.971212 
L 681.985416 183.35057 
L 683.222838 184.38262 
L 684.460723 188.81162 
L 685.699404 200.085928 
L 688.015131 227.611945 
L 690.31105 254.527196 
L 691.457904 264.786646 
L 692.613236 270.236364 
L 693.788143 263.177857 
L 694.943167 250.125167 
L 697.202329 219.109401 
L 700.57697 171.958003 
L 701.705839 158.525958 
L 702.834961 148.768751 
L 702.834961 148.768751 
" clip-path="url(#p5794537906)" style="fill: none; stroke: #ebb120; stroke-width: 3; stroke-linecap: square"/>
   </g>
   <g id="line2d_30">
    <path d="M 59.991453 186.06136 
L 64.440378 181.141614 
L 67.777071 177.806639 
L 71.113764 174.859908 
L 74.450454 172.311792 
L 76.674913 170.837887 
L 78.899371 169.545593 
L 81.123828 168.4362 
L 83.348284 167.511025 
L 85.57274 166.771559 
L 87.797195 166.2196 
L 90.02165 165.857353 
L 92.246105 165.687508 
L 94.470559 165.713292 
L 96.695014 165.938485 
L 98.919469 166.367424 
L 101.143924 167.004967 
L 103.36838 167.856432 
L 105.592837 168.927512 
L 107.817294 170.224154 
L 110.041753 171.75241 
L 112.266213 173.518259 
L 114.490674 175.527391 
L 116.715138 177.784953 
L 118.939603 180.29521 
L 122.276306 184.49168 
L 125.613014 189.090602 
L 131.174203 197.267545 
L 136.735398 205.446636 
L 140.072113 210.006839 
L 142.296589 212.776838 
L 144.521062 215.254259 
L 146.745534 217.369856 
L 148.970003 219.051486 
L 150.08221 219.70255 
L 151.194415 220.209692 
L 152.30662 220.559987 
L 153.418825 220.740687 
L 154.53103 220.739253 
L 155.643234 220.543394 
L 156.755439 220.141095 
L 157.867643 219.520652 
L 158.979849 218.670698 
L 160.092056 217.580227 
L 161.204265 216.238618 
L 162.316476 214.63564 
L 163.428649 212.786644 
L 165.653006 208.413659 
L 167.877377 203.250878 
L 170.101762 197.435713 
L 173.438365 187.80132 
L 177.887202 174.022308 
L 182.336053 160.268324 
L 185.672683 150.688813 
L 187.897094 144.931449 
L 190.121462 139.827139 
L 192.345786 135.371975 
L 194.5701 131.53599 
L 196.794405 128.283642 
L 199.018703 125.57322 
L 201.242995 123.356596 
L 203.467282 121.579176 
L 205.691566 120.180044 
L 207.915847 119.092298 
L 210.139949 118.339781 
L 211.251998 118.12324 
L 212.364047 118.029039 
L 213.476096 118.067563 
L 214.588143 118.247949 
L 215.70019 118.578061 
L 216.812237 119.064473 
L 217.924284 119.712462 
L 219.03633 120.526004 
L 220.148377 121.50778 
L 221.260424 122.659193 
L 223.484521 125.470292 
L 225.708623 128.945975 
L 227.932732 133.054627 
L 230.156849 137.748003 
L 232.380974 142.963181 
L 235.717179 151.596462 
L 239.053402 160.936419 
L 250.174194 192.926124 
L 253.510418 201.577418 
L 255.734559 206.857092 
L 257.95869 211.679686 
L 260.182813 216.004272 
L 262.406926 219.806848 
L 264.631029 223.082238 
L 266.855124 225.845694 
L 269.07921 228.134072 
L 271.303289 230.006489 
L 273.527362 231.544433 
L 276.863461 233.456121 
L 280.199798 235.160843 
L 282.424102 236.078937 
L 284.648404 236.711483 
L 286.872704 236.972818 
L 287.984854 236.940222 
L 289.097002 236.787341 
L 290.209151 236.506532 
L 291.321299 236.090941 
L 292.433447 235.534537 
L 293.545595 234.832129 
L 294.657743 233.979384 
L 295.769891 232.972837 
L 297.99419 230.488837 
L 300.218668 227.422807 
L 302.443154 223.876402 
L 304.667645 219.948894 
L 308.004394 213.55235 
L 320.239186 189.327502 
L 322.46369 185.451758 
L 324.688191 181.906591 
L 326.912677 178.730333 
L 329.137154 175.91682 
L 331.361627 173.454523 
L 333.586098 171.331017 
L 335.810566 169.533331 
L 338.035032 168.048261 
L 340.259497 166.862625 
L 342.48396 165.963481 
L 344.708423 165.338294 
L 346.932884 164.975073 
L 349.157346 164.862455 
L 351.381808 164.989764 
L 353.606269 165.347025 
L 355.830731 165.924951 
L 358.055194 166.714888 
L 360.279657 167.708732 
L 362.504121 168.898818 
L 364.728586 170.277774 
L 368.065285 172.684451 
L 371.401986 175.474674 
L 374.738691 178.621149 
L 378.075397 182.092269 
L 382.524336 187.125242 
L 395.871166 202.660472 
L 399.207872 205.955588 
L 401.432341 207.853106 
L 403.65681 209.44583 
L 405.881276 210.673773 
L 408.105742 211.473713 
L 409.217975 211.69262 
L 410.330207 211.779522 
L 411.44244 211.725767 
L 412.554673 211.522574 
L 413.666906 211.161053 
L 414.779139 210.632219 
L 415.891373 209.927012 
L 417.003608 209.036309 
L 418.115845 207.950941 
L 419.228082 206.661714 
L 420.340322 205.159418 
L 421.452564 203.434841 
L 422.564808 201.478784 
L 424.789275 196.871778 
L 427.013726 191.518318 
L 430.350428 182.562499 
L 437.023879 164.002839 
L 439.248359 158.418967 
L 441.47278 153.372836 
L 443.697191 148.830642 
L 445.921595 144.758353 
L 448.145992 141.121382 
L 450.370384 137.884566 
L 452.5948 135.013213 
L 454.819213 132.474046 
L 457.043624 130.234498 
L 459.268032 128.26303 
L 461.492438 126.529394 
L 463.716843 125.004903 
L 467.053449 123.052166 
L 470.390054 121.428753 
L 473.726658 120.066085 
L 477.063263 118.91023 
L 481.51207 117.628182 
L 485.960879 116.60841 
L 490.409689 115.868849 
L 493.746298 115.541956 
L 497.082908 115.467691 
L 499.307316 115.592241 
L 501.531723 115.883957 
L 503.756131 116.369715 
L 505.98054 117.078643 
L 508.20495 118.04177 
L 510.429361 119.291642 
L 512.653774 120.86194 
L 514.878188 122.787095 
L 517.102606 125.101926 
L 519.327026 127.841303 
L 521.551451 131.039857 
L 523.775882 134.731741 
L 526.000319 138.950447 
L 528.224765 143.7287 
L 530.44922 149.098412 
L 532.673731 155.052323 
L 534.898255 161.544107 
L 538.235065 172.190386 
L 541.571946 183.777624 
L 551.582943 219.78764 
L 553.807602 227.025323 
L 556.032249 233.630929 
L 558.256881 239.43992 
L 560.481497 244.29091 
L 561.593799 246.308395 
L 562.706096 248.02901 
L 563.81839 249.435043 
L 564.93068 250.509684 
L 566.042967 251.237149 
L 567.155251 251.602802 
L 568.267533 251.593262 
L 569.379815 251.196505 
L 570.492096 250.401942 
L 571.604378 249.200488 
L 572.716663 247.584517 
L 573.828708 245.617424 
L 576.052808 240.892321 
L 582.725212 225.433881 
L 584.949436 221.126993 
L 587.173652 217.264078 
L 589.397861 213.781267 
L 591.622064 210.620585 
L 594.958361 206.371324 
L 598.294651 202.580123 
L 601.630937 199.124486 
L 606.079371 194.886285 
L 610.52786 191.021639 
L 613.864225 188.382874 
L 617.200589 185.992447 
L 620.53695 183.883794 
L 623.87331 182.098466 
L 626.09755 181.111579 
L 628.321788 180.305734 
L 630.546026 179.697911 
L 632.770264 179.306084 
L 634.994502 179.14915 
L 637.218739 179.246882 
L 639.442977 179.619907 
L 641.667215 180.289705 
L 643.891454 181.278632 
L 646.115692 182.598868 
L 648.339929 184.198003 
L 651.676288 186.98421 
L 656.124771 191.108849 
L 661.685377 196.290921 
L 665.021738 199.106154 
L 667.245978 200.765243 
L 669.470216 202.20353 
L 671.694453 203.38598 
L 673.918689 204.282313 
L 676.142923 204.867322 
L 678.367156 205.121126 
L 680.591388 205.029359 
L 682.81562 204.583282 
L 685.039852 203.779813 
L 687.264085 202.621472 
L 689.488319 201.116238 
L 691.712663 199.283456 
L 693.937119 197.182958 
L 697.273807 193.669235 
L 702.834961 187.337035 
L 702.834961 187.337035 
" clip-path="url(#p5794537906)" style="fill: none; stroke: #0072bd; stroke-width: 3; stroke-linecap: square"/>
   </g>
   <g id="patch_3">
    <path d="M 59.991453 381.453658 
L 59.991453 10.8 
" style="fill: none; stroke: #000000; stroke-width: 0.8; stroke-linejoin: miter; stroke-linecap: square"/>
   </g>
   <g id="patch_4">
    <path d="M 702.834961 381.453658 
L 702.834961 10.8 
" style="fill: none; stroke: #000000; stroke-width: 0.8; stroke-linejoin: miter; stroke-linecap: square"/>
   </g>
   <g id="patch_5">
    <path d="M 59.991453 381.453658 
L 702.834961 381.453658 
" style="fill: none; stroke: #000000; stroke-width: 0.8; stroke-linejoin: miter; stroke-linecap: square"/>
   </g>
   <g id="patch_6">
    <path d="M 59.991453 10.8 
L 702.834961 10.8 
" style="fill: none; stroke: #000000; stroke-width: 0.8; stroke-linejoin: miter; stroke-linecap: square"/>
   </g>
   <g id="legend_1">
    <g id="patch_7">
     <path d="M 581.539848 64.611489 
L 692.334961 64.611489 
Q 695.334961 64.611489 695.334961 61.611489 
L 695.334961 21.3 
Q 695.334961 18.3 692.334961 18.3 
L 581.539848 18.3 
Q 578.539848 18.3 578.539848 21.3 
L 578.539848 61.611489 
Q 578.539848 64.611489 581.539848 64.611489 
z
" style="fill: #ffffff; opacity: 0.8; stroke: #cccccc; stroke-linejoin: miter"/>
    </g>
    <g id="line2d_31">
     <path d="M 584.539848 29.55 
L 599.539848 29.55 
L 614.539848 29.55 
" style="fill: none; stroke: #ebb120; stroke-width: 3; stroke-linecap: square"/>
    </g>
    <g id="text_17">
     <!-- CO-Fixed -->
     <g transform="translate(626.539848 34.8)scale(0.15 -0.15)">
      <defs>
       <path id="CMR17-4f" d="M 4307 2135 
C 4307 3437 3366 4416 2304 4416 
C 1216 4416 294 3424 294 2135 
C 294 845 1229 -128 2298 -128 
C 3392 -128 4307 864 4307 2135 
z
M 2304 -13 
C 1574 -13 781 711 781 2217 
C 781 3716 1651 4301 2298 4301 
C 2976 4301 3821 3698 3821 2217 
C 3821 686 3008 -13 2304 -13 
z
" transform="scale(0.015625)"/>
       <path id="CMR17-2d" d="M 1632 1216 
L 1632 1496 
L 26 1496 
L 26 1216 
L 1632 1216 
z
" transform="scale(0.015625)"/>
       <path id="CMR17-46" d="M 3482 4325 
L 326 4325 
L 326 4160 
C 768 4160 838 4160 838 3874 
L 838 446 
C 838 160 768 160 326 160 
L 326 0 
C 512 0 870 0 1069 0 
C 1331 0 1638 0 1901 0 
L 1901 160 
L 1760 160 
C 1274 160 1261 223 1261 452 
L 1261 2075 
L 1837 2075 
C 2432 2075 2490 1865 2490 1332 
L 2605 1332 
L 2605 2987 
L 2490 2987 
C 2490 2450 2432 2240 1837 2240 
L 1261 2240 
L 1261 3911 
C 1261 4128 1274 4160 1530 4160 
L 2355 4160 
C 3322 4160 3430 3765 3520 2916 
L 3635 2916 
L 3482 4325 
z
" transform="scale(0.015625)"/>
       <path id="CMR17-69" d="M 992 3909 
C 992 4049 877 4170 730 4170 
C 589 4170 467 4056 467 3909 
C 467 3769 582 3648 730 3648 
C 870 3648 992 3763 992 3909 
z
M 243 2706 
L 243 2541 
C 602 2541 653 2502 653 2197 
L 653 427 
C 653 184 627 153 218 153 
L 218 -13 
C 371 0 646 0 806 0 
C 960 0 1222 0 1370 -13 
L 1370 153 
C 992 153 979 191 979 420 
L 979 2776 
L 243 2706 
z
" transform="scale(0.015625)"/>
       <path id="CMR17-78" d="M 1664 1477 
C 1856 1726 2074 2006 2253 2216 
C 2464 2458 2707 2560 2989 2560 
L 2989 2726 
C 2880 2726 2656 2726 2541 2726 
C 2368 2726 2170 2726 2022 2732 
L 2022 2566 
C 2112 2553 2163 2489 2163 2400 
C 2163 2285 2099 2215 2067 2171 
L 1594 1573 
L 1030 2306 
C 973 2376 973 2388 973 2420 
C 973 2497 1037 2560 1146 2560 
L 1146 2732 
C 992 2726 717 2726 557 2726 
C 384 2726 179 2726 38 2732 
L 38 2560 
C 384 2560 461 2534 614 2343 
L 1350 1395 
C 1363 1382 1395 1344 1395 1325 
C 1395 1299 838 619 768 530 
C 480 185 179 160 6 160 
L 6 0 
C 115 0 339 0 454 0 
C 582 0 864 0 979 -6 
L 979 160 
C 941 166 838 179 838 325 
C 838 440 890 510 947 586 
L 1478 1236 
L 2035 512 
C 2086 442 2163 346 2163 301 
C 2163 211 2086 160 1984 160 
L 1984 -6 
C 2138 0 2413 0 2573 0 
C 2746 0 2950 0 3091 -6 
L 3091 160 
C 2771 160 2675 172 2522 370 
L 1664 1477 
z
" transform="scale(0.015625)"/>
       <path id="CMR17-64" d="M 1869 4326 
L 1869 4160 
C 2246 4160 2304 4122 2304 3820 
L 2304 2345 
C 2278 2377 2016 2790 1498 2790 
C 845 2790 211 2208 211 1364 
C 211 525 806 -64 1434 -64 
C 1978 -64 2259 337 2291 380 
L 2291 -63 
L 3066 -63 
L 3066 128 
C 2688 128 2630 166 2630 473 
L 2630 4396 
L 1869 4326 
z
M 2291 755 
C 2291 563 2176 390 2029 262 
C 1811 70 1594 38 1472 38 
C 1286 38 621 134 621 1356 
C 621 2612 1363 2688 1530 2688 
C 1824 2688 2061 2522 2208 2291 
C 2291 2157 2291 2138 2291 2023 
L 2291 755 
z
" transform="scale(0.015625)"/>
      </defs>
      <use xlink:href="#CMR17-43" transform="scale(0.996264)"/>
      <use xlink:href="#CMR17-4f" transform="translate(66.509881 0)scale(0.996264)"/>
      <use xlink:href="#CMR17-2d" transform="translate(138.224669 0)scale(0.996264)"/>
      <use xlink:href="#CMR17-46" transform="translate(168.300635 0)scale(0.996264)"/>
      <use xlink:href="#CMR17-69" transform="translate(228.284482 0)scale(0.996264)"/>
      <use xlink:href="#CMR17-78" transform="translate(253.15554 0)scale(0.996264)"/>
      <use xlink:href="#CMR17-65" transform="translate(301.448456 0)scale(0.996264)"/>
      <use xlink:href="#CMR17-64" transform="translate(341.934117 0)scale(0.996264)"/>
     </g>
    </g>
    <g id="line2d_32">
     <path d="M 584.539848 50.455745 
L 599.539848 50.455745 
L 614.539848 50.455745 
" style="fill: none; stroke: #0072bd; stroke-width: 3; stroke-linecap: square"/>
    </g>
    <g id="text_18">
     <!-- CO-Free -->
     <g transform="translate(626.539848 55.705745)scale(0.15 -0.15)">
      <use xlink:href="#CMR17-43" transform="scale(0.996264)"/>
      <use xlink:href="#CMR17-4f" transform="translate(66.509881 0)scale(0.996264)"/>
      <use xlink:href="#CMR17-2d" transform="translate(138.224669 0)scale(0.996264)"/>
      <use xlink:href="#CMR17-46" transform="translate(168.300635 0)scale(0.996264)"/>
      <use xlink:href="#CMR17-72" transform="translate(220.477227 0)scale(0.996264)"/>
      <use xlink:href="#CMR17-65" transform="translate(255.757994 0)scale(0.996264)"/>
      <use xlink:href="#CMR17-65" transform="translate(296.243655 0)scale(0.996264)"/>
     </g>
    </g>
   </g>
  </g>
 </g>
 <defs>
  <clipPath id="p5794537906">
   <rect x="59.991453" y="10.8" width="642.843507" height="370.653658"/>
  </clipPath>
 </defs>
</svg>
