<?xml version="1.0" encoding="utf-8" standalone="no"?>
<!DOCTYPE svg PUBLIC "-//W3C//DTD SVG 1.1//EN"
  "http://www.w3.org/Graphics/SVG/1.1/DTD/svg11.dtd">
<svg xmlns:xlink="http://www.w3.org/1999/xlink" width="720pt" height="432pt" viewBox="0 0 720 432" xmlns="http://www.w3.org/2000/svg" version="1.1">
 <metadata>
  <rdf:RDF xmlns:dc="http://purl.org/dc/elements/1.1/" xmlns:cc="http://creativecommons.org/ns#" xmlns:rdf="http://www.w3.org/1999/02/22-rdf-syntax-ns#">
   <cc:Work>
    <dc:type rdf:resource="http://purl.org/dc/dcmitype/StillImage"/>
    <dc:date>2022-04-19T12:14:15.539186</dc:date>
    <dc:format>image/svg+xml</dc:format>
    <dc:creator>
     <cc:Agent>
      <dc:title>Matplotlib v3.5.1, https://matplotlib.org/</dc:title>
     </cc:Agent>
    </dc:creator>
   </cc:Work>
  </rdf:RDF>
 </metadata>
 <defs>
  <style type="text/css">*{stroke-linejoin: round; stroke-linecap: butt}</style>
 </defs>
 <g id="figure_1">
  <g id="patch_1">
   <path d="M 0 432 
L 720 432 
L 720 0 
L 0 0 
z
" style="fill: #ffffff"/>
  </g>
  <g id="axes_1">
   <g id="patch_2">
    <path d="M 54.420745 381.453658 
L 702.834961 381.453658 
L 702.834961 10.8 
L 54.420745 10.8 
z
" style="fill: #ffffff"/>
   </g>
   <g id="matplotlib.axis_1">
    <g id="xtick_1">
     <g id="line2d_1">
      <path d="M 54.420745 381.453658 
L 54.420745 10.8 
" clip-path="url(#pe625019f42)" style="fill: none; stroke-dasharray: 2.96,1.28; stroke-dashoffset: 0; stroke: #b0b0b0; stroke-width: 0.8"/>
     </g>
     <g id="line2d_2">
      <defs>
       <path id="m6025585736" d="M 0 0 
L 0 3.5 
" style="stroke: #000000; stroke-width: 0.8"/>
      </defs>
      <g>
       <use xlink:href="#m6025585736" x="54.420745" y="381.453658" style="stroke: #000000; stroke-width: 0.8"/>
      </g>
     </g>
     <g id="text_1">
      <!-- $\mathdefault{0.0}$ -->
      <g transform="translate(48.055705 395.372156)scale(0.1 -0.1)">
       <defs>
        <path id="CMR17-30" d="M 2688 2025 
C 2688 2416 2682 3080 2413 3591 
C 2176 4039 1798 4198 1466 4198 
C 1158 4198 768 4058 525 3597 
C 269 3118 243 2524 243 2025 
C 243 1661 250 1106 448 619 
C 723 -39 1216 -128 1466 -128 
C 1760 -128 2208 -7 2470 600 
C 2662 1042 2688 1559 2688 2025 
z
M 1466 -26 
C 1056 -26 813 325 723 812 
C 653 1188 653 1738 653 2096 
C 653 2588 653 2997 736 3387 
C 858 3929 1216 4096 1466 4096 
C 1728 4096 2067 3923 2189 3400 
C 2272 3036 2278 2607 2278 2096 
C 2278 1680 2278 1169 2202 792 
C 2067 95 1690 -26 1466 -26 
z
" transform="scale(0.015625)"/>
        <path id="CMMI12-3a" d="M 1178 307 
C 1178 492 1024 619 870 619 
C 685 619 557 466 557 313 
C 557 128 710 0 864 0 
C 1050 0 1178 153 1178 307 
z
" transform="scale(0.015625)"/>
       </defs>
       <use xlink:href="#CMR17-30" transform="scale(0.996264)"/>
       <use xlink:href="#CMMI12-3a" transform="translate(45.690477 0)scale(0.996264)"/>
       <use xlink:href="#CMR17-30" transform="translate(72.787654 0)scale(0.996264)"/>
      </g>
     </g>
    </g>
    <g id="xtick_2">
     <g id="line2d_3">
      <path d="M 184.103588 381.453658 
L 184.103588 10.8 
" clip-path="url(#pe625019f42)" style="fill: none; stroke-dasharray: 2.96,1.28; stroke-dashoffset: 0; stroke: #b0b0b0; stroke-width: 0.8"/>
     </g>
     <g id="line2d_4">
      <g>
       <use xlink:href="#m6025585736" x="184.103588" y="381.453658" style="stroke: #000000; stroke-width: 0.8"/>
      </g>
     </g>
     <g id="text_2">
      <!-- $\mathdefault{0.2}$ -->
      <g transform="translate(177.738548 395.372156)scale(0.1 -0.1)">
       <defs>
        <path id="CMR17-32" d="M 2669 989 
L 2554 989 
C 2490 536 2438 459 2413 420 
C 2381 369 1920 369 1830 369 
L 602 369 
C 832 619 1280 1072 1824 1597 
C 2214 1967 2669 2402 2669 3035 
C 2669 3790 2067 4224 1395 4224 
C 691 4224 262 3604 262 3030 
C 262 2780 448 2748 525 2748 
C 589 2748 781 2787 781 3010 
C 781 3207 614 3264 525 3264 
C 486 3264 448 3258 422 3245 
C 544 3790 915 4058 1306 4058 
C 1862 4058 2227 3617 2227 3035 
C 2227 2479 1901 2000 1536 1584 
L 262 146 
L 262 0 
L 2515 0 
L 2669 989 
z
" transform="scale(0.015625)"/>
       </defs>
       <use xlink:href="#CMR17-30" transform="scale(0.996264)"/>
       <use xlink:href="#CMMI12-3a" transform="translate(45.690477 0)scale(0.996264)"/>
       <use xlink:href="#CMR17-32" transform="translate(72.787654 0)scale(0.996264)"/>
      </g>
     </g>
    </g>
    <g id="xtick_3">
     <g id="line2d_5">
      <path d="M 313.786431 381.453658 
L 313.786431 10.8 
" clip-path="url(#pe625019f42)" style="fill: none; stroke-dasharray: 2.96,1.28; stroke-dashoffset: 0; stroke: #b0b0b0; stroke-width: 0.8"/>
     </g>
     <g id="line2d_6">
      <g>
       <use xlink:href="#m6025585736" x="313.786431" y="381.453658" style="stroke: #000000; stroke-width: 0.8"/>
      </g>
     </g>
     <g id="text_3">
      <!-- $\mathdefault{0.4}$ -->
      <g transform="translate(307.421392 395.372156)scale(0.1 -0.1)">
       <defs>
        <path id="CMR17-34" d="M 2150 4122 
C 2150 4256 2144 4256 2029 4256 
L 128 1254 
L 128 1088 
L 1779 1088 
L 1779 457 
C 1779 224 1766 160 1318 160 
L 1197 160 
L 1197 0 
C 1402 0 1747 0 1965 0 
C 2182 0 2528 0 2733 0 
L 2733 160 
L 2611 160 
C 2163 160 2150 224 2150 457 
L 2150 1088 
L 2803 1088 
L 2803 1254 
L 2150 1254 
L 2150 4122 
z
M 1798 3703 
L 1798 1254 
L 256 1254 
L 1798 3703 
z
" transform="scale(0.015625)"/>
       </defs>
       <use xlink:href="#CMR17-30" transform="scale(0.996264)"/>
       <use xlink:href="#CMMI12-3a" transform="translate(45.690477 0)scale(0.996264)"/>
       <use xlink:href="#CMR17-34" transform="translate(72.787654 0)scale(0.996264)"/>
      </g>
     </g>
    </g>
    <g id="xtick_4">
     <g id="line2d_7">
      <path d="M 443.469274 381.453658 
L 443.469274 10.8 
" clip-path="url(#pe625019f42)" style="fill: none; stroke-dasharray: 2.96,1.28; stroke-dashoffset: 0; stroke: #b0b0b0; stroke-width: 0.8"/>
     </g>
     <g id="line2d_8">
      <g>
       <use xlink:href="#m6025585736" x="443.469274" y="381.453658" style="stroke: #000000; stroke-width: 0.8"/>
      </g>
     </g>
     <g id="text_4">
      <!-- $\mathdefault{0.6}$ -->
      <g transform="translate(437.104235 395.372156)scale(0.1 -0.1)">
       <defs>
        <path id="CMR17-36" d="M 678 2176 
C 678 3690 1395 4032 1811 4032 
C 1946 4032 2272 4009 2400 3776 
C 2298 3776 2106 3776 2106 3553 
C 2106 3381 2246 3323 2336 3323 
C 2394 3323 2566 3348 2566 3560 
C 2566 3954 2246 4179 1805 4179 
C 1043 4179 243 3390 243 1984 
C 243 253 966 -128 1478 -128 
C 2099 -128 2688 427 2688 1283 
C 2688 2081 2170 2662 1517 2662 
C 1126 2662 838 2407 678 1960 
L 678 2176 
z
M 1478 25 
C 691 25 691 1200 691 1436 
C 691 1896 909 2560 1504 2560 
C 1613 2560 1926 2560 2138 2120 
C 2253 1870 2253 1609 2253 1289 
C 2253 944 2253 690 2118 434 
C 1978 171 1773 25 1478 25 
z
" transform="scale(0.015625)"/>
       </defs>
       <use xlink:href="#CMR17-30" transform="scale(0.996264)"/>
       <use xlink:href="#CMMI12-3a" transform="translate(45.690477 0)scale(0.996264)"/>
       <use xlink:href="#CMR17-36" transform="translate(72.787654 0)scale(0.996264)"/>
      </g>
     </g>
    </g>
    <g id="xtick_5">
     <g id="line2d_9">
      <path d="M 573.152117 381.453658 
L 573.152117 10.8 
" clip-path="url(#pe625019f42)" style="fill: none; stroke-dasharray: 2.96,1.28; stroke-dashoffset: 0; stroke: #b0b0b0; stroke-width: 0.8"/>
     </g>
     <g id="line2d_10">
      <g>
       <use xlink:href="#m6025585736" x="573.152117" y="381.453658" style="stroke: #000000; stroke-width: 0.8"/>
      </g>
     </g>
     <g id="text_5">
      <!-- $\mathdefault{0.8}$ -->
      <g transform="translate(566.787078 395.372156)scale(0.1 -0.1)">
       <defs>
        <path id="CMR17-38" d="M 1741 2264 
C 2144 2467 2554 2773 2554 3263 
C 2554 3841 1990 4179 1472 4179 
C 890 4179 378 3759 378 3180 
C 378 3021 416 2747 666 2505 
C 730 2442 998 2251 1171 2130 
C 883 1983 211 1634 211 934 
C 211 279 838 -128 1459 -128 
C 2144 -128 2720 362 2720 1010 
C 2720 1590 2330 1857 2074 2029 
L 1741 2264 
z
M 902 2822 
C 851 2854 595 3051 595 3351 
C 595 3739 998 4032 1459 4032 
C 1965 4032 2336 3676 2336 3262 
C 2336 2669 1670 2331 1638 2331 
C 1632 2331 1626 2331 1574 2370 
L 902 2822 
z
M 2080 1519 
C 2176 1449 2483 1240 2483 851 
C 2483 381 2010 25 1472 25 
C 890 25 448 438 448 940 
C 448 1443 838 1862 1280 2060 
L 2080 1519 
z
" transform="scale(0.015625)"/>
       </defs>
       <use xlink:href="#CMR17-30" transform="scale(0.996264)"/>
       <use xlink:href="#CMMI12-3a" transform="translate(45.690477 0)scale(0.996264)"/>
       <use xlink:href="#CMR17-38" transform="translate(72.787654 0)scale(0.996264)"/>
      </g>
     </g>
    </g>
    <g id="xtick_6">
     <g id="line2d_11">
      <path d="M 702.834961 381.453658 
L 702.834961 10.8 
" clip-path="url(#pe625019f42)" style="fill: none; stroke-dasharray: 2.96,1.28; stroke-dashoffset: 0; stroke: #b0b0b0; stroke-width: 0.8"/>
     </g>
     <g id="line2d_12">
      <g>
       <use xlink:href="#m6025585736" x="702.834961" y="381.453658" style="stroke: #000000; stroke-width: 0.8"/>
      </g>
     </g>
     <g id="text_6">
      <!-- $\mathdefault{1.0}$ -->
      <g transform="translate(696.469921 395.372156)scale(0.1 -0.1)">
       <defs>
        <path id="CMR17-31" d="M 1702 4058 
C 1702 4192 1696 4192 1606 4192 
C 1357 3916 979 3827 621 3827 
C 602 3827 570 3827 563 3808 
C 557 3795 557 3782 557 3648 
C 755 3648 1088 3686 1344 3839 
L 1344 461 
C 1344 236 1331 160 781 160 
L 589 160 
L 589 0 
C 896 0 1216 0 1523 0 
C 1830 0 2150 0 2458 0 
L 2458 160 
L 2266 160 
C 1715 160 1702 230 1702 458 
L 1702 4058 
z
" transform="scale(0.015625)"/>
       </defs>
       <use xlink:href="#CMR17-31" transform="scale(0.996264)"/>
       <use xlink:href="#CMMI12-3a" transform="translate(45.690477 0)scale(0.996264)"/>
       <use xlink:href="#CMR17-30" transform="translate(72.787654 0)scale(0.996264)"/>
      </g>
     </g>
    </g>
    <g id="text_7">
     <!-- Curve length ($\%$) -->
     <g transform="translate(309.1665 416.235356)scale(0.2 -0.2)">
      <defs>
       <path id="CMR17-43" d="M 3974 4289 
C 3974 4403 3968 4410 3930 4410 
C 3904 4410 3898 4403 3853 4327 
L 3571 3792 
C 3258 4187 2874 4416 2381 4416 
C 1286 4416 294 3456 294 2148 
C 294 826 1286 -128 2387 -128 
C 3366 -128 3974 730 3974 1461 
C 3974 1524 3974 1550 3917 1550 
C 3866 1550 3866 1531 3859 1474 
C 3808 585 3168 38 2477 38 
C 1824 38 781 495 781 2147 
C 781 3805 1843 4250 2464 4250 
C 3187 4250 3712 3628 3834 2745 
C 3846 2668 3846 2655 3904 2655 
C 3974 2655 3974 2668 3974 2783 
L 3974 4289 
z
" transform="scale(0.015625)"/>
       <path id="CMR17-75" d="M 1882 2693 
L 1882 2528 
C 2259 2528 2317 2489 2317 2186 
L 2317 1032 
C 2317 500 2029 38 1555 38 
C 1030 38 986 348 986 678 
L 986 2763 
L 211 2693 
L 211 2528 
C 467 2528 640 2528 646 2274 
L 646 1058 
C 646 633 646 361 813 183 
C 896 101 1056 -64 1517 -64 
C 2061 -64 2272 377 2323 506 
L 2330 506 
L 2330 -63 
L 3091 -63 
L 3091 128 
C 2714 128 2656 166 2656 473 
L 2656 2763 
L 1882 2693 
z
" transform="scale(0.015625)"/>
       <path id="CMR17-72" d="M 960 1497 
C 960 2112 1222 2688 1702 2688 
C 1747 2688 1792 2682 1837 2662 
C 1837 2662 1696 2617 1696 2452 
C 1696 2298 1818 2234 1914 2234 
C 1990 2234 2131 2279 2131 2458 
C 2131 2663 1926 2790 1709 2790 
C 1222 2790 1011 2317 947 2093 
L 941 2093 
L 941 2790 
L 198 2720 
L 198 2554 
C 576 2554 634 2515 634 2208 
L 634 428 
C 634 184 608 153 198 153 
L 198 -13 
C 352 0 646 0 813 0 
C 998 0 1325 0 1498 -13 
L 1498 153 
C 1037 153 960 153 960 440 
L 960 1497 
z
" transform="scale(0.015625)"/>
       <path id="CMR17-76" d="M 2502 2163 
C 2560 2304 2662 2560 3034 2560 
L 3034 2726 
C 2912 2726 2752 2726 2630 2726 
C 2496 2726 2285 2726 2157 2732 
L 2157 2566 
C 2317 2553 2406 2477 2406 2311 
C 2406 2253 2406 2240 2368 2151 
L 1664 377 
L 902 2286 
C 864 2369 864 2381 864 2407 
C 864 2560 1075 2560 1171 2560 
L 1171 2732 
C 1018 2726 736 2726 576 2726 
C 403 2726 205 2726 64 2732 
L 64 2560 
C 307 2560 442 2560 518 2362 
L 1446 44 
C 1485 -51 1491 -64 1549 -64 
C 1606 -64 1613 -51 1651 44 
L 2502 2163 
z
" transform="scale(0.015625)"/>
       <path id="CMR17-65" d="M 2438 1472 
C 2464 1498 2464 1511 2464 1576 
C 2464 2238 2118 2816 1389 2816 
C 710 2816 173 2169 173 1383 
C 173 551 781 -64 1459 -64 
C 2176 -64 2458 607 2458 740 
C 2458 784 2419 784 2406 784 
C 2362 784 2355 771 2330 696 
C 2189 265 1837 51 1504 51 
C 1229 51 954 203 781 480 
C 582 803 582 1176 582 1472 
L 2438 1472 
z
M 589 1568 
C 634 2505 1126 2714 1382 2714 
C 1818 2714 2112 2297 2118 1568 
L 589 1568 
z
" transform="scale(0.015625)"/>
       <path id="CMR17-6c" d="M 979 4396 
L 218 4326 
L 218 4160 
C 595 4160 653 4122 653 3817 
L 653 426 
C 653 184 627 153 218 153 
L 218 -13 
C 371 0 653 0 813 0 
C 979 0 1261 0 1414 -13 
L 1414 153 
C 1005 153 979 178 979 426 
L 979 4396 
z
" transform="scale(0.015625)"/>
       <path id="CMR17-6e" d="M 2656 1933 
C 2656 2259 2592 2790 1837 2790 
C 1331 2790 1069 2400 973 2144 
L 966 2144 
L 966 2790 
L 211 2720 
L 211 2554 
C 589 2554 646 2515 646 2208 
L 646 428 
C 646 184 621 153 211 153 
L 211 -13 
C 365 0 646 0 813 0 
C 979 0 1267 0 1421 -13 
L 1421 153 
C 1011 153 986 178 986 428 
L 986 1658 
C 986 2247 1344 2688 1792 2688 
C 2266 2688 2317 2266 2317 1958 
L 2317 428 
C 2317 184 2291 153 1882 153 
L 1882 -13 
C 2035 0 2317 0 2483 0 
C 2650 0 2938 0 3091 -13 
L 3091 153 
C 2682 153 2656 178 2656 428 
L 2656 1933 
z
" transform="scale(0.015625)"/>
       <path id="CMR17-67" d="M 710 1164 
C 832 1068 1043 960 1299 960 
C 1805 960 2240 1357 2240 1888 
C 2240 2054 2189 2310 1997 2509 
C 2176 2692 2438 2752 2586 2752 
C 2611 2752 2650 2752 2682 2734 
C 2656 2728 2598 2703 2598 2605 
C 2598 2527 2656 2471 2739 2471 
C 2835 2471 2886 2533 2886 2614 
C 2886 2731 2790 2854 2586 2854 
C 2330 2854 2106 2738 1926 2580 
C 1734 2753 1504 2816 1299 2816 
C 794 2816 358 2419 358 1888 
C 358 1522 570 1292 634 1228 
C 442 1004 442 743 442 711 
C 442 545 506 302 723 168 
C 390 85 128 -169 128 -486 
C 128 -943 736 -1280 1466 -1280 
C 2170 -1280 2803 -956 2803 -479 
C 2803 384 1856 384 1363 384 
C 1216 384 954 384 922 391 
C 723 423 589 602 589 826 
C 589 883 589 1024 710 1164 
z
M 1299 1068 
C 736 1068 736 1760 736 1889 
C 736 2016 736 2708 1299 2708 
C 1862 2708 1862 2016 1862 1889 
C 1862 1760 1862 1068 1299 1068 
z
M 1466 -1171 
C 826 -1171 384 -835 384 -486 
C 384 -289 493 -105 634 -4 
C 794 104 858 104 1293 104 
C 1818 104 2547 104 2547 -486 
C 2547 -835 2106 -1171 1466 -1171 
z
" transform="scale(0.015625)"/>
       <path id="CMR17-74" d="M 966 2560 
L 1862 2560 
L 1862 2725 
L 966 2725 
L 966 3904 
L 851 3904 
C 838 3245 614 2668 70 2668 
L 70 2560 
L 627 2560 
L 627 771 
C 627 650 627 -64 1370 -64 
C 1747 -64 1965 306 1965 777 
L 1965 1140 
L 1850 1140 
L 1850 783 
C 1850 344 1677 51 1408 51 
C 1222 51 966 178 966 758 
L 966 2560 
z
" transform="scale(0.015625)"/>
       <path id="CMR17-68" d="M 2656 1933 
C 2656 2259 2592 2790 1837 2790 
C 1312 2790 1056 2368 979 2157 
L 973 2157 
L 973 4396 
L 211 4326 
L 211 4160 
C 589 4160 646 4122 646 3817 
L 646 426 
C 646 184 621 153 211 153 
L 211 -13 
C 365 0 646 0 813 0 
C 979 0 1267 0 1421 -13 
L 1421 153 
C 1011 153 986 178 986 428 
L 986 1658 
C 986 2247 1344 2688 1792 2688 
C 2266 2688 2317 2266 2317 1958 
L 2317 428 
C 2317 184 2291 153 1882 153 
L 1882 -13 
C 2035 0 2317 0 2483 0 
C 2650 0 2938 0 3091 -13 
L 3091 153 
C 2682 153 2656 178 2656 428 
L 2656 1933 
z
" transform="scale(0.015625)"/>
       <path id="CMR17-28" d="M 1958 -1561 
C 1958 -1555 1958 -1542 1939 -1523 
C 1645 -1224 858 -407 858 1581 
C 858 3569 1632 4379 1946 4697 
C 1946 4704 1958 4717 1958 4736 
C 1958 4755 1939 4768 1914 4768 
C 1843 4768 1299 4296 986 3594 
C 666 2887 576 2199 576 1588 
C 576 1128 621 351 1005 -471 
C 1312 -1135 1837 -1600 1914 -1600 
C 1946 -1600 1958 -1587 1958 -1561 
z
" transform="scale(0.015625)"/>
       <path id="CMR17-25" d="M 4640 959 
C 4640 1698 4275 2240 3846 2240 
C 3411 2240 2970 1736 2970 959 
C 2970 183 3405 -320 3846 -320 
C 4275 -320 4640 215 4640 959 
z
M 3853 -218 
C 3686 -218 3270 -66 3270 959 
C 3270 1991 3686 2138 3853 2138 
C 4205 2138 4525 1634 4525 959 
C 4525 285 4205 -218 3853 -218 
z
M 4083 4577 
C 4128 4647 4134 4653 4134 4685 
C 4134 4761 4077 4800 4026 4800 
C 3962 4800 3936 4756 3891 4706 
C 3520 4190 3008 4134 2746 4134 
C 2106 4134 1715 4494 1594 4607 
C 1510 4682 1389 4800 1171 4800 
C 736 4800 294 4296 294 3519 
C 294 2743 730 2240 1171 2240 
C 1600 2240 1965 2778 1965 3527 
C 1965 3969 1830 4270 1811 4308 
C 2202 4064 2586 4032 2752 4032 
C 3162 4032 3456 4183 3616 4289 
L 3622 4283 
L 858 -84 
C 800 -174 800 -187 800 -206 
C 800 -276 858 -320 915 -320 
C 973 -320 992 -289 1037 -218 
L 4083 4577 
z
M 1178 2342 
C 1011 2342 595 2494 595 3519 
C 595 4551 1011 4698 1178 4698 
C 1530 4698 1850 4194 1850 3519 
C 1850 2845 1530 2342 1178 2342 
z
" transform="scale(0.015625)"/>
       <path id="CMR17-29" d="M 1683 1581 
C 1683 2040 1638 2817 1254 3639 
C 947 4303 422 4768 346 4768 
C 326 4768 301 4761 301 4729 
C 301 4717 307 4710 314 4697 
C 621 4378 1402 3568 1402 1584 
C 1402 -407 627 -1217 314 -1537 
C 307 -1549 301 -1556 301 -1568 
C 301 -1600 326 -1600 346 -1600 
C 416 -1600 960 -1128 1274 -426 
C 1594 281 1683 969 1683 1581 
z
" transform="scale(0.015625)"/>
      </defs>
      <use xlink:href="#CMR17-43" transform="scale(0.996264)"/>
      <use xlink:href="#CMR17-75" transform="translate(66.509881 0)scale(0.996264)"/>
      <use xlink:href="#CMR17-72" transform="translate(117.40525 0)scale(0.996264)"/>
      <use xlink:href="#CMR17-76" transform="translate(152.686018 0)scale(0.996264)"/>
      <use xlink:href="#CMR17-65" transform="translate(198.37648 0)scale(0.996264)"/>
      <use xlink:href="#CMR17-6c" transform="translate(268.938107 0)scale(0.996264)"/>
      <use xlink:href="#CMR17-65" transform="translate(293.809165 0)scale(0.996264)"/>
      <use xlink:href="#CMR17-6e" transform="translate(334.294826 0)scale(0.996264)"/>
      <use xlink:href="#CMR17-67" transform="translate(385.190196 0)scale(0.996264)"/>
      <use xlink:href="#CMR17-74" transform="translate(430.880673 0)scale(0.996264)"/>
      <use xlink:href="#CMR17-68" transform="translate(466.16144 0)scale(0.996264)"/>
      <use xlink:href="#CMR17-28" transform="translate(547.132777 0)scale(0.996264)"/>
      <use xlink:href="#CMR17-25" transform="translate(582.413544 0)scale(0.996264)"/>
      <use xlink:href="#CMR17-29" transform="translate(659.333134 0)scale(0.996264)"/>
     </g>
    </g>
   </g>
   <g id="matplotlib.axis_2">
    <g id="ytick_1">
     <g id="line2d_13">
      <path d="M 54.420745 342.307401 
L 702.834961 342.307401 
" clip-path="url(#pe625019f42)" style="fill: none; stroke-dasharray: 2.96,1.28; stroke-dashoffset: 0; stroke: #b0b0b0; stroke-width: 0.8"/>
     </g>
     <g id="line2d_14">
      <defs>
       <path id="m6f411ce719" d="M 0 0 
L -3.5 0 
" style="stroke: #000000; stroke-width: 0.8"/>
      </defs>
      <g>
       <use xlink:href="#m6f411ce719" x="54.420745" y="342.307401" style="stroke: #000000; stroke-width: 0.8"/>
      </g>
     </g>
     <g id="text_8">
      <!-- $\mathdefault{−2}$ -->
      <g transform="translate(34.690666 345.76665)scale(0.1 -0.1)">
       <defs>
        <path id="CMSY10-0" d="M 4218 1472 
C 4326 1472 4442 1472 4442 1600 
C 4442 1728 4326 1728 4218 1728 
L 755 1728 
C 646 1728 531 1728 531 1600 
C 531 1472 646 1472 755 1472 
L 4218 1472 
z
" transform="scale(0.015625)"/>
       </defs>
       <use xlink:href="#CMSY10-0" transform="scale(0.996264)"/>
       <use xlink:href="#CMR17-32" transform="translate(77.487468 0)scale(0.996264)"/>
      </g>
     </g>
    </g>
    <g id="ytick_2">
     <g id="line2d_15">
      <path d="M 54.420745 297.318058 
L 702.834961 297.318058 
" clip-path="url(#pe625019f42)" style="fill: none; stroke-dasharray: 2.96,1.28; stroke-dashoffset: 0; stroke: #b0b0b0; stroke-width: 0.8"/>
     </g>
     <g id="line2d_16">
      <g>
       <use xlink:href="#m6f411ce719" x="54.420745" y="297.318058" style="stroke: #000000; stroke-width: 0.8"/>
      </g>
     </g>
     <g id="text_9">
      <!-- $\mathdefault{−1}$ -->
      <g transform="translate(34.690666 300.777308)scale(0.1 -0.1)">
       <use xlink:href="#CMSY10-0" transform="scale(0.996264)"/>
       <use xlink:href="#CMR17-31" transform="translate(77.487468 0)scale(0.996264)"/>
      </g>
     </g>
    </g>
    <g id="ytick_3">
     <g id="line2d_17">
      <path d="M 54.420745 252.328716 
L 702.834961 252.328716 
" clip-path="url(#pe625019f42)" style="fill: none; stroke-dasharray: 2.96,1.28; stroke-dashoffset: 0; stroke: #b0b0b0; stroke-width: 0.8"/>
     </g>
     <g id="line2d_18">
      <g>
       <use xlink:href="#m6f411ce719" x="54.420745" y="252.328716" style="stroke: #000000; stroke-width: 0.8"/>
      </g>
     </g>
     <g id="text_10">
      <!-- $\mathdefault{0}$ -->
      <g transform="translate(42.439409 255.787965)scale(0.1 -0.1)">
       <use xlink:href="#CMR17-30" transform="scale(0.996264)"/>
      </g>
     </g>
    </g>
    <g id="ytick_4">
     <g id="line2d_19">
      <path d="M 54.420745 207.339373 
L 702.834961 207.339373 
" clip-path="url(#pe625019f42)" style="fill: none; stroke-dasharray: 2.96,1.28; stroke-dashoffset: 0; stroke: #b0b0b0; stroke-width: 0.8"/>
     </g>
     <g id="line2d_20">
      <g>
       <use xlink:href="#m6f411ce719" x="54.420745" y="207.339373" style="stroke: #000000; stroke-width: 0.8"/>
      </g>
     </g>
     <g id="text_11">
      <!-- $\mathdefault{1}$ -->
      <g transform="translate(42.439409 210.798622)scale(0.1 -0.1)">
       <use xlink:href="#CMR17-31" transform="scale(0.996264)"/>
      </g>
     </g>
    </g>
    <g id="ytick_5">
     <g id="line2d_21">
      <path d="M 54.420745 162.350031 
L 702.834961 162.350031 
" clip-path="url(#pe625019f42)" style="fill: none; stroke-dasharray: 2.96,1.28; stroke-dashoffset: 0; stroke: #b0b0b0; stroke-width: 0.8"/>
     </g>
     <g id="line2d_22">
      <g>
       <use xlink:href="#m6f411ce719" x="54.420745" y="162.350031" style="stroke: #000000; stroke-width: 0.8"/>
      </g>
     </g>
     <g id="text_12">
      <!-- $\mathdefault{2}$ -->
      <g transform="translate(42.439409 165.80928)scale(0.1 -0.1)">
       <use xlink:href="#CMR17-32" transform="scale(0.996264)"/>
      </g>
     </g>
    </g>
    <g id="ytick_6">
     <g id="line2d_23">
      <path d="M 54.420745 117.360688 
L 702.834961 117.360688 
" clip-path="url(#pe625019f42)" style="fill: none; stroke-dasharray: 2.96,1.28; stroke-dashoffset: 0; stroke: #b0b0b0; stroke-width: 0.8"/>
     </g>
     <g id="line2d_24">
      <g>
       <use xlink:href="#m6f411ce719" x="54.420745" y="117.360688" style="stroke: #000000; stroke-width: 0.8"/>
      </g>
     </g>
     <g id="text_13">
      <!-- $\mathdefault{3}$ -->
      <g transform="translate(42.439409 120.819937)scale(0.1 -0.1)">
       <defs>
        <path id="CMR17-33" d="M 1414 2157 
C 1984 2157 2234 1662 2234 1090 
C 2234 320 1824 25 1453 25 
C 1114 25 563 194 390 693 
C 422 680 454 680 486 680 
C 640 680 755 782 755 948 
C 755 1133 614 1216 486 1216 
C 378 1216 211 1165 211 926 
C 211 335 787 -128 1466 -128 
C 2176 -128 2720 430 2720 1085 
C 2720 1707 2208 2157 1600 2227 
C 2086 2328 2554 2756 2554 3329 
C 2554 3820 2048 4179 1472 4179 
C 890 4179 378 3829 378 3329 
C 378 3110 544 3072 627 3072 
C 762 3072 877 3155 877 3321 
C 877 3486 762 3569 627 3569 
C 602 3569 570 3569 544 3557 
C 730 3959 1235 4032 1459 4032 
C 1683 4032 2106 3925 2106 3320 
C 2106 3143 2080 2828 1862 2550 
C 1670 2304 1453 2304 1242 2284 
C 1210 2284 1062 2269 1037 2269 
C 992 2263 966 2257 966 2208 
C 966 2163 973 2157 1101 2157 
L 1414 2157 
z
" transform="scale(0.015625)"/>
       </defs>
       <use xlink:href="#CMR17-33" transform="scale(0.996264)"/>
      </g>
     </g>
    </g>
    <g id="ytick_7">
     <g id="line2d_25">
      <path d="M 54.420745 72.371345 
L 702.834961 72.371345 
" clip-path="url(#pe625019f42)" style="fill: none; stroke-dasharray: 2.96,1.28; stroke-dashoffset: 0; stroke: #b0b0b0; stroke-width: 0.8"/>
     </g>
     <g id="line2d_26">
      <g>
       <use xlink:href="#m6f411ce719" x="54.420745" y="72.371345" style="stroke: #000000; stroke-width: 0.8"/>
      </g>
     </g>
     <g id="text_14">
      <!-- $\mathdefault{4}$ -->
      <g transform="translate(42.439409 75.830595)scale(0.1 -0.1)">
       <use xlink:href="#CMR17-34" transform="scale(0.996264)"/>
      </g>
     </g>
    </g>
    <g id="ytick_8">
     <g id="line2d_27">
      <path d="M 54.420745 27.382003 
L 702.834961 27.382003 
" clip-path="url(#pe625019f42)" style="fill: none; stroke-dasharray: 2.96,1.28; stroke-dashoffset: 0; stroke: #b0b0b0; stroke-width: 0.8"/>
     </g>
     <g id="line2d_28">
      <g>
       <use xlink:href="#m6f411ce719" x="54.420745" y="27.382003" style="stroke: #000000; stroke-width: 0.8"/>
      </g>
     </g>
     <g id="text_15">
      <!-- $\mathdefault{5}$ -->
      <g transform="translate(42.439409 30.841252)scale(0.1 -0.1)">
       <defs>
        <path id="CMR17-35" d="M 730 3692 
C 794 3666 1056 3584 1325 3584 
C 1920 3584 2246 3911 2432 4100 
C 2432 4157 2432 4192 2394 4192 
C 2387 4192 2374 4192 2323 4163 
C 2099 4058 1837 3973 1517 3973 
C 1325 3973 1037 3999 723 4139 
C 653 4171 640 4171 634 4171 
C 602 4171 595 4164 595 4037 
L 595 2203 
C 595 2089 595 2057 659 2057 
C 691 2057 704 2070 736 2114 
C 941 2401 1222 2522 1542 2522 
C 1766 2522 2246 2382 2246 1289 
C 2246 1085 2246 715 2054 421 
C 1894 159 1645 25 1370 25 
C 947 25 518 320 403 814 
C 429 807 480 795 506 795 
C 589 795 749 840 749 1038 
C 749 1210 627 1280 506 1280 
C 358 1280 262 1190 262 1011 
C 262 454 704 -128 1382 -128 
C 2042 -128 2669 440 2669 1264 
C 2669 2030 2170 2624 1549 2624 
C 1222 2624 947 2503 730 2274 
L 730 3692 
z
" transform="scale(0.015625)"/>
       </defs>
       <use xlink:href="#CMR17-35" transform="scale(0.996264)"/>
      </g>
     </g>
    </g>
    <g id="text_16">
     <!-- Boundary distance ($m$) -->
     <g transform="translate(25.726022 289.454379)rotate(-90)scale(0.2 -0.2)">
      <defs>
       <path id="CMR17-42" d="M 333 4352 
L 333 4186 
C 774 4186 845 4186 845 3900 
L 845 452 
C 845 166 774 166 333 166 
L 333 0 
L 2534 0 
C 3354 0 3885 583 3885 1164 
C 3885 1741 3360 2233 2675 2233 
C 3290 2356 3718 2771 3718 3264 
C 3718 3802 3194 4352 2368 4352 
L 333 4352 
z
M 1248 2304 
L 1248 3937 
C 1248 4155 1261 4186 1517 4186 
L 2336 4186 
C 2970 4186 3251 3674 3251 3277 
C 3251 2791 2861 2304 2170 2304 
L 1248 2304 
z
M 1517 166 
C 1261 166 1248 197 1248 413 
L 1248 2202 
L 2432 2202 
C 3091 2202 3411 1625 3411 1162 
C 3411 699 3046 166 2349 166 
L 1517 166 
z
" transform="scale(0.015625)"/>
       <path id="CMR17-6f" d="M 2758 1356 
C 2758 2176 2163 2816 1466 2816 
C 768 2816 173 2176 173 1356 
C 173 551 768 -64 1466 -64 
C 2163 -64 2758 551 2758 1356 
z
M 1466 51 
C 1165 51 909 230 762 480 
C 602 767 582 1126 582 1408 
C 582 1677 595 2010 762 2298 
C 890 2509 1139 2714 1466 2714 
C 1754 2714 1997 2554 2150 2330 
C 2349 2029 2349 1607 2349 1408 
C 2349 1158 2336 775 2163 467 
C 1984 173 1709 51 1466 51 
z
" transform="scale(0.015625)"/>
       <path id="CMR17-64" d="M 1869 4326 
L 1869 4160 
C 2246 4160 2304 4122 2304 3820 
L 2304 2345 
C 2278 2377 2016 2790 1498 2790 
C 845 2790 211 2208 211 1364 
C 211 525 806 -64 1434 -64 
C 1978 -64 2259 337 2291 380 
L 2291 -63 
L 3066 -63 
L 3066 128 
C 2688 128 2630 166 2630 473 
L 2630 4396 
L 1869 4326 
z
M 2291 755 
C 2291 563 2176 390 2029 262 
C 1811 70 1594 38 1472 38 
C 1286 38 621 134 621 1356 
C 621 2612 1363 2688 1530 2688 
C 1824 2688 2061 2522 2208 2291 
C 2291 2157 2291 2138 2291 2023 
L 2291 755 
z
" transform="scale(0.015625)"/>
       <path id="CMR17-61" d="M 2304 1653 
C 2304 2072 2304 2294 2035 2543 
C 1798 2752 1523 2816 1306 2816 
C 800 2816 435 2407 435 1971 
C 435 1728 627 1728 666 1728 
C 749 1728 896 1778 896 1954 
C 896 2112 774 2181 666 2181 
C 640 2181 608 2174 589 2168 
C 723 2592 1069 2714 1293 2714 
C 1613 2714 1965 2429 1965 1885 
L 1965 1600 
C 1587 1600 1133 1549 774 1357 
C 371 1133 256 813 256 570 
C 256 77 832 -64 1171 -64 
C 1523 -64 1850 139 1990 511 
C 2003 233 2182 -18 2464 -18 
C 2598 -18 2938 70 2938 567 
L 2938 920 
L 2822 920 
L 2822 562 
C 2822 178 2650 128 2566 128 
C 2304 128 2304 458 2304 738 
L 2304 1653 
z
M 1965 870 
C 1965 317 1568 38 1216 38 
C 896 38 646 275 646 570 
C 646 761 730 1100 1101 1305 
C 1408 1478 1760 1504 1965 1504 
L 1965 870 
z
" transform="scale(0.015625)"/>
       <path id="CMR17-79" d="M 2496 2197 
C 2656 2586 2944 2586 3034 2586 
L 3034 2752 
C 2912 2752 2752 2752 2630 2752 
C 2496 2752 2285 2752 2157 2758 
L 2157 2592 
C 2400 2573 2406 2394 2406 2343 
C 2406 2280 2394 2248 2362 2171 
L 1664 449 
L 902 2306 
C 870 2382 870 2426 870 2433 
C 870 2573 1018 2586 1171 2586 
L 1171 2758 
C 1018 2752 742 2752 582 2752 
C 410 2752 205 2752 64 2758 
L 64 2586 
C 410 2586 448 2554 531 2350 
L 1485 15 
C 1197 -738 1030 -1178 627 -1178 
C 557 -1178 397 -1159 282 -1044 
C 429 -1031 493 -942 493 -833 
C 493 -725 416 -629 288 -629 
C 147 -629 77 -725 77 -840 
C 77 -1095 339 -1280 627 -1280 
C 998 -1280 1229 -922 1357 -604 
L 2496 2197 
z
" transform="scale(0.015625)"/>
       <path id="CMR17-69" d="M 992 3909 
C 992 4049 877 4170 730 4170 
C 589 4170 467 4056 467 3909 
C 467 3769 582 3648 730 3648 
C 870 3648 992 3763 992 3909 
z
M 243 2706 
L 243 2541 
C 602 2541 653 2502 653 2197 
L 653 427 
C 653 184 627 153 218 153 
L 218 -13 
C 371 0 646 0 806 0 
C 960 0 1222 0 1370 -13 
L 1370 153 
C 992 153 979 191 979 420 
L 979 2776 
L 243 2706 
z
" transform="scale(0.015625)"/>
       <path id="CMR17-73" d="M 1978 2697 
C 1978 2813 1971 2819 1933 2819 
C 1907 2819 1901 2813 1824 2717 
C 1805 2691 1747 2626 1728 2601 
C 1523 2819 1235 2819 1126 2819 
C 416 2819 160 2447 160 2076 
C 160 1498 813 1365 998 1325 
C 1402 1243 1542 1217 1677 1101 
C 1760 1025 1901 884 1901 654 
C 1901 384 1747 38 1158 38 
C 602 38 403 460 288 1021 
C 269 1110 269 1117 218 1117 
C 166 1117 160 1110 160 983 
L 160 63 
C 160 -51 166 -58 205 -58 
C 237 -58 243 -51 275 0 
C 314 57 410 211 448 276 
C 576 103 800 -64 1158 -64 
C 1792 -64 2131 283 2131 784 
C 2131 1112 1958 1285 1875 1362 
C 1683 1561 1459 1606 1190 1657 
C 838 1735 390 1825 390 2217 
C 390 2383 480 2737 1126 2737 
C 1811 2737 1850 2094 1862 1888 
C 1869 1856 1901 1849 1920 1849 
C 1978 1849 1978 1869 1978 1978 
L 1978 2697 
z
" transform="scale(0.015625)"/>
       <path id="CMR17-63" d="M 2234 2240 
C 2112 2240 1933 2240 1933 2017 
C 1933 1838 2080 1787 2163 1787 
C 2208 1787 2394 1807 2394 2024 
C 2394 2467 1958 2803 1466 2803 
C 787 2803 211 2178 211 1363 
C 211 516 813 -64 1466 -64 
C 2259 -64 2458 677 2458 748 
C 2458 774 2451 793 2406 793 
C 2362 793 2355 787 2330 703 
C 2163 180 1798 51 1523 51 
C 1114 51 621 427 621 1369 
C 621 2338 1094 2688 1472 2688 
C 1722 2688 2093 2573 2234 2240 
z
" transform="scale(0.015625)"/>
       <path id="CMMI12-6d" d="M 1318 1871 
C 1331 1910 1491 2229 1728 2433 
C 1894 2586 2112 2689 2362 2689 
C 2618 2689 2707 2497 2707 2242 
C 2707 2203 2707 2076 2630 1775 
L 2470 1118 
C 2419 926 2298 453 2285 383 
C 2259 287 2221 121 2221 96 
C 2221 6 2291 -64 2387 -64 
C 2579 -64 2611 83 2669 313 
L 3053 1839 
C 3066 1890 3398 2689 4102 2689 
C 4358 2689 4448 2497 4448 2242 
C 4448 1884 4198 1188 4058 805 
C 4000 651 3968 568 3968 453 
C 3968 166 4166 -64 4474 -64 
C 5069 -64 5293 875 5293 913 
C 5293 945 5267 971 5229 971 
C 5171 971 5165 952 5133 843 
C 4986 332 4749 64 4493 64 
C 4429 64 4326 64 4326 269 
C 4326 436 4403 640 4429 710 
C 4544 1018 4832 1773 4832 2145 
C 4832 2528 4608 2816 4122 2816 
C 3693 2816 3347 2574 3091 2197 
C 3072 2542 2861 2816 2381 2816 
C 1811 2816 1510 2415 1395 2255 
C 1376 2618 1114 2816 832 2816 
C 646 2816 499 2727 378 2484 
C 262 2254 173 1865 173 1839 
C 173 1814 198 1782 243 1782 
C 294 1782 301 1788 339 1935 
C 435 2312 557 2689 813 2689 
C 960 2689 1011 2586 1011 2395 
C 1011 2254 947 2005 902 1807 
L 723 1118 
C 698 996 627 709 595 594 
C 550 428 480 128 480 96 
C 480 6 550 -64 646 -64 
C 723 -64 813 -26 864 70 
C 877 102 934 326 966 453 
L 1107 1028 
L 1318 1871 
z
" transform="scale(0.015625)"/>
      </defs>
      <use xlink:href="#CMR17-42" transform="scale(0.996264)"/>
      <use xlink:href="#CMR17-6f" transform="translate(65.188754 0)scale(0.996264)"/>
      <use xlink:href="#CMR17-75" transform="translate(110.879232 0)scale(0.996264)"/>
      <use xlink:href="#CMR17-6e" transform="translate(161.774601 0)scale(0.996264)"/>
      <use xlink:href="#CMR17-64" transform="translate(212.669971 0)scale(0.996264)"/>
      <use xlink:href="#CMR17-61" transform="translate(263.565341 0)scale(0.996264)"/>
      <use xlink:href="#CMR17-72" transform="translate(309.255818 0)scale(0.996264)"/>
      <use xlink:href="#CMR17-79" transform="translate(344.536586 0)scale(0.996264)"/>
      <use xlink:href="#CMR17-64" transform="translate(422.905468 0)scale(0.996264)"/>
      <use xlink:href="#CMR17-69" transform="translate(473.800838 0)scale(0.996264)"/>
      <use xlink:href="#CMR17-73" transform="translate(498.671896 0)scale(0.996264)"/>
      <use xlink:href="#CMR17-74" transform="translate(534.473234 0)scale(0.996264)"/>
      <use xlink:href="#CMR17-61" transform="translate(569.754002 0)scale(0.996264)"/>
      <use xlink:href="#CMR17-6e" transform="translate(615.444479 0)scale(0.996264)"/>
      <use xlink:href="#CMR17-63" transform="translate(666.339849 0)scale(0.996264)"/>
      <use xlink:href="#CMR17-65" transform="translate(706.825509 0)scale(0.996264)"/>
      <use xlink:href="#CMR17-28" transform="translate(777.387136 0)scale(0.996264)"/>
      <use xlink:href="#CMMI12-6d" transform="translate(812.667904 0)scale(0.996264)"/>
      <use xlink:href="#CMR17-29" transform="translate(897.995128 0)scale(0.996264)"/>
     </g>
    </g>
   </g>
   <g id="line2d_29">
    <path d="M 54.420745 89.335546 
L 55.535484 89.494825 
L 56.648967 89.92474 
L 57.761773 90.542846 
L 58.874387 91.305672 
L 59.987096 91.296985 
L 63.326158 94.627811 
L 65.552053 96.558267 
L 67.777455 98.2328 
L 70.002689 99.676035 
L 72.228003 100.858935 
L 74.453469 101.747337 
L 76.891858 102.317206 
L 82.987581 103.261868 
L 87.598223 104.188605 
L 88.728706 104.205558 
L 90.989656 105.279811 
L 97.778522 108.956186 
L 102.323746 111.522742 
L 104.596314 112.447292 
L 105.732634 112.726193 
L 108.099288 112.946499 
L 110.560018 112.670213 
L 113.020764 112.294619 
L 114.250945 112.28278 
L 115.48115 112.498123 
L 116.711785 113.008616 
L 117.943466 113.854048 
L 120.271224 116.281952 
L 121.435996 117.532198 
L 122.600241 118.611897 
L 123.763232 119.379492 
L 124.924874 119.698035 
L 126.086122 118.659493 
L 127.249324 118.184381 
L 128.418466 117.020764 
L 129.599199 113.755953 
L 130.813638 109.569352 
L 132.016144 108.192899 
L 133.213417 106.387378 
L 134.410109 103.606952 
L 135.608998 102.927544 
L 136.811417 102.563452 
L 139.153275 104.373907 
L 140.286788 104.9804 
L 141.419233 104.123787 
L 142.552404 102.799333 
L 143.689245 100.587677 
L 144.814763 97.907956 
L 145.935564 94.088612 
L 148.174388 92.277649 
L 149.295449 91.042486 
L 150.418478 87.51199 
L 151.667973 85.936949 
L 152.912804 81.692344 
L 154.154223 77.874738 
L 155.397523 75.161801 
L 156.65315 73.378884 
L 157.920073 72.123096 
L 159.163773 71.333383 
L 160.399526 71.103364 
L 161.637159 71.449096 
L 162.882273 72.181537 
L 166.403552 77.099245 
L 167.536005 81.37232 
L 168.669609 83.895257 
L 169.812579 86.048778 
L 170.954885 87.636418 
L 172.097126 88.787163 
L 173.239478 87.982031 
L 174.381861 85.964558 
L 175.524158 82.459751 
L 176.734484 82.298274 
L 177.944071 77.840438 
L 179.153172 72.438814 
L 181.571665 60.210682 
L 182.782668 59.638669 
L 184.098952 54.347723 
L 185.403864 53.604289 
L 186.706311 50.68559 
L 188.029776 48.248186 
L 189.274021 47.555816 
L 190.501574 47.413719 
L 191.72891 46.856636 
L 192.959634 58.451263 
L 194.191065 80.78668 
L 195.281705 90.403126 
L 196.370848 98.622085 
L 197.459279 105.311951 
L 198.547672 113.39319 
L 199.636396 115.174293 
L 200.725508 115.38879 
L 201.814835 114.131133 
L 203.069428 111.664022 
L 204.323486 111.460913 
L 205.576788 108.060245 
L 208.083536 99.740603 
L 209.340262 95.427476 
L 210.505335 95.174892 
L 212.828152 88.580429 
L 213.988795 85.042725 
L 215.149977 84.957081 
L 216.311996 81.476773 
L 217.474977 77.306257 
L 218.596402 72.591765 
L 219.715143 67.102452 
L 220.830841 66.576051 
L 221.943824 60.899886 
L 223.055571 59.914649 
L 224.169064 54.60927 
L 225.289083 54.042754 
L 226.422461 52.986423 
L 228.733388 49.950422 
L 229.858667 48.301583 
L 230.976921 51.076459 
L 232.096123 50.91359 
L 233.223161 50.37539 
L 234.364052 49.346638 
L 235.523837 56.187693 
L 236.696372 55.596516 
L 237.866525 62.725617 
L 239.036658 68.238294 
L 240.207174 72.233975 
L 241.377602 74.797795 
L 242.54765 76.51797 
L 243.713647 76.588524 
L 244.878815 76.186936 
L 247.209075 75.159183 
L 248.374331 75.06555 
L 249.539497 75.540321 
L 250.614631 76.632498 
L 251.689821 78.269666 
L 255.991033 85.873898 
L 257.187492 88.600691 
L 258.379959 89.673104 
L 259.57062 90.172755 
L 260.76144 90.161983 
L 261.953972 89.434767 
L 263.149537 86.622982 
L 264.356202 84.701868 
L 265.555544 78.218774 
L 266.749233 75.554606 
L 267.941465 71.870237 
L 269.139719 73.936623 
L 270.355421 78.042637 
L 271.599589 81.32786 
L 272.817314 80.925337 
L 274.027369 75.80253 
L 275.246013 61.553647 
L 276.486654 51.088091 
L 277.776451 45.369939 
L 279.065545 35.333799 
L 280.354869 34.907931 
L 281.643783 32.036162 
L 282.824005 31.343231 
L 284.004389 31.549164 
L 285.179503 31.62412 
L 286.354605 32.804346 
L 287.555841 35.950278 
L 288.866344 41.307617 
L 290.096907 40.992653 
L 291.315791 35.524296 
L 292.544569 33.958409 
L 293.784127 31.888049 
L 295.026198 31.7441 
L 297.479885 40.31311 
L 298.702188 50.855573 
L 299.924788 70.174127 
L 301.167657 87.537218 
L 302.425781 96.229399 
L 303.628712 101.000902 
L 304.817989 103.240609 
L 306.01303 104.147246 
L 307.220986 105.390021 
L 309.642053 107.086241 
L 314.443744 110.91025 
L 315.644263 111.625006 
L 316.844951 111.414451 
L 317.958973 110.620542 
L 319.072898 109.408753 
L 320.186773 107.833478 
L 321.300633 107.929614 
L 322.414496 106.169992 
L 324.642266 102.038813 
L 326.870073 97.610429 
L 329.222591 93.434038 
L 330.398825 91.624181 
L 331.575046 90.087074 
L 332.751271 88.871468 
L 333.927523 88.014577 
L 335.103833 87.435306 
L 337.302199 86.861006 
L 339.500577 86.244548 
L 340.599757 85.726061 
L 341.698944 85.029641 
L 343.943095 83.132096 
L 347.377941 79.910427 
L 348.52287 79.112888 
L 349.667814 78.58519 
L 350.812871 78.374579 
L 352.07341 78.476058 
L 353.333877 78.87648 
L 358.226695 81.243787 
L 359.338006 82.183519 
L 362.671877 83.783935 
L 363.783181 84.503351 
L 364.894481 85.399609 
L 366.005771 86.515609 
L 367.16973 87.892158 
L 369.497521 91.265395 
L 371.825246 95.216593 
L 377.665177 105.465648 
L 380.03365 108.95689 
L 381.217769 110.394979 
L 382.402008 111.557174 
L 383.586793 113.403281 
L 384.794177 114.158667 
L 385.99564 114.386776 
L 387.191743 114.358858 
L 388.38473 113.353194 
L 389.578817 113.395128 
L 390.780313 112.52902 
L 391.997472 111.347114 
L 393.251117 110.862762 
L 394.493043 106.863369 
L 395.731381 103.431877 
L 396.970319 93.339909 
L 399.452872 79.531678 
L 400.694595 72.688398 
L 401.847767 67.045054 
L 403.001055 62.957929 
L 404.1542 60.405342 
L 405.307076 61.320799 
L 406.460178 64.633239 
L 407.615067 68.774941 
L 409.945297 86.755016 
L 411.099724 91.036515 
L 412.252 96.686462 
L 413.406172 98.741951 
L 414.566511 100.034786 
L 415.737665 100.499437 
L 416.891263 99.84921 
L 418.029041 100.040572 
L 419.156288 99.968734 
L 421.400092 102.067505 
L 422.527295 104.879281 
L 424.819071 108.698153 
L 425.927188 108.063866 
L 427.034952 105.717415 
L 428.143172 101.700163 
L 429.251281 95.901979 
L 430.358966 88.754752 
L 431.467759 88.4777 
L 432.670159 86.836469 
L 433.852013 82.211925 
L 435.021487 81.792607 
L 436.187231 80.715067 
L 437.357291 78.931396 
L 438.538965 80.469911 
L 439.738721 79.584826 
L 440.900869 83.302548 
L 442.059182 82.78012 
L 445.533816 97.522831 
L 446.69246 101.709761 
L 447.800817 104.934118 
L 448.909043 106.988986 
L 450.017264 107.703804 
L 451.12553 106.959138 
L 452.233813 104.702636 
L 453.342062 101.051485 
L 454.450273 101.064747 
L 457.807176 88.316544 
L 458.928052 88.208064 
L 460.047427 85.611702 
L 461.166425 84.349706 
L 462.286627 84.306183 
L 463.410072 84.806945 
L 464.539217 84.201929 
L 465.731882 86.256262 
L 466.917251 88.802625 
L 468.098504 88.315028 
L 470.458465 95.166668 
L 471.64052 94.489361 
L 472.825353 97.159021 
L 474.013657 97.703966 
L 475.163224 95.934796 
L 476.309114 95.622891 
L 477.452 92.418522 
L 478.59323 91.517885 
L 479.735107 87.321244 
L 480.881041 86.284135 
L 482.03558 82.28166 
L 483.217844 81.490754 
L 484.388822 78.467087 
L 485.554185 78.070828 
L 486.718416 76.204914 
L 487.884833 75.782778 
L 490.232825 74.118065 
L 492.549425 74.226728 
L 493.701965 73.58998 
L 496.003248 75.378684 
L 497.155511 75.207439 
L 498.311581 76.911509 
L 499.473816 76.337408 
L 500.61617 78.644054 
L 501.752314 80.61339 
L 502.8846 80.550814 
L 504.015143 82.92073 
L 505.145841 82.209153 
L 506.278401 84.710496 
L 507.414382 86.358787 
L 508.555245 86.996257 
L 509.74231 86.909151 
L 510.92403 87.199762 
L 512.102143 86.265539 
L 513.278403 86.018526 
L 514.454592 84.764323 
L 515.632564 82.644064 
L 516.81432 82.249249 
L 518.002161 80.338589 
L 519.199114 78.132031 
L 520.388008 78.018746 
L 521.571918 76.680781 
L 522.755233 77.131733 
L 523.943709 76.222456 
L 525.144275 78.918418 
L 526.405527 78.515441 
L 527.657641 83.58757 
L 528.907326 83.055086 
L 531.40943 96.878702 
L 532.661462 102.834803 
L 533.912765 110.992511 
L 535.084146 112.970721 
L 536.256028 113.327163 
L 537.428308 112.130421 
L 538.600566 111.974232 
L 539.772356 109.822938 
L 540.943595 106.772966 
L 542.114956 103.195721 
L 543.288189 103.016056 
L 544.466285 100.55656 
L 546.953517 99.178312 
L 548.18923 98.251099 
L 549.425416 99.116413 
L 550.66513 100.497164 
L 554.379049 105.732478 
L 555.613487 106.6264 
L 556.848074 105.095398 
L 558.012485 103.182963 
L 559.174084 100.257429 
L 560.334378 96.581841 
L 561.494499 88.183645 
L 564.979389 77.07998 
L 566.143007 73.348064 
L 567.30076 64.442551 
L 569.602219 38.715981 
L 570.758389 30.699469 
L 571.935361 27.647894 
L 573.201069 29.149823 
L 576.959906 55.01956 
L 578.252712 61.358311 
L 579.533495 64.357398 
L 580.813187 64.699382 
L 582.109283 65.473771 
L 583.633746 73.556449 
L 584.929418 87.201393 
L 586.143082 97.856992 
L 587.324055 107.046264 
L 588.49663 113.661454 
L 589.675009 116.513416 
L 590.86801 116.608739 
L 592.080771 113.457823 
L 593.315359 111.226487 
L 594.571101 105.969723 
L 595.845281 104.298287 
L 597.103023 102.863252 
L 599.612429 100.304691 
L 600.866088 99.855783 
L 602.121346 98.188747 
L 603.380917 97.337965 
L 604.644903 93.960056 
L 605.903031 91.938771 
L 607.158574 86.453704 
L 608.414334 83.419428 
L 609.672607 77.395901 
L 610.935274 75.226223 
L 612.073366 72.93664 
L 613.208548 73.842395 
L 614.342015 75.961845 
L 615.474892 82.533891 
L 617.743521 91.002632 
L 618.881774 98.90663 
L 620.143284 102.581673 
L 621.401792 107.204339 
L 622.659304 109.214457 
L 623.917846 110.35186 
L 625.179221 110.921871 
L 626.412845 111.115101 
L 627.64616 110.935102 
L 630.112944 110.423436 
L 631.346259 110.539737 
L 632.459748 111.18625 
L 633.573035 112.129929 
L 636.912944 115.394241 
L 638.026217 116.209557 
L 639.236357 116.732043 
L 640.445978 116.86665 
L 641.655353 116.637053 
L 642.864926 116.091407 
L 644.075255 115.287272 
L 646.27082 113.316693 
L 647.368061 110.973341 
L 648.465348 109.614817 
L 649.562861 107.976477 
L 653.056889 101.616493 
L 654.254825 101.408668 
L 655.452785 99.600971 
L 656.651452 98.362801 
L 657.883272 97.826837 
L 659.115258 97.947602 
L 661.579089 99.075626 
L 662.811624 100.269455 
L 664.095916 100.579527 
L 665.372655 99.222323 
L 666.646626 94.566432 
L 667.92324 91.618803 
L 670.481023 73.861807 
L 671.746954 70.377518 
L 673.010299 65.480458 
L 674.274165 65.257888 
L 675.540483 68.732627 
L 678.060106 77.147778 
L 679.308733 81.271629 
L 680.556795 84.438998 
L 681.804739 89.394249 
L 683.052885 91.346976 
L 684.301497 92.878764 
L 685.550912 94.078626 
L 686.721424 95.997656 
L 687.886706 97.006325 
L 689.046495 97.578725 
L 690.202521 97.918777 
L 691.359314 97.06242 
L 692.524657 97.075123 
L 693.709745 95.90409 
L 697.153518 91.446526 
L 698.286271 91.452208 
L 699.420568 91.09719 
L 702.834961 89.524445 
L 702.834961 89.524445 
" clip-path="url(#pe625019f42)" style="fill: none; stroke: #ebb120; stroke-width: 3; stroke-linecap: square"/>
   </g>
   <g id="line2d_30">
    <path d="M 54.420745 224.885217 
L 702.834961 224.885217 
L 702.834961 224.885217 
" clip-path="url(#pe625019f42)" style="fill: none; stroke: #ebb120; stroke-width: 3; stroke-linecap: square"/>
   </g>
   <g id="line2d_31">
    <path d="M 54.420745 202.431127 
L 55.542614 204.985373 
L 56.664484 206.907631 
L 57.786354 208.24919 
L 58.908223 209.084367 
L 60.030092 209.497916 
L 61.151961 209.577808 
L 62.273831 209.40996 
L 63.3957 208.763991 
L 65.639439 208.257828 
L 67.883175 207.402076 
L 70.126911 206.193245 
L 71.248779 205.455548 
L 73.492513 203.443795 
L 76.858113 200.359384 
L 77.97998 199.487686 
L 79.101846 199.409865 
L 80.223712 199.005265 
L 81.345578 198.794616 
L 82.467444 198.808286 
L 83.58931 199.063234 
L 84.711175 199.541323 
L 85.833041 200.211423 
L 88.076772 201.965898 
L 92.564235 205.86987 
L 94.807966 207.487149 
L 101.539165 211.98028 
L 103.782899 213.828788 
L 108.270372 217.912235 
L 109.392241 218.749537 
L 110.514111 219.401374 
L 111.635981 219.809095 
L 112.757852 219.915474 
L 113.879723 219.667968 
L 115.001595 219.0249 
L 116.123468 217.970607 
L 117.245341 216.524442 
L 118.367215 214.741879 
L 120.610965 210.444605 
L 122.854716 205.669252 
L 123.976592 201.325421 
L 125.098469 199.731588 
L 126.220346 198.345281 
L 127.342223 197.305006 
L 128.4641 196.621237 
L 129.585977 196.296127 
L 130.707854 196.329406 
L 131.829732 196.721088 
L 132.951609 197.471376 
L 134.073486 198.576417 
L 135.195362 202.476446 
L 136.317238 204.92029 
L 137.439114 207.015267 
L 138.56099 208.495446 
L 139.682865 209.1249 
L 140.804739 208.738144 
L 141.926613 205.530894 
L 144.170359 202.01096 
L 146.414047 200.153425 
L 147.53589 198.899058 
L 148.657733 196.843945 
L 149.779576 190.179148 
L 150.901418 186.768416 
L 152.023261 182.600989 
L 153.145104 173.193831 
L 155.388793 165.8987 
L 156.510639 159.253201 
L 158.7543 155.151754 
L 159.876114 151.983401 
L 160.997932 151.687294 
L 162.119754 151.562289 
L 163.241579 151.615093 
L 165.48524 154.968693 
L 166.607076 156.933125 
L 167.728915 159.317412 
L 168.850757 162.151788 
L 169.972601 165.460724 
L 171.094448 173.76559 
L 174.459997 187.897836 
L 175.581848 191.974196 
L 176.703699 195.352706 
L 177.82555 197.836756 
L 178.947399 199.283728 
L 180.069248 199.949383 
L 181.191094 199.264092 
L 182.312939 197.554811 
L 183.434781 195.201893 
L 185.678425 190.011541 
L 186.800226 189.876925 
L 189.043821 186.607635 
L 191.287405 183.357154 
L 192.409194 181.46027 
L 193.530982 181.296524 
L 194.652767 180.062252 
L 195.774551 178.55984 
L 196.896334 176.776335 
L 198.018116 174.696933 
L 199.139897 174.22211 
L 200.261676 172.838154 
L 201.383455 171.187462 
L 202.505234 169.266356 
L 203.627011 168.582787 
L 205.870387 166.87959 
L 206.992073 166.221936 
L 208.113759 165.789375 
L 209.235444 166.665312 
L 210.357128 167.946755 
L 211.478812 169.568503 
L 212.600495 169.591753 
L 215.965545 178.967016 
L 217.087229 178.550937 
L 218.208914 181.94554 
L 219.3306 184.845204 
L 220.452287 186.997314 
L 221.573975 188.156339 
L 222.695665 188.084212 
L 223.817357 186.569316 
L 224.939052 183.667731 
L 226.060748 183.192488 
L 227.182446 179.785998 
L 229.42585 171.353073 
L 231.669262 162.985829 
L 232.790972 159.449896 
L 233.912683 156.595723 
L 235.034396 154.445595 
L 236.156111 152.985573 
L 237.277827 152.983095 
L 238.399544 152.526762 
L 239.521261 152.615359 
L 240.642978 153.046414 
L 241.764695 154.974457 
L 244.008128 158.047841 
L 246.251558 161.152463 
L 247.373271 162.496994 
L 248.494983 163.557823 
L 249.616693 165.303377 
L 250.738401 165.753723 
L 251.860107 165.551111 
L 252.981811 164.623255 
L 254.103513 160.736409 
L 255.225212 158.627516 
L 256.346909 156.809386 
L 257.468603 155.806776 
L 258.590295 156.079062 
L 259.711985 158.037299 
L 260.833672 164.966888 
L 263.07704 173.401551 
L 264.198721 180.543542 
L 265.3204 183.176762 
L 266.442077 184.349453 
L 267.563752 184.112327 
L 268.685426 183.339985 
L 269.807098 181.73283 
L 270.928769 178.379825 
L 273.172107 174.7178 
L 274.293775 170.253748 
L 275.415565 168.431571 
L 276.537356 166.21468 
L 277.659145 163.316321 
L 278.780935 157.630285 
L 279.902724 155.120078 
L 281.024512 150.774423 
L 282.1463 149.640889 
L 283.268088 149.048655 
L 284.389875 148.793194 
L 285.511661 149.545705 
L 286.633447 149.813684 
L 287.755233 148.33119 
L 288.877018 147.778087 
L 289.998804 146.497645 
L 291.120589 143.303287 
L 292.242375 142.280584 
L 293.364162 140.51808 
L 295.607826 141.924461 
L 296.729704 145.207532 
L 297.851584 147.840285 
L 298.973466 153.743329 
L 301.217235 161.218945 
L 302.339122 164.487938 
L 303.46101 170.009878 
L 309.070465 186.223058 
L 311.314251 193.539341 
L 312.436145 201.421973 
L 314.67993 209.270494 
L 315.801823 212.56277 
L 316.923714 215.290619 
L 318.045605 217.364922 
L 319.167496 218.751294 
L 320.289385 219.425399 
L 321.411273 219.437858 
L 322.533157 218.857512 
L 323.655035 217.761005 
L 324.776913 216.227801 
L 325.898789 214.337932 
L 328.14254 209.807146 
L 332.630032 200.401015 
L 334.873775 196.494796 
L 335.995645 194.951862 
L 338.239386 192.409015 
L 343.848733 186.972041 
L 346.092471 185.011789 
L 347.21434 184.1984 
L 348.336209 183.54443 
L 349.458078 183.080509 
L 350.579948 182.821006 
L 351.701817 182.7713 
L 352.823686 182.923428 
L 353.945556 183.264043 
L 355.067425 183.776639 
L 356.189295 184.44286 
L 358.433035 186.159643 
L 360.676776 188.138643 
L 361.798647 190.574875 
L 364.04239 193.780925 
L 366.286133 197.364319 
L 373.017371 208.952758 
L 374.139244 210.458318 
L 375.261119 211.684282 
L 376.382991 212.579256 
L 377.504864 213.965721 
L 378.626737 214.305578 
L 379.748611 214.292123 
L 380.870484 213.931066 
L 381.992358 213.231874 
L 383.114232 212.209349 
L 384.236106 210.887844 
L 385.357981 209.363583 
L 387.601729 205.756077 
L 388.723604 202.447008 
L 389.845478 201.674718 
L 390.967352 201.117453 
L 392.089227 200.840576 
L 393.211101 200.88324 
L 394.332975 201.227299 
L 395.454848 201.702534 
L 396.576722 203.055176 
L 397.698595 203.260197 
L 398.820468 202.458517 
L 399.94234 200.394154 
L 401.064212 196.899962 
L 402.186084 186.288222 
L 405.551698 170.150285 
L 407.79544 161.384514 
L 408.917311 161.712784 
L 410.039182 163.247797 
L 411.161053 164.991759 
L 412.282925 168.323845 
L 413.404798 170.458151 
L 414.526671 171.927831 
L 415.648546 172.588409 
L 416.770422 172.455275 
L 417.8923 170.725667 
L 419.01418 169.540325 
L 422.379807 165.383226 
L 423.501668 164.605552 
L 424.623534 164.508792 
L 425.745403 165.213531 
L 427.989151 173.359664 
L 429.111029 178.349883 
L 433.598551 201.469217 
L 434.720432 206.051343 
L 435.842311 209.442059 
L 436.964188 211.80942 
L 438.086038 212.299624 
L 439.207886 211.214859 
L 440.329731 208.918114 
L 441.451573 205.776691 
L 442.573414 202.14345 
L 443.695253 202.115844 
L 449.304441 186.854809 
L 450.426287 186.036764 
L 451.548132 183.421293 
L 452.669976 180.266572 
L 453.791819 176.464694 
L 454.913662 172.067937 
L 456.035505 171.289859 
L 458.279188 164.419899 
L 459.401029 161.77418 
L 460.522869 160.9667 
L 461.64471 160.643239 
L 462.76655 161.507633 
L 463.88839 163.417491 
L 465.01023 166.074281 
L 466.13207 165.479789 
L 468.375749 173.125149 
L 469.497589 177.487422 
L 470.619428 180.479585 
L 471.741268 180.510104 
L 472.863107 183.289417 
L 473.984947 184.269345 
L 475.106787 183.143504 
L 476.228626 183.764306 
L 477.350466 182.054935 
L 478.472306 179.029947 
L 479.594146 178.091503 
L 480.715986 175.483712 
L 482.959666 169.495425 
L 484.081507 168.74663 
L 485.203347 167.365251 
L 486.325188 166.31523 
L 487.447029 165.074827 
L 488.568869 165.730564 
L 490.812551 167.622063 
L 491.934392 167.343904 
L 494.178075 171.432184 
L 495.299917 173.231875 
L 496.421758 172.850314 
L 497.5436 175.364313 
L 498.665442 177.438573 
L 499.787284 178.938276 
L 500.909126 178.036542 
L 502.030968 179.974581 
L 503.152811 181.040394 
L 504.274653 181.2594 
L 506.518339 180.497485 
L 507.640183 180.761816 
L 509.88387 180.962783 
L 511.005715 181.240303 
L 512.12756 180.773492 
L 513.249406 182.336623 
L 515.493099 187.060542 
L 516.614947 186.074901 
L 519.980497 197.414625 
L 521.10235 200.860097 
L 522.224204 203.908414 
L 523.34606 203.785324 
L 524.467918 207.517918 
L 525.589778 210.681551 
L 526.71164 213.146126 
L 527.833505 214.98508 
L 528.955372 216.272034 
L 530.077264 217.06581 
L 531.19916 217.256944 
L 532.321059 218.04382 
L 533.442961 218.537207 
L 534.564866 218.696027 
L 535.686775 217.936184 
L 536.808686 217.008665 
L 537.930601 215.563134 
L 539.052519 213.373823 
L 540.174484 210.65509 
L 541.296452 207.487774 
L 543.540394 200.195281 
L 546.906316 187.993474 
L 548.02829 183.505399 
L 549.150263 173.429092 
L 550.272234 167.822192 
L 551.394204 161.208682 
L 552.516171 144.973139 
L 553.638135 138.205068 
L 554.760096 132.933116 
L 555.882053 126.0643 
L 557.004006 124.984711 
L 558.125956 125.324108 
L 559.2479 127.987112 
L 560.369841 131.038491 
L 561.491777 138.759326 
L 562.61371 142.809287 
L 563.735639 149.687847 
L 564.857564 152.966179 
L 565.979487 153.684323 
L 567.101408 152.775145 
L 568.223328 148.426266 
L 570.467169 144.886722 
L 571.589092 144.486771 
L 572.710775 146.559776 
L 573.83246 153.030402 
L 576.075839 163.879475 
L 577.197533 174.226542 
L 578.319229 179.674926 
L 579.440925 184.147033 
L 580.562621 191.542261 
L 581.684373 194.134831 
L 582.806124 195.542102 
L 583.927872 195.742505 
L 585.049618 194.360904 
L 586.171362 193.352794 
L 588.414845 190.59325 
L 589.536585 189.070616 
L 590.658323 185.765632 
L 591.78006 184.678552 
L 592.901796 183.293422 
L 594.023532 181.697843 
L 595.145266 179.68701 
L 596.267 177.247192 
L 597.388733 171.962609 
L 598.510466 169.145105 
L 599.632198 165.883529 
L 600.75393 162.230538 
L 601.875662 154.401465 
L 602.997393 151.405141 
L 604.119153 148.877959 
L 605.240913 147.089671 
L 606.362673 146.294423 
L 607.484433 146.71901 
L 608.606193 151.838962 
L 610.849711 160.152934 
L 611.97147 164.525496 
L 613.093229 173.478549 
L 615.336746 182.033102 
L 617.580262 189.086536 
L 619.823778 195.103754 
L 622.067293 200.429889 
L 624.310807 205.113534 
L 625.432564 209.228854 
L 626.554321 211.424919 
L 627.676077 213.353113 
L 628.797834 214.98042 
L 629.91959 216.278148 
L 631.041346 217.227369 
L 632.163103 217.77756 
L 633.284859 217.96563 
L 634.406615 217.87255 
L 636.650127 217.222612 
L 638.893639 216.545958 
L 642.258908 216.758288 
L 643.380665 216.640599 
L 644.502422 216.267073 
L 645.624178 215.543439 
L 646.745934 214.392617 
L 647.86769 212.713545 
L 648.989447 210.603476 
L 651.232961 205.464392 
L 655.719993 194.417333 
L 659.085269 186.507504 
L 660.207027 183.525376 
L 661.328786 176.802198 
L 663.572302 168.989818 
L 666.937573 156.483235 
L 668.05933 151.372469 
L 669.181086 150.844747 
L 670.302842 151.658202 
L 671.424598 153.950836 
L 672.546353 157.639712 
L 673.668108 162.112383 
L 674.789862 170.991652 
L 675.911617 174.618988 
L 677.033371 177.204272 
L 678.155124 178.762478 
L 679.276878 179.366982 
L 680.398631 179.121703 
L 681.520385 177.219467 
L 682.642138 175.920776 
L 683.763891 174.273342 
L 686.007398 170.380967 
L 687.129152 168.351754 
L 688.250906 164.892234 
L 689.372661 164.296006 
L 690.494415 163.967642 
L 691.616281 163.952478 
L 692.738146 164.302586 
L 694.98188 169.208588 
L 696.103747 172.295377 
L 698.347484 179.512807 
L 699.469353 183.357567 
L 700.591222 191.471973 
L 701.713091 195.614849 
L 702.834961 199.306181 
L 702.834961 199.306181 
" clip-path="url(#pe625019f42)" style="fill: none; stroke: #0072bd; stroke-width: 3; stroke-linecap: square"/>
   </g>
   <g id="line2d_32">
    <path d="M 54.420745 339.156922 
L 55.542614 340.756142 
L 56.664484 341.615593 
L 57.786354 341.845145 
L 58.908223 341.562533 
L 60.030092 340.887451 
L 61.151961 339.936429 
L 63.3957 337.612932 
L 74.61438 325.339752 
L 76.858113 323.22972 
L 77.97998 322.366515 
L 79.101846 321.667731 
L 80.223712 321.15721 
L 82.467444 320.631722 
L 83.58931 320.579724 
L 84.711175 320.675024 
L 86.954907 321.200619 
L 92.564235 323.05254 
L 94.807966 323.420331 
L 99.295431 323.753465 
L 100.417298 324.011252 
L 101.539165 324.430474 
L 102.661032 325.04685 
L 104.904767 326.811583 
L 109.392241 331.340136 
L 110.514111 332.004393 
L 111.635981 332.198568 
L 112.757852 331.797511 
L 113.879723 330.709278 
L 115.001595 328.911978 
L 116.123468 326.580529 
L 119.48909 318.209299 
L 120.610965 318.253156 
L 121.73284 315.353144 
L 122.854716 312.860277 
L 123.976592 310.959117 
L 125.098469 309.820894 
L 126.220346 309.597412 
L 127.342223 310.38882 
L 128.4641 312.220224 
L 129.585977 314.840081 
L 130.707854 315.310705 
L 131.829732 317.625926 
L 135.195362 325.297157 
L 136.317238 327.308444 
L 137.439114 327.68042 
L 138.56099 328.616321 
L 143.048486 331.68644 
L 146.414047 331.906661 
L 147.53589 331.583699 
L 148.657733 332.233686 
L 149.779576 330.470356 
L 150.901418 328.088076 
L 152.023261 324.694513 
L 153.145104 325.788518 
L 155.388793 316.093415 
L 156.510639 312.055011 
L 157.632488 309.174891 
L 158.7543 309.23632 
L 159.876114 306.413683 
L 160.997932 305.299485 
L 162.119754 305.534786 
L 163.241579 306.808212 
L 164.363408 306.824291 
L 165.48524 307.727264 
L 166.607076 309.241993 
L 168.850757 313.197876 
L 169.972601 315.494932 
L 171.094448 318.07021 
L 173.338146 324.157694 
L 176.703699 334.57241 
L 182.312939 351.688058 
L 184.55662 357.829408 
L 185.678425 360.602771 
L 186.800226 362.102341 
L 187.922025 358.088203 
L 189.043821 351.045651 
L 190.165614 341.984415 
L 192.409194 321.702485 
L 193.530982 304.878052 
L 194.652767 298.131204 
L 195.774551 292.937476 
L 198.018116 285.267603 
L 199.139897 283.894655 
L 200.261676 283.829796 
L 201.383455 284.679196 
L 202.505234 286.237663 
L 203.627011 288.316434 
L 205.870387 293.390885 
L 206.992073 295.962135 
L 208.113759 301.7351 
L 209.235444 304.374475 
L 210.357128 307.703403 
L 211.478812 311.822464 
L 212.600495 316.79384 
L 213.722178 327.411563 
L 215.965545 338.845022 
L 217.087229 349.363173 
L 218.208914 353.7484 
L 219.3306 360.833205 
L 220.452287 361.942687 
L 221.573975 362.081693 
L 222.695665 361.344257 
L 223.817357 356.58427 
L 224.939052 352.457706 
L 226.060748 347.610563 
L 227.182446 342.143262 
L 228.304147 330.135072 
L 229.42585 323.867097 
L 230.547555 318.264554 
L 231.669262 313.595308 
L 232.790972 310.022085 
L 233.912683 307.438508 
L 235.034396 305.635478 
L 236.156111 304.35627 
L 239.521261 301.434129 
L 241.764695 299.620289 
L 242.886412 298.015146 
L 244.008128 297.645948 
L 245.129843 297.956148 
L 246.251558 298.022978 
L 247.373271 298.305502 
L 248.494983 299.021838 
L 249.616693 300.035836 
L 251.860107 302.449088 
L 252.981811 303.739611 
L 254.103513 305.222581 
L 255.225212 305.33456 
L 256.346909 306.147789 
L 257.468603 307.597738 
L 258.590295 309.935087 
L 259.711985 313.434922 
L 260.833672 313.77289 
L 261.955357 317.311672 
L 263.07704 322.458647 
L 264.198721 329.006907 
L 265.3204 329.322452 
L 266.442077 335.873263 
L 267.563752 343.581595 
L 268.685426 344.356073 
L 270.928769 358.521844 
L 272.050439 358.624945 
L 273.172107 362.8014 
L 274.293775 363.439291 
L 275.415565 363.60441 
L 276.537356 364.605764 
L 277.659145 360.693129 
L 278.780935 355.270734 
L 279.902724 355.693597 
L 281.024512 348.612905 
L 282.1463 342.44725 
L 283.268088 342.764024 
L 284.389875 337.03996 
L 285.511661 338.761613 
L 286.633447 333.513596 
L 287.755233 332.74108 
L 288.877018 333.868937 
L 289.998804 333.712472 
L 292.242375 335.412794 
L 293.364162 334.40276 
L 294.485949 332.223502 
L 295.607826 332.861676 
L 296.729704 327.429167 
L 298.973466 314.014836 
L 300.09535 314.379645 
L 301.217235 307.257343 
L 302.339122 301.910077 
L 303.46101 299.44214 
L 304.582899 300.177337 
L 305.704789 300.367514 
L 306.826681 302.157705 
L 307.948573 305.497455 
L 311.314251 318.70897 
L 312.436145 319.221897 
L 313.558038 322.358405 
L 314.67993 325.079089 
L 315.801823 327.38626 
L 316.923714 329.316043 
L 318.045605 330.919215 
L 319.167496 332.250152 
L 320.289385 333.192011 
L 321.411273 333.92206 
L 322.533157 334.464999 
L 323.655035 334.841923 
L 324.776913 335.071005 
L 325.898789 335.16795 
L 328.14254 335.017471 
L 330.386287 334.53222 
L 332.630032 333.733201 
L 334.873775 332.575407 
L 337.117516 331.088144 
L 340.483125 328.516065 
L 341.604995 327.8274 
L 342.726864 327.304895 
L 343.848733 326.99115 
L 344.970602 326.917122 
L 346.092471 327.049147 
L 347.21434 327.396208 
L 349.458078 328.491825 
L 351.701817 329.647834 
L 352.823686 330.088336 
L 353.945556 330.240315 
L 357.311165 330.368153 
L 358.433035 330.645606 
L 359.554906 331.210119 
L 360.676776 331.955834 
L 362.920518 333.839037 
L 366.286133 336.91561 
L 367.408005 337.80508 
L 368.529878 338.483768 
L 369.65175 338.971653 
L 370.773624 339.245494 
L 371.895497 339.286528 
L 373.017371 339.078085 
L 374.139244 338.604685 
L 375.261119 337.852176 
L 376.382991 336.808948 
L 377.504864 335.468825 
L 378.626737 333.800965 
L 380.870484 329.730978 
L 384.236106 322.630795 
L 385.357981 322.778692 
L 387.601729 317.124813 
L 388.723604 314.929975 
L 389.845478 313.420732 
L 390.967352 312.784417 
L 392.089227 313.19654 
L 394.332975 314.57795 
L 395.454848 316.429105 
L 396.576722 319.438927 
L 398.820468 327.189769 
L 399.94234 327.123332 
L 401.064212 329.899866 
L 402.186084 332.123327 
L 403.307956 333.435244 
L 404.429827 333.736137 
L 405.551698 332.871947 
L 406.673569 330.985811 
L 407.79544 328.265236 
L 408.917311 324.947583 
L 410.039182 325.726932 
L 414.526671 307.946432 
L 415.648546 304.094316 
L 416.770422 300.65685 
L 417.8923 297.67802 
L 419.01418 298.327269 
L 420.136063 295.180044 
L 421.257949 292.56493 
L 422.379807 290.748693 
L 423.501668 289.773971 
L 424.623534 289.679077 
L 425.745403 290.520511 
L 426.867276 292.369217 
L 427.989151 295.30523 
L 429.111029 299.406786 
L 430.232908 304.72498 
L 431.354789 310.986136 
L 433.598551 325.297801 
L 434.720432 339.146842 
L 436.964188 349.675805 
L 438.086038 352.933606 
L 439.207886 354.499767 
L 440.329731 354.482861 
L 441.451573 352.995817 
L 442.573414 350.141706 
L 443.695253 346.022088 
L 444.81709 341.015882 
L 445.938926 328.907914 
L 448.182594 316.223293 
L 449.304441 310.811484 
L 450.426287 306.616147 
L 451.548132 300.647737 
L 452.669976 298.236218 
L 453.791819 296.684649 
L 454.913662 295.926458 
L 456.035505 295.886064 
L 457.157346 296.481484 
L 458.279188 297.952681 
L 459.401029 298.693887 
L 460.522869 299.731903 
L 462.76655 302.437978 
L 463.88839 304.517054 
L 466.13207 305.541788 
L 468.375749 306.553162 
L 469.497589 307.328941 
L 470.619428 309.316065 
L 471.741268 310.311096 
L 472.863107 311.694715 
L 473.984947 313.53747 
L 475.106787 315.726289 
L 476.228626 319.533156 
L 477.350466 320.679952 
L 478.472306 321.655884 
L 479.594146 322.375507 
L 480.715986 322.353701 
L 482.959666 320.15979 
L 484.081507 319.251967 
L 485.203347 318.618968 
L 486.325188 317.275765 
L 487.447029 316.58037 
L 488.568869 316.262898 
L 490.812551 316.309907 
L 491.934392 315.918803 
L 493.056234 315.717272 
L 495.299917 315.915546 
L 496.421758 315.581188 
L 497.5436 315.641794 
L 498.665442 316.119226 
L 499.787284 317.519158 
L 500.909126 318.010407 
L 502.030968 318.842001 
L 503.152811 320.008159 
L 504.274653 323.239965 
L 505.396496 324.15227 
L 507.640183 326.611605 
L 509.88387 329.215514 
L 511.005715 328.361825 
L 512.12756 326.9134 
L 513.249406 324.812222 
L 515.493099 319.071428 
L 516.614947 316.169051 
L 517.736796 311.99991 
L 518.858646 311.165292 
L 519.980497 311.625176 
L 521.10235 313.347098 
L 522.224204 316.139256 
L 523.34606 319.758485 
L 524.467918 323.935266 
L 525.589778 332.475911 
L 526.71164 335.991053 
L 527.833505 339.085427 
L 528.955372 341.79105 
L 530.077264 343.553237 
L 531.19916 344.384446 
L 532.321059 344.333529 
L 533.442961 343.4706 
L 534.564866 341.898726 
L 537.930601 335.404459 
L 539.052519 333.799895 
L 540.174484 332.967784 
L 541.296452 332.693461 
L 542.418422 332.815437 
L 543.540394 333.195002 
L 545.784342 332.815686 
L 546.906316 332.318612 
L 548.02829 331.435055 
L 549.150263 330.163707 
L 550.272234 331.019458 
L 552.516171 326.35016 
L 553.638135 324.539444 
L 554.760096 323.52283 
L 555.882053 323.63204 
L 557.004006 322.228377 
L 558.125956 321.884815 
L 559.2479 322.167075 
L 560.369841 321.38152 
L 561.491777 323.195143 
L 562.61371 321.259844 
L 563.735639 319.673424 
L 564.857564 320.698969 
L 565.979487 316.841977 
L 567.101408 313.394222 
L 568.223328 313.435026 
L 569.345248 308.375454 
L 570.467169 310.202457 
L 572.710775 298.046476 
L 573.83246 298.789727 
L 574.954148 296.005419 
L 576.075839 296.032598 
L 577.197533 297.66219 
L 578.319229 297.809083 
L 579.440925 299.009467 
L 580.562621 301.061655 
L 581.684373 303.72817 
L 582.806124 304.759425 
L 583.927872 306.369609 
L 586.171362 310.065563 
L 587.293104 311.394156 
L 588.414845 311.479007 
L 589.536585 311.288497 
L 590.658323 310.786622 
L 591.78006 310.087954 
L 592.901796 310.429355 
L 595.145266 306.444046 
L 596.267 304.825681 
L 597.388733 303.658273 
L 598.510466 304.188754 
L 599.632198 302.279886 
L 600.75393 300.845348 
L 601.875662 299.842718 
L 602.997393 299.233226 
L 604.119153 298.98968 
L 605.240913 298.877191 
L 606.362673 299.039867 
L 607.484433 298.652594 
L 608.606193 298.414652 
L 609.727952 298.347427 
L 610.849711 298.48026 
L 611.97147 298.846665 
L 613.093229 299.482168 
L 614.214988 300.340147 
L 615.336746 301.784672 
L 616.458504 303.836487 
L 617.580262 306.490212 
L 618.70202 309.710234 
L 619.823778 309.687009 
L 622.067293 315.808637 
L 624.310807 321.834575 
L 625.432564 324.173766 
L 626.554321 325.588683 
L 627.676077 326.453314 
L 628.797834 326.863831 
L 629.91959 326.938678 
L 632.163103 326.580593 
L 633.284859 326.371348 
L 634.406615 326.309983 
L 635.528371 326.465925 
L 636.650127 326.88635 
L 638.893639 328.361973 
L 640.015395 329.306472 
L 642.258908 331.587726 
L 645.624178 335.373651 
L 646.745934 335.353657 
L 647.86769 335.989067 
L 648.989447 336.084407 
L 650.111204 335.418982 
L 651.232961 333.824513 
L 652.354719 331.203169 
L 653.476477 327.79354 
L 655.719993 320.097772 
L 656.841752 320.189006 
L 659.085269 312.192711 
L 660.207027 309.405023 
L 661.328786 307.696392 
L 662.450544 307.07752 
L 663.572302 307.440463 
L 664.694059 306.659365 
L 665.815816 306.903997 
L 666.937573 307.973403 
L 668.05933 309.658006 
L 670.302842 311.508684 
L 673.668108 314.988015 
L 674.789862 315.88417 
L 675.911617 315.766563 
L 677.033371 315.191385 
L 678.155124 314.253606 
L 679.276878 312.911497 
L 680.398631 311.15159 
L 681.520385 311.182964 
L 686.007398 297.971178 
L 687.129152 295.320098 
L 688.250906 293.511495 
L 689.372661 292.849197 
L 690.494415 293.488048 
L 691.616281 293.447062 
L 692.738146 295.123657 
L 693.860013 298.269978 
L 694.98188 302.516267 
L 697.225615 313.004696 
L 699.469353 324.095847 
L 700.591222 329.108925 
L 701.713091 333.404721 
L 702.834961 336.725461 
L 702.834961 336.725461 
" clip-path="url(#pe625019f42)" style="fill: none; stroke: #0072bd; stroke-width: 3; stroke-linecap: square"/>
   </g>
   <g id="patch_3">
    <path d="M 54.420745 381.453658 
L 54.420745 10.8 
" style="fill: none; stroke: #000000; stroke-width: 0.8; stroke-linejoin: miter; stroke-linecap: square"/>
   </g>
   <g id="patch_4">
    <path d="M 702.834961 381.453658 
L 702.834961 10.8 
" style="fill: none; stroke: #000000; stroke-width: 0.8; stroke-linejoin: miter; stroke-linecap: square"/>
   </g>
   <g id="patch_5">
    <path d="M 54.420745 381.453658 
L 702.834961 381.453658 
" style="fill: none; stroke: #000000; stroke-width: 0.8; stroke-linejoin: miter; stroke-linecap: square"/>
   </g>
   <g id="patch_6">
    <path d="M 54.420745 10.8 
L 702.834961 10.8 
" style="fill: none; stroke: #000000; stroke-width: 0.8; stroke-linejoin: miter; stroke-linecap: square"/>
   </g>
   <g id="legend_1">
    <g id="patch_7">
     <path d="M 581.539848 64.611489 
L 692.334961 64.611489 
Q 695.334961 64.611489 695.334961 61.611489 
L 695.334961 21.3 
Q 695.334961 18.3 692.334961 18.3 
L 581.539848 18.3 
Q 578.539848 18.3 578.539848 21.3 
L 578.539848 61.611489 
Q 578.539848 64.611489 581.539848 64.611489 
z
" style="fill: #ffffff; opacity: 0.8; stroke: #cccccc; stroke-linejoin: miter"/>
    </g>
    <g id="line2d_33">
     <path d="M 584.539848 29.55 
L 599.539848 29.55 
L 614.539848 29.55 
" style="fill: none; stroke: #ebb120; stroke-width: 3; stroke-linecap: square"/>
    </g>
    <g id="text_17">
     <!-- CO-Fixed -->
     <g transform="translate(626.539848 34.8)scale(0.15 -0.15)">
      <defs>
       <path id="CMR17-4f" d="M 4307 2135 
C 4307 3437 3366 4416 2304 4416 
C 1216 4416 294 3424 294 2135 
C 294 845 1229 -128 2298 -128 
C 3392 -128 4307 864 4307 2135 
z
M 2304 -13 
C 1574 -13 781 711 781 2217 
C 781 3716 1651 4301 2298 4301 
C 2976 4301 3821 3698 3821 2217 
C 3821 686 3008 -13 2304 -13 
z
" transform="scale(0.015625)"/>
       <path id="CMR17-2d" d="M 1632 1216 
L 1632 1496 
L 26 1496 
L 26 1216 
L 1632 1216 
z
" transform="scale(0.015625)"/>
       <path id="CMR17-46" d="M 3482 4325 
L 326 4325 
L 326 4160 
C 768 4160 838 4160 838 3874 
L 838 446 
C 838 160 768 160 326 160 
L 326 0 
C 512 0 870 0 1069 0 
C 1331 0 1638 0 1901 0 
L 1901 160 
L 1760 160 
C 1274 160 1261 223 1261 452 
L 1261 2075 
L 1837 2075 
C 2432 2075 2490 1865 2490 1332 
L 2605 1332 
L 2605 2987 
L 2490 2987 
C 2490 2450 2432 2240 1837 2240 
L 1261 2240 
L 1261 3911 
C 1261 4128 1274 4160 1530 4160 
L 2355 4160 
C 3322 4160 3430 3765 3520 2916 
L 3635 2916 
L 3482 4325 
z
" transform="scale(0.015625)"/>
       <path id="CMR17-78" d="M 1664 1477 
C 1856 1726 2074 2006 2253 2216 
C 2464 2458 2707 2560 2989 2560 
L 2989 2726 
C 2880 2726 2656 2726 2541 2726 
C 2368 2726 2170 2726 2022 2732 
L 2022 2566 
C 2112 2553 2163 2489 2163 2400 
C 2163 2285 2099 2215 2067 2171 
L 1594 1573 
L 1030 2306 
C 973 2376 973 2388 973 2420 
C 973 2497 1037 2560 1146 2560 
L 1146 2732 
C 992 2726 717 2726 557 2726 
C 384 2726 179 2726 38 2732 
L 38 2560 
C 384 2560 461 2534 614 2343 
L 1350 1395 
C 1363 1382 1395 1344 1395 1325 
C 1395 1299 838 619 768 530 
C 480 185 179 160 6 160 
L 6 0 
C 115 0 339 0 454 0 
C 582 0 864 0 979 -6 
L 979 160 
C 941 166 838 179 838 325 
C 838 440 890 510 947 586 
L 1478 1236 
L 2035 512 
C 2086 442 2163 346 2163 301 
C 2163 211 2086 160 1984 160 
L 1984 -6 
C 2138 0 2413 0 2573 0 
C 2746 0 2950 0 3091 -6 
L 3091 160 
C 2771 160 2675 172 2522 370 
L 1664 1477 
z
" transform="scale(0.015625)"/>
      </defs>
      <use xlink:href="#CMR17-43" transform="scale(0.996264)"/>
      <use xlink:href="#CMR17-4f" transform="translate(66.509881 0)scale(0.996264)"/>
      <use xlink:href="#CMR17-2d" transform="translate(138.224669 0)scale(0.996264)"/>
      <use xlink:href="#CMR17-46" transform="translate(168.300635 0)scale(0.996264)"/>
      <use xlink:href="#CMR17-69" transform="translate(228.284482 0)scale(0.996264)"/>
      <use xlink:href="#CMR17-78" transform="translate(253.15554 0)scale(0.996264)"/>
      <use xlink:href="#CMR17-65" transform="translate(301.448456 0)scale(0.996264)"/>
      <use xlink:href="#CMR17-64" transform="translate(341.934117 0)scale(0.996264)"/>
     </g>
    </g>
    <g id="line2d_34">
     <path d="M 584.539848 50.455745 
L 599.539848 50.455745 
L 614.539848 50.455745 
" style="fill: none; stroke: #0072bd; stroke-width: 3; stroke-linecap: square"/>
    </g>
    <g id="text_18">
     <!-- CO-Free -->
     <g transform="translate(626.539848 55.705745)scale(0.15 -0.15)">
      <use xlink:href="#CMR17-43" transform="scale(0.996264)"/>
      <use xlink:href="#CMR17-4f" transform="translate(66.509881 0)scale(0.996264)"/>
      <use xlink:href="#CMR17-2d" transform="translate(138.224669 0)scale(0.996264)"/>
      <use xlink:href="#CMR17-46" transform="translate(168.300635 0)scale(0.996264)"/>
      <use xlink:href="#CMR17-72" transform="translate(220.477227 0)scale(0.996264)"/>
      <use xlink:href="#CMR17-65" transform="translate(255.757994 0)scale(0.996264)"/>
      <use xlink:href="#CMR17-65" transform="translate(296.243655 0)scale(0.996264)"/>
     </g>
    </g>
   </g>
  </g>
 </g>
 <defs>
  <clipPath id="pe625019f42">
   <rect x="54.420745" y="10.8" width="648.414216" height="370.653658"/>
  </clipPath>
 </defs>
</svg>
