<?xml version="1.0" encoding="utf-8" standalone="no"?>
<!DOCTYPE svg PUBLIC "-//W3C//DTD SVG 1.1//EN"
  "http://www.w3.org/Graphics/SVG/1.1/DTD/svg11.dtd">
<svg xmlns:xlink="http://www.w3.org/1999/xlink" width="720pt" height="432pt" viewBox="0 0 720 432" xmlns="http://www.w3.org/2000/svg" version="1.1">
 <metadata>
  <rdf:RDF xmlns:dc="http://purl.org/dc/elements/1.1/" xmlns:cc="http://creativecommons.org/ns#" xmlns:rdf="http://www.w3.org/1999/02/22-rdf-syntax-ns#">
   <cc:Work>
    <dc:type rdf:resource="http://purl.org/dc/dcmitype/StillImage"/>
    <dc:date>2022-04-28T12:11:41.966445</dc:date>
    <dc:format>image/svg+xml</dc:format>
    <dc:creator>
     <cc:Agent>
      <dc:title>Matplotlib v3.5.1, https://matplotlib.org/</dc:title>
     </cc:Agent>
    </dc:creator>
   </cc:Work>
  </rdf:RDF>
 </metadata>
 <defs>
  <style type="text/css">*{stroke-linejoin: round; stroke-linecap: butt}</style>
 </defs>
 <g id="figure_1">
  <g id="patch_1">
   <path d="M 0 432 
L 720 432 
L 720 0 
L 0 0 
z
" style="fill: #ffffff"/>
  </g>
  <g id="axes_1">
   <g id="patch_2">
    <path d="M 54.420745 381.453658 
L 702.834961 381.453658 
L 702.834961 10.8 
L 54.420745 10.8 
z
" style="fill: #ffffff"/>
   </g>
   <g id="matplotlib.axis_1">
    <g id="xtick_1">
     <g id="line2d_1">
      <path d="M 54.420745 381.453658 
L 54.420745 10.8 
" clip-path="url(#p15a0bf2e15)" style="fill: none; stroke-dasharray: 2.96,1.28; stroke-dashoffset: 0; stroke: #b0b0b0; stroke-width: 0.8"/>
     </g>
     <g id="line2d_2">
      <defs>
       <path id="m8e1debcb4e" d="M 0 0 
L 0 3.5 
" style="stroke: #000000; stroke-width: 0.8"/>
      </defs>
      <g>
       <use xlink:href="#m8e1debcb4e" x="54.420745" y="381.453658" style="stroke: #000000; stroke-width: 0.8"/>
      </g>
     </g>
     <g id="text_1">
      <!-- $\mathdefault{0.0}$ -->
      <g transform="translate(48.055705 395.372156)scale(0.1 -0.1)">
       <defs>
        <path id="CMR17-30" d="M 2688 2025 
C 2688 2416 2682 3080 2413 3591 
C 2176 4039 1798 4198 1466 4198 
C 1158 4198 768 4058 525 3597 
C 269 3118 243 2524 243 2025 
C 243 1661 250 1106 448 619 
C 723 -39 1216 -128 1466 -128 
C 1760 -128 2208 -7 2470 600 
C 2662 1042 2688 1559 2688 2025 
z
M 1466 -26 
C 1056 -26 813 325 723 812 
C 653 1188 653 1738 653 2096 
C 653 2588 653 2997 736 3387 
C 858 3929 1216 4096 1466 4096 
C 1728 4096 2067 3923 2189 3400 
C 2272 3036 2278 2607 2278 2096 
C 2278 1680 2278 1169 2202 792 
C 2067 95 1690 -26 1466 -26 
z
" transform="scale(0.015625)"/>
        <path id="CMMI12-3a" d="M 1178 307 
C 1178 492 1024 619 870 619 
C 685 619 557 466 557 313 
C 557 128 710 0 864 0 
C 1050 0 1178 153 1178 307 
z
" transform="scale(0.015625)"/>
       </defs>
       <use xlink:href="#CMR17-30" transform="scale(0.996264)"/>
       <use xlink:href="#CMMI12-3a" transform="translate(45.690477 0)scale(0.996264)"/>
       <use xlink:href="#CMR17-30" transform="translate(72.787654 0)scale(0.996264)"/>
      </g>
     </g>
    </g>
    <g id="xtick_2">
     <g id="line2d_3">
      <path d="M 184.103588 381.453658 
L 184.103588 10.8 
" clip-path="url(#p15a0bf2e15)" style="fill: none; stroke-dasharray: 2.96,1.28; stroke-dashoffset: 0; stroke: #b0b0b0; stroke-width: 0.8"/>
     </g>
     <g id="line2d_4">
      <g>
       <use xlink:href="#m8e1debcb4e" x="184.103588" y="381.453658" style="stroke: #000000; stroke-width: 0.8"/>
      </g>
     </g>
     <g id="text_2">
      <!-- $\mathdefault{0.2}$ -->
      <g transform="translate(177.738548 395.372156)scale(0.1 -0.1)">
       <defs>
        <path id="CMR17-32" d="M 2669 989 
L 2554 989 
C 2490 536 2438 459 2413 420 
C 2381 369 1920 369 1830 369 
L 602 369 
C 832 619 1280 1072 1824 1597 
C 2214 1967 2669 2402 2669 3035 
C 2669 3790 2067 4224 1395 4224 
C 691 4224 262 3604 262 3030 
C 262 2780 448 2748 525 2748 
C 589 2748 781 2787 781 3010 
C 781 3207 614 3264 525 3264 
C 486 3264 448 3258 422 3245 
C 544 3790 915 4058 1306 4058 
C 1862 4058 2227 3617 2227 3035 
C 2227 2479 1901 2000 1536 1584 
L 262 146 
L 262 0 
L 2515 0 
L 2669 989 
z
" transform="scale(0.015625)"/>
       </defs>
       <use xlink:href="#CMR17-30" transform="scale(0.996264)"/>
       <use xlink:href="#CMMI12-3a" transform="translate(45.690477 0)scale(0.996264)"/>
       <use xlink:href="#CMR17-32" transform="translate(72.787654 0)scale(0.996264)"/>
      </g>
     </g>
    </g>
    <g id="xtick_3">
     <g id="line2d_5">
      <path d="M 313.786431 381.453658 
L 313.786431 10.8 
" clip-path="url(#p15a0bf2e15)" style="fill: none; stroke-dasharray: 2.96,1.28; stroke-dashoffset: 0; stroke: #b0b0b0; stroke-width: 0.8"/>
     </g>
     <g id="line2d_6">
      <g>
       <use xlink:href="#m8e1debcb4e" x="313.786431" y="381.453658" style="stroke: #000000; stroke-width: 0.8"/>
      </g>
     </g>
     <g id="text_3">
      <!-- $\mathdefault{0.4}$ -->
      <g transform="translate(307.421392 395.372156)scale(0.1 -0.1)">
       <defs>
        <path id="CMR17-34" d="M 2150 4122 
C 2150 4256 2144 4256 2029 4256 
L 128 1254 
L 128 1088 
L 1779 1088 
L 1779 457 
C 1779 224 1766 160 1318 160 
L 1197 160 
L 1197 0 
C 1402 0 1747 0 1965 0 
C 2182 0 2528 0 2733 0 
L 2733 160 
L 2611 160 
C 2163 160 2150 224 2150 457 
L 2150 1088 
L 2803 1088 
L 2803 1254 
L 2150 1254 
L 2150 4122 
z
M 1798 3703 
L 1798 1254 
L 256 1254 
L 1798 3703 
z
" transform="scale(0.015625)"/>
       </defs>
       <use xlink:href="#CMR17-30" transform="scale(0.996264)"/>
       <use xlink:href="#CMMI12-3a" transform="translate(45.690477 0)scale(0.996264)"/>
       <use xlink:href="#CMR17-34" transform="translate(72.787654 0)scale(0.996264)"/>
      </g>
     </g>
    </g>
    <g id="xtick_4">
     <g id="line2d_7">
      <path d="M 443.469274 381.453658 
L 443.469274 10.8 
" clip-path="url(#p15a0bf2e15)" style="fill: none; stroke-dasharray: 2.96,1.28; stroke-dashoffset: 0; stroke: #b0b0b0; stroke-width: 0.8"/>
     </g>
     <g id="line2d_8">
      <g>
       <use xlink:href="#m8e1debcb4e" x="443.469274" y="381.453658" style="stroke: #000000; stroke-width: 0.8"/>
      </g>
     </g>
     <g id="text_4">
      <!-- $\mathdefault{0.6}$ -->
      <g transform="translate(437.104235 395.372156)scale(0.1 -0.1)">
       <defs>
        <path id="CMR17-36" d="M 678 2176 
C 678 3690 1395 4032 1811 4032 
C 1946 4032 2272 4009 2400 3776 
C 2298 3776 2106 3776 2106 3553 
C 2106 3381 2246 3323 2336 3323 
C 2394 3323 2566 3348 2566 3560 
C 2566 3954 2246 4179 1805 4179 
C 1043 4179 243 3390 243 1984 
C 243 253 966 -128 1478 -128 
C 2099 -128 2688 427 2688 1283 
C 2688 2081 2170 2662 1517 2662 
C 1126 2662 838 2407 678 1960 
L 678 2176 
z
M 1478 25 
C 691 25 691 1200 691 1436 
C 691 1896 909 2560 1504 2560 
C 1613 2560 1926 2560 2138 2120 
C 2253 1870 2253 1609 2253 1289 
C 2253 944 2253 690 2118 434 
C 1978 171 1773 25 1478 25 
z
" transform="scale(0.015625)"/>
       </defs>
       <use xlink:href="#CMR17-30" transform="scale(0.996264)"/>
       <use xlink:href="#CMMI12-3a" transform="translate(45.690477 0)scale(0.996264)"/>
       <use xlink:href="#CMR17-36" transform="translate(72.787654 0)scale(0.996264)"/>
      </g>
     </g>
    </g>
    <g id="xtick_5">
     <g id="line2d_9">
      <path d="M 573.152117 381.453658 
L 573.152117 10.8 
" clip-path="url(#p15a0bf2e15)" style="fill: none; stroke-dasharray: 2.96,1.28; stroke-dashoffset: 0; stroke: #b0b0b0; stroke-width: 0.8"/>
     </g>
     <g id="line2d_10">
      <g>
       <use xlink:href="#m8e1debcb4e" x="573.152117" y="381.453658" style="stroke: #000000; stroke-width: 0.8"/>
      </g>
     </g>
     <g id="text_5">
      <!-- $\mathdefault{0.8}$ -->
      <g transform="translate(566.787078 395.372156)scale(0.1 -0.1)">
       <defs>
        <path id="CMR17-38" d="M 1741 2264 
C 2144 2467 2554 2773 2554 3263 
C 2554 3841 1990 4179 1472 4179 
C 890 4179 378 3759 378 3180 
C 378 3021 416 2747 666 2505 
C 730 2442 998 2251 1171 2130 
C 883 1983 211 1634 211 934 
C 211 279 838 -128 1459 -128 
C 2144 -128 2720 362 2720 1010 
C 2720 1590 2330 1857 2074 2029 
L 1741 2264 
z
M 902 2822 
C 851 2854 595 3051 595 3351 
C 595 3739 998 4032 1459 4032 
C 1965 4032 2336 3676 2336 3262 
C 2336 2669 1670 2331 1638 2331 
C 1632 2331 1626 2331 1574 2370 
L 902 2822 
z
M 2080 1519 
C 2176 1449 2483 1240 2483 851 
C 2483 381 2010 25 1472 25 
C 890 25 448 438 448 940 
C 448 1443 838 1862 1280 2060 
L 2080 1519 
z
" transform="scale(0.015625)"/>
       </defs>
       <use xlink:href="#CMR17-30" transform="scale(0.996264)"/>
       <use xlink:href="#CMMI12-3a" transform="translate(45.690477 0)scale(0.996264)"/>
       <use xlink:href="#CMR17-38" transform="translate(72.787654 0)scale(0.996264)"/>
      </g>
     </g>
    </g>
    <g id="xtick_6">
     <g id="line2d_11">
      <path d="M 702.834961 381.453658 
L 702.834961 10.8 
" clip-path="url(#p15a0bf2e15)" style="fill: none; stroke-dasharray: 2.96,1.28; stroke-dashoffset: 0; stroke: #b0b0b0; stroke-width: 0.8"/>
     </g>
     <g id="line2d_12">
      <g>
       <use xlink:href="#m8e1debcb4e" x="702.834961" y="381.453658" style="stroke: #000000; stroke-width: 0.8"/>
      </g>
     </g>
     <g id="text_6">
      <!-- $\mathdefault{1.0}$ -->
      <g transform="translate(696.469921 395.372156)scale(0.1 -0.1)">
       <defs>
        <path id="CMR17-31" d="M 1702 4058 
C 1702 4192 1696 4192 1606 4192 
C 1357 3916 979 3827 621 3827 
C 602 3827 570 3827 563 3808 
C 557 3795 557 3782 557 3648 
C 755 3648 1088 3686 1344 3839 
L 1344 461 
C 1344 236 1331 160 781 160 
L 589 160 
L 589 0 
C 896 0 1216 0 1523 0 
C 1830 0 2150 0 2458 0 
L 2458 160 
L 2266 160 
C 1715 160 1702 230 1702 458 
L 1702 4058 
z
" transform="scale(0.015625)"/>
       </defs>
       <use xlink:href="#CMR17-31" transform="scale(0.996264)"/>
       <use xlink:href="#CMMI12-3a" transform="translate(45.690477 0)scale(0.996264)"/>
       <use xlink:href="#CMR17-30" transform="translate(72.787654 0)scale(0.996264)"/>
      </g>
     </g>
    </g>
    <g id="text_7">
     <!-- Curve length ($\%$) -->
     <g transform="translate(309.1665 416.235356)scale(0.2 -0.2)">
      <defs>
       <path id="CMR17-43" d="M 3974 4289 
C 3974 4403 3968 4410 3930 4410 
C 3904 4410 3898 4403 3853 4327 
L 3571 3792 
C 3258 4187 2874 4416 2381 4416 
C 1286 4416 294 3456 294 2148 
C 294 826 1286 -128 2387 -128 
C 3366 -128 3974 730 3974 1461 
C 3974 1524 3974 1550 3917 1550 
C 3866 1550 3866 1531 3859 1474 
C 3808 585 3168 38 2477 38 
C 1824 38 781 495 781 2147 
C 781 3805 1843 4250 2464 4250 
C 3187 4250 3712 3628 3834 2745 
C 3846 2668 3846 2655 3904 2655 
C 3974 2655 3974 2668 3974 2783 
L 3974 4289 
z
" transform="scale(0.015625)"/>
       <path id="CMR17-75" d="M 1882 2693 
L 1882 2528 
C 2259 2528 2317 2489 2317 2186 
L 2317 1032 
C 2317 500 2029 38 1555 38 
C 1030 38 986 348 986 678 
L 986 2763 
L 211 2693 
L 211 2528 
C 467 2528 640 2528 646 2274 
L 646 1058 
C 646 633 646 361 813 183 
C 896 101 1056 -64 1517 -64 
C 2061 -64 2272 377 2323 506 
L 2330 506 
L 2330 -63 
L 3091 -63 
L 3091 128 
C 2714 128 2656 166 2656 473 
L 2656 2763 
L 1882 2693 
z
" transform="scale(0.015625)"/>
       <path id="CMR17-72" d="M 960 1497 
C 960 2112 1222 2688 1702 2688 
C 1747 2688 1792 2682 1837 2662 
C 1837 2662 1696 2617 1696 2452 
C 1696 2298 1818 2234 1914 2234 
C 1990 2234 2131 2279 2131 2458 
C 2131 2663 1926 2790 1709 2790 
C 1222 2790 1011 2317 947 2093 
L 941 2093 
L 941 2790 
L 198 2720 
L 198 2554 
C 576 2554 634 2515 634 2208 
L 634 428 
C 634 184 608 153 198 153 
L 198 -13 
C 352 0 646 0 813 0 
C 998 0 1325 0 1498 -13 
L 1498 153 
C 1037 153 960 153 960 440 
L 960 1497 
z
" transform="scale(0.015625)"/>
       <path id="CMR17-76" d="M 2502 2163 
C 2560 2304 2662 2560 3034 2560 
L 3034 2726 
C 2912 2726 2752 2726 2630 2726 
C 2496 2726 2285 2726 2157 2732 
L 2157 2566 
C 2317 2553 2406 2477 2406 2311 
C 2406 2253 2406 2240 2368 2151 
L 1664 377 
L 902 2286 
C 864 2369 864 2381 864 2407 
C 864 2560 1075 2560 1171 2560 
L 1171 2732 
C 1018 2726 736 2726 576 2726 
C 403 2726 205 2726 64 2732 
L 64 2560 
C 307 2560 442 2560 518 2362 
L 1446 44 
C 1485 -51 1491 -64 1549 -64 
C 1606 -64 1613 -51 1651 44 
L 2502 2163 
z
" transform="scale(0.015625)"/>
       <path id="CMR17-65" d="M 2438 1472 
C 2464 1498 2464 1511 2464 1576 
C 2464 2238 2118 2816 1389 2816 
C 710 2816 173 2169 173 1383 
C 173 551 781 -64 1459 -64 
C 2176 -64 2458 607 2458 740 
C 2458 784 2419 784 2406 784 
C 2362 784 2355 771 2330 696 
C 2189 265 1837 51 1504 51 
C 1229 51 954 203 781 480 
C 582 803 582 1176 582 1472 
L 2438 1472 
z
M 589 1568 
C 634 2505 1126 2714 1382 2714 
C 1818 2714 2112 2297 2118 1568 
L 589 1568 
z
" transform="scale(0.015625)"/>
       <path id="CMR17-6c" d="M 979 4396 
L 218 4326 
L 218 4160 
C 595 4160 653 4122 653 3817 
L 653 426 
C 653 184 627 153 218 153 
L 218 -13 
C 371 0 653 0 813 0 
C 979 0 1261 0 1414 -13 
L 1414 153 
C 1005 153 979 178 979 426 
L 979 4396 
z
" transform="scale(0.015625)"/>
       <path id="CMR17-6e" d="M 2656 1933 
C 2656 2259 2592 2790 1837 2790 
C 1331 2790 1069 2400 973 2144 
L 966 2144 
L 966 2790 
L 211 2720 
L 211 2554 
C 589 2554 646 2515 646 2208 
L 646 428 
C 646 184 621 153 211 153 
L 211 -13 
C 365 0 646 0 813 0 
C 979 0 1267 0 1421 -13 
L 1421 153 
C 1011 153 986 178 986 428 
L 986 1658 
C 986 2247 1344 2688 1792 2688 
C 2266 2688 2317 2266 2317 1958 
L 2317 428 
C 2317 184 2291 153 1882 153 
L 1882 -13 
C 2035 0 2317 0 2483 0 
C 2650 0 2938 0 3091 -13 
L 3091 153 
C 2682 153 2656 178 2656 428 
L 2656 1933 
z
" transform="scale(0.015625)"/>
       <path id="CMR17-67" d="M 710 1164 
C 832 1068 1043 960 1299 960 
C 1805 960 2240 1357 2240 1888 
C 2240 2054 2189 2310 1997 2509 
C 2176 2692 2438 2752 2586 2752 
C 2611 2752 2650 2752 2682 2734 
C 2656 2728 2598 2703 2598 2605 
C 2598 2527 2656 2471 2739 2471 
C 2835 2471 2886 2533 2886 2614 
C 2886 2731 2790 2854 2586 2854 
C 2330 2854 2106 2738 1926 2580 
C 1734 2753 1504 2816 1299 2816 
C 794 2816 358 2419 358 1888 
C 358 1522 570 1292 634 1228 
C 442 1004 442 743 442 711 
C 442 545 506 302 723 168 
C 390 85 128 -169 128 -486 
C 128 -943 736 -1280 1466 -1280 
C 2170 -1280 2803 -956 2803 -479 
C 2803 384 1856 384 1363 384 
C 1216 384 954 384 922 391 
C 723 423 589 602 589 826 
C 589 883 589 1024 710 1164 
z
M 1299 1068 
C 736 1068 736 1760 736 1889 
C 736 2016 736 2708 1299 2708 
C 1862 2708 1862 2016 1862 1889 
C 1862 1760 1862 1068 1299 1068 
z
M 1466 -1171 
C 826 -1171 384 -835 384 -486 
C 384 -289 493 -105 634 -4 
C 794 104 858 104 1293 104 
C 1818 104 2547 104 2547 -486 
C 2547 -835 2106 -1171 1466 -1171 
z
" transform="scale(0.015625)"/>
       <path id="CMR17-74" d="M 966 2560 
L 1862 2560 
L 1862 2725 
L 966 2725 
L 966 3904 
L 851 3904 
C 838 3245 614 2668 70 2668 
L 70 2560 
L 627 2560 
L 627 771 
C 627 650 627 -64 1370 -64 
C 1747 -64 1965 306 1965 777 
L 1965 1140 
L 1850 1140 
L 1850 783 
C 1850 344 1677 51 1408 51 
C 1222 51 966 178 966 758 
L 966 2560 
z
" transform="scale(0.015625)"/>
       <path id="CMR17-68" d="M 2656 1933 
C 2656 2259 2592 2790 1837 2790 
C 1312 2790 1056 2368 979 2157 
L 973 2157 
L 973 4396 
L 211 4326 
L 211 4160 
C 589 4160 646 4122 646 3817 
L 646 426 
C 646 184 621 153 211 153 
L 211 -13 
C 365 0 646 0 813 0 
C 979 0 1267 0 1421 -13 
L 1421 153 
C 1011 153 986 178 986 428 
L 986 1658 
C 986 2247 1344 2688 1792 2688 
C 2266 2688 2317 2266 2317 1958 
L 2317 428 
C 2317 184 2291 153 1882 153 
L 1882 -13 
C 2035 0 2317 0 2483 0 
C 2650 0 2938 0 3091 -13 
L 3091 153 
C 2682 153 2656 178 2656 428 
L 2656 1933 
z
" transform="scale(0.015625)"/>
       <path id="CMR17-28" d="M 1958 -1561 
C 1958 -1555 1958 -1542 1939 -1523 
C 1645 -1224 858 -407 858 1581 
C 858 3569 1632 4379 1946 4697 
C 1946 4704 1958 4717 1958 4736 
C 1958 4755 1939 4768 1914 4768 
C 1843 4768 1299 4296 986 3594 
C 666 2887 576 2199 576 1588 
C 576 1128 621 351 1005 -471 
C 1312 -1135 1837 -1600 1914 -1600 
C 1946 -1600 1958 -1587 1958 -1561 
z
" transform="scale(0.015625)"/>
       <path id="CMR17-25" d="M 4640 959 
C 4640 1698 4275 2240 3846 2240 
C 3411 2240 2970 1736 2970 959 
C 2970 183 3405 -320 3846 -320 
C 4275 -320 4640 215 4640 959 
z
M 3853 -218 
C 3686 -218 3270 -66 3270 959 
C 3270 1991 3686 2138 3853 2138 
C 4205 2138 4525 1634 4525 959 
C 4525 285 4205 -218 3853 -218 
z
M 4083 4577 
C 4128 4647 4134 4653 4134 4685 
C 4134 4761 4077 4800 4026 4800 
C 3962 4800 3936 4756 3891 4706 
C 3520 4190 3008 4134 2746 4134 
C 2106 4134 1715 4494 1594 4607 
C 1510 4682 1389 4800 1171 4800 
C 736 4800 294 4296 294 3519 
C 294 2743 730 2240 1171 2240 
C 1600 2240 1965 2778 1965 3527 
C 1965 3969 1830 4270 1811 4308 
C 2202 4064 2586 4032 2752 4032 
C 3162 4032 3456 4183 3616 4289 
L 3622 4283 
L 858 -84 
C 800 -174 800 -187 800 -206 
C 800 -276 858 -320 915 -320 
C 973 -320 992 -289 1037 -218 
L 4083 4577 
z
M 1178 2342 
C 1011 2342 595 2494 595 3519 
C 595 4551 1011 4698 1178 4698 
C 1530 4698 1850 4194 1850 3519 
C 1850 2845 1530 2342 1178 2342 
z
" transform="scale(0.015625)"/>
       <path id="CMR17-29" d="M 1683 1581 
C 1683 2040 1638 2817 1254 3639 
C 947 4303 422 4768 346 4768 
C 326 4768 301 4761 301 4729 
C 301 4717 307 4710 314 4697 
C 621 4378 1402 3568 1402 1584 
C 1402 -407 627 -1217 314 -1537 
C 307 -1549 301 -1556 301 -1568 
C 301 -1600 326 -1600 346 -1600 
C 416 -1600 960 -1128 1274 -426 
C 1594 281 1683 969 1683 1581 
z
" transform="scale(0.015625)"/>
      </defs>
      <use xlink:href="#CMR17-43" transform="scale(0.996264)"/>
      <use xlink:href="#CMR17-75" transform="translate(66.509881 0)scale(0.996264)"/>
      <use xlink:href="#CMR17-72" transform="translate(117.40525 0)scale(0.996264)"/>
      <use xlink:href="#CMR17-76" transform="translate(152.686018 0)scale(0.996264)"/>
      <use xlink:href="#CMR17-65" transform="translate(198.37648 0)scale(0.996264)"/>
      <use xlink:href="#CMR17-6c" transform="translate(268.938107 0)scale(0.996264)"/>
      <use xlink:href="#CMR17-65" transform="translate(293.809165 0)scale(0.996264)"/>
      <use xlink:href="#CMR17-6e" transform="translate(334.294826 0)scale(0.996264)"/>
      <use xlink:href="#CMR17-67" transform="translate(385.190196 0)scale(0.996264)"/>
      <use xlink:href="#CMR17-74" transform="translate(430.880673 0)scale(0.996264)"/>
      <use xlink:href="#CMR17-68" transform="translate(466.16144 0)scale(0.996264)"/>
      <use xlink:href="#CMR17-28" transform="translate(547.132777 0)scale(0.996264)"/>
      <use xlink:href="#CMR17-25" transform="translate(582.413544 0)scale(0.996264)"/>
      <use xlink:href="#CMR17-29" transform="translate(659.333134 0)scale(0.996264)"/>
     </g>
    </g>
   </g>
   <g id="matplotlib.axis_2">
    <g id="ytick_1">
     <g id="line2d_13">
      <path d="M 54.420745 346.313335 
L 702.834961 346.313335 
" clip-path="url(#p15a0bf2e15)" style="fill: none; stroke-dasharray: 2.96,1.28; stroke-dashoffset: 0; stroke: #b0b0b0; stroke-width: 0.8"/>
     </g>
     <g id="line2d_14">
      <defs>
       <path id="m678238eda1" d="M 0 0 
L -3.5 0 
" style="stroke: #000000; stroke-width: 0.8"/>
      </defs>
      <g>
       <use xlink:href="#m678238eda1" x="54.420745" y="346.313335" style="stroke: #000000; stroke-width: 0.8"/>
      </g>
     </g>
     <g id="text_8">
      <!-- $\mathdefault{−2}$ -->
      <g transform="translate(34.690666 349.772584)scale(0.1 -0.1)">
       <defs>
        <path id="CMSY10-0" d="M 4218 1472 
C 4326 1472 4442 1472 4442 1600 
C 4442 1728 4326 1728 4218 1728 
L 755 1728 
C 646 1728 531 1728 531 1600 
C 531 1472 646 1472 755 1472 
L 4218 1472 
z
" transform="scale(0.015625)"/>
       </defs>
       <use xlink:href="#CMSY10-0" transform="scale(0.996264)"/>
       <use xlink:href="#CMR17-32" transform="translate(77.487468 0)scale(0.996264)"/>
      </g>
     </g>
    </g>
    <g id="ytick_2">
     <g id="line2d_15">
      <path d="M 54.420745 300.090346 
L 702.834961 300.090346 
" clip-path="url(#p15a0bf2e15)" style="fill: none; stroke-dasharray: 2.96,1.28; stroke-dashoffset: 0; stroke: #b0b0b0; stroke-width: 0.8"/>
     </g>
     <g id="line2d_16">
      <g>
       <use xlink:href="#m678238eda1" x="54.420745" y="300.090346" style="stroke: #000000; stroke-width: 0.8"/>
      </g>
     </g>
     <g id="text_9">
      <!-- $\mathdefault{−1}$ -->
      <g transform="translate(34.690666 303.549595)scale(0.1 -0.1)">
       <use xlink:href="#CMSY10-0" transform="scale(0.996264)"/>
       <use xlink:href="#CMR17-31" transform="translate(77.487468 0)scale(0.996264)"/>
      </g>
     </g>
    </g>
    <g id="ytick_3">
     <g id="line2d_17">
      <path d="M 54.420745 253.867357 
L 702.834961 253.867357 
" clip-path="url(#p15a0bf2e15)" style="fill: none; stroke-dasharray: 2.96,1.28; stroke-dashoffset: 0; stroke: #b0b0b0; stroke-width: 0.8"/>
     </g>
     <g id="line2d_18">
      <g>
       <use xlink:href="#m678238eda1" x="54.420745" y="253.867357" style="stroke: #000000; stroke-width: 0.8"/>
      </g>
     </g>
     <g id="text_10">
      <!-- $\mathdefault{0}$ -->
      <g transform="translate(42.439409 257.326606)scale(0.1 -0.1)">
       <use xlink:href="#CMR17-30" transform="scale(0.996264)"/>
      </g>
     </g>
    </g>
    <g id="ytick_4">
     <g id="line2d_19">
      <path d="M 54.420745 207.644368 
L 702.834961 207.644368 
" clip-path="url(#p15a0bf2e15)" style="fill: none; stroke-dasharray: 2.96,1.28; stroke-dashoffset: 0; stroke: #b0b0b0; stroke-width: 0.8"/>
     </g>
     <g id="line2d_20">
      <g>
       <use xlink:href="#m678238eda1" x="54.420745" y="207.644368" style="stroke: #000000; stroke-width: 0.8"/>
      </g>
     </g>
     <g id="text_11">
      <!-- $\mathdefault{1}$ -->
      <g transform="translate(42.439409 211.103617)scale(0.1 -0.1)">
       <use xlink:href="#CMR17-31" transform="scale(0.996264)"/>
      </g>
     </g>
    </g>
    <g id="ytick_5">
     <g id="line2d_21">
      <path d="M 54.420745 161.421379 
L 702.834961 161.421379 
" clip-path="url(#p15a0bf2e15)" style="fill: none; stroke-dasharray: 2.96,1.28; stroke-dashoffset: 0; stroke: #b0b0b0; stroke-width: 0.8"/>
     </g>
     <g id="line2d_22">
      <g>
       <use xlink:href="#m678238eda1" x="54.420745" y="161.421379" style="stroke: #000000; stroke-width: 0.8"/>
      </g>
     </g>
     <g id="text_12">
      <!-- $\mathdefault{2}$ -->
      <g transform="translate(42.439409 164.880629)scale(0.1 -0.1)">
       <use xlink:href="#CMR17-32" transform="scale(0.996264)"/>
      </g>
     </g>
    </g>
    <g id="ytick_6">
     <g id="line2d_23">
      <path d="M 54.420745 115.198391 
L 702.834961 115.198391 
" clip-path="url(#p15a0bf2e15)" style="fill: none; stroke-dasharray: 2.96,1.28; stroke-dashoffset: 0; stroke: #b0b0b0; stroke-width: 0.8"/>
     </g>
     <g id="line2d_24">
      <g>
       <use xlink:href="#m678238eda1" x="54.420745" y="115.198391" style="stroke: #000000; stroke-width: 0.8"/>
      </g>
     </g>
     <g id="text_13">
      <!-- $\mathdefault{3}$ -->
      <g transform="translate(42.439409 118.65764)scale(0.1 -0.1)">
       <defs>
        <path id="CMR17-33" d="M 1414 2157 
C 1984 2157 2234 1662 2234 1090 
C 2234 320 1824 25 1453 25 
C 1114 25 563 194 390 693 
C 422 680 454 680 486 680 
C 640 680 755 782 755 948 
C 755 1133 614 1216 486 1216 
C 378 1216 211 1165 211 926 
C 211 335 787 -128 1466 -128 
C 2176 -128 2720 430 2720 1085 
C 2720 1707 2208 2157 1600 2227 
C 2086 2328 2554 2756 2554 3329 
C 2554 3820 2048 4179 1472 4179 
C 890 4179 378 3829 378 3329 
C 378 3110 544 3072 627 3072 
C 762 3072 877 3155 877 3321 
C 877 3486 762 3569 627 3569 
C 602 3569 570 3569 544 3557 
C 730 3959 1235 4032 1459 4032 
C 1683 4032 2106 3925 2106 3320 
C 2106 3143 2080 2828 1862 2550 
C 1670 2304 1453 2304 1242 2284 
C 1210 2284 1062 2269 1037 2269 
C 992 2263 966 2257 966 2208 
C 966 2163 973 2157 1101 2157 
L 1414 2157 
z
" transform="scale(0.015625)"/>
       </defs>
       <use xlink:href="#CMR17-33" transform="scale(0.996264)"/>
      </g>
     </g>
    </g>
    <g id="ytick_7">
     <g id="line2d_25">
      <path d="M 54.420745 68.975402 
L 702.834961 68.975402 
" clip-path="url(#p15a0bf2e15)" style="fill: none; stroke-dasharray: 2.96,1.28; stroke-dashoffset: 0; stroke: #b0b0b0; stroke-width: 0.8"/>
     </g>
     <g id="line2d_26">
      <g>
       <use xlink:href="#m678238eda1" x="54.420745" y="68.975402" style="stroke: #000000; stroke-width: 0.8"/>
      </g>
     </g>
     <g id="text_14">
      <!-- $\mathdefault{4}$ -->
      <g transform="translate(42.439409 72.434651)scale(0.1 -0.1)">
       <use xlink:href="#CMR17-34" transform="scale(0.996264)"/>
      </g>
     </g>
    </g>
    <g id="ytick_8">
     <g id="line2d_27">
      <path d="M 54.420745 22.752413 
L 702.834961 22.752413 
" clip-path="url(#p15a0bf2e15)" style="fill: none; stroke-dasharray: 2.96,1.28; stroke-dashoffset: 0; stroke: #b0b0b0; stroke-width: 0.8"/>
     </g>
     <g id="line2d_28">
      <g>
       <use xlink:href="#m678238eda1" x="54.420745" y="22.752413" style="stroke: #000000; stroke-width: 0.8"/>
      </g>
     </g>
     <g id="text_15">
      <!-- $\mathdefault{5}$ -->
      <g transform="translate(42.439409 26.211662)scale(0.1 -0.1)">
       <defs>
        <path id="CMR17-35" d="M 730 3692 
C 794 3666 1056 3584 1325 3584 
C 1920 3584 2246 3911 2432 4100 
C 2432 4157 2432 4192 2394 4192 
C 2387 4192 2374 4192 2323 4163 
C 2099 4058 1837 3973 1517 3973 
C 1325 3973 1037 3999 723 4139 
C 653 4171 640 4171 634 4171 
C 602 4171 595 4164 595 4037 
L 595 2203 
C 595 2089 595 2057 659 2057 
C 691 2057 704 2070 736 2114 
C 941 2401 1222 2522 1542 2522 
C 1766 2522 2246 2382 2246 1289 
C 2246 1085 2246 715 2054 421 
C 1894 159 1645 25 1370 25 
C 947 25 518 320 403 814 
C 429 807 480 795 506 795 
C 589 795 749 840 749 1038 
C 749 1210 627 1280 506 1280 
C 358 1280 262 1190 262 1011 
C 262 454 704 -128 1382 -128 
C 2042 -128 2669 440 2669 1264 
C 2669 2030 2170 2624 1549 2624 
C 1222 2624 947 2503 730 2274 
L 730 3692 
z
" transform="scale(0.015625)"/>
       </defs>
       <use xlink:href="#CMR17-35" transform="scale(0.996264)"/>
      </g>
     </g>
    </g>
    <g id="text_16">
     <!-- Boundary distance ($m$) -->
     <g transform="translate(25.726022 289.454379)rotate(-90)scale(0.2 -0.2)">
      <defs>
       <path id="CMR17-42" d="M 333 4352 
L 333 4186 
C 774 4186 845 4186 845 3900 
L 845 452 
C 845 166 774 166 333 166 
L 333 0 
L 2534 0 
C 3354 0 3885 583 3885 1164 
C 3885 1741 3360 2233 2675 2233 
C 3290 2356 3718 2771 3718 3264 
C 3718 3802 3194 4352 2368 4352 
L 333 4352 
z
M 1248 2304 
L 1248 3937 
C 1248 4155 1261 4186 1517 4186 
L 2336 4186 
C 2970 4186 3251 3674 3251 3277 
C 3251 2791 2861 2304 2170 2304 
L 1248 2304 
z
M 1517 166 
C 1261 166 1248 197 1248 413 
L 1248 2202 
L 2432 2202 
C 3091 2202 3411 1625 3411 1162 
C 3411 699 3046 166 2349 166 
L 1517 166 
z
" transform="scale(0.015625)"/>
       <path id="CMR17-6f" d="M 2758 1356 
C 2758 2176 2163 2816 1466 2816 
C 768 2816 173 2176 173 1356 
C 173 551 768 -64 1466 -64 
C 2163 -64 2758 551 2758 1356 
z
M 1466 51 
C 1165 51 909 230 762 480 
C 602 767 582 1126 582 1408 
C 582 1677 595 2010 762 2298 
C 890 2509 1139 2714 1466 2714 
C 1754 2714 1997 2554 2150 2330 
C 2349 2029 2349 1607 2349 1408 
C 2349 1158 2336 775 2163 467 
C 1984 173 1709 51 1466 51 
z
" transform="scale(0.015625)"/>
       <path id="CMR17-64" d="M 1869 4326 
L 1869 4160 
C 2246 4160 2304 4122 2304 3820 
L 2304 2345 
C 2278 2377 2016 2790 1498 2790 
C 845 2790 211 2208 211 1364 
C 211 525 806 -64 1434 -64 
C 1978 -64 2259 337 2291 380 
L 2291 -63 
L 3066 -63 
L 3066 128 
C 2688 128 2630 166 2630 473 
L 2630 4396 
L 1869 4326 
z
M 2291 755 
C 2291 563 2176 390 2029 262 
C 1811 70 1594 38 1472 38 
C 1286 38 621 134 621 1356 
C 621 2612 1363 2688 1530 2688 
C 1824 2688 2061 2522 2208 2291 
C 2291 2157 2291 2138 2291 2023 
L 2291 755 
z
" transform="scale(0.015625)"/>
       <path id="CMR17-61" d="M 2304 1653 
C 2304 2072 2304 2294 2035 2543 
C 1798 2752 1523 2816 1306 2816 
C 800 2816 435 2407 435 1971 
C 435 1728 627 1728 666 1728 
C 749 1728 896 1778 896 1954 
C 896 2112 774 2181 666 2181 
C 640 2181 608 2174 589 2168 
C 723 2592 1069 2714 1293 2714 
C 1613 2714 1965 2429 1965 1885 
L 1965 1600 
C 1587 1600 1133 1549 774 1357 
C 371 1133 256 813 256 570 
C 256 77 832 -64 1171 -64 
C 1523 -64 1850 139 1990 511 
C 2003 233 2182 -18 2464 -18 
C 2598 -18 2938 70 2938 567 
L 2938 920 
L 2822 920 
L 2822 562 
C 2822 178 2650 128 2566 128 
C 2304 128 2304 458 2304 738 
L 2304 1653 
z
M 1965 870 
C 1965 317 1568 38 1216 38 
C 896 38 646 275 646 570 
C 646 761 730 1100 1101 1305 
C 1408 1478 1760 1504 1965 1504 
L 1965 870 
z
" transform="scale(0.015625)"/>
       <path id="CMR17-79" d="M 2496 2197 
C 2656 2586 2944 2586 3034 2586 
L 3034 2752 
C 2912 2752 2752 2752 2630 2752 
C 2496 2752 2285 2752 2157 2758 
L 2157 2592 
C 2400 2573 2406 2394 2406 2343 
C 2406 2280 2394 2248 2362 2171 
L 1664 449 
L 902 2306 
C 870 2382 870 2426 870 2433 
C 870 2573 1018 2586 1171 2586 
L 1171 2758 
C 1018 2752 742 2752 582 2752 
C 410 2752 205 2752 64 2758 
L 64 2586 
C 410 2586 448 2554 531 2350 
L 1485 15 
C 1197 -738 1030 -1178 627 -1178 
C 557 -1178 397 -1159 282 -1044 
C 429 -1031 493 -942 493 -833 
C 493 -725 416 -629 288 -629 
C 147 -629 77 -725 77 -840 
C 77 -1095 339 -1280 627 -1280 
C 998 -1280 1229 -922 1357 -604 
L 2496 2197 
z
" transform="scale(0.015625)"/>
       <path id="CMR17-69" d="M 992 3909 
C 992 4049 877 4170 730 4170 
C 589 4170 467 4056 467 3909 
C 467 3769 582 3648 730 3648 
C 870 3648 992 3763 992 3909 
z
M 243 2706 
L 243 2541 
C 602 2541 653 2502 653 2197 
L 653 427 
C 653 184 627 153 218 153 
L 218 -13 
C 371 0 646 0 806 0 
C 960 0 1222 0 1370 -13 
L 1370 153 
C 992 153 979 191 979 420 
L 979 2776 
L 243 2706 
z
" transform="scale(0.015625)"/>
       <path id="CMR17-73" d="M 1978 2697 
C 1978 2813 1971 2819 1933 2819 
C 1907 2819 1901 2813 1824 2717 
C 1805 2691 1747 2626 1728 2601 
C 1523 2819 1235 2819 1126 2819 
C 416 2819 160 2447 160 2076 
C 160 1498 813 1365 998 1325 
C 1402 1243 1542 1217 1677 1101 
C 1760 1025 1901 884 1901 654 
C 1901 384 1747 38 1158 38 
C 602 38 403 460 288 1021 
C 269 1110 269 1117 218 1117 
C 166 1117 160 1110 160 983 
L 160 63 
C 160 -51 166 -58 205 -58 
C 237 -58 243 -51 275 0 
C 314 57 410 211 448 276 
C 576 103 800 -64 1158 -64 
C 1792 -64 2131 283 2131 784 
C 2131 1112 1958 1285 1875 1362 
C 1683 1561 1459 1606 1190 1657 
C 838 1735 390 1825 390 2217 
C 390 2383 480 2737 1126 2737 
C 1811 2737 1850 2094 1862 1888 
C 1869 1856 1901 1849 1920 1849 
C 1978 1849 1978 1869 1978 1978 
L 1978 2697 
z
" transform="scale(0.015625)"/>
       <path id="CMR17-63" d="M 2234 2240 
C 2112 2240 1933 2240 1933 2017 
C 1933 1838 2080 1787 2163 1787 
C 2208 1787 2394 1807 2394 2024 
C 2394 2467 1958 2803 1466 2803 
C 787 2803 211 2178 211 1363 
C 211 516 813 -64 1466 -64 
C 2259 -64 2458 677 2458 748 
C 2458 774 2451 793 2406 793 
C 2362 793 2355 787 2330 703 
C 2163 180 1798 51 1523 51 
C 1114 51 621 427 621 1369 
C 621 2338 1094 2688 1472 2688 
C 1722 2688 2093 2573 2234 2240 
z
" transform="scale(0.015625)"/>
       <path id="CMMI12-6d" d="M 1318 1871 
C 1331 1910 1491 2229 1728 2433 
C 1894 2586 2112 2689 2362 2689 
C 2618 2689 2707 2497 2707 2242 
C 2707 2203 2707 2076 2630 1775 
L 2470 1118 
C 2419 926 2298 453 2285 383 
C 2259 287 2221 121 2221 96 
C 2221 6 2291 -64 2387 -64 
C 2579 -64 2611 83 2669 313 
L 3053 1839 
C 3066 1890 3398 2689 4102 2689 
C 4358 2689 4448 2497 4448 2242 
C 4448 1884 4198 1188 4058 805 
C 4000 651 3968 568 3968 453 
C 3968 166 4166 -64 4474 -64 
C 5069 -64 5293 875 5293 913 
C 5293 945 5267 971 5229 971 
C 5171 971 5165 952 5133 843 
C 4986 332 4749 64 4493 64 
C 4429 64 4326 64 4326 269 
C 4326 436 4403 640 4429 710 
C 4544 1018 4832 1773 4832 2145 
C 4832 2528 4608 2816 4122 2816 
C 3693 2816 3347 2574 3091 2197 
C 3072 2542 2861 2816 2381 2816 
C 1811 2816 1510 2415 1395 2255 
C 1376 2618 1114 2816 832 2816 
C 646 2816 499 2727 378 2484 
C 262 2254 173 1865 173 1839 
C 173 1814 198 1782 243 1782 
C 294 1782 301 1788 339 1935 
C 435 2312 557 2689 813 2689 
C 960 2689 1011 2586 1011 2395 
C 1011 2254 947 2005 902 1807 
L 723 1118 
C 698 996 627 709 595 594 
C 550 428 480 128 480 96 
C 480 6 550 -64 646 -64 
C 723 -64 813 -26 864 70 
C 877 102 934 326 966 453 
L 1107 1028 
L 1318 1871 
z
" transform="scale(0.015625)"/>
      </defs>
      <use xlink:href="#CMR17-42" transform="scale(0.996264)"/>
      <use xlink:href="#CMR17-6f" transform="translate(65.188754 0)scale(0.996264)"/>
      <use xlink:href="#CMR17-75" transform="translate(110.879232 0)scale(0.996264)"/>
      <use xlink:href="#CMR17-6e" transform="translate(161.774601 0)scale(0.996264)"/>
      <use xlink:href="#CMR17-64" transform="translate(212.669971 0)scale(0.996264)"/>
      <use xlink:href="#CMR17-61" transform="translate(263.565341 0)scale(0.996264)"/>
      <use xlink:href="#CMR17-72" transform="translate(309.255818 0)scale(0.996264)"/>
      <use xlink:href="#CMR17-79" transform="translate(344.536586 0)scale(0.996264)"/>
      <use xlink:href="#CMR17-64" transform="translate(422.905468 0)scale(0.996264)"/>
      <use xlink:href="#CMR17-69" transform="translate(473.800838 0)scale(0.996264)"/>
      <use xlink:href="#CMR17-73" transform="translate(498.671896 0)scale(0.996264)"/>
      <use xlink:href="#CMR17-74" transform="translate(534.473234 0)scale(0.996264)"/>
      <use xlink:href="#CMR17-61" transform="translate(569.754002 0)scale(0.996264)"/>
      <use xlink:href="#CMR17-6e" transform="translate(615.444479 0)scale(0.996264)"/>
      <use xlink:href="#CMR17-63" transform="translate(666.339849 0)scale(0.996264)"/>
      <use xlink:href="#CMR17-65" transform="translate(706.825509 0)scale(0.996264)"/>
      <use xlink:href="#CMR17-28" transform="translate(777.387136 0)scale(0.996264)"/>
      <use xlink:href="#CMMI12-6d" transform="translate(812.667904 0)scale(0.996264)"/>
      <use xlink:href="#CMR17-29" transform="translate(897.995128 0)scale(0.996264)"/>
     </g>
    </g>
   </g>
   <g id="line2d_29">
    <path d="M 54.420745 91.027074 
L 55.535484 91.190721 
L 56.648967 91.632425 
L 57.761773 92.267479 
L 58.874387 93.051223 
L 59.987096 93.042297 
L 63.326158 96.464457 
L 65.552053 98.447849 
L 67.777455 100.168299 
L 70.002689 101.651108 
L 72.228003 102.866445 
L 74.453469 103.779207 
L 76.891858 104.364702 
L 82.987581 105.335268 
L 87.598223 106.287416 
L 88.728706 106.304835 
L 90.989656 107.408545 
L 97.778522 111.185729 
L 102.323746 113.822662 
L 104.596314 114.772564 
L 105.732634 115.059113 
L 108.099288 115.28546 
L 110.560018 115.001597 
L 113.020764 114.615705 
L 114.250945 114.603541 
L 115.48115 114.824789 
L 116.711785 115.34928 
L 117.943466 116.217895 
L 120.271224 118.712374 
L 121.435996 119.996902 
L 122.600241 121.106208 
L 123.763232 121.894851 
L 124.924874 122.222129 
L 126.086122 121.155109 
L 127.249324 120.666969 
L 128.418466 119.471444 
L 129.599199 116.11711 
L 130.813638 111.815709 
L 132.016144 110.401511 
L 133.213417 108.546482 
L 134.410109 105.689814 
L 135.608998 104.991777 
L 136.811417 104.617701 
L 139.153275 106.4778 
L 140.286788 107.100923 
L 141.419233 106.220821 
L 142.552404 104.86005 
L 143.689245 102.587748 
L 144.814763 99.834547 
L 145.935564 95.910473 
L 148.174388 94.049852 
L 149.295449 92.78082 
L 150.418478 89.153515 
L 151.667973 87.535285 
L 152.912804 83.174289 
L 154.154223 79.252001 
L 155.397523 76.464673 
L 156.65315 74.632866 
L 157.920073 73.342644 
L 159.163773 72.531276 
L 160.399526 72.29495 
L 161.637159 72.650163 
L 162.882273 73.402688 
L 166.403552 78.455243 
L 167.536005 82.84549 
L 168.669609 85.437607 
L 169.812579 87.65018 
L 170.954885 89.281355 
L 172.097126 90.463654 
L 173.239478 89.636444 
L 174.381861 87.563651 
L 175.524158 83.962739 
L 176.734484 83.796834 
L 177.944071 79.21676 
L 179.153172 73.667019 
L 181.571665 61.103582 
L 182.782668 60.515883 
L 184.098952 55.079855 
L 185.403864 54.316036 
L 186.706311 51.317303 
L 188.029776 48.813064 
L 189.274021 48.101708 
L 190.501574 47.955714 
L 191.72891 47.383356 
L 192.959634 59.295918 
L 194.191065 82.243791 
L 195.281705 92.123928 
L 196.370848 100.568258 
L 197.459279 107.441566 
L 198.547672 115.744399 
L 199.636396 117.574342 
L 200.725508 117.79472 
L 201.814835 116.502577 
L 203.069428 113.967816 
L 204.323486 113.759138 
L 205.576788 110.26522 
L 208.083536 101.717447 
L 209.340262 97.28605 
L 210.505335 97.02654 
L 212.828152 90.251252 
L 213.988795 86.61654 
L 215.149977 86.528548 
L 216.311996 82.952807 
L 217.474977 78.667932 
L 218.596402 73.824164 
L 219.715143 68.18433 
L 220.830841 67.643494 
L 221.943824 61.811684 
L 223.055571 60.799431 
L 224.169064 55.348574 
L 225.289083 54.766523 
L 226.422461 53.681227 
L 228.733388 50.561977 
L 229.858667 48.867925 
L 230.976921 51.71889 
L 232.096123 51.551556 
L 233.223161 50.998598 
L 234.364052 49.941636 
L 235.523837 56.970279 
L 236.696372 56.362891 
L 237.866525 63.687478 
L 239.036658 69.351317 
L 240.207174 73.456563 
L 241.377602 76.090686 
L 242.54765 77.85803 
L 243.713647 77.930517 
L 244.878815 77.517919 
L 247.209075 76.461983 
L 248.374331 76.365783 
L 249.539497 76.853572 
L 250.614631 77.975698 
L 251.689821 79.657759 
L 255.991033 87.470505 
L 257.187492 90.272069 
L 258.379959 91.373889 
L 259.57062 91.88724 
L 260.76144 91.876173 
L 261.953972 91.129016 
L 263.149537 88.240129 
L 264.356202 86.266337 
L 265.555544 79.605471 
L 266.749233 76.868249 
L 267.941465 73.082851 
L 269.139719 75.205899 
L 270.355421 79.424504 
L 271.599589 82.79981 
L 272.817314 82.38625 
L 274.027369 77.122972 
L 275.246013 62.483371 
L 276.486654 51.730841 
L 277.776451 45.855893 
L 279.065545 35.544553 
L 280.354869 35.107008 
L 281.643783 32.156492 
L 282.824005 31.44456 
L 284.004389 31.65614 
L 285.179503 31.733151 
L 286.354605 32.945741 
L 287.555841 36.177936 
L 288.866344 41.682179 
L 290.096907 41.358578 
L 291.315791 35.740274 
L 292.544569 34.131449 
L 293.784127 32.004318 
L 295.026198 31.856421 
L 297.479885 40.660401 
L 298.702188 51.491947 
L 299.924788 71.340233 
L 301.167657 89.179434 
L 302.425781 98.109963 
L 303.628712 103.012304 
L 304.817989 105.313426 
L 306.01303 106.244924 
L 307.220986 107.521777 
L 309.642053 109.264508 
L 314.443744 113.193374 
L 315.644263 113.927731 
L 316.844951 113.711401 
L 317.958973 112.895723 
L 319.072898 111.650706 
L 320.186773 110.032235 
L 321.300633 110.131007 
L 322.414496 108.323135 
L 324.642266 104.078676 
L 326.870073 99.528861 
L 329.222591 95.23795 
L 330.398825 93.378465 
L 331.575046 91.79921 
L 332.751271 90.550271 
L 333.927523 89.669883 
L 335.103833 89.074728 
L 337.302199 88.48468 
L 339.500577 87.851319 
L 340.599757 87.318614 
L 341.698944 86.603098 
L 343.943095 84.65352 
L 347.377941 81.34351 
L 348.52287 80.524103 
L 349.667814 79.981934 
L 350.812871 79.765548 
L 352.07341 79.869809 
L 353.333877 80.281212 
L 358.226695 82.713433 
L 359.338006 83.678932 
L 362.671877 85.323233 
L 363.783181 86.062376 
L 364.894481 86.98321 
L 366.005771 88.129812 
L 367.16973 89.544107 
L 369.497521 93.009841 
L 371.825246 97.069385 
L 377.665177 107.599477 
L 380.03365 111.186452 
L 381.217769 112.663975 
L 382.402008 113.858038 
L 383.586793 115.754767 
L 384.794177 116.530867 
L 385.99564 116.76523 
L 387.191743 116.736547 
L 388.38473 115.703307 
L 389.578817 115.74639 
L 390.780313 114.856533 
L 391.997472 113.642219 
L 393.251117 113.144585 
L 394.493043 109.035525 
L 395.731381 105.509939 
L 396.970319 95.14124 
L 399.452872 80.954375 
L 400.694595 73.923447 
L 401.847767 68.125358 
L 403.001055 63.926161 
L 404.1542 61.303579 
L 405.307076 62.244139 
L 406.460178 65.647409 
L 407.615067 69.90268 
L 409.945297 88.375783 
L 411.099724 92.774686 
L 412.252 98.579559 
L 413.406172 100.691411 
L 414.566511 102.019697 
L 415.737665 102.497088 
L 416.891263 101.829032 
L 418.029041 102.025641 
L 419.156288 101.951833 
L 421.400092 104.108155 
L 422.527295 106.997032 
L 424.819071 110.92062 
L 425.927188 110.268941 
L 427.034952 107.858148 
L 428.143172 103.73074 
L 429.251281 97.773565 
L 430.358966 90.430354 
L 431.467759 90.145705 
L 432.670159 88.459471 
L 433.852013 83.708117 
L 435.021487 83.277301 
L 436.187231 82.170214 
L 437.357291 80.337634 
L 438.538965 81.918336 
L 439.738721 81.008981 
L 440.900869 84.828647 
L 442.059182 84.291893 
L 445.533816 99.438862 
L 446.69246 103.7406 
L 447.800817 107.053372 
L 448.909043 109.164587 
L 450.017264 109.899005 
L 451.12553 109.133921 
L 452.233813 106.815543 
L 453.342062 103.064275 
L 454.450273 103.0779 
L 457.807176 89.98013 
L 458.928052 89.868676 
L 460.047427 87.201119 
L 461.166425 85.904518 
L 462.286627 85.859801 
L 463.410072 86.374295 
L 464.539217 85.752689 
L 465.731882 87.863353 
L 466.917251 90.47954 
L 468.098504 89.978572 
L 470.458465 97.018091 
L 471.64052 96.322211 
L 472.825353 99.065076 
L 474.013657 99.624963 
L 475.163224 97.807281 
L 476.309114 97.486824 
L 477.452 94.194588 
L 478.59323 93.269255 
L 479.735107 88.957539 
L 480.881041 87.89199 
L 482.03558 83.779764 
L 483.217844 82.967171 
L 484.388822 79.860592 
L 485.554185 79.453468 
L 486.718416 77.536389 
L 487.884833 77.102677 
L 490.232825 75.392317 
L 492.549425 75.503959 
L 493.701965 74.849751 
L 496.003248 76.687503 
L 497.155511 76.511562 
L 498.311581 78.262359 
L 499.473816 77.672516 
L 500.61617 80.042412 
L 501.752314 82.065749 
L 502.8846 82.001458 
L 504.015143 84.436358 
L 505.145841 83.70527 
L 506.278401 86.275201 
L 507.414382 87.968689 
L 508.555245 88.62364 
L 509.74231 88.534145 
L 510.92403 88.832726 
L 512.102143 87.872885 
L 513.278403 87.619099 
L 514.454592 86.330504 
L 515.632564 84.152106 
L 516.81432 83.746465 
L 518.002161 81.783413 
L 519.199114 79.516349 
L 520.388008 79.399958 
L 521.571918 78.025305 
L 522.755233 78.488622 
L 523.943709 77.554412 
L 525.144275 80.324299 
L 526.405527 79.910272 
L 527.657641 85.121484 
L 528.907326 84.574399 
L 531.40943 98.77707 
L 532.661462 104.896493 
L 533.912765 113.277892 
L 535.084146 115.310346 
L 536.256028 115.676562 
L 537.428308 114.447004 
L 538.600566 114.286532 
L 539.772356 112.076248 
L 540.943595 108.942644 
L 542.114956 105.267307 
L 543.288189 105.082716 
L 544.466285 102.555778 
L 546.953517 101.139737 
L 548.18923 100.187099 
L 549.425416 101.07614 
L 550.66513 102.494753 
L 554.379049 107.873624 
L 555.613487 108.792058 
L 556.848074 107.219075 
L 558.012485 105.254199 
L 559.174084 102.248445 
L 560.334378 98.472069 
L 561.494499 89.843587 
L 564.979389 78.43545 
L 566.143007 74.601201 
L 567.30076 65.451492 
L 569.602219 39.019478 
L 570.758389 30.783146 
L 571.935361 27.647894 
L 573.201069 29.191007 
L 576.959906 55.770115 
L 578.252712 62.282679 
L 579.533495 65.364004 
L 580.813187 65.715365 
L 582.109283 66.510988 
L 583.633746 74.815301 
L 584.929418 88.834401 
L 586.143082 99.782185 
L 587.324055 109.223435 
L 588.49663 116.020019 
L 589.675009 118.950184 
L 590.86801 119.048122 
L 592.080771 115.810804 
L 593.315359 113.518283 
L 594.571101 108.117375 
L 595.845281 106.400106 
L 597.103023 104.925722 
L 599.612429 102.297002 
L 600.866088 101.835785 
L 602.121346 100.123038 
L 603.380917 99.248926 
L 604.644903 95.778392 
L 605.903031 93.701682 
L 607.158574 88.066209 
L 608.414334 84.948731 
L 609.672607 78.760034 
L 610.935274 76.530862 
L 612.073366 74.178497 
L 613.208548 75.109087 
L 614.342015 77.286654 
L 615.474892 84.038912 
L 617.743521 92.739873 
L 618.881774 100.860605 
L 620.143284 104.636422 
L 621.401792 109.385845 
L 622.659304 111.451082 
L 623.917846 112.619674 
L 625.179221 113.205315 
L 626.412845 113.403843 
L 627.64616 113.218908 
L 630.112944 112.693212 
L 631.346259 112.812702 
L 632.459748 113.476943 
L 633.573035 114.446498 
L 636.912944 117.800321 
L 638.026217 118.637993 
L 639.236357 119.174807 
L 640.445978 119.313105 
L 641.655353 119.077212 
L 642.864926 118.516604 
L 644.075255 117.690418 
L 646.27082 115.665805 
L 647.368061 113.258196 
L 648.465348 111.86242 
L 649.562861 110.179155 
L 653.056889 103.644776 
L 654.254825 103.431251 
L 655.452785 101.573986 
L 656.651452 100.301864 
L 657.883272 99.751204 
L 659.115258 99.87528 
L 661.579089 101.034236 
L 662.811624 102.2608 
L 664.095916 102.579375 
L 665.372655 101.184955 
L 666.646626 96.401395 
L 667.92324 93.37294 
L 670.481023 75.129032 
L 671.746954 71.5492 
L 673.010299 66.517859 
L 674.274165 66.289186 
L 675.540483 69.859205 
L 678.060106 78.505107 
L 679.308733 82.742038 
L 680.556795 85.996259 
L 681.804739 91.087387 
L 683.052885 93.093659 
L 684.301497 94.66745 
L 685.550912 95.900214 
L 686.721424 97.871865 
L 687.886706 98.908192 
L 689.046495 99.496288 
L 690.202521 99.845664 
L 691.359314 98.965825 
L 692.524657 98.978877 
L 693.709745 97.775733 
L 697.153518 93.195939 
L 698.286271 93.201776 
L 699.420568 92.837024 
L 702.834961 91.221153 
L 702.834961 91.221153 
" clip-path="url(#p15a0bf2e15)" style="fill: none; stroke: #ebb120; stroke-width: 3; stroke-linecap: square"/>
   </g>
   <g id="line2d_30">
    <path d="M 54.420745 221.049035 
L 702.834961 221.049035 
L 702.834961 221.049035 
" clip-path="url(#p15a0bf2e15)" style="fill: none; stroke: #ebb120; stroke-width: 3; stroke-linecap: square"/>
   </g>
   <g id="line2d_31">
    <path d="M 54.420745 207.222911 
L 55.542614 209.847327 
L 56.664484 211.822419 
L 57.786353 213.200876 
L 58.908223 214.059051 
L 60.030092 214.484019 
L 61.151961 214.566156 
L 62.273831 214.393735 
L 63.3957 213.729964 
L 65.639438 213.209845 
L 67.883175 212.330446 
L 70.126911 211.088192 
L 71.248779 210.330099 
L 73.492513 208.262792 
L 76.858113 205.093154 
L 77.97998 204.197332 
L 79.101846 204.117242 
L 80.223712 203.701324 
L 81.345578 203.484684 
L 82.467444 203.498524 
L 83.589309 203.760273 
L 84.711175 204.251298 
L 85.833041 204.939616 
L 88.076772 206.741955 
L 92.564235 210.752791 
L 94.807966 212.414499 
L 101.539165 217.031712 
L 103.782899 218.93137 
L 108.270372 223.127842 
L 109.392242 223.988371 
L 110.514111 224.658343 
L 111.635982 225.077494 
L 112.757852 225.187023 
L 113.879724 224.932945 
L 115.001596 224.272434 
L 116.123468 223.189394 
L 117.245342 221.703709 
L 118.367216 219.872375 
L 120.610965 215.457406 
L 122.854716 210.551151 
L 123.976593 206.088049 
L 125.098469 204.450487 
L 126.220346 203.026123 
L 127.342223 201.957268 
L 128.4641 201.254686 
L 129.585978 200.92059 
L 130.707855 200.954707 
L 131.829732 201.357053 
L 132.951609 202.12784 
L 134.073486 203.26311 
L 135.195363 207.269878 
L 136.317239 209.78068 
L 137.439115 211.93306 
L 138.560991 213.453795 
L 139.682866 214.10049 
L 140.80474 213.703121 
L 141.926614 210.407808 
L 144.17036 206.791389 
L 146.414048 204.883009 
L 147.535891 203.594308 
L 148.657734 201.482914 
L 149.779577 194.635424 
L 150.901419 191.131251 
L 152.023262 186.849638 
L 153.145105 177.184608 
L 155.388794 169.689601 
L 156.51064 162.861943 
L 158.754301 158.648143 
L 159.876115 155.392941 
L 160.997933 155.088739 
L 162.119755 154.960318 
L 163.24158 155.014567 
L 165.485241 158.46007 
L 166.607077 160.47833 
L 167.728916 162.927949 
L 168.850758 165.839992 
L 169.972602 169.239604 
L 171.094449 177.772119 
L 174.459997 192.291729 
L 175.581849 196.479829 
L 176.7037 199.950956 
L 177.82555 202.50311 
L 178.9474 203.989763 
L 180.069248 204.673688 
L 181.191095 203.96964 
L 182.312939 202.213541 
L 183.434781 199.796171 
L 185.678425 194.463672 
L 186.800226 194.325502 
L 189.043821 190.966792 
L 191.287405 187.6274 
L 192.409194 185.678597 
L 193.530981 185.510448 
L 194.652767 184.242388 
L 195.774551 182.69881 
L 196.896334 180.866399 
L 198.018116 178.729942 
L 199.139896 178.241995 
L 200.261676 176.819973 
L 201.383455 175.123859 
L 202.505233 173.14987 
L 203.627011 172.447266 
L 205.870386 170.696742 
L 206.992073 170.020686 
L 208.113758 169.575849 
L 209.235443 170.475378 
L 210.357127 171.791511 
L 211.478811 173.457268 
L 212.600494 173.480763 
L 215.965544 183.111762 
L 217.087228 182.684142 
L 218.208913 186.1715 
L 219.330599 189.15039 
L 220.452286 191.361277 
L 221.573974 192.551901 
L 222.695664 192.477665 
L 223.817356 190.921152 
L 224.93905 187.940014 
L 226.060746 187.452531 
L 227.182445 183.952799 
L 229.425848 175.289221 
L 231.669261 166.693386 
L 232.79097 163.061009 
L 233.912682 160.129168 
L 235.034395 157.920753 
L 236.156109 156.421439 
L 237.277825 156.420446 
L 238.399542 155.952473 
L 239.521259 156.044434 
L 240.642976 156.488372 
L 241.764693 158.469715 
L 244.008126 161.62971 
L 246.251556 164.821902 
L 247.373269 166.204529 
L 248.494981 167.295673 
L 249.616691 169.08939 
L 250.738399 169.553304 
L 251.860106 169.346339 
L 252.981809 168.394215 
L 254.103511 164.400436 
L 255.22521 162.234631 
L 256.346907 160.367522 
L 257.468602 159.338239 
L 258.590294 159.618736 
L 259.711984 161.631601 
L 260.833671 168.750049 
L 263.077039 177.41778 
L 264.19872 184.753373 
L 265.320399 187.459517 
L 266.442077 188.665127 
L 267.563752 188.418276 
L 268.685426 187.625426 
L 269.807098 185.974783 
L 270.928769 182.52601 
L 273.172108 178.763293 
L 274.293776 174.171433 
L 275.415566 172.298996 
L 276.537356 170.021283 
L 277.659146 167.043366 
L 278.780936 161.196719 
L 279.902725 158.617569 
L 281.024514 154.148132 
L 282.146302 152.982918 
L 283.268089 152.373924 
L 284.389876 152.106486 
L 285.511662 152.879227 
L 286.633449 153.154204 
L 287.755234 151.626863 
L 288.87702 151.058731 
L 289.998806 149.743426 
L 291.120591 146.458447 
L 292.242377 145.408166 
L 293.364164 143.595088 
L 295.607828 145.041807 
L 296.729706 148.413473 
L 297.851586 151.11944 
L 298.973468 157.183211 
L 301.217237 164.866309 
L 302.339124 168.22617 
L 303.461012 173.898703 
L 309.070467 190.562951 
L 311.314253 198.082424 
L 312.436146 206.180444 
L 314.679932 214.246135 
L 315.801824 217.629517 
L 316.923716 220.432882 
L 318.045607 222.564664 
L 319.167498 223.98949 
L 320.289387 224.682401 
L 321.411275 224.695418 
L 322.533159 224.099278 
L 323.655038 222.972742 
L 324.776915 221.39747 
L 325.898792 219.455697 
L 328.142542 214.800396 
L 332.630034 205.135859 
L 333.751906 203.009313 
L 334.873777 201.122271 
L 335.995648 199.536969 
L 338.239388 196.924326 
L 343.848735 191.338377 
L 346.092474 189.324553 
L 347.214343 188.488979 
L 348.336212 187.817213 
L 349.458081 187.340721 
L 350.57995 187.074275 
L 351.701819 187.023386 
L 352.823689 187.179872 
L 353.945558 187.530015 
L 355.067428 188.056853 
L 356.189298 188.741524 
L 358.433038 190.505715 
L 360.676779 192.539315 
L 361.79865 195.041003 
L 364.042392 198.33519 
L 366.286136 202.016963 
L 373.017373 213.922581 
L 374.139247 215.469245 
L 375.261121 216.728632 
L 376.382994 217.647943 
L 377.504867 219.070034 
L 378.62674 219.418928 
L 379.748613 219.404841 
L 380.870487 219.033644 
L 381.992361 218.315069 
L 383.114235 217.264328 
L 384.236109 215.906446 
L 385.357983 214.340344 
L 387.601732 210.633953 
L 388.723606 207.232787 
L 389.845481 206.439439 
L 390.967355 205.867054 
L 392.089229 205.582784 
L 393.211103 205.626856 
L 394.332977 205.980616 
L 395.454851 206.469194 
L 396.576724 207.858178 
L 397.698597 208.069182 
L 398.82047 207.245915 
L 399.942343 205.125369 
L 401.064215 201.535808 
L 402.186087 190.632904 
L 405.551701 174.053874 
L 407.795443 165.048247 
L 408.917313 165.385945 
L 410.039184 166.963499 
L 411.161056 168.75572 
L 412.282928 172.179351 
L 413.4048 174.372575 
L 414.526673 175.882928 
L 415.648548 176.561966 
L 416.770424 176.425485 
L 417.892302 174.648489 
L 419.014182 173.430889 
L 422.379809 169.160333 
L 423.50167 168.361444 
L 424.623536 168.262111 
L 425.745405 168.986229 
L 427.989153 177.355514 
L 429.111031 182.482537 
L 433.598553 206.235649 
L 434.720434 210.943347 
L 435.842313 214.426954 
L 436.964191 216.859099 
L 438.086041 217.362615 
L 439.207888 216.247977 
L 440.329733 213.888134 
L 441.451576 210.660458 
L 442.573416 206.927488 
L 443.695255 206.89939 
L 449.304444 191.219556 
L 450.42629 190.379405 
L 451.548135 187.692213 
L 452.669979 184.451005 
L 453.791823 180.544912 
L 454.913666 176.027648 
L 456.035508 175.228613 
L 458.279191 168.170439 
L 459.401032 165.452272 
L 460.522873 164.623038 
L 461.644713 164.290818 
L 462.766553 165.179058 
L 463.888393 167.141431 
L 465.010233 169.871217 
L 466.132073 169.260786 
L 468.375752 177.116057 
L 469.497592 181.598038 
L 470.619431 184.672329 
L 471.741271 184.703955 
L 472.86311 187.559545 
L 473.98495 188.566393 
L 475.106789 187.409809 
L 476.228629 188.047664 
L 477.350469 186.291435 
L 478.472309 183.183499 
L 479.594149 182.219277 
L 480.715989 179.539951 
L 482.959669 173.387361 
L 484.08151 172.617838 
L 485.20335 171.198509 
L 486.325191 170.119612 
L 487.447031 168.844905 
L 488.568872 169.518528 
L 490.812554 171.461695 
L 491.934395 171.175548 
L 494.178078 175.3757 
L 495.299919 177.224628 
L 496.421761 176.832205 
L 497.543603 179.415034 
L 498.665444 181.546078 
L 499.787286 183.086825 
L 500.909128 182.159979 
L 502.030971 184.151105 
L 503.152813 185.246102 
L 504.274656 185.47108 
L 506.518342 184.687942 
L 507.640185 184.959523 
L 509.883873 185.166041 
L 511.005717 185.451209 
L 512.127563 184.971392 
L 513.249408 186.577441 
L 515.493102 191.43107 
L 516.61495 190.418245 
L 519.9805 202.069175 
L 521.102352 205.609212 
L 522.224207 208.741202 
L 523.346062 208.614549 
L 524.46792 212.449557 
L 525.58978 215.7 
L 526.711642 218.23221 
L 527.833507 220.121637 
L 528.955374 221.44392 
L 530.077266 222.259495 
L 531.199162 222.455603 
L 532.321061 223.264045 
L 533.442963 223.770949 
L 534.564868 223.934112 
L 535.686776 223.153678 
L 536.808688 222.20072 
L 537.930603 220.715555 
L 539.052521 218.466235 
L 540.174486 215.672985 
L 541.296453 212.41886 
L 543.540395 204.926515 
L 546.906317 192.390348 
L 548.028291 187.779288 
L 549.150264 177.426911 
L 550.272235 171.666332 
L 551.394205 164.871535 
L 552.516172 148.190966 
L 553.638136 141.237353 
L 554.760097 135.82087 
L 555.882054 128.763797 
L 557.004008 127.654608 
L 558.125957 128.00336 
L 559.247901 130.739361 
L 560.369842 133.874372 
L 561.491779 141.806903 
L 562.613711 145.967849 
L 563.73564 153.034966 
L 564.857565 156.403114 
L 565.979488 157.140863 
L 567.101409 156.206665 
L 568.223329 151.738433 
L 570.46717 148.10167 
L 571.589093 147.69066 
L 572.710775 149.820452 
L 573.832461 156.468442 
L 576.07584 167.614962 
L 577.197534 178.245736 
L 578.319229 183.843536 
L 579.440926 188.438303 
L 580.562622 196.036336 
L 581.684373 198.700049 
L 582.806124 200.145973 
L 583.927872 200.351944 
L 585.049618 198.932501 
L 586.171362 197.896831 
L 588.414845 195.061789 
L 589.536584 193.497483 
L 590.658323 190.101887 
L 591.78006 188.98506 
L 592.901796 187.561996 
L 594.023531 185.922698 
L 595.145266 183.856739 
L 596.267 181.350011 
L 597.388733 175.920411 
L 598.510466 173.025592 
L 599.632198 169.674496 
L 600.75393 165.921224 
L 601.875661 157.877252 
L 602.997392 154.798597 
L 604.119153 152.201919 
L 605.240913 150.36437 
L 606.362673 149.547065 
L 607.484432 149.983021 
L 608.606192 155.243017 
L 610.849711 163.784338 
L 611.971469 168.276472 
L 613.093228 177.474653 
L 615.336745 186.263099 
L 617.580262 193.509295 
L 619.823777 199.69093 
L 622.067292 205.162643 
L 624.310806 209.974397 
L 625.432563 214.202636 
L 626.55432 216.458856 
L 627.676077 218.439908 
L 628.797833 220.111872 
L 629.919589 221.445271 
L 631.041346 222.42066 
L 632.163102 222.98617 
L 633.284858 223.179684 
L 634.406614 223.084389 
L 636.650126 222.417437 
L 638.893638 221.723183 
L 642.258908 221.942826 
L 643.380665 221.822426 
L 644.502422 221.439171 
L 645.624177 220.696195 
L 646.745933 219.5143 
L 647.86769 217.789655 
L 648.989446 215.622166 
L 651.232961 210.342945 
L 655.719993 198.994068 
L 659.085269 190.867731 
L 660.207027 187.803875 
L 661.328785 180.896429 
L 663.572301 172.869708 
L 666.937573 160.01975 
L 668.05933 154.768585 
L 669.181086 154.226168 
L 670.302842 155.061681 
L 671.424598 157.416911 
L 672.546353 161.206657 
L 673.668108 165.801683 
L 674.789862 174.923941 
L 675.911617 178.65045 
L 677.033371 181.306336 
L 678.155124 182.906983 
L 679.276878 183.527787 
L 680.398631 183.275516 
L 681.520385 181.320637 
L 682.642138 179.986096 
L 683.763891 178.293267 
L 686.007398 174.293788 
L 687.129152 172.208783 
L 688.250906 168.6541 
L 689.372661 168.041435 
L 690.494416 167.704009 
L 691.616281 167.688398 
L 692.738147 168.048103 
L 694.98188 173.088574 
L 696.103747 176.26007 
L 698.347484 183.675599 
L 699.469353 187.625904 
L 700.591222 195.962845 
L 701.713091 200.219453 
L 702.834961 204.01214 
L 702.834961 204.01214 
" clip-path="url(#p15a0bf2e15)" style="fill: none; stroke: #0072bd; stroke-width: 3; stroke-linecap: square"/>
   </g>
   <g id="line2d_32">
    <path d="M 54.420745 338.45326 
L 55.542614 340.096455 
L 56.664484 340.97959 
L 57.786353 341.215543 
L 58.908223 340.925272 
L 60.030092 340.231751 
L 61.151961 339.254701 
L 63.3957 336.867515 
L 74.61438 324.256462 
L 76.858113 322.08814 
L 77.97998 321.201046 
L 79.101846 320.482885 
L 80.223712 319.958155 
L 82.467444 319.417855 
L 83.589309 319.364244 
L 84.711175 319.461985 
L 86.954906 320.001708 
L 92.564235 321.904121 
L 94.807966 322.282074 
L 99.295431 322.624824 
L 100.417298 322.889861 
L 101.539165 323.320782 
L 102.661032 323.954281 
L 104.904767 325.767895 
L 109.392242 330.421703 
L 110.514111 331.104438 
L 111.635982 331.30419 
L 112.757852 330.892372 
L 113.879724 329.774516 
L 115.001596 327.928121 
L 116.123468 325.532904 
L 119.48909 316.932458 
L 120.610965 316.977456 
L 121.73284 313.997953 
L 122.854716 311.436739 
L 123.976593 309.483437 
L 125.098469 308.313976 
L 126.220346 308.084326 
L 127.342223 308.897387 
L 128.4641 310.77895 
L 129.585978 313.470577 
L 130.707855 313.953898 
L 131.829732 316.332534 
L 135.195363 324.213916 
L 136.317239 326.280293 
L 137.439115 326.662322 
L 138.560991 327.623848 
L 143.048487 330.778067 
L 146.414048 331.004443 
L 147.535891 330.672687 
L 148.657734 331.340545 
L 149.779577 329.528942 
L 150.901419 327.081421 
L 152.023262 323.594892 
L 153.145105 324.718974 
L 155.388794 314.758184 
L 156.51064 310.609115 
L 157.632489 307.650082 
L 158.754301 307.713236 
L 159.876115 304.813238 
L 160.997933 303.668512 
L 162.119755 303.910277 
L 163.24158 305.218619 
L 164.363409 305.235103 
L 165.485241 306.162809 
L 166.607077 307.719037 
L 168.850758 311.78329 
L 169.972602 314.143275 
L 171.094449 316.789109 
L 173.338147 323.043403 
L 176.7037 333.743585 
L 182.312939 351.328654 
L 184.556621 357.638558 
L 185.678425 360.488068 
L 186.800226 362.028866 
L 187.922025 357.904794 
L 189.043821 350.669245 
L 190.165614 341.359655 
L 192.409194 320.521779 
L 193.530981 303.236088 
L 194.652767 296.304294 
L 195.774551 290.968182 
L 198.018116 283.08792 
L 199.139896 281.677257 
L 200.261676 281.610497 
L 201.383455 282.483023 
L 202.505233 284.084014 
L 203.627011 286.219533 
L 205.870386 291.432496 
L 206.992073 294.073882 
L 208.113758 300.004732 
L 209.235443 302.716055 
L 210.357127 306.135817 
L 211.478811 310.367364 
L 212.600494 315.474594 
L 213.722178 326.383103 
L 215.965544 338.129164 
L 217.087228 348.935504 
L 218.208913 353.440589 
L 219.330599 360.719633 
L 220.452286 361.859248 
L 221.573974 362.001828 
L 222.695664 361.243992 
L 223.817356 356.353796 
L 224.93905 352.114037 
L 226.060746 347.134019 
L 227.182445 341.516911 
L 228.304145 329.180329 
L 229.425848 322.740766 
L 230.547553 316.984963 
L 231.669261 312.188134 
L 232.79097 308.517463 
L 233.912682 305.863658 
L 235.034395 304.011885 
L 236.156109 302.698372 
L 239.521259 299.698726 
L 241.764693 297.837021 
L 242.88641 296.190004 
L 244.008126 295.811741 
L 245.129842 296.131629 
L 246.251556 296.200129 
L 247.373269 296.491622 
L 248.494981 297.228826 
L 249.616691 298.27185 
L 251.860106 300.753673 
L 252.981809 302.080757 
L 254.103511 303.605513 
L 255.22521 303.719527 
L 256.346907 304.556145 
L 257.468602 306.046893 
L 258.590294 308.449324 
L 259.711984 312.046063 
L 260.833671 312.391158 
L 261.955356 316.027981 
L 263.077039 321.316879 
L 264.19872 328.045301 
L 265.320399 328.366692 
L 266.442077 335.097728 
L 267.563752 343.0179 
L 268.685426 343.810374 
L 270.928769 358.365597 
L 272.050439 358.468058 
L 273.172108 362.759457 
L 274.293776 363.41105 
L 275.415566 363.581045 
L 276.537356 364.605764 
L 277.659146 360.585613 
L 278.780936 355.014254 
L 279.902725 355.444111 
L 281.024514 348.168761 
L 282.146302 341.833682 
L 283.268089 342.154111 
L 284.389876 336.272851 
L 285.511662 338.036834 
L 286.633449 332.645222 
L 287.755234 331.85181 
L 288.87702 333.006145 
L 289.998806 332.845802 
L 292.242377 334.589802 
L 293.364164 333.552854 
L 294.485951 331.314757 
L 295.607828 331.967814 
L 296.729706 326.387284 
L 298.973468 312.607361 
L 300.095352 312.980188 
L 301.217237 305.663779 
L 302.339124 300.171314 
L 303.461012 297.63733 
L 304.582901 298.394182 
L 305.704791 298.58825 
L 306.826683 300.428989 
L 307.948575 303.861756 
L 311.314253 317.439509 
L 312.436146 317.965987 
L 313.558039 321.189609 
L 314.679932 323.985902 
L 315.801824 326.357232 
L 316.923716 328.34071 
L 318.045607 329.988503 
L 319.167498 331.356477 
L 320.289387 332.324491 
L 321.411275 333.074779 
L 322.533159 333.632731 
L 323.655038 334.020032 
L 324.776915 334.255369 
L 325.898792 334.354888 
L 328.142542 334.199988 
L 330.386289 333.701106 
L 332.630034 332.879888 
L 334.873777 331.690075 
L 337.117518 330.161816 
L 340.483127 327.518766 
L 341.604997 326.811116 
L 342.726866 326.274206 
L 343.848735 325.951803 
L 344.970604 325.875715 
L 346.092474 326.011406 
L 347.214343 326.36805 
L 349.458081 327.493892 
L 351.701819 328.681827 
L 352.823689 329.13453 
L 353.945558 329.290933 
L 357.311168 329.423013 
L 358.433038 329.708299 
L 359.554908 330.288321 
L 360.676779 331.054495 
L 362.920521 332.989287 
L 366.286136 336.149933 
L 367.408008 337.063632 
L 368.52988 337.760793 
L 369.651753 338.261884 
L 370.773626 338.543027 
L 371.895499 338.584949 
L 373.017373 338.370523 
L 374.139247 337.88385 
L 375.261121 337.110397 
L 376.382994 336.03824 
L 377.504867 334.661044 
L 378.62674 332.947151 
L 380.870487 328.76502 
L 384.236109 321.469573 
L 385.357983 321.62008 
L 387.601732 315.811062 
L 388.723606 313.55606 
L 389.845481 312.005503 
L 390.967355 311.351864 
L 392.089229 311.775464 
L 394.332977 313.194115 
L 395.454851 315.096363 
L 396.576724 318.189071 
L 398.82047 326.153215 
L 399.942343 326.084648 
L 401.064215 328.937765 
L 402.186087 331.222661 
L 403.307958 332.57103 
L 404.42983 332.880157 
L 405.551701 331.992721 
L 406.673572 330.055317 
L 407.795443 327.26059 
L 408.917313 323.852404 
L 410.039184 324.653228 
L 414.526673 306.386689 
L 415.648548 302.429271 
L 416.770424 298.897846 
L 417.892302 295.837605 
L 419.014182 296.50456 
L 420.136065 293.271235 
L 421.257951 290.584587 
L 422.379809 288.71869 
L 423.50167 287.717349 
L 424.623536 287.619931 
L 425.745405 288.484484 
L 426.867278 290.383903 
L 427.989153 293.400419 
L 429.111031 297.614414 
L 430.23291 303.07839 
L 431.354791 309.511152 
L 433.598553 324.215048 
L 434.720434 338.443943 
L 436.964191 349.261379 
L 438.086041 352.608399 
L 439.207888 354.217391 
L 440.329733 354.199911 
L 441.451576 352.671986 
L 442.573416 349.739516 
L 443.695255 345.506847 
L 444.817093 340.363279 
L 445.938929 327.923469 
L 448.182597 314.89092 
L 449.304444 309.330685 
L 450.42629 305.020281 
L 451.548135 298.888575 
L 452.669979 296.410946 
L 453.791823 294.816862 
L 454.913666 294.037925 
L 456.035508 293.996483 
L 457.15735 294.608302 
L 458.279191 296.120358 
L 459.401032 296.881984 
L 460.522873 297.948565 
L 462.766553 300.729066 
L 463.888393 302.865634 
L 466.132073 303.918733 
L 468.375752 304.958083 
L 469.497592 305.755245 
L 470.619431 307.797198 
L 471.741271 308.819602 
L 472.86311 310.241231 
L 473.98495 312.134573 
L 475.106789 314.383454 
L 476.228629 318.294816 
L 477.350469 319.473074 
L 478.472309 320.475767 
L 479.594149 321.215108 
L 480.715989 321.19262 
L 482.959669 318.93845 
L 484.08151 318.005664 
L 485.20335 317.355227 
L 486.325191 315.974917 
L 487.447031 315.26036 
L 488.568872 314.934083 
L 490.812554 314.981882 
L 491.934395 314.579944 
L 493.056236 314.372783 
L 495.299919 314.575965 
L 496.421761 314.232352 
L 497.543603 314.294541 
L 498.665444 314.784993 
L 499.787286 316.222882 
L 500.909128 316.727537 
L 502.030971 317.581882 
L 503.152813 318.779977 
L 504.274656 322.100049 
L 505.396499 323.037357 
L 507.640185 325.56413 
L 509.883873 328.239224 
L 511.005717 327.362167 
L 512.127563 325.874073 
L 513.249408 323.715324 
L 515.493102 317.817228 
L 516.61495 314.835329 
L 517.736798 310.55167 
L 518.858648 309.694228 
L 519.9805 310.166799 
L 521.102352 311.936013 
L 522.224207 314.804805 
L 523.346062 318.523339 
L 524.46792 322.814704 
L 525.58978 331.589416 
L 526.711642 335.200985 
L 527.833507 338.380236 
L 528.955374 341.160058 
L 530.077266 342.970565 
L 531.199162 343.824561 
L 532.321061 343.772238 
L 533.442963 342.885636 
L 534.564868 341.27065 
L 537.930603 334.598311 
L 539.052521 332.949767 
L 540.174486 332.094876 
L 541.296453 331.813079 
L 542.418423 331.938457 
L 543.540395 332.328646 
L 545.784343 331.939081 
L 546.906317 331.428458 
L 548.028291 330.520754 
L 549.150264 329.214624 
L 550.272235 330.09406 
L 552.516172 325.296855 
L 553.638136 323.436536 
L 554.760097 322.392079 
L 555.882054 322.504422 
L 557.004008 321.062272 
L 558.125957 320.709268 
L 559.247901 320.999324 
L 560.369842 320.192183 
L 561.491779 322.055522 
L 562.613711 320.067089 
L 563.73564 318.43709 
L 564.857565 319.490682 
L 565.979488 315.527842 
L 567.101409 311.985457 
L 568.223329 312.027276 
L 569.345249 306.828886 
L 570.46717 308.705877 
L 572.710775 296.216461 
L 573.832461 296.980009 
L 574.954149 294.119329 
L 576.07584 294.147243 
L 577.197534 295.821521 
L 578.319229 295.972423 
L 579.440926 297.205752 
L 580.562622 299.314255 
L 581.684373 302.053941 
L 582.806124 303.113503 
L 583.927872 304.767914 
L 586.171362 308.565384 
L 587.293104 309.930448 
L 588.414845 310.017716 
L 589.536584 309.822066 
L 590.658323 309.306507 
L 591.78006 308.588747 
L 592.901796 308.939482 
L 595.145266 304.844947 
L 596.267 303.182201 
L 597.388733 301.982755 
L 598.510466 302.527605 
L 599.632198 300.566316 
L 600.75393 299.092334 
L 601.875661 298.062076 
L 602.997392 297.435709 
L 604.119153 297.185297 
L 605.240913 297.069494 
L 606.362673 297.236255 
L 607.484432 296.838087 
L 608.606192 296.593326 
L 609.727951 296.523945 
L 610.849711 296.660095 
L 611.971469 297.036212 
L 613.093228 297.6888 
L 614.214987 298.569965 
L 615.336745 300.053764 
L 616.458503 302.161513 
L 617.580262 304.887694 
L 618.702019 308.195719 
L 619.823777 308.171619 
L 622.067292 314.460618 
L 624.310806 320.651453 
L 625.432563 323.054682 
L 626.55432 324.50835 
L 627.676077 325.396693 
L 628.797833 325.818522 
L 629.919589 325.895529 
L 632.163102 325.527997 
L 633.284858 325.313264 
L 634.406614 325.250516 
L 635.52837 325.411078 
L 636.650126 325.843417 
L 638.893638 327.360395 
L 640.015395 328.331291 
L 642.258908 330.676145 
L 645.624177 334.567447 
L 646.745933 334.547628 
L 647.86769 335.200918 
L 648.989446 335.299303 
L 650.111203 334.616032 
L 651.232961 332.978206 
L 652.354719 330.285305 
L 653.476477 326.782463 
L 655.719993 318.876103 
L 656.841752 318.970181 
L 659.085269 310.754816 
L 660.207027 307.890717 
L 661.328785 306.13522 
L 662.450543 305.499321 
L 663.572301 305.872163 
L 664.694059 305.069545 
L 665.815816 305.320748 
L 666.937573 306.419307 
L 668.05933 308.149903 
L 670.302842 310.050734 
L 673.668108 313.624693 
L 674.789862 314.545141 
L 675.911617 314.423789 
L 677.033371 313.832565 
L 678.155124 312.868799 
L 679.276878 311.489625 
L 680.398631 309.681211 
L 681.520385 309.712913 
L 686.007398 296.138025 
L 687.129152 293.4141 
L 688.250906 291.555783 
L 689.372661 290.875232 
L 690.494416 291.531283 
L 691.616281 291.489138 
L 692.738147 293.211698 
L 693.860013 296.444306 
L 694.98188 300.807067 
L 697.225615 311.583226 
L 699.469353 322.978702 
L 700.591222 328.129359 
L 701.713091 332.543074 
L 702.834961 335.954998 
L 702.834961 335.954998 
" clip-path="url(#p15a0bf2e15)" style="fill: none; stroke: #0072bd; stroke-width: 3; stroke-linecap: square"/>
   </g>
   <g id="patch_3">
    <path d="M 54.420745 381.453658 
L 54.420745 10.8 
" style="fill: none; stroke: #000000; stroke-width: 0.8; stroke-linejoin: miter; stroke-linecap: square"/>
   </g>
   <g id="patch_4">
    <path d="M 702.834961 381.453658 
L 702.834961 10.8 
" style="fill: none; stroke: #000000; stroke-width: 0.8; stroke-linejoin: miter; stroke-linecap: square"/>
   </g>
   <g id="patch_5">
    <path d="M 54.420745 381.453658 
L 702.834961 381.453658 
" style="fill: none; stroke: #000000; stroke-width: 0.8; stroke-linejoin: miter; stroke-linecap: square"/>
   </g>
   <g id="patch_6">
    <path d="M 54.420745 10.8 
L 702.834961 10.8 
" style="fill: none; stroke: #000000; stroke-width: 0.8; stroke-linejoin: miter; stroke-linecap: square"/>
   </g>
   <g id="legend_1">
    <g id="patch_7">
     <path d="M 581.539848 64.611489 
L 692.334961 64.611489 
Q 695.334961 64.611489 695.334961 61.611489 
L 695.334961 21.3 
Q 695.334961 18.3 692.334961 18.3 
L 581.539848 18.3 
Q 578.539848 18.3 578.539848 21.3 
L 578.539848 61.611489 
Q 578.539848 64.611489 581.539848 64.611489 
z
" style="fill: #ffffff; opacity: 0.8; stroke: #cccccc; stroke-linejoin: miter"/>
    </g>
    <g id="line2d_33">
     <path d="M 584.539848 29.55 
L 599.539848 29.55 
L 614.539848 29.55 
" style="fill: none; stroke: #ebb120; stroke-width: 3; stroke-linecap: square"/>
    </g>
    <g id="text_17">
     <!-- CO-Fixed -->
     <g transform="translate(626.539848 34.8)scale(0.15 -0.15)">
      <defs>
       <path id="CMR17-4f" d="M 4307 2135 
C 4307 3437 3366 4416 2304 4416 
C 1216 4416 294 3424 294 2135 
C 294 845 1229 -128 2298 -128 
C 3392 -128 4307 864 4307 2135 
z
M 2304 -13 
C 1574 -13 781 711 781 2217 
C 781 3716 1651 4301 2298 4301 
C 2976 4301 3821 3698 3821 2217 
C 3821 686 3008 -13 2304 -13 
z
" transform="scale(0.015625)"/>
       <path id="CMR17-2d" d="M 1632 1216 
L 1632 1496 
L 26 1496 
L 26 1216 
L 1632 1216 
z
" transform="scale(0.015625)"/>
       <path id="CMR17-46" d="M 3482 4325 
L 326 4325 
L 326 4160 
C 768 4160 838 4160 838 3874 
L 838 446 
C 838 160 768 160 326 160 
L 326 0 
C 512 0 870 0 1069 0 
C 1331 0 1638 0 1901 0 
L 1901 160 
L 1760 160 
C 1274 160 1261 223 1261 452 
L 1261 2075 
L 1837 2075 
C 2432 2075 2490 1865 2490 1332 
L 2605 1332 
L 2605 2987 
L 2490 2987 
C 2490 2450 2432 2240 1837 2240 
L 1261 2240 
L 1261 3911 
C 1261 4128 1274 4160 1530 4160 
L 2355 4160 
C 3322 4160 3430 3765 3520 2916 
L 3635 2916 
L 3482 4325 
z
" transform="scale(0.015625)"/>
       <path id="CMR17-78" d="M 1664 1477 
C 1856 1726 2074 2006 2253 2216 
C 2464 2458 2707 2560 2989 2560 
L 2989 2726 
C 2880 2726 2656 2726 2541 2726 
C 2368 2726 2170 2726 2022 2732 
L 2022 2566 
C 2112 2553 2163 2489 2163 2400 
C 2163 2285 2099 2215 2067 2171 
L 1594 1573 
L 1030 2306 
C 973 2376 973 2388 973 2420 
C 973 2497 1037 2560 1146 2560 
L 1146 2732 
C 992 2726 717 2726 557 2726 
C 384 2726 179 2726 38 2732 
L 38 2560 
C 384 2560 461 2534 614 2343 
L 1350 1395 
C 1363 1382 1395 1344 1395 1325 
C 1395 1299 838 619 768 530 
C 480 185 179 160 6 160 
L 6 0 
C 115 0 339 0 454 0 
C 582 0 864 0 979 -6 
L 979 160 
C 941 166 838 179 838 325 
C 838 440 890 510 947 586 
L 1478 1236 
L 2035 512 
C 2086 442 2163 346 2163 301 
C 2163 211 2086 160 1984 160 
L 1984 -6 
C 2138 0 2413 0 2573 0 
C 2746 0 2950 0 3091 -6 
L 3091 160 
C 2771 160 2675 172 2522 370 
L 1664 1477 
z
" transform="scale(0.015625)"/>
      </defs>
      <use xlink:href="#CMR17-43" transform="scale(0.996264)"/>
      <use xlink:href="#CMR17-4f" transform="translate(66.509881 0)scale(0.996264)"/>
      <use xlink:href="#CMR17-2d" transform="translate(138.224669 0)scale(0.996264)"/>
      <use xlink:href="#CMR17-46" transform="translate(168.300635 0)scale(0.996264)"/>
      <use xlink:href="#CMR17-69" transform="translate(228.284482 0)scale(0.996264)"/>
      <use xlink:href="#CMR17-78" transform="translate(253.15554 0)scale(0.996264)"/>
      <use xlink:href="#CMR17-65" transform="translate(301.448456 0)scale(0.996264)"/>
      <use xlink:href="#CMR17-64" transform="translate(341.934117 0)scale(0.996264)"/>
     </g>
    </g>
    <g id="line2d_34">
     <path d="M 584.539848 50.455745 
L 599.539848 50.455745 
L 614.539848 50.455745 
" style="fill: none; stroke: #0072bd; stroke-width: 3; stroke-linecap: square"/>
    </g>
    <g id="text_18">
     <!-- CO-Free -->
     <g transform="translate(626.539848 55.705745)scale(0.15 -0.15)">
      <use xlink:href="#CMR17-43" transform="scale(0.996264)"/>
      <use xlink:href="#CMR17-4f" transform="translate(66.509881 0)scale(0.996264)"/>
      <use xlink:href="#CMR17-2d" transform="translate(138.224669 0)scale(0.996264)"/>
      <use xlink:href="#CMR17-46" transform="translate(168.300635 0)scale(0.996264)"/>
      <use xlink:href="#CMR17-72" transform="translate(220.477227 0)scale(0.996264)"/>
      <use xlink:href="#CMR17-65" transform="translate(255.757994 0)scale(0.996264)"/>
      <use xlink:href="#CMR17-65" transform="translate(296.243655 0)scale(0.996264)"/>
     </g>
    </g>
   </g>
  </g>
 </g>
 <defs>
  <clipPath id="p15a0bf2e15">
   <rect x="54.420745" y="10.8" width="648.414216" height="370.653658"/>
  </clipPath>
 </defs>
</svg>
