<?xml version="1.0" encoding="utf-8" standalone="no"?>
<!DOCTYPE svg PUBLIC "-//W3C//DTD SVG 1.1//EN"
  "http://www.w3.org/Graphics/SVG/1.1/DTD/svg11.dtd">
<svg xmlns:xlink="http://www.w3.org/1999/xlink" width="576pt" height="432pt" viewBox="0 0 576 432" xmlns="http://www.w3.org/2000/svg" version="1.1">
 <metadata>
  <rdf:RDF xmlns:dc="http://purl.org/dc/elements/1.1/" xmlns:cc="http://creativecommons.org/ns#" xmlns:rdf="http://www.w3.org/1999/02/22-rdf-syntax-ns#">
   <cc:Work>
    <dc:type rdf:resource="http://purl.org/dc/dcmitype/StillImage"/>
    <dc:date>2022-04-19T12:14:15.721253</dc:date>
    <dc:format>image/svg+xml</dc:format>
    <dc:creator>
     <cc:Agent>
      <dc:title>Matplotlib v3.5.1, https://matplotlib.org/</dc:title>
     </cc:Agent>
    </dc:creator>
   </cc:Work>
  </rdf:RDF>
 </metadata>
 <defs>
  <style type="text/css">*{stroke-linejoin: round; stroke-linecap: butt}</style>
 </defs>
 <g id="figure_1">
  <g id="patch_1">
   <path d="M 0 432 
L 576 432 
L 576 0 
L 0 0 
z
" style="fill: #ffffff"/>
  </g>
  <g id="axes_1">
   <g id="patch_2">
    <path d="M 59.40208 381.453658 
L 563.723324 381.453658 
L 563.723324 10.8 
L 59.40208 10.8 
z
" style="fill: #ffffff"/>
   </g>
   <g id="matplotlib.axis_1">
    <g id="xtick_1">
     <g id="line2d_1">
      <path d="M 146.861181 381.453658 
L 146.861181 10.8 
" clip-path="url(#p20fcb6a737)" style="fill: none; stroke-dasharray: 2.96,1.28; stroke-dashoffset: 0; stroke: #b0b0b0; stroke-width: 0.8"/>
     </g>
     <g id="line2d_2">
      <defs>
       <path id="m876ca8ed08" d="M 0 0 
L 0 3.5 
" style="stroke: #000000; stroke-width: 0.8"/>
      </defs>
      <g>
       <use xlink:href="#m876ca8ed08" x="146.861181" y="381.453658" style="stroke: #000000; stroke-width: 0.8"/>
      </g>
     </g>
     <g id="text_1">
      <!-- $\mathdefault{0}$ -->
      <g transform="translate(144.370513 395.372156)scale(0.1 -0.1)">
       <defs>
        <path id="CMR17-30" d="M 2688 2025 
C 2688 2416 2682 3080 2413 3591 
C 2176 4039 1798 4198 1466 4198 
C 1158 4198 768 4058 525 3597 
C 269 3118 243 2524 243 2025 
C 243 1661 250 1106 448 619 
C 723 -39 1216 -128 1466 -128 
C 1760 -128 2208 -7 2470 600 
C 2662 1042 2688 1559 2688 2025 
z
M 1466 -26 
C 1056 -26 813 325 723 812 
C 653 1188 653 1738 653 2096 
C 653 2588 653 2997 736 3387 
C 858 3929 1216 4096 1466 4096 
C 1728 4096 2067 3923 2189 3400 
C 2272 3036 2278 2607 2278 2096 
C 2278 1680 2278 1169 2202 792 
C 2067 95 1690 -26 1466 -26 
z
" transform="scale(0.015625)"/>
       </defs>
       <use xlink:href="#CMR17-30" transform="scale(0.996264)"/>
      </g>
     </g>
    </g>
    <g id="xtick_2">
     <g id="line2d_3">
      <path d="M 250.086868 381.453658 
L 250.086868 10.8 
" clip-path="url(#p20fcb6a737)" style="fill: none; stroke-dasharray: 2.96,1.28; stroke-dashoffset: 0; stroke: #b0b0b0; stroke-width: 0.8"/>
     </g>
     <g id="line2d_4">
      <g>
       <use xlink:href="#m876ca8ed08" x="250.086868" y="381.453658" style="stroke: #000000; stroke-width: 0.8"/>
      </g>
     </g>
     <g id="text_2">
      <!-- $\mathdefault{20}$ -->
      <g transform="translate(245.105533 395.372156)scale(0.1 -0.1)">
       <defs>
        <path id="CMR17-32" d="M 2669 989 
L 2554 989 
C 2490 536 2438 459 2413 420 
C 2381 369 1920 369 1830 369 
L 602 369 
C 832 619 1280 1072 1824 1597 
C 2214 1967 2669 2402 2669 3035 
C 2669 3790 2067 4224 1395 4224 
C 691 4224 262 3604 262 3030 
C 262 2780 448 2748 525 2748 
C 589 2748 781 2787 781 3010 
C 781 3207 614 3264 525 3264 
C 486 3264 448 3258 422 3245 
C 544 3790 915 4058 1306 4058 
C 1862 4058 2227 3617 2227 3035 
C 2227 2479 1901 2000 1536 1584 
L 262 146 
L 262 0 
L 2515 0 
L 2669 989 
z
" transform="scale(0.015625)"/>
       </defs>
       <use xlink:href="#CMR17-32" transform="scale(0.996264)"/>
       <use xlink:href="#CMR17-30" transform="translate(45.690477 0)scale(0.996264)"/>
      </g>
     </g>
    </g>
    <g id="xtick_3">
     <g id="line2d_5">
      <path d="M 353.312555 381.453658 
L 353.312555 10.8 
" clip-path="url(#p20fcb6a737)" style="fill: none; stroke-dasharray: 2.96,1.28; stroke-dashoffset: 0; stroke: #b0b0b0; stroke-width: 0.8"/>
     </g>
     <g id="line2d_6">
      <g>
       <use xlink:href="#m876ca8ed08" x="353.312555" y="381.453658" style="stroke: #000000; stroke-width: 0.8"/>
      </g>
     </g>
     <g id="text_3">
      <!-- $\mathdefault{40}$ -->
      <g transform="translate(348.33122 395.372156)scale(0.1 -0.1)">
       <defs>
        <path id="CMR17-34" d="M 2150 4122 
C 2150 4256 2144 4256 2029 4256 
L 128 1254 
L 128 1088 
L 1779 1088 
L 1779 457 
C 1779 224 1766 160 1318 160 
L 1197 160 
L 1197 0 
C 1402 0 1747 0 1965 0 
C 2182 0 2528 0 2733 0 
L 2733 160 
L 2611 160 
C 2163 160 2150 224 2150 457 
L 2150 1088 
L 2803 1088 
L 2803 1254 
L 2150 1254 
L 2150 4122 
z
M 1798 3703 
L 1798 1254 
L 256 1254 
L 1798 3703 
z
" transform="scale(0.015625)"/>
       </defs>
       <use xlink:href="#CMR17-34" transform="scale(0.996264)"/>
       <use xlink:href="#CMR17-30" transform="translate(45.690477 0)scale(0.996264)"/>
      </g>
     </g>
    </g>
    <g id="xtick_4">
     <g id="line2d_7">
      <path d="M 456.538242 381.453658 
L 456.538242 10.8 
" clip-path="url(#p20fcb6a737)" style="fill: none; stroke-dasharray: 2.96,1.28; stroke-dashoffset: 0; stroke: #b0b0b0; stroke-width: 0.8"/>
     </g>
     <g id="line2d_8">
      <g>
       <use xlink:href="#m876ca8ed08" x="456.538242" y="381.453658" style="stroke: #000000; stroke-width: 0.8"/>
      </g>
     </g>
     <g id="text_4">
      <!-- $\mathdefault{60}$ -->
      <g transform="translate(451.556906 395.372156)scale(0.1 -0.1)">
       <defs>
        <path id="CMR17-36" d="M 678 2176 
C 678 3690 1395 4032 1811 4032 
C 1946 4032 2272 4009 2400 3776 
C 2298 3776 2106 3776 2106 3553 
C 2106 3381 2246 3323 2336 3323 
C 2394 3323 2566 3348 2566 3560 
C 2566 3954 2246 4179 1805 4179 
C 1043 4179 243 3390 243 1984 
C 243 253 966 -128 1478 -128 
C 2099 -128 2688 427 2688 1283 
C 2688 2081 2170 2662 1517 2662 
C 1126 2662 838 2407 678 1960 
L 678 2176 
z
M 1478 25 
C 691 25 691 1200 691 1436 
C 691 1896 909 2560 1504 2560 
C 1613 2560 1926 2560 2138 2120 
C 2253 1870 2253 1609 2253 1289 
C 2253 944 2253 690 2118 434 
C 1978 171 1773 25 1478 25 
z
" transform="scale(0.015625)"/>
       </defs>
       <use xlink:href="#CMR17-36" transform="scale(0.996264)"/>
       <use xlink:href="#CMR17-30" transform="translate(45.690477 0)scale(0.996264)"/>
      </g>
     </g>
    </g>
    <g id="xtick_5">
     <g id="line2d_9">
      <path d="M 559.763929 381.453658 
L 559.763929 10.8 
" clip-path="url(#p20fcb6a737)" style="fill: none; stroke-dasharray: 2.96,1.28; stroke-dashoffset: 0; stroke: #b0b0b0; stroke-width: 0.8"/>
     </g>
     <g id="line2d_10">
      <g>
       <use xlink:href="#m876ca8ed08" x="559.763929" y="381.453658" style="stroke: #000000; stroke-width: 0.8"/>
      </g>
     </g>
     <g id="text_5">
      <!-- $\mathdefault{80}$ -->
      <g transform="translate(554.782593 395.372156)scale(0.1 -0.1)">
       <defs>
        <path id="CMR17-38" d="M 1741 2264 
C 2144 2467 2554 2773 2554 3263 
C 2554 3841 1990 4179 1472 4179 
C 890 4179 378 3759 378 3180 
C 378 3021 416 2747 666 2505 
C 730 2442 998 2251 1171 2130 
C 883 1983 211 1634 211 934 
C 211 279 838 -128 1459 -128 
C 2144 -128 2720 362 2720 1010 
C 2720 1590 2330 1857 2074 2029 
L 1741 2264 
z
M 902 2822 
C 851 2854 595 3051 595 3351 
C 595 3739 998 4032 1459 4032 
C 1965 4032 2336 3676 2336 3262 
C 2336 2669 1670 2331 1638 2331 
C 1632 2331 1626 2331 1574 2370 
L 902 2822 
z
M 2080 1519 
C 2176 1449 2483 1240 2483 851 
C 2483 381 2010 25 1472 25 
C 890 25 448 438 448 940 
C 448 1443 838 1862 1280 2060 
L 2080 1519 
z
" transform="scale(0.015625)"/>
       </defs>
       <use xlink:href="#CMR17-38" transform="scale(0.996264)"/>
       <use xlink:href="#CMR17-30" transform="translate(45.690477 0)scale(0.996264)"/>
      </g>
     </g>
    </g>
    <g id="text_6">
     <!-- X ($m$) -->
     <g transform="translate(286.058991 416.235356)scale(0.2 -0.2)">
      <defs>
       <path id="CMR17-58" d="M 2336 2398 
L 3283 3753 
C 3379 3886 3571 4160 4096 4160 
L 4096 4332 
C 3949 4319 3706 4319 3552 4319 
C 3341 4319 3078 4319 2918 4332 
L 2918 4166 
C 3123 4147 3174 4020 3174 3918 
C 3174 3843 3142 3792 3098 3728 
L 2253 2513 
L 1306 3887 
C 1261 3956 1254 3975 1254 3994 
C 1254 4052 1325 4160 1536 4160 
L 1536 4319 
C 1331 4319 1018 4319 806 4319 
C 640 4319 320 4319 166 4332 
L 166 4160 
C 518 4160 634 4148 774 3951 
L 2010 2163 
L 896 549 
C 621 153 205 153 83 153 
L 83 -13 
C 230 0 474 0 627 0 
C 800 0 1101 0 1261 -13 
L 1261 153 
C 1062 172 1005 299 1005 401 
C 1005 483 1037 528 1069 572 
L 2093 2048 
L 3206 422 
C 3258 352 3258 333 3258 314 
C 3258 263 3200 153 2976 153 
L 2976 0 
C 3181 0 3494 0 3706 0 
C 3872 0 4192 0 4346 -13 
L 4346 153 
C 3936 153 3872 184 3744 363 
L 2336 2398 
z
" transform="scale(0.015625)"/>
       <path id="CMR17-28" d="M 1958 -1561 
C 1958 -1555 1958 -1542 1939 -1523 
C 1645 -1224 858 -407 858 1581 
C 858 3569 1632 4379 1946 4697 
C 1946 4704 1958 4717 1958 4736 
C 1958 4755 1939 4768 1914 4768 
C 1843 4768 1299 4296 986 3594 
C 666 2887 576 2199 576 1588 
C 576 1128 621 351 1005 -471 
C 1312 -1135 1837 -1600 1914 -1600 
C 1946 -1600 1958 -1587 1958 -1561 
z
" transform="scale(0.015625)"/>
       <path id="CMMI12-6d" d="M 1318 1871 
C 1331 1910 1491 2229 1728 2433 
C 1894 2586 2112 2689 2362 2689 
C 2618 2689 2707 2497 2707 2242 
C 2707 2203 2707 2076 2630 1775 
L 2470 1118 
C 2419 926 2298 453 2285 383 
C 2259 287 2221 121 2221 96 
C 2221 6 2291 -64 2387 -64 
C 2579 -64 2611 83 2669 313 
L 3053 1839 
C 3066 1890 3398 2689 4102 2689 
C 4358 2689 4448 2497 4448 2242 
C 4448 1884 4198 1188 4058 805 
C 4000 651 3968 568 3968 453 
C 3968 166 4166 -64 4474 -64 
C 5069 -64 5293 875 5293 913 
C 5293 945 5267 971 5229 971 
C 5171 971 5165 952 5133 843 
C 4986 332 4749 64 4493 64 
C 4429 64 4326 64 4326 269 
C 4326 436 4403 640 4429 710 
C 4544 1018 4832 1773 4832 2145 
C 4832 2528 4608 2816 4122 2816 
C 3693 2816 3347 2574 3091 2197 
C 3072 2542 2861 2816 2381 2816 
C 1811 2816 1510 2415 1395 2255 
C 1376 2618 1114 2816 832 2816 
C 646 2816 499 2727 378 2484 
C 262 2254 173 1865 173 1839 
C 173 1814 198 1782 243 1782 
C 294 1782 301 1788 339 1935 
C 435 2312 557 2689 813 2689 
C 960 2689 1011 2586 1011 2395 
C 1011 2254 947 2005 902 1807 
L 723 1118 
C 698 996 627 709 595 594 
C 550 428 480 128 480 96 
C 480 6 550 -64 646 -64 
C 723 -64 813 -26 864 70 
C 877 102 934 326 966 453 
L 1107 1028 
L 1318 1871 
z
" transform="scale(0.015625)"/>
       <path id="CMR17-29" d="M 1683 1581 
C 1683 2040 1638 2817 1254 3639 
C 947 4303 422 4768 346 4768 
C 326 4768 301 4761 301 4729 
C 301 4717 307 4710 314 4697 
C 621 4378 1402 3568 1402 1584 
C 1402 -407 627 -1217 314 -1537 
C 307 -1549 301 -1556 301 -1568 
C 301 -1600 326 -1600 346 -1600 
C 416 -1600 960 -1128 1274 -426 
C 1594 281 1683 969 1683 1581 
z
" transform="scale(0.015625)"/>
      </defs>
      <use xlink:href="#CMR17-58" transform="scale(0.996264)"/>
      <use xlink:href="#CMR17-28" transform="translate(99.148396 0)scale(0.996264)"/>
      <use xlink:href="#CMMI12-6d" transform="translate(134.429164 0)scale(0.996264)"/>
      <use xlink:href="#CMR17-29" transform="translate(219.756388 0)scale(0.996264)"/>
     </g>
    </g>
   </g>
   <g id="matplotlib.axis_2">
    <g id="ytick_1">
     <g id="line2d_11">
      <path d="M 59.40208 376.5429 
L 563.723324 376.5429 
" clip-path="url(#p20fcb6a737)" style="fill: none; stroke-dasharray: 2.96,1.28; stroke-dashoffset: 0; stroke: #b0b0b0; stroke-width: 0.8"/>
     </g>
     <g id="line2d_12">
      <defs>
       <path id="m0cee2a6d71" d="M 0 0 
L -3.5 0 
" style="stroke: #000000; stroke-width: 0.8"/>
      </defs>
      <g>
       <use xlink:href="#m0cee2a6d71" x="59.40208" y="376.5429" style="stroke: #000000; stroke-width: 0.8"/>
      </g>
     </g>
     <g id="text_7">
      <!-- $\mathdefault{−60}$ -->
      <g transform="translate(34.690666 380.002149)scale(0.1 -0.1)">
       <defs>
        <path id="CMSY10-0" d="M 4218 1472 
C 4326 1472 4442 1472 4442 1600 
C 4442 1728 4326 1728 4218 1728 
L 755 1728 
C 646 1728 531 1728 531 1600 
C 531 1472 646 1472 755 1472 
L 4218 1472 
z
" transform="scale(0.015625)"/>
       </defs>
       <use xlink:href="#CMSY10-0" transform="scale(0.996264)"/>
       <use xlink:href="#CMR17-36" transform="translate(77.487468 0)scale(0.996264)"/>
       <use xlink:href="#CMR17-30" transform="translate(123.177945 0)scale(0.996264)"/>
      </g>
     </g>
    </g>
    <g id="ytick_2">
     <g id="line2d_13">
      <path d="M 59.40208 324.930056 
L 563.723324 324.930056 
" clip-path="url(#p20fcb6a737)" style="fill: none; stroke-dasharray: 2.96,1.28; stroke-dashoffset: 0; stroke: #b0b0b0; stroke-width: 0.8"/>
     </g>
     <g id="line2d_14">
      <g>
       <use xlink:href="#m0cee2a6d71" x="59.40208" y="324.930056" style="stroke: #000000; stroke-width: 0.8"/>
      </g>
     </g>
     <g id="text_8">
      <!-- $\mathdefault{−50}$ -->
      <g transform="translate(34.690666 328.389306)scale(0.1 -0.1)">
       <defs>
        <path id="CMR17-35" d="M 730 3692 
C 794 3666 1056 3584 1325 3584 
C 1920 3584 2246 3911 2432 4100 
C 2432 4157 2432 4192 2394 4192 
C 2387 4192 2374 4192 2323 4163 
C 2099 4058 1837 3973 1517 3973 
C 1325 3973 1037 3999 723 4139 
C 653 4171 640 4171 634 4171 
C 602 4171 595 4164 595 4037 
L 595 2203 
C 595 2089 595 2057 659 2057 
C 691 2057 704 2070 736 2114 
C 941 2401 1222 2522 1542 2522 
C 1766 2522 2246 2382 2246 1289 
C 2246 1085 2246 715 2054 421 
C 1894 159 1645 25 1370 25 
C 947 25 518 320 403 814 
C 429 807 480 795 506 795 
C 589 795 749 840 749 1038 
C 749 1210 627 1280 506 1280 
C 358 1280 262 1190 262 1011 
C 262 454 704 -128 1382 -128 
C 2042 -128 2669 440 2669 1264 
C 2669 2030 2170 2624 1549 2624 
C 1222 2624 947 2503 730 2274 
L 730 3692 
z
" transform="scale(0.015625)"/>
       </defs>
       <use xlink:href="#CMSY10-0" transform="scale(0.996264)"/>
       <use xlink:href="#CMR17-35" transform="translate(77.487468 0)scale(0.996264)"/>
       <use xlink:href="#CMR17-30" transform="translate(123.177945 0)scale(0.996264)"/>
      </g>
     </g>
    </g>
    <g id="ytick_3">
     <g id="line2d_15">
      <path d="M 59.40208 273.317213 
L 563.723324 273.317213 
" clip-path="url(#p20fcb6a737)" style="fill: none; stroke-dasharray: 2.96,1.28; stroke-dashoffset: 0; stroke: #b0b0b0; stroke-width: 0.8"/>
     </g>
     <g id="line2d_16">
      <g>
       <use xlink:href="#m0cee2a6d71" x="59.40208" y="273.317213" style="stroke: #000000; stroke-width: 0.8"/>
      </g>
     </g>
     <g id="text_9">
      <!-- $\mathdefault{−40}$ -->
      <g transform="translate(34.690666 276.776462)scale(0.1 -0.1)">
       <use xlink:href="#CMSY10-0" transform="scale(0.996264)"/>
       <use xlink:href="#CMR17-34" transform="translate(77.487468 0)scale(0.996264)"/>
       <use xlink:href="#CMR17-30" transform="translate(123.177945 0)scale(0.996264)"/>
      </g>
     </g>
    </g>
    <g id="ytick_4">
     <g id="line2d_17">
      <path d="M 59.40208 221.704369 
L 563.723324 221.704369 
" clip-path="url(#p20fcb6a737)" style="fill: none; stroke-dasharray: 2.96,1.28; stroke-dashoffset: 0; stroke: #b0b0b0; stroke-width: 0.8"/>
     </g>
     <g id="line2d_18">
      <g>
       <use xlink:href="#m0cee2a6d71" x="59.40208" y="221.704369" style="stroke: #000000; stroke-width: 0.8"/>
      </g>
     </g>
     <g id="text_10">
      <!-- $\mathdefault{−30}$ -->
      <g transform="translate(34.690666 225.163619)scale(0.1 -0.1)">
       <defs>
        <path id="CMR17-33" d="M 1414 2157 
C 1984 2157 2234 1662 2234 1090 
C 2234 320 1824 25 1453 25 
C 1114 25 563 194 390 693 
C 422 680 454 680 486 680 
C 640 680 755 782 755 948 
C 755 1133 614 1216 486 1216 
C 378 1216 211 1165 211 926 
C 211 335 787 -128 1466 -128 
C 2176 -128 2720 430 2720 1085 
C 2720 1707 2208 2157 1600 2227 
C 2086 2328 2554 2756 2554 3329 
C 2554 3820 2048 4179 1472 4179 
C 890 4179 378 3829 378 3329 
C 378 3110 544 3072 627 3072 
C 762 3072 877 3155 877 3321 
C 877 3486 762 3569 627 3569 
C 602 3569 570 3569 544 3557 
C 730 3959 1235 4032 1459 4032 
C 1683 4032 2106 3925 2106 3320 
C 2106 3143 2080 2828 1862 2550 
C 1670 2304 1453 2304 1242 2284 
C 1210 2284 1062 2269 1037 2269 
C 992 2263 966 2257 966 2208 
C 966 2163 973 2157 1101 2157 
L 1414 2157 
z
" transform="scale(0.015625)"/>
       </defs>
       <use xlink:href="#CMSY10-0" transform="scale(0.996264)"/>
       <use xlink:href="#CMR17-33" transform="translate(77.487468 0)scale(0.996264)"/>
       <use xlink:href="#CMR17-30" transform="translate(123.177945 0)scale(0.996264)"/>
      </g>
     </g>
    </g>
    <g id="ytick_5">
     <g id="line2d_19">
      <path d="M 59.40208 170.091526 
L 563.723324 170.091526 
" clip-path="url(#p20fcb6a737)" style="fill: none; stroke-dasharray: 2.96,1.28; stroke-dashoffset: 0; stroke: #b0b0b0; stroke-width: 0.8"/>
     </g>
     <g id="line2d_20">
      <g>
       <use xlink:href="#m0cee2a6d71" x="59.40208" y="170.091526" style="stroke: #000000; stroke-width: 0.8"/>
      </g>
     </g>
     <g id="text_11">
      <!-- $\mathdefault{−20}$ -->
      <g transform="translate(34.690666 173.550775)scale(0.1 -0.1)">
       <use xlink:href="#CMSY10-0" transform="scale(0.996264)"/>
       <use xlink:href="#CMR17-32" transform="translate(77.487468 0)scale(0.996264)"/>
       <use xlink:href="#CMR17-30" transform="translate(123.177945 0)scale(0.996264)"/>
      </g>
     </g>
    </g>
    <g id="ytick_6">
     <g id="line2d_21">
      <path d="M 59.40208 118.478683 
L 563.723324 118.478683 
" clip-path="url(#p20fcb6a737)" style="fill: none; stroke-dasharray: 2.96,1.28; stroke-dashoffset: 0; stroke: #b0b0b0; stroke-width: 0.8"/>
     </g>
     <g id="line2d_22">
      <g>
       <use xlink:href="#m0cee2a6d71" x="59.40208" y="118.478683" style="stroke: #000000; stroke-width: 0.8"/>
      </g>
     </g>
     <g id="text_12">
      <!-- $\mathdefault{−10}$ -->
      <g transform="translate(34.690666 121.937932)scale(0.1 -0.1)">
       <defs>
        <path id="CMR17-31" d="M 1702 4058 
C 1702 4192 1696 4192 1606 4192 
C 1357 3916 979 3827 621 3827 
C 602 3827 570 3827 563 3808 
C 557 3795 557 3782 557 3648 
C 755 3648 1088 3686 1344 3839 
L 1344 461 
C 1344 236 1331 160 781 160 
L 589 160 
L 589 0 
C 896 0 1216 0 1523 0 
C 1830 0 2150 0 2458 0 
L 2458 160 
L 2266 160 
C 1715 160 1702 230 1702 458 
L 1702 4058 
z
" transform="scale(0.015625)"/>
       </defs>
       <use xlink:href="#CMSY10-0" transform="scale(0.996264)"/>
       <use xlink:href="#CMR17-31" transform="translate(77.487468 0)scale(0.996264)"/>
       <use xlink:href="#CMR17-30" transform="translate(123.177945 0)scale(0.996264)"/>
      </g>
     </g>
    </g>
    <g id="ytick_7">
     <g id="line2d_23">
      <path d="M 59.40208 66.865839 
L 563.723324 66.865839 
" clip-path="url(#p20fcb6a737)" style="fill: none; stroke-dasharray: 2.96,1.28; stroke-dashoffset: 0; stroke: #b0b0b0; stroke-width: 0.8"/>
     </g>
     <g id="line2d_24">
      <g>
       <use xlink:href="#m0cee2a6d71" x="59.40208" y="66.865839" style="stroke: #000000; stroke-width: 0.8"/>
      </g>
     </g>
     <g id="text_13">
      <!-- $\mathdefault{0}$ -->
      <g transform="translate(47.420745 70.325088)scale(0.1 -0.1)">
       <use xlink:href="#CMR17-30" transform="scale(0.996264)"/>
      </g>
     </g>
    </g>
    <g id="ytick_8">
     <g id="line2d_25">
      <path d="M 59.40208 15.252996 
L 563.723324 15.252996 
" clip-path="url(#p20fcb6a737)" style="fill: none; stroke-dasharray: 2.96,1.28; stroke-dashoffset: 0; stroke: #b0b0b0; stroke-width: 0.8"/>
     </g>
     <g id="line2d_26">
      <g>
       <use xlink:href="#m0cee2a6d71" x="59.40208" y="15.252996" style="stroke: #000000; stroke-width: 0.8"/>
      </g>
     </g>
     <g id="text_14">
      <!-- $\mathdefault{10}$ -->
      <g transform="translate(42.439409 18.712245)scale(0.1 -0.1)">
       <use xlink:href="#CMR17-31" transform="scale(0.996264)"/>
       <use xlink:href="#CMR17-30" transform="translate(45.690477 0)scale(0.996264)"/>
      </g>
     </g>
    </g>
    <g id="text_15">
     <!-- Y ($m$) -->
     <g transform="translate(25.726022 221.63054)rotate(-90)scale(0.2 -0.2)">
      <defs>
       <path id="CMR17-59" d="M 3706 3766 
C 3955 4160 4301 4160 4416 4160 
L 4416 4332 
C 4269 4319 4102 4319 3942 4319 
C 3782 4319 3526 4319 3373 4332 
L 3373 4160 
C 3533 4160 3616 4077 3616 3957 
C 3616 3881 3584 3830 3533 3747 
L 2381 1912 
L 1120 3912 
C 1075 3988 1069 3994 1069 4039 
C 1069 4160 1293 4160 1382 4160 
L 1382 4319 
C 1178 4319 864 4319 653 4319 
C 486 4319 166 4319 13 4332 
L 13 4160 
C 378 4160 480 4141 595 3958 
L 2010 1728 
L 2010 445 
C 2010 160 1939 160 1498 160 
L 1498 0 
C 1683 0 2016 0 2214 0 
C 2413 0 2752 0 2938 0 
L 2938 160 
C 2477 160 2419 160 2419 471 
L 2419 1728 
L 3706 3766 
z
" transform="scale(0.015625)"/>
      </defs>
      <use xlink:href="#CMR17-59" transform="scale(0.996264)"/>
      <use xlink:href="#CMR17-28" transform="translate(99.148396 0)scale(0.996264)"/>
      <use xlink:href="#CMMI12-6d" transform="translate(134.429164 0)scale(0.996264)"/>
      <use xlink:href="#CMR17-29" transform="translate(219.756388 0)scale(0.996264)"/>
     </g>
    </g>
   </g>
   <g id="line2d_27">
    <defs>
     <path id="mcbbede710e" d="M 0 2 
C 0.530406 2 1.03916 1.789267 1.414214 1.414214 
C 1.789267 1.03916 2 0.530406 2 0 
C 2 -0.530406 1.789267 -1.03916 1.414214 -1.414214 
C 1.03916 -1.789267 0.530406 -2 0 -2 
C -0.530406 -2 -1.03916 -1.789267 -1.414214 -1.414214 
C -1.789267 -1.03916 -2 -0.530406 -2 0 
C -2 0.530406 -1.789267 1.03916 -1.414214 1.414214 
C -1.03916 1.789267 -0.530406 2 0 2 
z
" style="stroke: #d95319"/>
    </defs>
    <g clip-path="url(#p20fcb6a737)">
     <use xlink:href="#mcbbede710e" x="168.354269" y="57.619423" style="fill: #d95319; stroke: #d95319"/>
     <use xlink:href="#mcbbede710e" x="188.537371" y="57.592828" style="fill: #d95319; stroke: #d95319"/>
     <use xlink:href="#mcbbede710e" x="208.720473" y="57.566234" style="fill: #d95319; stroke: #d95319"/>
     <use xlink:href="#mcbbede710e" x="232.946065" y="57.699407" style="fill: #d95319; stroke: #d95319"/>
     <use xlink:href="#mcbbede710e" x="257.182639" y="58.691633" style="fill: #d95319; stroke: #d95319"/>
     <use xlink:href="#mcbbede710e" x="282.895915" y="58.990521" style="fill: #d95319; stroke: #d95319"/>
     <use xlink:href="#mcbbede710e" x="308.301156" y="59.219899" style="fill: #d95319; stroke: #d95319"/>
     <use xlink:href="#mcbbede710e" x="334.193621" y="59.403369" style="fill: #d95319; stroke: #d95319"/>
     <use xlink:href="#mcbbede710e" x="356.355153" y="66.461547" style="fill: #d95319; stroke: #d95319"/>
     <use xlink:href="#mcbbede710e" x="368.637158" y="75.070368" style="fill: #d95319; stroke: #d95319"/>
     <use xlink:href="#mcbbede710e" x="377.405426" y="82.093811" style="fill: #d95319; stroke: #d95319"/>
     <use xlink:href="#mcbbede710e" x="384.381009" y="90.246993" style="fill: #d95319; stroke: #d95319"/>
     <use xlink:href="#mcbbede710e" x="392.848998" y="102.009724" style="fill: #d95319; stroke: #d95319"/>
     <use xlink:href="#mcbbede710e" x="397.983423" y="115.515184" style="fill: #d95319; stroke: #d95319"/>
     <use xlink:href="#mcbbede710e" x="397.681285" y="134.925464" style="fill: #d95319; stroke: #d95319"/>
     <use xlink:href="#mcbbede710e" x="392.516484" y="149.561925" style="fill: #d95319; stroke: #d95319"/>
     <use xlink:href="#mcbbede710e" x="385.371291" y="164.757291" style="fill: #d95319; stroke: #d95319"/>
     <use xlink:href="#mcbbede710e" x="383.1722" y="177.93527" style="fill: #d95319; stroke: #d95319"/>
     <use xlink:href="#mcbbede710e" x="383.581555" y="193.752374" style="fill: #d95319; stroke: #d95319"/>
     <use xlink:href="#mcbbede710e" x="387.242616" y="205.902649" style="fill: #d95319; stroke: #d95319"/>
     <use xlink:href="#mcbbede710e" x="396.12342" y="218.767748" style="fill: #d95319; stroke: #d95319"/>
     <use xlink:href="#mcbbede710e" x="403.788226" y="226.078394" style="fill: #d95319; stroke: #d95319"/>
     <use xlink:href="#mcbbede710e" x="416.608137" y="232.284086" style="fill: #d95319; stroke: #d95319"/>
     <use xlink:href="#mcbbede710e" x="431.331469" y="231.081283" style="fill: #d95319; stroke: #d95319"/>
     <use xlink:href="#mcbbede710e" x="450.103538" y="227.767407" style="fill: #d95319; stroke: #d95319"/>
     <use xlink:href="#mcbbede710e" x="467.190456" y="227.010242" style="fill: #d95319; stroke: #d95319"/>
     <use xlink:href="#mcbbede710e" x="486.91101" y="227.889012" style="fill: #d95319; stroke: #d95319"/>
     <use xlink:href="#mcbbede710e" x="500.805769" y="230.329598" style="fill: #d95319; stroke: #d95319"/>
     <use xlink:href="#mcbbede710e" x="516.641864" y="242.299328" style="fill: #d95319; stroke: #d95319"/>
     <use xlink:href="#mcbbede710e" x="528.648479" y="254.232636" style="fill: #d95319; stroke: #d95319"/>
     <use xlink:href="#mcbbede710e" x="535.793871" y="265.792175" style="fill: #d95319; stroke: #d95319"/>
     <use xlink:href="#mcbbede710e" x="540.799631" y="282.799511" style="fill: #d95319; stroke: #d95319"/>
     <use xlink:href="#mcbbede710e" x="537.590628" y="301.745829" style="fill: #d95319; stroke: #d95319"/>
     <use xlink:href="#mcbbede710e" x="529.403457" y="317.721702" style="fill: #d95319; stroke: #d95319"/>
     <use xlink:href="#mcbbede710e" x="520.336785" y="325.938799" style="fill: #d95319; stroke: #d95319"/>
     <use xlink:href="#mcbbede710e" x="508.535699" y="331.196532" style="fill: #d95319; stroke: #d95319"/>
     <use xlink:href="#mcbbede710e" x="487.06535" y="334.687424" style="fill: #d95319; stroke: #d95319"/>
     <use xlink:href="#mcbbede710e" x="463.805988" y="331.491026" style="fill: #d95319; stroke: #d95319"/>
     <use xlink:href="#mcbbede710e" x="440.054496" y="328.71415" style="fill: #d95319; stroke: #d95319"/>
     <use xlink:href="#mcbbede710e" x="424.798536" y="327.145966" style="fill: #d95319; stroke: #d95319"/>
     <use xlink:href="#mcbbede710e" x="412.546756" y="325.386945" style="fill: #d95319; stroke: #d95319"/>
     <use xlink:href="#mcbbede710e" x="392.493396" y="322.67885" style="fill: #d95319; stroke: #d95319"/>
     <use xlink:href="#mcbbede710e" x="370.157245" y="319.103213" style="fill: #d95319; stroke: #d95319"/>
     <use xlink:href="#mcbbede710e" x="353.608584" y="315.922716" style="fill: #d95319; stroke: #d95319"/>
     <use xlink:href="#mcbbede710e" x="331.93949" y="310.768694" style="fill: #d95319; stroke: #d95319"/>
     <use xlink:href="#mcbbede710e" x="312.16052" y="306.131476" style="fill: #d95319; stroke: #d95319"/>
     <use xlink:href="#mcbbede710e" x="291.565732" y="298.391753" style="fill: #d95319; stroke: #d95319"/>
     <use xlink:href="#mcbbede710e" x="275.294734" y="286.791213" style="fill: #d95319; stroke: #d95319"/>
     <use xlink:href="#mcbbede710e" x="264.794178" y="279.499437" style="fill: #d95319; stroke: #d95319"/>
     <use xlink:href="#mcbbede710e" x="258.171489" y="270.769029" style="fill: #d95319; stroke: #d95319"/>
     <use xlink:href="#mcbbede710e" x="253.065512" y="254.51781" style="fill: #d95319; stroke: #d95319"/>
     <use xlink:href="#mcbbede710e" x="249.806916" y="239.327074" style="fill: #d95319; stroke: #d95319"/>
     <use xlink:href="#mcbbede710e" x="251.614906" y="217.880643" style="fill: #d95319; stroke: #d95319"/>
     <use xlink:href="#mcbbede710e" x="256.644651" y="203.965121" style="fill: #d95319; stroke: #d95319"/>
     <use xlink:href="#mcbbede710e" x="256.627233" y="185.196159" style="fill: #d95319; stroke: #d95319"/>
     <use xlink:href="#mcbbede710e" x="251.5123" y="166.920266" style="fill: #d95319; stroke: #d95319"/>
     <use xlink:href="#mcbbede710e" x="244.502488" y="155.202232" style="fill: #d95319; stroke: #d95319"/>
     <use xlink:href="#mcbbede710e" x="237.894464" y="144.94664" style="fill: #d95319; stroke: #d95319"/>
     <use xlink:href="#mcbbede710e" x="227.010795" y="136.511515" style="fill: #d95319; stroke: #d95319"/>
     <use xlink:href="#mcbbede710e" x="213.977972" y="135.194536" style="fill: #d95319; stroke: #d95319"/>
     <use xlink:href="#mcbbede710e" x="200.700048" y="137.272234" style="fill: #d95319; stroke: #d95319"/>
     <use xlink:href="#mcbbede710e" x="185.435666" y="145.711448" style="fill: #d95319; stroke: #d95319"/>
     <use xlink:href="#mcbbede710e" x="176.241315" y="163.277943" style="fill: #d95319; stroke: #d95319"/>
     <use xlink:href="#mcbbede710e" x="173.707015" y="184.932013" style="fill: #d95319; stroke: #d95319"/>
     <use xlink:href="#mcbbede710e" x="176.650628" y="198.521231" style="fill: #d95319; stroke: #d95319"/>
     <use xlink:href="#mcbbede710e" x="183.777563" y="214.319901" style="fill: #d95319; stroke: #d95319"/>
     <use xlink:href="#mcbbede710e" x="193.050143" y="229.968694" style="fill: #d95319; stroke: #d95319"/>
     <use xlink:href="#mcbbede710e" x="199.820744" y="244.047451" style="fill: #d95319; stroke: #d95319"/>
     <use xlink:href="#mcbbede710e" x="202.83127" y="251.713183" style="fill: #d95319; stroke: #d95319"/>
     <use xlink:href="#mcbbede710e" x="203.345881" y="261.95497" style="fill: #d95319; stroke: #d95319"/>
     <use xlink:href="#mcbbede710e" x="196.544103" y="276.483905" style="fill: #d95319; stroke: #d95319"/>
     <use xlink:href="#mcbbede710e" x="188.101596" y="285.39868" style="fill: #d95319; stroke: #d95319"/>
     <use xlink:href="#mcbbede710e" x="172.851667" y="297.317037" style="fill: #d95319; stroke: #d95319"/>
     <use xlink:href="#mcbbede710e" x="156.475058" y="298.825767" style="fill: #d95319; stroke: #d95319"/>
     <use xlink:href="#mcbbede710e" x="140.251417" y="293.614128" style="fill: #d95319; stroke: #d95319"/>
     <use xlink:href="#mcbbede710e" x="125.710274" y="287.628393" style="fill: #d95319; stroke: #d95319"/>
     <use xlink:href="#mcbbede710e" x="112.730051" y="278.988854" style="fill: #d95319; stroke: #d95319"/>
     <use xlink:href="#mcbbede710e" x="98.228044" y="265.275032" style="fill: #d95319; stroke: #d95319"/>
     <use xlink:href="#mcbbede710e" x="88.35876" y="250.766992" style="fill: #d95319; stroke: #d95319"/>
     <use xlink:href="#mcbbede710e" x="85.778488" y="236.756112" style="fill: #d95319; stroke: #d95319"/>
     <use xlink:href="#mcbbede710e" x="84.029996" y="216.171097" style="fill: #d95319; stroke: #d95319"/>
     <use xlink:href="#mcbbede710e" x="83.102293" y="191.316763" style="fill: #d95319; stroke: #d95319"/>
     <use xlink:href="#mcbbede710e" x="82.325773" y="172.038621" style="fill: #d95319; stroke: #d95319"/>
     <use xlink:href="#mcbbede710e" x="82.559502" y="154.040415" style="fill: #d95319; stroke: #d95319"/>
     <use xlink:href="#mcbbede710e" x="82.778094" y="135.637146" style="fill: #d95319; stroke: #d95319"/>
     <use xlink:href="#mcbbede710e" x="85.524292" y="114.701043" style="fill: #d95319; stroke: #d95319"/>
     <use xlink:href="#mcbbede710e" x="91.989736" y="95.55687" style="fill: #d95319; stroke: #d95319"/>
     <use xlink:href="#mcbbede710e" x="101.732838" y="85.993221" style="fill: #d95319; stroke: #d95319"/>
     <use xlink:href="#mcbbede710e" x="115.026042" y="74.222506" style="fill: #d95319; stroke: #d95319"/>
     <use xlink:href="#mcbbede710e" x="129.807685" y="63.465155" style="fill: #d95319; stroke: #d95319"/>
     <use xlink:href="#mcbbede710e" x="146.165562" y="57.816193" style="fill: #d95319; stroke: #d95319"/>
    </g>
   </g>
   <g id="line2d_28">
    <path d="M 165.834039 79.37594 
L 170.762276 79.46605 
L 175.683989 79.354741 
L 185.516829 78.805166 
L 195.351326 78.306759 
L 205.192976 78.029237 
L 220.90314 77.824439 
L 231.691291 77.883276 
L 261.708528 78.395497 
L 281.816233 78.108678 
L 292.700346 78.360268 
L 300.864096 78.455097 
L 306.30827 78.282425 
L 321.716846 77.261749 
L 324.28576 77.276949 
L 326.855227 77.417096 
L 329.425354 77.706986 
L 331.996242 78.168966 
L 334.60131 78.825946 
L 337.127226 79.66056 
L 339.583939 80.650482 
L 341.981968 81.772106 
L 346.641909 84.320833 
L 351.028391 87.076539 
L 355.101047 89.997813 
L 357.042636 91.583536 
L 358.905736 93.272888 
L 360.652589 95.047204 
L 362.29745 96.90254 
L 365.339846 100.809682 
L 368.145738 104.904696 
L 371.013832 109.617595 
L 372.256551 112.066661 
L 373.30913 114.607766 
L 374.127607 117.262194 
L 374.664834 120.012966 
L 374.897367 122.754486 
L 374.870999 125.488144 
L 374.627034 128.215195 
L 374.202389 130.936758 
L 373.629852 133.653831 
L 372.279204 138.480885 
L 370.617792 143.209987 
L 368.67467 147.876831 
L 361.308921 164.447568 
L 359.450664 169.464415 
L 358.622374 172.012188 
L 357.830158 174.81429 
L 357.260944 177.644396 
L 357.017799 180.515447 
L 357.187547 183.438347 
L 357.819402 186.117414 
L 358.768825 188.661685 
L 359.928985 191.116506 
L 363.571394 198.080649 
L 365.563577 202.466302 
L 368.21983 209.185521 
L 371.042216 216.627829 
L 373.202829 221.733414 
L 374.404206 224.233447 
L 375.709139 226.688352 
L 378.423295 231.061862 
L 381.409386 235.2394 
L 384.581879 239.282607 
L 387.821796 243.160877 
L 391.143538 246.820899 
L 392.888897 248.557588 
L 394.711518 250.20894 
L 396.627325 251.757363 
L 398.652301 253.185204 
L 400.802734 254.474473 
L 403.12077 255.622029 
L 405.478102 256.529006 
L 407.872094 257.211552 
L 410.300384 257.684123 
L 412.761151 257.95786 
L 415.253044 258.04105 
L 417.774962 257.940416 
L 420.32569 257.663406 
L 422.882303 257.224992 
L 427.916446 256.018885 
L 435.426121 254.036764 
L 440.474388 252.984987 
L 457.675995 250.077156 
L 462.38159 249.386085 
L 467.388687 248.940998 
L 472.65932 248.885677 
L 477.919365 249.236334 
L 483.183971 249.955409 
L 485.784991 250.479193 
L 488.339327 251.14913 
L 490.836736 251.997293 
L 493.266695 253.056625 
L 495.618045 254.362065 
L 497.868038 255.947385 
L 499.864413 257.756138 
L 501.621343 259.775836 
L 503.150805 261.995929 
L 504.465697 264.405053 
L 505.61238 267.017844 
L 508.654109 275.013481 
L 510.860656 279.746643 
L 511.832492 282.157794 
L 512.528211 284.662578 
L 512.821748 287.303741 
L 512.607991 290.194999 
L 511.775342 292.786838 
L 510.545826 295.186675 
L 509.056977 297.461048 
L 502.563644 306.238187 
L 500.851818 308.331374 
L 498.947273 310.2518 
L 496.76223 311.920779 
L 494.295713 313.210314 
L 491.753678 313.997657 
L 489.155735 314.413214 
L 486.515394 314.546817 
L 483.844082 314.474462 
L 478.510055 313.995159 
L 470.606074 312.997439 
L 460.292802 311.429354 
L 450.588604 309.702975 
L 422.981355 304.62063 
L 401.197571 300.97502 
L 388.726726 298.770006 
L 380.447024 297.575715 
L 370.062014 296.068559 
L 337.694885 290.92575 
L 322.232545 288.652664 
L 317.081034 287.690405 
L 311.901808 286.439626 
L 309.374271 285.656534 
L 306.900922 284.735777 
L 304.490845 283.654281 
L 302.152549 282.390425 
L 299.893602 280.924984 
L 297.697524 279.231228 
L 295.662718 277.385156 
L 293.755764 275.41833 
L 290.187477 271.252695 
L 278.703661 257.072523 
L 277.24176 254.977213 
L 275.863241 252.787017 
L 274.616926 250.54273 
L 273.507276 248.242525 
L 272.536525 245.88549 
L 271.706766 243.470768 
L 271.021116 240.997083 
L 270.484659 238.462355 
L 270.121248 235.936326 
L 269.929649 233.426587 
L 269.907765 230.93294 
L 270.055117 228.45534 
L 270.372563 225.993868 
L 270.861795 223.548685 
L 271.52416 221.119918 
L 272.357788 218.707389 
L 274.339167 214.224675 
L 277.500427 207.586039 
L 278.40894 205.307573 
L 279.248247 202.783457 
L 279.866626 200.243091 
L 280.26202 197.686324 
L 280.440139 195.113575 
L 280.407522 192.525325 
L 280.169909 189.921997 
L 279.73319 187.304023 
L 279.12917 184.805032 
L 277.55946 179.928936 
L 271.54756 163.500182 
L 268.302774 154.246015 
L 266.456183 149.627344 
L 264.370784 145.132146 
L 261.975706 140.797062 
L 260.64178 138.700037 
L 259.207542 136.654877 
L 257.598245 134.564028 
L 255.897424 132.568086 
L 252.249025 128.832077 
L 248.324368 125.382534 
L 244.178973 122.161887 
L 239.999653 119.27838 
L 235.645875 116.715932 
L 233.384229 115.590688 
L 231.055412 114.589058 
L 228.65198 113.724744 
L 226.139379 112.998501 
L 223.60805 112.448045 
L 221.059564 112.058649 
L 218.495573 111.814783 
L 215.91766 111.701614 
L 210.72564 111.815021 
L 205.626154 112.316076 
L 200.606282 113.184706 
L 195.6708 114.442968 
L 193.236968 115.228657 
L 190.827074 116.124867 
L 186.234106 118.198462 
L 181.865381 120.640349 
L 177.704584 123.423732 
L 173.739721 126.528912 
L 169.857054 130.04685 
L 166.27862 133.83003 
L 163.008561 137.88206 
L 161.493225 140.012429 
L 160.062603 142.216654 
L 158.724225 144.501471 
L 157.517043 146.838186 
L 156.455596 149.232554 
L 155.554516 151.69036 
L 154.827676 154.217094 
L 154.286725 156.817363 
L 153.918107 159.583101 
L 153.753758 162.348199 
L 153.852858 167.877054 
L 154.432534 178.759229 
L 154.679632 191.718529 
L 155.155363 196.882398 
L 155.573789 199.454822 
L 156.158825 202.152699 
L 156.904011 204.791267 
L 157.801272 207.373518 
L 158.838341 209.903992 
L 160.000397 212.38818 
L 162.600722 217.216968 
L 166.61013 224.361266 
L 168.792092 229.020566 
L 170.670516 233.797335 
L 172.329276 238.659114 
L 173.805962 243.58883 
L 174.424144 246.074336 
L 174.899898 248.577669 
L 175.183413 251.10506 
L 175.227582 253.662408 
L 174.988737 256.255176 
L 174.418743 258.996598 
L 173.512534 261.604426 
L 172.328752 264.10196 
L 170.914783 266.50803 
L 169.281695 268.855926 
L 167.4635 271.029019 
L 165.431799 273.000488 
L 163.147339 274.733266 
L 160.228485 276.422618 
L 157.466637 277.189499 
L 154.793165 277.437143 
L 152.183736 277.308506 
L 149.625944 276.876485 
L 147.112064 276.186468 
L 144.636417 275.27182 
L 142.194098 274.161353 
L 139.78027 272.883495 
L 135.017673 269.945528 
L 130.468091 266.750693 
L 126.132338 263.291513 
L 124.066334 261.435983 
L 122.080824 259.480941 
L 120.188292 257.422473 
L 118.410051 255.281322 
L 116.740161 253.061786 
L 115.171793 250.768806 
L 112.314361 245.980789 
L 110.079926 241.476127 
L 108.140749 236.853301 
L 106.500267 232.110936 
L 105.098171 226.991223 
L 104.509921 224.269955 
L 103.664308 218.769558 
L 103.234741 213.267569 
L 102.554814 197.444246 
L 101.376729 182.286295 
L 101.226702 176.937375 
L 101.304768 171.831577 
L 101.570637 166.983784 
L 102.221307 159.729167 
L 103.02214 151.818554 
L 103.351154 146.527279 
L 103.663417 132.905455 
L 103.960046 130.079818 
L 104.4256 127.293995 
L 105.068675 124.55001 
L 105.892 121.848508 
L 106.896044 119.189599 
L 108.059577 116.624922 
L 109.364733 114.147097 
L 110.793954 111.745354 
L 113.957935 107.129243 
L 117.396965 102.743226 
L 120.997049 98.554761 
L 124.737252 94.492612 
L 128.601419 90.542216 
L 132.37754 87.015743 
L 134.353491 85.379099 
L 136.414543 83.865032 
L 138.580408 82.501929 
L 140.869995 81.31703 
L 143.301376 80.336363 
L 145.779344 79.627609 
L 148.267922 79.167783 
L 150.765142 78.910695 
L 153.269209 78.814242 
L 158.291135 78.944947 
L 163.320453 79.249065 
L 163.320453 79.249065 
" clip-path="url(#p20fcb6a737)" style="fill: none; stroke: #ebb120; stroke-width: 3; stroke-linecap: square"/>
   </g>
   <g id="patch_3">
    <path d="M 59.40208 381.453658 
L 59.40208 10.8 
" style="fill: none; stroke: #000000; stroke-width: 0.8; stroke-linejoin: miter; stroke-linecap: square"/>
   </g>
   <g id="patch_4">
    <path d="M 563.723324 381.453658 
L 563.723324 10.8 
" style="fill: none; stroke: #000000; stroke-width: 0.8; stroke-linejoin: miter; stroke-linecap: square"/>
   </g>
   <g id="patch_5">
    <path d="M 59.40208 381.453658 
L 563.723324 381.453658 
" style="fill: none; stroke: #000000; stroke-width: 0.8; stroke-linejoin: miter; stroke-linecap: square"/>
   </g>
   <g id="patch_6">
    <path d="M 59.40208 10.8 
L 563.723324 10.8 
" style="fill: none; stroke: #000000; stroke-width: 0.8; stroke-linejoin: miter; stroke-linecap: square"/>
   </g>
   <g id="legend_1">
    <g id="patch_7">
     <path d="M 422.02403 106.422979 
L 553.223324 106.422979 
Q 556.223324 106.422979 556.223324 103.422979 
L 556.223324 21.3 
Q 556.223324 18.3 553.223324 18.3 
L 422.02403 18.3 
Q 419.02403 18.3 419.02403 21.3 
L 419.02403 103.422979 
Q 419.02403 106.422979 422.02403 106.422979 
z
" style="fill: #ffffff; opacity: 0.8; stroke: #cccccc; stroke-linejoin: miter"/>
    </g>
    <g id="line2d_29">
     <defs>
      <path id="mcf559e43f7" d="M 0 3.5 
C 0.928211 3.5 1.81853 3.131218 2.474874 2.474874 
C 3.131218 1.81853 3.5 0.928211 3.5 0 
C 3.5 -0.928211 3.131218 -1.81853 2.474874 -2.474874 
C 1.81853 -3.131218 0.928211 -3.5 0 -3.5 
C -0.928211 -3.5 -1.81853 -3.131218 -2.474874 -2.474874 
C -3.131218 -1.81853 -3.5 -0.928211 -3.5 0 
C -3.5 0.928211 -3.131218 1.81853 -2.474874 2.474874 
C -1.81853 3.131218 -0.928211 3.5 0 3.5 
z
" style="stroke: #000000"/>
     </defs>
     <g>
      <use xlink:href="#mcf559e43f7" x="440.02403" y="29.55" style="stroke: #000000"/>
     </g>
    </g>
    <g id="text_16">
     <!-- Largest error -->
     <g transform="translate(467.02403 34.8)scale(0.15 -0.15)">
      <defs>
       <path id="CMR17-4c" d="M 3469 1615 
L 3354 1615 
C 3302 983 3219 166 2125 166 
L 1530 166 
C 1274 166 1261 197 1261 414 
L 1261 3898 
C 1261 4129 1274 4192 1760 4192 
L 1901 4192 
L 1901 4352 
C 1638 4352 1331 4352 1069 4352 
C 870 4352 512 4352 326 4352 
L 326 4192 
C 768 4192 838 4192 838 3905 
L 838 452 
C 838 166 768 166 326 166 
L 326 0 
L 3315 0 
L 3469 1615 
z
" transform="scale(0.015625)"/>
       <path id="CMR17-61" d="M 2304 1653 
C 2304 2072 2304 2294 2035 2543 
C 1798 2752 1523 2816 1306 2816 
C 800 2816 435 2407 435 1971 
C 435 1728 627 1728 666 1728 
C 749 1728 896 1778 896 1954 
C 896 2112 774 2181 666 2181 
C 640 2181 608 2174 589 2168 
C 723 2592 1069 2714 1293 2714 
C 1613 2714 1965 2429 1965 1885 
L 1965 1600 
C 1587 1600 1133 1549 774 1357 
C 371 1133 256 813 256 570 
C 256 77 832 -64 1171 -64 
C 1523 -64 1850 139 1990 511 
C 2003 233 2182 -18 2464 -18 
C 2598 -18 2938 70 2938 567 
L 2938 920 
L 2822 920 
L 2822 562 
C 2822 178 2650 128 2566 128 
C 2304 128 2304 458 2304 738 
L 2304 1653 
z
M 1965 870 
C 1965 317 1568 38 1216 38 
C 896 38 646 275 646 570 
C 646 761 730 1100 1101 1305 
C 1408 1478 1760 1504 1965 1504 
L 1965 870 
z
" transform="scale(0.015625)"/>
       <path id="CMR17-72" d="M 960 1497 
C 960 2112 1222 2688 1702 2688 
C 1747 2688 1792 2682 1837 2662 
C 1837 2662 1696 2617 1696 2452 
C 1696 2298 1818 2234 1914 2234 
C 1990 2234 2131 2279 2131 2458 
C 2131 2663 1926 2790 1709 2790 
C 1222 2790 1011 2317 947 2093 
L 941 2093 
L 941 2790 
L 198 2720 
L 198 2554 
C 576 2554 634 2515 634 2208 
L 634 428 
C 634 184 608 153 198 153 
L 198 -13 
C 352 0 646 0 813 0 
C 998 0 1325 0 1498 -13 
L 1498 153 
C 1037 153 960 153 960 440 
L 960 1497 
z
" transform="scale(0.015625)"/>
       <path id="CMR17-67" d="M 710 1164 
C 832 1068 1043 960 1299 960 
C 1805 960 2240 1357 2240 1888 
C 2240 2054 2189 2310 1997 2509 
C 2176 2692 2438 2752 2586 2752 
C 2611 2752 2650 2752 2682 2734 
C 2656 2728 2598 2703 2598 2605 
C 2598 2527 2656 2471 2739 2471 
C 2835 2471 2886 2533 2886 2614 
C 2886 2731 2790 2854 2586 2854 
C 2330 2854 2106 2738 1926 2580 
C 1734 2753 1504 2816 1299 2816 
C 794 2816 358 2419 358 1888 
C 358 1522 570 1292 634 1228 
C 442 1004 442 743 442 711 
C 442 545 506 302 723 168 
C 390 85 128 -169 128 -486 
C 128 -943 736 -1280 1466 -1280 
C 2170 -1280 2803 -956 2803 -479 
C 2803 384 1856 384 1363 384 
C 1216 384 954 384 922 391 
C 723 423 589 602 589 826 
C 589 883 589 1024 710 1164 
z
M 1299 1068 
C 736 1068 736 1760 736 1889 
C 736 2016 736 2708 1299 2708 
C 1862 2708 1862 2016 1862 1889 
C 1862 1760 1862 1068 1299 1068 
z
M 1466 -1171 
C 826 -1171 384 -835 384 -486 
C 384 -289 493 -105 634 -4 
C 794 104 858 104 1293 104 
C 1818 104 2547 104 2547 -486 
C 2547 -835 2106 -1171 1466 -1171 
z
" transform="scale(0.015625)"/>
       <path id="CMR17-65" d="M 2438 1472 
C 2464 1498 2464 1511 2464 1576 
C 2464 2238 2118 2816 1389 2816 
C 710 2816 173 2169 173 1383 
C 173 551 781 -64 1459 -64 
C 2176 -64 2458 607 2458 740 
C 2458 784 2419 784 2406 784 
C 2362 784 2355 771 2330 696 
C 2189 265 1837 51 1504 51 
C 1229 51 954 203 781 480 
C 582 803 582 1176 582 1472 
L 2438 1472 
z
M 589 1568 
C 634 2505 1126 2714 1382 2714 
C 1818 2714 2112 2297 2118 1568 
L 589 1568 
z
" transform="scale(0.015625)"/>
       <path id="CMR17-73" d="M 1978 2697 
C 1978 2813 1971 2819 1933 2819 
C 1907 2819 1901 2813 1824 2717 
C 1805 2691 1747 2626 1728 2601 
C 1523 2819 1235 2819 1126 2819 
C 416 2819 160 2447 160 2076 
C 160 1498 813 1365 998 1325 
C 1402 1243 1542 1217 1677 1101 
C 1760 1025 1901 884 1901 654 
C 1901 384 1747 38 1158 38 
C 602 38 403 460 288 1021 
C 269 1110 269 1117 218 1117 
C 166 1117 160 1110 160 983 
L 160 63 
C 160 -51 166 -58 205 -58 
C 237 -58 243 -51 275 0 
C 314 57 410 211 448 276 
C 576 103 800 -64 1158 -64 
C 1792 -64 2131 283 2131 784 
C 2131 1112 1958 1285 1875 1362 
C 1683 1561 1459 1606 1190 1657 
C 838 1735 390 1825 390 2217 
C 390 2383 480 2737 1126 2737 
C 1811 2737 1850 2094 1862 1888 
C 1869 1856 1901 1849 1920 1849 
C 1978 1849 1978 1869 1978 1978 
L 1978 2697 
z
" transform="scale(0.015625)"/>
       <path id="CMR17-74" d="M 966 2560 
L 1862 2560 
L 1862 2725 
L 966 2725 
L 966 3904 
L 851 3904 
C 838 3245 614 2668 70 2668 
L 70 2560 
L 627 2560 
L 627 771 
C 627 650 627 -64 1370 -64 
C 1747 -64 1965 306 1965 777 
L 1965 1140 
L 1850 1140 
L 1850 783 
C 1850 344 1677 51 1408 51 
C 1222 51 966 178 966 758 
L 966 2560 
z
" transform="scale(0.015625)"/>
       <path id="CMR17-6f" d="M 2758 1356 
C 2758 2176 2163 2816 1466 2816 
C 768 2816 173 2176 173 1356 
C 173 551 768 -64 1466 -64 
C 2163 -64 2758 551 2758 1356 
z
M 1466 51 
C 1165 51 909 230 762 480 
C 602 767 582 1126 582 1408 
C 582 1677 595 2010 762 2298 
C 890 2509 1139 2714 1466 2714 
C 1754 2714 1997 2554 2150 2330 
C 2349 2029 2349 1607 2349 1408 
C 2349 1158 2336 775 2163 467 
C 1984 173 1709 51 1466 51 
z
" transform="scale(0.015625)"/>
      </defs>
      <use xlink:href="#CMR17-4c" transform="scale(0.996264)"/>
      <use xlink:href="#CMR17-61" transform="translate(57.381408 0)scale(0.996264)"/>
      <use xlink:href="#CMR17-72" transform="translate(103.071885 0)scale(0.996264)"/>
      <use xlink:href="#CMR17-67" transform="translate(138.352653 0)scale(0.996264)"/>
      <use xlink:href="#CMR17-65" transform="translate(184.04313 0)scale(0.996264)"/>
      <use xlink:href="#CMR17-73" transform="translate(224.52879 0)scale(0.996264)"/>
      <use xlink:href="#CMR17-74" transform="translate(260.330128 0)scale(0.996264)"/>
      <use xlink:href="#CMR17-65" transform="translate(325.686862 0)scale(0.996264)"/>
      <use xlink:href="#CMR17-72" transform="translate(366.172523 0)scale(0.996264)"/>
      <use xlink:href="#CMR17-72" transform="translate(401.45329 0)scale(0.996264)"/>
      <use xlink:href="#CMR17-6f" transform="translate(436.734058 0)scale(0.996264)"/>
      <use xlink:href="#CMR17-72" transform="translate(482.424535 0)scale(0.996264)"/>
     </g>
    </g>
    <g id="line2d_30">
     <g>
      <use xlink:href="#mcbbede710e" x="440.02403" y="50.455745" style="fill: #d95319; stroke: #d95319"/>
     </g>
    </g>
    <g id="text_17">
     <!-- Left cones -->
     <g transform="translate(467.02403 55.705745)scale(0.15 -0.15)">
      <defs>
       <path id="CMR17-66" d="M 979 2560 
L 1709 2560 
L 1709 2725 
L 966 2725 
L 966 3494 
C 966 4022 1235 4352 1510 4352 
C 1594 4352 1690 4327 1754 4282 
C 1702 4269 1568 4225 1568 4067 
C 1568 3901 1696 3850 1786 3850 
C 1875 3850 2003 3901 2003 4067 
C 2003 4308 1773 4454 1517 4454 
C 1152 4454 653 4156 653 3481 
L 653 2725 
L 141 2725 
L 141 2560 
L 653 2560 
L 653 427 
C 653 184 627 153 218 153 
L 218 -13 
C 371 0 666 0 832 0 
C 1018 0 1344 0 1517 -13 
L 1517 153 
C 1056 153 979 153 979 439 
L 979 2560 
z
" transform="scale(0.015625)"/>
       <path id="CMR17-63" d="M 2234 2240 
C 2112 2240 1933 2240 1933 2017 
C 1933 1838 2080 1787 2163 1787 
C 2208 1787 2394 1807 2394 2024 
C 2394 2467 1958 2803 1466 2803 
C 787 2803 211 2178 211 1363 
C 211 516 813 -64 1466 -64 
C 2259 -64 2458 677 2458 748 
C 2458 774 2451 793 2406 793 
C 2362 793 2355 787 2330 703 
C 2163 180 1798 51 1523 51 
C 1114 51 621 427 621 1369 
C 621 2338 1094 2688 1472 2688 
C 1722 2688 2093 2573 2234 2240 
z
" transform="scale(0.015625)"/>
       <path id="CMR17-6e" d="M 2656 1933 
C 2656 2259 2592 2790 1837 2790 
C 1331 2790 1069 2400 973 2144 
L 966 2144 
L 966 2790 
L 211 2720 
L 211 2554 
C 589 2554 646 2515 646 2208 
L 646 428 
C 646 184 621 153 211 153 
L 211 -13 
C 365 0 646 0 813 0 
C 979 0 1267 0 1421 -13 
L 1421 153 
C 1011 153 986 178 986 428 
L 986 1658 
C 986 2247 1344 2688 1792 2688 
C 2266 2688 2317 2266 2317 1958 
L 2317 428 
C 2317 184 2291 153 1882 153 
L 1882 -13 
C 2035 0 2317 0 2483 0 
C 2650 0 2938 0 3091 -13 
L 3091 153 
C 2682 153 2656 178 2656 428 
L 2656 1933 
z
" transform="scale(0.015625)"/>
      </defs>
      <use xlink:href="#CMR17-4c" transform="scale(0.996264)"/>
      <use xlink:href="#CMR17-65" transform="translate(57.381408 0)scale(0.996264)"/>
      <use xlink:href="#CMR17-66" transform="translate(97.867068 0)scale(0.996264)"/>
      <use xlink:href="#CMR17-74" transform="translate(125.340581 0)scale(0.996264)"/>
      <use xlink:href="#CMR17-63" transform="translate(190.697315 0)scale(0.996264)"/>
      <use xlink:href="#CMR17-6f" transform="translate(231.182975 0)scale(0.996264)"/>
      <use xlink:href="#CMR17-6e" transform="translate(276.873452 0)scale(0.996264)"/>
      <use xlink:href="#CMR17-65" transform="translate(327.768822 0)scale(0.996264)"/>
      <use xlink:href="#CMR17-73" transform="translate(368.254483 0)scale(0.996264)"/>
     </g>
    </g>
    <g id="line2d_31">
     <defs>
      <path id="m14d8f2de65" d="M 0 2 
C 0.530406 2 1.03916 1.789267 1.414214 1.414214 
C 1.789267 1.03916 2 0.530406 2 0 
C 2 -0.530406 1.789267 -1.03916 1.414214 -1.414214 
C 1.03916 -1.789267 0.530406 -2 0 -2 
C -0.530406 -2 -1.03916 -1.789267 -1.414214 -1.414214 
C -1.789267 -1.03916 -2 -0.530406 -2 0 
C -2 0.530406 -1.789267 1.03916 -1.414214 1.414214 
C -1.03916 1.789267 -0.530406 2 0 2 
z
" style="stroke: #0072bd"/>
     </defs>
     <g>
      <use xlink:href="#m14d8f2de65" x="440.02403" y="71.361489" style="fill: #0072bd; stroke: #0072bd"/>
     </g>
    </g>
    <g id="text_18">
     <!-- Right cones -->
     <g transform="translate(467.02403 76.611489)scale(0.15 -0.15)">
      <defs>
       <path id="CMR17-52" d="M 2509 2146 
C 3117 2268 3629 2676 3629 3186 
C 3629 3785 2950 4326 2054 4326 
L 333 4326 
L 333 4160 
C 774 4160 845 4160 845 3873 
L 845 415 
C 845 128 774 128 333 128 
L 333 -26 
C 518 -26 851 -26 1050 -26 
C 1248 -26 1581 -26 1766 -26 
L 1766 128 
C 1325 128 1254 128 1254 417 
L 1254 2112 
L 2003 2112 
C 2368 2112 2573 1964 2662 1881 
C 2918 1632 2918 1459 2918 1024 
C 2918 595 2918 377 3110 160 
C 3354 -102 3680 -128 3821 -128 
C 4294 -128 4365 396 4365 503 
C 4365 540 4365 585 4307 585 
C 4256 585 4250 547 4250 522 
C 4218 112 4032 -26 3834 -26 
C 3482 -26 3443 375 3405 764 
C 3386 898 3373 993 3360 1133 
C 3322 1452 3270 1917 2509 2146 
z
M 1984 2214 
L 1254 2214 
L 1254 3913 
C 1254 4129 1267 4160 1523 4160 
L 1990 4160 
C 2522 4160 3142 3977 3142 3190 
C 3142 2372 2464 2214 1984 2214 
z
" transform="scale(0.015625)"/>
       <path id="CMR17-69" d="M 992 3909 
C 992 4049 877 4170 730 4170 
C 589 4170 467 4056 467 3909 
C 467 3769 582 3648 730 3648 
C 870 3648 992 3763 992 3909 
z
M 243 2706 
L 243 2541 
C 602 2541 653 2502 653 2197 
L 653 427 
C 653 184 627 153 218 153 
L 218 -13 
C 371 0 646 0 806 0 
C 960 0 1222 0 1370 -13 
L 1370 153 
C 992 153 979 191 979 420 
L 979 2776 
L 243 2706 
z
" transform="scale(0.015625)"/>
       <path id="CMR17-68" d="M 2656 1933 
C 2656 2259 2592 2790 1837 2790 
C 1312 2790 1056 2368 979 2157 
L 973 2157 
L 973 4396 
L 211 4326 
L 211 4160 
C 589 4160 646 4122 646 3817 
L 646 426 
C 646 184 621 153 211 153 
L 211 -13 
C 365 0 646 0 813 0 
C 979 0 1267 0 1421 -13 
L 1421 153 
C 1011 153 986 178 986 428 
L 986 1658 
C 986 2247 1344 2688 1792 2688 
C 2266 2688 2317 2266 2317 1958 
L 2317 428 
C 2317 184 2291 153 1882 153 
L 1882 -13 
C 2035 0 2317 0 2483 0 
C 2650 0 2938 0 3091 -13 
L 3091 153 
C 2682 153 2656 178 2656 428 
L 2656 1933 
z
" transform="scale(0.015625)"/>
      </defs>
      <use xlink:href="#CMR17-52" transform="scale(0.996264)"/>
      <use xlink:href="#CMR17-69" transform="translate(67.791102 0)scale(0.996264)"/>
      <use xlink:href="#CMR17-67" transform="translate(92.66216 0)scale(0.996264)"/>
      <use xlink:href="#CMR17-68" transform="translate(138.352638 0)scale(0.996264)"/>
      <use xlink:href="#CMR17-74" transform="translate(186.645553 0)scale(0.996264)"/>
      <use xlink:href="#CMR17-63" transform="translate(252.002288 0)scale(0.996264)"/>
      <use xlink:href="#CMR17-6f" transform="translate(292.487948 0)scale(0.996264)"/>
      <use xlink:href="#CMR17-6e" transform="translate(338.178425 0)scale(0.996264)"/>
      <use xlink:href="#CMR17-65" transform="translate(389.073795 0)scale(0.996264)"/>
      <use xlink:href="#CMR17-73" transform="translate(429.559455 0)scale(0.996264)"/>
     </g>
    </g>
    <g id="line2d_32">
     <path d="M 425.02403 92.267234 
L 440.02403 92.267234 
L 455.02403 92.267234 
" style="fill: none; stroke: #ebb120; stroke-width: 3; stroke-linecap: square"/>
    </g>
    <g id="text_19">
     <!-- CO-Fixed -->
     <g transform="translate(467.02403 97.517234)scale(0.15 -0.15)">
      <defs>
       <path id="CMR17-43" d="M 3974 4289 
C 3974 4403 3968 4410 3930 4410 
C 3904 4410 3898 4403 3853 4327 
L 3571 3792 
C 3258 4187 2874 4416 2381 4416 
C 1286 4416 294 3456 294 2148 
C 294 826 1286 -128 2387 -128 
C 3366 -128 3974 730 3974 1461 
C 3974 1524 3974 1550 3917 1550 
C 3866 1550 3866 1531 3859 1474 
C 3808 585 3168 38 2477 38 
C 1824 38 781 495 781 2147 
C 781 3805 1843 4250 2464 4250 
C 3187 4250 3712 3628 3834 2745 
C 3846 2668 3846 2655 3904 2655 
C 3974 2655 3974 2668 3974 2783 
L 3974 4289 
z
" transform="scale(0.015625)"/>
       <path id="CMR17-4f" d="M 4307 2135 
C 4307 3437 3366 4416 2304 4416 
C 1216 4416 294 3424 294 2135 
C 294 845 1229 -128 2298 -128 
C 3392 -128 4307 864 4307 2135 
z
M 2304 -13 
C 1574 -13 781 711 781 2217 
C 781 3716 1651 4301 2298 4301 
C 2976 4301 3821 3698 3821 2217 
C 3821 686 3008 -13 2304 -13 
z
" transform="scale(0.015625)"/>
       <path id="CMR17-2d" d="M 1632 1216 
L 1632 1496 
L 26 1496 
L 26 1216 
L 1632 1216 
z
" transform="scale(0.015625)"/>
       <path id="CMR17-46" d="M 3482 4325 
L 326 4325 
L 326 4160 
C 768 4160 838 4160 838 3874 
L 838 446 
C 838 160 768 160 326 160 
L 326 0 
C 512 0 870 0 1069 0 
C 1331 0 1638 0 1901 0 
L 1901 160 
L 1760 160 
C 1274 160 1261 223 1261 452 
L 1261 2075 
L 1837 2075 
C 2432 2075 2490 1865 2490 1332 
L 2605 1332 
L 2605 2987 
L 2490 2987 
C 2490 2450 2432 2240 1837 2240 
L 1261 2240 
L 1261 3911 
C 1261 4128 1274 4160 1530 4160 
L 2355 4160 
C 3322 4160 3430 3765 3520 2916 
L 3635 2916 
L 3482 4325 
z
" transform="scale(0.015625)"/>
       <path id="CMR17-78" d="M 1664 1477 
C 1856 1726 2074 2006 2253 2216 
C 2464 2458 2707 2560 2989 2560 
L 2989 2726 
C 2880 2726 2656 2726 2541 2726 
C 2368 2726 2170 2726 2022 2732 
L 2022 2566 
C 2112 2553 2163 2489 2163 2400 
C 2163 2285 2099 2215 2067 2171 
L 1594 1573 
L 1030 2306 
C 973 2376 973 2388 973 2420 
C 973 2497 1037 2560 1146 2560 
L 1146 2732 
C 992 2726 717 2726 557 2726 
C 384 2726 179 2726 38 2732 
L 38 2560 
C 384 2560 461 2534 614 2343 
L 1350 1395 
C 1363 1382 1395 1344 1395 1325 
C 1395 1299 838 619 768 530 
C 480 185 179 160 6 160 
L 6 0 
C 115 0 339 0 454 0 
C 582 0 864 0 979 -6 
L 979 160 
C 941 166 838 179 838 325 
C 838 440 890 510 947 586 
L 1478 1236 
L 2035 512 
C 2086 442 2163 346 2163 301 
C 2163 211 2086 160 1984 160 
L 1984 -6 
C 2138 0 2413 0 2573 0 
C 2746 0 2950 0 3091 -6 
L 3091 160 
C 2771 160 2675 172 2522 370 
L 1664 1477 
z
" transform="scale(0.015625)"/>
       <path id="CMR17-64" d="M 1869 4326 
L 1869 4160 
C 2246 4160 2304 4122 2304 3820 
L 2304 2345 
C 2278 2377 2016 2790 1498 2790 
C 845 2790 211 2208 211 1364 
C 211 525 806 -64 1434 -64 
C 1978 -64 2259 337 2291 380 
L 2291 -63 
L 3066 -63 
L 3066 128 
C 2688 128 2630 166 2630 473 
L 2630 4396 
L 1869 4326 
z
M 2291 755 
C 2291 563 2176 390 2029 262 
C 1811 70 1594 38 1472 38 
C 1286 38 621 134 621 1356 
C 621 2612 1363 2688 1530 2688 
C 1824 2688 2061 2522 2208 2291 
C 2291 2157 2291 2138 2291 2023 
L 2291 755 
z
" transform="scale(0.015625)"/>
      </defs>
      <use xlink:href="#CMR17-43" transform="scale(0.996264)"/>
      <use xlink:href="#CMR17-4f" transform="translate(66.509881 0)scale(0.996264)"/>
      <use xlink:href="#CMR17-2d" transform="translate(138.224669 0)scale(0.996264)"/>
      <use xlink:href="#CMR17-46" transform="translate(168.300635 0)scale(0.996264)"/>
      <use xlink:href="#CMR17-69" transform="translate(228.284482 0)scale(0.996264)"/>
      <use xlink:href="#CMR17-78" transform="translate(253.15554 0)scale(0.996264)"/>
      <use xlink:href="#CMR17-65" transform="translate(301.448456 0)scale(0.996264)"/>
      <use xlink:href="#CMR17-64" transform="translate(341.934117 0)scale(0.996264)"/>
     </g>
    </g>
   </g>
   <g id="line2d_33">
    <g clip-path="url(#p20fcb6a737)">
     <use xlink:href="#mcf559e43f7" x="163.147339" y="274.733266" style="stroke: #000000"/>
    </g>
   </g>
   <g id="line2d_34">
    <g clip-path="url(#p20fcb6a737)">
     <use xlink:href="#m14d8f2de65" x="165.834039" y="79.37594" style="fill: #0072bd; stroke: #0072bd"/>
     <use xlink:href="#m14d8f2de65" x="187.974754" y="78.658957" style="fill: #0072bd; stroke: #0072bd"/>
     <use xlink:href="#m14d8f2de65" x="210.115469" y="77.941974" style="fill: #0072bd; stroke: #0072bd"/>
     <use xlink:href="#m14d8f2de65" x="231.691291" y="77.883276" style="fill: #0072bd; stroke: #0072bd"/>
     <use xlink:href="#m14d8f2de65" x="259.194903" y="78.41963" style="fill: #0072bd; stroke: #0072bd"/>
     <use xlink:href="#m14d8f2de65" x="281.816233" y="78.108678" style="fill: #0072bd; stroke: #0072bd"/>
     <use xlink:href="#m14d8f2de65" x="306.30827" y="78.282425" style="fill: #0072bd; stroke: #0072bd"/>
     <use xlink:href="#m14d8f2de65" x="331.996242" y="78.168966" style="fill: #0072bd; stroke: #0072bd"/>
     <use xlink:href="#m14d8f2de65" x="348.920626" y="85.710222" style="fill: #0072bd; stroke: #0072bd"/>
     <use xlink:href="#m14d8f2de65" x="358.905736" y="93.272888" style="fill: #0072bd; stroke: #0072bd"/>
     <use xlink:href="#m14d8f2de65" x="368.145738" y="104.904696" style="fill: #0072bd; stroke: #0072bd"/>
     <use xlink:href="#m14d8f2de65" x="374.127607" y="117.262194" style="fill: #0072bd; stroke: #0072bd"/>
     <use xlink:href="#m14d8f2de65" x="373.629852" y="133.653831" style="fill: #0072bd; stroke: #0072bd"/>
     <use xlink:href="#m14d8f2de65" x="370.617792" y="143.209987" style="fill: #0072bd; stroke: #0072bd"/>
     <use xlink:href="#m14d8f2de65" x="364.456049" y="157.062678" style="fill: #0072bd; stroke: #0072bd"/>
     <use xlink:href="#m14d8f2de65" x="358.622374" y="172.012188" style="fill: #0072bd; stroke: #0072bd"/>
     <use xlink:href="#m14d8f2de65" x="357.187547" y="183.438347" style="fill: #0072bd; stroke: #0072bd"/>
     <use xlink:href="#m14d8f2de65" x="362.487682" y="195.924964" style="fill: #0072bd; stroke: #0072bd"/>
     <use xlink:href="#m14d8f2de65" x="369.065234" y="211.442221" style="fill: #0072bd; stroke: #0072bd"/>
     <use xlink:href="#m14d8f2de65" x="375.709139" y="226.688352" style="fill: #0072bd; stroke: #0072bd"/>
     <use xlink:href="#m14d8f2de65" x="386.216845" y="241.269101" style="fill: #0072bd; stroke: #0072bd"/>
     <use xlink:href="#m14d8f2de65" x="400.802734" y="254.474473" style="fill: #0072bd; stroke: #0072bd"/>
     <use xlink:href="#m14d8f2de65" x="420.32569" y="257.663406" style="fill: #0072bd; stroke: #0072bd"/>
     <use xlink:href="#m14d8f2de65" x="435.426121" y="254.036764" style="fill: #0072bd; stroke: #0072bd"/>
     <use xlink:href="#m14d8f2de65" x="450.646215" y="251.300198" style="fill: #0072bd; stroke: #0072bd"/>
     <use xlink:href="#m14d8f2de65" x="464.74901" y="249.135831" style="fill: #0072bd; stroke: #0072bd"/>
     <use xlink:href="#m14d8f2de65" x="480.545836" y="249.547827" style="fill: #0072bd; stroke: #0072bd"/>
     <use xlink:href="#m14d8f2de65" x="495.618045" y="254.362065" style="fill: #0072bd; stroke: #0072bd"/>
     <use xlink:href="#m14d8f2de65" x="504.465697" y="264.405053" style="fill: #0072bd; stroke: #0072bd"/>
     <use xlink:href="#m14d8f2de65" x="508.654109" y="275.013481" style="fill: #0072bd; stroke: #0072bd"/>
     <use xlink:href="#m14d8f2de65" x="512.821748" y="287.303741" style="fill: #0072bd; stroke: #0072bd"/>
     <use xlink:href="#m14d8f2de65" x="505.777622" y="301.863853" style="fill: #0072bd; stroke: #0072bd"/>
     <use xlink:href="#m14d8f2de65" x="496.76223" y="311.920779" style="fill: #0072bd; stroke: #0072bd"/>
     <use xlink:href="#m14d8f2de65" x="481.152615" y="314.268075" style="fill: #0072bd; stroke: #0072bd"/>
     <use xlink:href="#m14d8f2de65" x="462.724814" y="311.828115" style="fill: #0072bd; stroke: #0072bd"/>
     <use xlink:href="#m14d8f2de65" x="440.904477" y="307.866054" style="fill: #0072bd; stroke: #0072bd"/>
     <use xlink:href="#m14d8f2de65" x="422.981355" y="304.62063" style="fill: #0072bd; stroke: #0072bd"/>
     <use xlink:href="#m14d8f2de65" x="406.182458" y="301.876418" style="fill: #0072bd; stroke: #0072bd"/>
     <use xlink:href="#m14d8f2de65" x="388.726726" y="298.770006" style="fill: #0072bd; stroke: #0072bd"/>
     <use xlink:href="#m14d8f2de65" x="374.922788" y="296.810771" style="fill: #0072bd; stroke: #0072bd"/>
     <use xlink:href="#m14d8f2de65" x="355.511918" y="293.644364" style="fill: #0072bd; stroke: #0072bd"/>
     <use xlink:href="#m14d8f2de65" x="332.595724" y="290.206194" style="fill: #0072bd; stroke: #0072bd"/>
     <use xlink:href="#m14d8f2de65" x="317.081034" y="287.690405" style="fill: #0072bd; stroke: #0072bd"/>
     <use xlink:href="#m14d8f2de65" x="299.893602" y="280.924984" style="fill: #0072bd; stroke: #0072bd"/>
     <use xlink:href="#m14d8f2de65" x="286.727452" y="266.984809" style="fill: #0072bd; stroke: #0072bd"/>
     <use xlink:href="#m14d8f2de65" x="277.24176" y="254.977213" style="fill: #0072bd; stroke: #0072bd"/>
     <use xlink:href="#m14d8f2de65" x="270.484659" y="238.462355" style="fill: #0072bd; stroke: #0072bd"/>
     <use xlink:href="#m14d8f2de65" x="272.357788" y="218.707389" style="fill: #0072bd; stroke: #0072bd"/>
     <use xlink:href="#m14d8f2de65" x="278.40894" y="205.307573" style="fill: #0072bd; stroke: #0072bd"/>
     <use xlink:href="#m14d8f2de65" x="279.73319" y="187.304023" style="fill: #0072bd; stroke: #0072bd"/>
     <use xlink:href="#m14d8f2de65" x="274.825833" y="172.742539" style="fill: #0072bd; stroke: #0072bd"/>
     <use xlink:href="#m14d8f2de65" x="268.302774" y="154.246015" style="fill: #0072bd; stroke: #0072bd"/>
     <use xlink:href="#m14d8f2de65" x="259.207542" y="136.654877" style="fill: #0072bd; stroke: #0072bd"/>
     <use xlink:href="#m14d8f2de65" x="244.178973" y="122.161887" style="fill: #0072bd; stroke: #0072bd"/>
     <use xlink:href="#m14d8f2de65" x="228.65198" y="113.724744" style="fill: #0072bd; stroke: #0072bd"/>
     <use xlink:href="#m14d8f2de65" x="210.72564" y="111.815021" style="fill: #0072bd; stroke: #0072bd"/>
     <use xlink:href="#m14d8f2de65" x="190.827074" y="116.124867" style="fill: #0072bd; stroke: #0072bd"/>
     <use xlink:href="#m14d8f2de65" x="173.739721" y="126.528912" style="fill: #0072bd; stroke: #0072bd"/>
     <use xlink:href="#m14d8f2de65" x="160.062603" y="142.216654" style="fill: #0072bd; stroke: #0072bd"/>
     <use xlink:href="#m14d8f2de65" x="154.286725" y="156.817363" style="fill: #0072bd; stroke: #0072bd"/>
     <use xlink:href="#m14d8f2de65" x="154.347356" y="176.169253" style="fill: #0072bd; stroke: #0072bd"/>
     <use xlink:href="#m14d8f2de65" x="155.573789" y="199.454822" style="fill: #0072bd; stroke: #0072bd"/>
     <use xlink:href="#m14d8f2de65" x="161.268806" y="214.832983" style="fill: #0072bd; stroke: #0072bd"/>
     <use xlink:href="#m14d8f2de65" x="166.61013" y="224.361266" style="fill: #0072bd; stroke: #0072bd"/>
     <use xlink:href="#m14d8f2de65" x="173.093866" y="241.115078" style="fill: #0072bd; stroke: #0072bd"/>
     <use xlink:href="#m14d8f2de65" x="174.988737" y="256.255176" style="fill: #0072bd; stroke: #0072bd"/>
     <use xlink:href="#m14d8f2de65" x="170.914783" y="266.50803" style="fill: #0072bd; stroke: #0072bd"/>
     <use xlink:href="#m14d8f2de65" x="163.147339" y="274.733266" style="fill: #0072bd; stroke: #0072bd"/>
     <use xlink:href="#m14d8f2de65" x="135.017673" y="269.945528" style="fill: #0072bd; stroke: #0072bd"/>
     <use xlink:href="#m14d8f2de65" x="122.080824" y="259.480941" style="fill: #0072bd; stroke: #0072bd"/>
     <use xlink:href="#m14d8f2de65" x="112.314361" y="245.980789" style="fill: #0072bd; stroke: #0072bd"/>
     <use xlink:href="#m14d8f2de65" x="105.796048" y="229.693321" style="fill: #0072bd; stroke: #0072bd"/>
     <use xlink:href="#m14d8f2de65" x="103.400077" y="215.991629" style="fill: #0072bd; stroke: #0072bd"/>
     <use xlink:href="#m14d8f2de65" x="102.878243" y="202.359658" style="fill: #0072bd; stroke: #0072bd"/>
     <use xlink:href="#m14d8f2de65" x="101.719358" y="187.628258" style="fill: #0072bd; stroke: #0072bd"/>
     <use xlink:href="#m14d8f2de65" x="101.23646" y="174.259853" style="fill: #0072bd; stroke: #0072bd"/>
     <use xlink:href="#m14d8f2de65" x="102.221307" y="159.729167" style="fill: #0072bd; stroke: #0072bd"/>
     <use xlink:href="#m14d8f2de65" x="103.351154" y="146.527279" style="fill: #0072bd; stroke: #0072bd"/>
     <use xlink:href="#m14d8f2de65" x="103.663417" y="132.905455" style="fill: #0072bd; stroke: #0072bd"/>
     <use xlink:href="#m14d8f2de65" x="106.896044" y="119.189599" style="fill: #0072bd; stroke: #0072bd"/>
     <use xlink:href="#m14d8f2de65" x="115.661748" y="104.895896" style="fill: #0072bd; stroke: #0072bd"/>
     <use xlink:href="#m14d8f2de65" x="128.601419" y="90.542216" style="fill: #0072bd; stroke: #0072bd"/>
     <use xlink:href="#m14d8f2de65" x="143.301376" y="80.336363" style="fill: #0072bd; stroke: #0072bd"/>
    </g>
   </g>
  </g>
 </g>
 <defs>
  <clipPath id="p20fcb6a737">
   <rect x="59.40208" y="10.8" width="504.321244" height="370.653658"/>
  </clipPath>
 </defs>
</svg>
