<?xml version="1.0" encoding="utf-8" standalone="no"?>
<!DOCTYPE svg PUBLIC "-//W3C//DTD SVG 1.1//EN"
  "http://www.w3.org/Graphics/SVG/1.1/DTD/svg11.dtd">
<svg xmlns:xlink="http://www.w3.org/1999/xlink" width="576pt" height="432pt" viewBox="0 0 576 432" xmlns="http://www.w3.org/2000/svg" version="1.1">
 <metadata>
  <rdf:RDF xmlns:dc="http://purl.org/dc/elements/1.1/" xmlns:cc="http://creativecommons.org/ns#" xmlns:rdf="http://www.w3.org/1999/02/22-rdf-syntax-ns#">
   <cc:Work>
    <dc:type rdf:resource="http://purl.org/dc/dcmitype/StillImage"/>
    <dc:date>2022-04-19T12:14:15.928574</dc:date>
    <dc:format>image/svg+xml</dc:format>
    <dc:creator>
     <cc:Agent>
      <dc:title>Matplotlib v3.5.1, https://matplotlib.org/</dc:title>
     </cc:Agent>
    </dc:creator>
   </cc:Work>
  </rdf:RDF>
 </metadata>
 <defs>
  <style type="text/css">*{stroke-linejoin: round; stroke-linecap: butt}</style>
 </defs>
 <g id="figure_1">
  <g id="patch_1">
   <path d="M 0 432 
L 576 432 
L 576 0 
L 0 0 
z
" style="fill: #ffffff"/>
  </g>
  <g id="axes_1">
   <g id="patch_2">
    <path d="M 54.420745 381.453658 
L 558.834961 381.453658 
L 558.834961 10.8 
L 54.420745 10.8 
z
" style="fill: #ffffff"/>
   </g>
   <g id="matplotlib.axis_1">
    <g id="xtick_1">
     <g id="line2d_1">
      <path d="M 54.420745 381.453658 
L 54.420745 10.8 
" clip-path="url(#pecef80d226)" style="fill: none; stroke-dasharray: 2.96,1.28; stroke-dashoffset: 0; stroke: #b0b0b0; stroke-width: 0.8"/>
     </g>
     <g id="line2d_2">
      <defs>
       <path id="mf7346ff206" d="M 0 0 
L 0 3.5 
" style="stroke: #000000; stroke-width: 0.8"/>
      </defs>
      <g>
       <use xlink:href="#mf7346ff206" x="54.420745" y="381.453658" style="stroke: #000000; stroke-width: 0.8"/>
      </g>
     </g>
     <g id="text_1">
      <!-- $\mathdefault{0.0}$ -->
      <g transform="translate(48.055705 395.372156)scale(0.1 -0.1)">
       <defs>
        <path id="CMR17-30" d="M 2688 2025 
C 2688 2416 2682 3080 2413 3591 
C 2176 4039 1798 4198 1466 4198 
C 1158 4198 768 4058 525 3597 
C 269 3118 243 2524 243 2025 
C 243 1661 250 1106 448 619 
C 723 -39 1216 -128 1466 -128 
C 1760 -128 2208 -7 2470 600 
C 2662 1042 2688 1559 2688 2025 
z
M 1466 -26 
C 1056 -26 813 325 723 812 
C 653 1188 653 1738 653 2096 
C 653 2588 653 2997 736 3387 
C 858 3929 1216 4096 1466 4096 
C 1728 4096 2067 3923 2189 3400 
C 2272 3036 2278 2607 2278 2096 
C 2278 1680 2278 1169 2202 792 
C 2067 95 1690 -26 1466 -26 
z
" transform="scale(0.015625)"/>
        <path id="CMMI12-3a" d="M 1178 307 
C 1178 492 1024 619 870 619 
C 685 619 557 466 557 313 
C 557 128 710 0 864 0 
C 1050 0 1178 153 1178 307 
z
" transform="scale(0.015625)"/>
       </defs>
       <use xlink:href="#CMR17-30" transform="scale(0.996264)"/>
       <use xlink:href="#CMMI12-3a" transform="translate(45.690477 0)scale(0.996264)"/>
       <use xlink:href="#CMR17-30" transform="translate(72.787654 0)scale(0.996264)"/>
      </g>
     </g>
    </g>
    <g id="xtick_2">
     <g id="line2d_3">
      <path d="M 155.303588 381.453658 
L 155.303588 10.8 
" clip-path="url(#pecef80d226)" style="fill: none; stroke-dasharray: 2.96,1.28; stroke-dashoffset: 0; stroke: #b0b0b0; stroke-width: 0.8"/>
     </g>
     <g id="line2d_4">
      <g>
       <use xlink:href="#mf7346ff206" x="155.303588" y="381.453658" style="stroke: #000000; stroke-width: 0.8"/>
      </g>
     </g>
     <g id="text_2">
      <!-- $\mathdefault{0.2}$ -->
      <g transform="translate(148.938548 395.372156)scale(0.1 -0.1)">
       <defs>
        <path id="CMR17-32" d="M 2669 989 
L 2554 989 
C 2490 536 2438 459 2413 420 
C 2381 369 1920 369 1830 369 
L 602 369 
C 832 619 1280 1072 1824 1597 
C 2214 1967 2669 2402 2669 3035 
C 2669 3790 2067 4224 1395 4224 
C 691 4224 262 3604 262 3030 
C 262 2780 448 2748 525 2748 
C 589 2748 781 2787 781 3010 
C 781 3207 614 3264 525 3264 
C 486 3264 448 3258 422 3245 
C 544 3790 915 4058 1306 4058 
C 1862 4058 2227 3617 2227 3035 
C 2227 2479 1901 2000 1536 1584 
L 262 146 
L 262 0 
L 2515 0 
L 2669 989 
z
" transform="scale(0.015625)"/>
       </defs>
       <use xlink:href="#CMR17-30" transform="scale(0.996264)"/>
       <use xlink:href="#CMMI12-3a" transform="translate(45.690477 0)scale(0.996264)"/>
       <use xlink:href="#CMR17-32" transform="translate(72.787654 0)scale(0.996264)"/>
      </g>
     </g>
    </g>
    <g id="xtick_3">
     <g id="line2d_5">
      <path d="M 256.186431 381.453658 
L 256.186431 10.8 
" clip-path="url(#pecef80d226)" style="fill: none; stroke-dasharray: 2.96,1.28; stroke-dashoffset: 0; stroke: #b0b0b0; stroke-width: 0.8"/>
     </g>
     <g id="line2d_6">
      <g>
       <use xlink:href="#mf7346ff206" x="256.186431" y="381.453658" style="stroke: #000000; stroke-width: 0.8"/>
      </g>
     </g>
     <g id="text_3">
      <!-- $\mathdefault{0.4}$ -->
      <g transform="translate(249.821392 395.372156)scale(0.1 -0.1)">
       <defs>
        <path id="CMR17-34" d="M 2150 4122 
C 2150 4256 2144 4256 2029 4256 
L 128 1254 
L 128 1088 
L 1779 1088 
L 1779 457 
C 1779 224 1766 160 1318 160 
L 1197 160 
L 1197 0 
C 1402 0 1747 0 1965 0 
C 2182 0 2528 0 2733 0 
L 2733 160 
L 2611 160 
C 2163 160 2150 224 2150 457 
L 2150 1088 
L 2803 1088 
L 2803 1254 
L 2150 1254 
L 2150 4122 
z
M 1798 3703 
L 1798 1254 
L 256 1254 
L 1798 3703 
z
" transform="scale(0.015625)"/>
       </defs>
       <use xlink:href="#CMR17-30" transform="scale(0.996264)"/>
       <use xlink:href="#CMMI12-3a" transform="translate(45.690477 0)scale(0.996264)"/>
       <use xlink:href="#CMR17-34" transform="translate(72.787654 0)scale(0.996264)"/>
      </g>
     </g>
    </g>
    <g id="xtick_4">
     <g id="line2d_7">
      <path d="M 357.069274 381.453658 
L 357.069274 10.8 
" clip-path="url(#pecef80d226)" style="fill: none; stroke-dasharray: 2.96,1.28; stroke-dashoffset: 0; stroke: #b0b0b0; stroke-width: 0.8"/>
     </g>
     <g id="line2d_8">
      <g>
       <use xlink:href="#mf7346ff206" x="357.069274" y="381.453658" style="stroke: #000000; stroke-width: 0.8"/>
      </g>
     </g>
     <g id="text_4">
      <!-- $\mathdefault{0.6}$ -->
      <g transform="translate(350.704235 395.372156)scale(0.1 -0.1)">
       <defs>
        <path id="CMR17-36" d="M 678 2176 
C 678 3690 1395 4032 1811 4032 
C 1946 4032 2272 4009 2400 3776 
C 2298 3776 2106 3776 2106 3553 
C 2106 3381 2246 3323 2336 3323 
C 2394 3323 2566 3348 2566 3560 
C 2566 3954 2246 4179 1805 4179 
C 1043 4179 243 3390 243 1984 
C 243 253 966 -128 1478 -128 
C 2099 -128 2688 427 2688 1283 
C 2688 2081 2170 2662 1517 2662 
C 1126 2662 838 2407 678 1960 
L 678 2176 
z
M 1478 25 
C 691 25 691 1200 691 1436 
C 691 1896 909 2560 1504 2560 
C 1613 2560 1926 2560 2138 2120 
C 2253 1870 2253 1609 2253 1289 
C 2253 944 2253 690 2118 434 
C 1978 171 1773 25 1478 25 
z
" transform="scale(0.015625)"/>
       </defs>
       <use xlink:href="#CMR17-30" transform="scale(0.996264)"/>
       <use xlink:href="#CMMI12-3a" transform="translate(45.690477 0)scale(0.996264)"/>
       <use xlink:href="#CMR17-36" transform="translate(72.787654 0)scale(0.996264)"/>
      </g>
     </g>
    </g>
    <g id="xtick_5">
     <g id="line2d_9">
      <path d="M 457.952117 381.453658 
L 457.952117 10.8 
" clip-path="url(#pecef80d226)" style="fill: none; stroke-dasharray: 2.96,1.28; stroke-dashoffset: 0; stroke: #b0b0b0; stroke-width: 0.8"/>
     </g>
     <g id="line2d_10">
      <g>
       <use xlink:href="#mf7346ff206" x="457.952117" y="381.453658" style="stroke: #000000; stroke-width: 0.8"/>
      </g>
     </g>
     <g id="text_5">
      <!-- $\mathdefault{0.8}$ -->
      <g transform="translate(451.587078 395.372156)scale(0.1 -0.1)">
       <defs>
        <path id="CMR17-38" d="M 1741 2264 
C 2144 2467 2554 2773 2554 3263 
C 2554 3841 1990 4179 1472 4179 
C 890 4179 378 3759 378 3180 
C 378 3021 416 2747 666 2505 
C 730 2442 998 2251 1171 2130 
C 883 1983 211 1634 211 934 
C 211 279 838 -128 1459 -128 
C 2144 -128 2720 362 2720 1010 
C 2720 1590 2330 1857 2074 2029 
L 1741 2264 
z
M 902 2822 
C 851 2854 595 3051 595 3351 
C 595 3739 998 4032 1459 4032 
C 1965 4032 2336 3676 2336 3262 
C 2336 2669 1670 2331 1638 2331 
C 1632 2331 1626 2331 1574 2370 
L 902 2822 
z
M 2080 1519 
C 2176 1449 2483 1240 2483 851 
C 2483 381 2010 25 1472 25 
C 890 25 448 438 448 940 
C 448 1443 838 1862 1280 2060 
L 2080 1519 
z
" transform="scale(0.015625)"/>
       </defs>
       <use xlink:href="#CMR17-30" transform="scale(0.996264)"/>
       <use xlink:href="#CMMI12-3a" transform="translate(45.690477 0)scale(0.996264)"/>
       <use xlink:href="#CMR17-38" transform="translate(72.787654 0)scale(0.996264)"/>
      </g>
     </g>
    </g>
    <g id="xtick_6">
     <g id="line2d_11">
      <path d="M 558.834961 381.453658 
L 558.834961 10.8 
" clip-path="url(#pecef80d226)" style="fill: none; stroke-dasharray: 2.96,1.28; stroke-dashoffset: 0; stroke: #b0b0b0; stroke-width: 0.8"/>
     </g>
     <g id="line2d_12">
      <g>
       <use xlink:href="#mf7346ff206" x="558.834961" y="381.453658" style="stroke: #000000; stroke-width: 0.8"/>
      </g>
     </g>
     <g id="text_6">
      <!-- $\mathdefault{1.0}$ -->
      <g transform="translate(552.469921 395.372156)scale(0.1 -0.1)">
       <defs>
        <path id="CMR17-31" d="M 1702 4058 
C 1702 4192 1696 4192 1606 4192 
C 1357 3916 979 3827 621 3827 
C 602 3827 570 3827 563 3808 
C 557 3795 557 3782 557 3648 
C 755 3648 1088 3686 1344 3839 
L 1344 461 
C 1344 236 1331 160 781 160 
L 589 160 
L 589 0 
C 896 0 1216 0 1523 0 
C 1830 0 2150 0 2458 0 
L 2458 160 
L 2266 160 
C 1715 160 1702 230 1702 458 
L 1702 4058 
z
" transform="scale(0.015625)"/>
       </defs>
       <use xlink:href="#CMR17-31" transform="scale(0.996264)"/>
       <use xlink:href="#CMMI12-3a" transform="translate(45.690477 0)scale(0.996264)"/>
       <use xlink:href="#CMR17-30" transform="translate(72.787654 0)scale(0.996264)"/>
      </g>
     </g>
    </g>
    <g id="text_7">
     <!-- Curve length ($\%$) -->
     <g transform="translate(237.1665 416.235356)scale(0.2 -0.2)">
      <defs>
       <path id="CMR17-43" d="M 3974 4289 
C 3974 4403 3968 4410 3930 4410 
C 3904 4410 3898 4403 3853 4327 
L 3571 3792 
C 3258 4187 2874 4416 2381 4416 
C 1286 4416 294 3456 294 2148 
C 294 826 1286 -128 2387 -128 
C 3366 -128 3974 730 3974 1461 
C 3974 1524 3974 1550 3917 1550 
C 3866 1550 3866 1531 3859 1474 
C 3808 585 3168 38 2477 38 
C 1824 38 781 495 781 2147 
C 781 3805 1843 4250 2464 4250 
C 3187 4250 3712 3628 3834 2745 
C 3846 2668 3846 2655 3904 2655 
C 3974 2655 3974 2668 3974 2783 
L 3974 4289 
z
" transform="scale(0.015625)"/>
       <path id="CMR17-75" d="M 1882 2693 
L 1882 2528 
C 2259 2528 2317 2489 2317 2186 
L 2317 1032 
C 2317 500 2029 38 1555 38 
C 1030 38 986 348 986 678 
L 986 2763 
L 211 2693 
L 211 2528 
C 467 2528 640 2528 646 2274 
L 646 1058 
C 646 633 646 361 813 183 
C 896 101 1056 -64 1517 -64 
C 2061 -64 2272 377 2323 506 
L 2330 506 
L 2330 -63 
L 3091 -63 
L 3091 128 
C 2714 128 2656 166 2656 473 
L 2656 2763 
L 1882 2693 
z
" transform="scale(0.015625)"/>
       <path id="CMR17-72" d="M 960 1497 
C 960 2112 1222 2688 1702 2688 
C 1747 2688 1792 2682 1837 2662 
C 1837 2662 1696 2617 1696 2452 
C 1696 2298 1818 2234 1914 2234 
C 1990 2234 2131 2279 2131 2458 
C 2131 2663 1926 2790 1709 2790 
C 1222 2790 1011 2317 947 2093 
L 941 2093 
L 941 2790 
L 198 2720 
L 198 2554 
C 576 2554 634 2515 634 2208 
L 634 428 
C 634 184 608 153 198 153 
L 198 -13 
C 352 0 646 0 813 0 
C 998 0 1325 0 1498 -13 
L 1498 153 
C 1037 153 960 153 960 440 
L 960 1497 
z
" transform="scale(0.015625)"/>
       <path id="CMR17-76" d="M 2502 2163 
C 2560 2304 2662 2560 3034 2560 
L 3034 2726 
C 2912 2726 2752 2726 2630 2726 
C 2496 2726 2285 2726 2157 2732 
L 2157 2566 
C 2317 2553 2406 2477 2406 2311 
C 2406 2253 2406 2240 2368 2151 
L 1664 377 
L 902 2286 
C 864 2369 864 2381 864 2407 
C 864 2560 1075 2560 1171 2560 
L 1171 2732 
C 1018 2726 736 2726 576 2726 
C 403 2726 205 2726 64 2732 
L 64 2560 
C 307 2560 442 2560 518 2362 
L 1446 44 
C 1485 -51 1491 -64 1549 -64 
C 1606 -64 1613 -51 1651 44 
L 2502 2163 
z
" transform="scale(0.015625)"/>
       <path id="CMR17-65" d="M 2438 1472 
C 2464 1498 2464 1511 2464 1576 
C 2464 2238 2118 2816 1389 2816 
C 710 2816 173 2169 173 1383 
C 173 551 781 -64 1459 -64 
C 2176 -64 2458 607 2458 740 
C 2458 784 2419 784 2406 784 
C 2362 784 2355 771 2330 696 
C 2189 265 1837 51 1504 51 
C 1229 51 954 203 781 480 
C 582 803 582 1176 582 1472 
L 2438 1472 
z
M 589 1568 
C 634 2505 1126 2714 1382 2714 
C 1818 2714 2112 2297 2118 1568 
L 589 1568 
z
" transform="scale(0.015625)"/>
       <path id="CMR17-6c" d="M 979 4396 
L 218 4326 
L 218 4160 
C 595 4160 653 4122 653 3817 
L 653 426 
C 653 184 627 153 218 153 
L 218 -13 
C 371 0 653 0 813 0 
C 979 0 1261 0 1414 -13 
L 1414 153 
C 1005 153 979 178 979 426 
L 979 4396 
z
" transform="scale(0.015625)"/>
       <path id="CMR17-6e" d="M 2656 1933 
C 2656 2259 2592 2790 1837 2790 
C 1331 2790 1069 2400 973 2144 
L 966 2144 
L 966 2790 
L 211 2720 
L 211 2554 
C 589 2554 646 2515 646 2208 
L 646 428 
C 646 184 621 153 211 153 
L 211 -13 
C 365 0 646 0 813 0 
C 979 0 1267 0 1421 -13 
L 1421 153 
C 1011 153 986 178 986 428 
L 986 1658 
C 986 2247 1344 2688 1792 2688 
C 2266 2688 2317 2266 2317 1958 
L 2317 428 
C 2317 184 2291 153 1882 153 
L 1882 -13 
C 2035 0 2317 0 2483 0 
C 2650 0 2938 0 3091 -13 
L 3091 153 
C 2682 153 2656 178 2656 428 
L 2656 1933 
z
" transform="scale(0.015625)"/>
       <path id="CMR17-67" d="M 710 1164 
C 832 1068 1043 960 1299 960 
C 1805 960 2240 1357 2240 1888 
C 2240 2054 2189 2310 1997 2509 
C 2176 2692 2438 2752 2586 2752 
C 2611 2752 2650 2752 2682 2734 
C 2656 2728 2598 2703 2598 2605 
C 2598 2527 2656 2471 2739 2471 
C 2835 2471 2886 2533 2886 2614 
C 2886 2731 2790 2854 2586 2854 
C 2330 2854 2106 2738 1926 2580 
C 1734 2753 1504 2816 1299 2816 
C 794 2816 358 2419 358 1888 
C 358 1522 570 1292 634 1228 
C 442 1004 442 743 442 711 
C 442 545 506 302 723 168 
C 390 85 128 -169 128 -486 
C 128 -943 736 -1280 1466 -1280 
C 2170 -1280 2803 -956 2803 -479 
C 2803 384 1856 384 1363 384 
C 1216 384 954 384 922 391 
C 723 423 589 602 589 826 
C 589 883 589 1024 710 1164 
z
M 1299 1068 
C 736 1068 736 1760 736 1889 
C 736 2016 736 2708 1299 2708 
C 1862 2708 1862 2016 1862 1889 
C 1862 1760 1862 1068 1299 1068 
z
M 1466 -1171 
C 826 -1171 384 -835 384 -486 
C 384 -289 493 -105 634 -4 
C 794 104 858 104 1293 104 
C 1818 104 2547 104 2547 -486 
C 2547 -835 2106 -1171 1466 -1171 
z
" transform="scale(0.015625)"/>
       <path id="CMR17-74" d="M 966 2560 
L 1862 2560 
L 1862 2725 
L 966 2725 
L 966 3904 
L 851 3904 
C 838 3245 614 2668 70 2668 
L 70 2560 
L 627 2560 
L 627 771 
C 627 650 627 -64 1370 -64 
C 1747 -64 1965 306 1965 777 
L 1965 1140 
L 1850 1140 
L 1850 783 
C 1850 344 1677 51 1408 51 
C 1222 51 966 178 966 758 
L 966 2560 
z
" transform="scale(0.015625)"/>
       <path id="CMR17-68" d="M 2656 1933 
C 2656 2259 2592 2790 1837 2790 
C 1312 2790 1056 2368 979 2157 
L 973 2157 
L 973 4396 
L 211 4326 
L 211 4160 
C 589 4160 646 4122 646 3817 
L 646 426 
C 646 184 621 153 211 153 
L 211 -13 
C 365 0 646 0 813 0 
C 979 0 1267 0 1421 -13 
L 1421 153 
C 1011 153 986 178 986 428 
L 986 1658 
C 986 2247 1344 2688 1792 2688 
C 2266 2688 2317 2266 2317 1958 
L 2317 428 
C 2317 184 2291 153 1882 153 
L 1882 -13 
C 2035 0 2317 0 2483 0 
C 2650 0 2938 0 3091 -13 
L 3091 153 
C 2682 153 2656 178 2656 428 
L 2656 1933 
z
" transform="scale(0.015625)"/>
       <path id="CMR17-28" d="M 1958 -1561 
C 1958 -1555 1958 -1542 1939 -1523 
C 1645 -1224 858 -407 858 1581 
C 858 3569 1632 4379 1946 4697 
C 1946 4704 1958 4717 1958 4736 
C 1958 4755 1939 4768 1914 4768 
C 1843 4768 1299 4296 986 3594 
C 666 2887 576 2199 576 1588 
C 576 1128 621 351 1005 -471 
C 1312 -1135 1837 -1600 1914 -1600 
C 1946 -1600 1958 -1587 1958 -1561 
z
" transform="scale(0.015625)"/>
       <path id="CMR17-25" d="M 4640 959 
C 4640 1698 4275 2240 3846 2240 
C 3411 2240 2970 1736 2970 959 
C 2970 183 3405 -320 3846 -320 
C 4275 -320 4640 215 4640 959 
z
M 3853 -218 
C 3686 -218 3270 -66 3270 959 
C 3270 1991 3686 2138 3853 2138 
C 4205 2138 4525 1634 4525 959 
C 4525 285 4205 -218 3853 -218 
z
M 4083 4577 
C 4128 4647 4134 4653 4134 4685 
C 4134 4761 4077 4800 4026 4800 
C 3962 4800 3936 4756 3891 4706 
C 3520 4190 3008 4134 2746 4134 
C 2106 4134 1715 4494 1594 4607 
C 1510 4682 1389 4800 1171 4800 
C 736 4800 294 4296 294 3519 
C 294 2743 730 2240 1171 2240 
C 1600 2240 1965 2778 1965 3527 
C 1965 3969 1830 4270 1811 4308 
C 2202 4064 2586 4032 2752 4032 
C 3162 4032 3456 4183 3616 4289 
L 3622 4283 
L 858 -84 
C 800 -174 800 -187 800 -206 
C 800 -276 858 -320 915 -320 
C 973 -320 992 -289 1037 -218 
L 4083 4577 
z
M 1178 2342 
C 1011 2342 595 2494 595 3519 
C 595 4551 1011 4698 1178 4698 
C 1530 4698 1850 4194 1850 3519 
C 1850 2845 1530 2342 1178 2342 
z
" transform="scale(0.015625)"/>
       <path id="CMR17-29" d="M 1683 1581 
C 1683 2040 1638 2817 1254 3639 
C 947 4303 422 4768 346 4768 
C 326 4768 301 4761 301 4729 
C 301 4717 307 4710 314 4697 
C 621 4378 1402 3568 1402 1584 
C 1402 -407 627 -1217 314 -1537 
C 307 -1549 301 -1556 301 -1568 
C 301 -1600 326 -1600 346 -1600 
C 416 -1600 960 -1128 1274 -426 
C 1594 281 1683 969 1683 1581 
z
" transform="scale(0.015625)"/>
      </defs>
      <use xlink:href="#CMR17-43" transform="scale(0.996264)"/>
      <use xlink:href="#CMR17-75" transform="translate(66.509881 0)scale(0.996264)"/>
      <use xlink:href="#CMR17-72" transform="translate(117.40525 0)scale(0.996264)"/>
      <use xlink:href="#CMR17-76" transform="translate(152.686018 0)scale(0.996264)"/>
      <use xlink:href="#CMR17-65" transform="translate(198.37648 0)scale(0.996264)"/>
      <use xlink:href="#CMR17-6c" transform="translate(268.938107 0)scale(0.996264)"/>
      <use xlink:href="#CMR17-65" transform="translate(293.809165 0)scale(0.996264)"/>
      <use xlink:href="#CMR17-6e" transform="translate(334.294826 0)scale(0.996264)"/>
      <use xlink:href="#CMR17-67" transform="translate(385.190196 0)scale(0.996264)"/>
      <use xlink:href="#CMR17-74" transform="translate(430.880673 0)scale(0.996264)"/>
      <use xlink:href="#CMR17-68" transform="translate(466.16144 0)scale(0.996264)"/>
      <use xlink:href="#CMR17-28" transform="translate(547.132777 0)scale(0.996264)"/>
      <use xlink:href="#CMR17-25" transform="translate(582.413544 0)scale(0.996264)"/>
      <use xlink:href="#CMR17-29" transform="translate(659.333134 0)scale(0.996264)"/>
     </g>
    </g>
   </g>
   <g id="matplotlib.axis_2">
    <g id="ytick_1">
     <g id="line2d_13">
      <path d="M 54.420745 339.667408 
L 558.834961 339.667408 
" clip-path="url(#pecef80d226)" style="fill: none; stroke-dasharray: 2.96,1.28; stroke-dashoffset: 0; stroke: #b0b0b0; stroke-width: 0.8"/>
     </g>
     <g id="line2d_14">
      <defs>
       <path id="me75d9590ef" d="M 0 0 
L -3.5 0 
" style="stroke: #000000; stroke-width: 0.8"/>
      </defs>
      <g>
       <use xlink:href="#me75d9590ef" x="54.420745" y="339.667408" style="stroke: #000000; stroke-width: 0.8"/>
      </g>
     </g>
     <g id="text_8">
      <!-- $\mathdefault{−5}$ -->
      <g transform="translate(34.690666 343.126657)scale(0.1 -0.1)">
       <defs>
        <path id="CMSY10-0" d="M 4218 1472 
C 4326 1472 4442 1472 4442 1600 
C 4442 1728 4326 1728 4218 1728 
L 755 1728 
C 646 1728 531 1728 531 1600 
C 531 1472 646 1472 755 1472 
L 4218 1472 
z
" transform="scale(0.015625)"/>
        <path id="CMR17-35" d="M 730 3692 
C 794 3666 1056 3584 1325 3584 
C 1920 3584 2246 3911 2432 4100 
C 2432 4157 2432 4192 2394 4192 
C 2387 4192 2374 4192 2323 4163 
C 2099 4058 1837 3973 1517 3973 
C 1325 3973 1037 3999 723 4139 
C 653 4171 640 4171 634 4171 
C 602 4171 595 4164 595 4037 
L 595 2203 
C 595 2089 595 2057 659 2057 
C 691 2057 704 2070 736 2114 
C 941 2401 1222 2522 1542 2522 
C 1766 2522 2246 2382 2246 1289 
C 2246 1085 2246 715 2054 421 
C 1894 159 1645 25 1370 25 
C 947 25 518 320 403 814 
C 429 807 480 795 506 795 
C 589 795 749 840 749 1038 
C 749 1210 627 1280 506 1280 
C 358 1280 262 1190 262 1011 
C 262 454 704 -128 1382 -128 
C 2042 -128 2669 440 2669 1264 
C 2669 2030 2170 2624 1549 2624 
C 1222 2624 947 2503 730 2274 
L 730 3692 
z
" transform="scale(0.015625)"/>
       </defs>
       <use xlink:href="#CMSY10-0" transform="scale(0.996264)"/>
       <use xlink:href="#CMR17-35" transform="translate(77.487468 0)scale(0.996264)"/>
      </g>
     </g>
    </g>
    <g id="ytick_2">
     <g id="line2d_15">
      <path d="M 54.420745 295.947301 
L 558.834961 295.947301 
" clip-path="url(#pecef80d226)" style="fill: none; stroke-dasharray: 2.96,1.28; stroke-dashoffset: 0; stroke: #b0b0b0; stroke-width: 0.8"/>
     </g>
     <g id="line2d_16">
      <g>
       <use xlink:href="#me75d9590ef" x="54.420745" y="295.947301" style="stroke: #000000; stroke-width: 0.8"/>
      </g>
     </g>
     <g id="text_9">
      <!-- $\mathdefault{0}$ -->
      <g transform="translate(42.439409 299.40655)scale(0.1 -0.1)">
       <use xlink:href="#CMR17-30" transform="scale(0.996264)"/>
      </g>
     </g>
    </g>
    <g id="ytick_3">
     <g id="line2d_17">
      <path d="M 54.420745 252.227194 
L 558.834961 252.227194 
" clip-path="url(#pecef80d226)" style="fill: none; stroke-dasharray: 2.96,1.28; stroke-dashoffset: 0; stroke: #b0b0b0; stroke-width: 0.8"/>
     </g>
     <g id="line2d_18">
      <g>
       <use xlink:href="#me75d9590ef" x="54.420745" y="252.227194" style="stroke: #000000; stroke-width: 0.8"/>
      </g>
     </g>
     <g id="text_10">
      <!-- $\mathdefault{5}$ -->
      <g transform="translate(42.439409 255.686443)scale(0.1 -0.1)">
       <use xlink:href="#CMR17-35" transform="scale(0.996264)"/>
      </g>
     </g>
    </g>
    <g id="ytick_4">
     <g id="line2d_19">
      <path d="M 54.420745 208.507086 
L 558.834961 208.507086 
" clip-path="url(#pecef80d226)" style="fill: none; stroke-dasharray: 2.96,1.28; stroke-dashoffset: 0; stroke: #b0b0b0; stroke-width: 0.8"/>
     </g>
     <g id="line2d_20">
      <g>
       <use xlink:href="#me75d9590ef" x="54.420745" y="208.507086" style="stroke: #000000; stroke-width: 0.8"/>
      </g>
     </g>
     <g id="text_11">
      <!-- $\mathdefault{10}$ -->
      <g transform="translate(37.458074 211.966336)scale(0.1 -0.1)">
       <use xlink:href="#CMR17-31" transform="scale(0.996264)"/>
       <use xlink:href="#CMR17-30" transform="translate(45.690477 0)scale(0.996264)"/>
      </g>
     </g>
    </g>
    <g id="ytick_5">
     <g id="line2d_21">
      <path d="M 54.420745 164.786979 
L 558.834961 164.786979 
" clip-path="url(#pecef80d226)" style="fill: none; stroke-dasharray: 2.96,1.28; stroke-dashoffset: 0; stroke: #b0b0b0; stroke-width: 0.8"/>
     </g>
     <g id="line2d_22">
      <g>
       <use xlink:href="#me75d9590ef" x="54.420745" y="164.786979" style="stroke: #000000; stroke-width: 0.8"/>
      </g>
     </g>
     <g id="text_12">
      <!-- $\mathdefault{15}$ -->
      <g transform="translate(37.458074 168.246228)scale(0.1 -0.1)">
       <use xlink:href="#CMR17-31" transform="scale(0.996264)"/>
       <use xlink:href="#CMR17-35" transform="translate(45.690477 0)scale(0.996264)"/>
      </g>
     </g>
    </g>
    <g id="ytick_6">
     <g id="line2d_23">
      <path d="M 54.420745 121.066872 
L 558.834961 121.066872 
" clip-path="url(#pecef80d226)" style="fill: none; stroke-dasharray: 2.96,1.28; stroke-dashoffset: 0; stroke: #b0b0b0; stroke-width: 0.8"/>
     </g>
     <g id="line2d_24">
      <g>
       <use xlink:href="#me75d9590ef" x="54.420745" y="121.066872" style="stroke: #000000; stroke-width: 0.8"/>
      </g>
     </g>
     <g id="text_13">
      <!-- $\mathdefault{20}$ -->
      <g transform="translate(37.458074 124.526121)scale(0.1 -0.1)">
       <use xlink:href="#CMR17-32" transform="scale(0.996264)"/>
       <use xlink:href="#CMR17-30" transform="translate(45.690477 0)scale(0.996264)"/>
      </g>
     </g>
    </g>
    <g id="ytick_7">
     <g id="line2d_25">
      <path d="M 54.420745 77.346765 
L 558.834961 77.346765 
" clip-path="url(#pecef80d226)" style="fill: none; stroke-dasharray: 2.96,1.28; stroke-dashoffset: 0; stroke: #b0b0b0; stroke-width: 0.8"/>
     </g>
     <g id="line2d_26">
      <g>
       <use xlink:href="#me75d9590ef" x="54.420745" y="77.346765" style="stroke: #000000; stroke-width: 0.8"/>
      </g>
     </g>
     <g id="text_14">
      <!-- $\mathdefault{25}$ -->
      <g transform="translate(37.458074 80.806014)scale(0.1 -0.1)">
       <use xlink:href="#CMR17-32" transform="scale(0.996264)"/>
       <use xlink:href="#CMR17-35" transform="translate(45.690477 0)scale(0.996264)"/>
      </g>
     </g>
    </g>
    <g id="ytick_8">
     <g id="line2d_27">
      <path d="M 54.420745 33.626658 
L 558.834961 33.626658 
" clip-path="url(#pecef80d226)" style="fill: none; stroke-dasharray: 2.96,1.28; stroke-dashoffset: 0; stroke: #b0b0b0; stroke-width: 0.8"/>
     </g>
     <g id="line2d_28">
      <g>
       <use xlink:href="#me75d9590ef" x="54.420745" y="33.626658" style="stroke: #000000; stroke-width: 0.8"/>
      </g>
     </g>
     <g id="text_15">
      <!-- $\mathdefault{30}$ -->
      <g transform="translate(37.458074 37.085907)scale(0.1 -0.1)">
       <defs>
        <path id="CMR17-33" d="M 1414 2157 
C 1984 2157 2234 1662 2234 1090 
C 2234 320 1824 25 1453 25 
C 1114 25 563 194 390 693 
C 422 680 454 680 486 680 
C 640 680 755 782 755 948 
C 755 1133 614 1216 486 1216 
C 378 1216 211 1165 211 926 
C 211 335 787 -128 1466 -128 
C 2176 -128 2720 430 2720 1085 
C 2720 1707 2208 2157 1600 2227 
C 2086 2328 2554 2756 2554 3329 
C 2554 3820 2048 4179 1472 4179 
C 890 4179 378 3829 378 3329 
C 378 3110 544 3072 627 3072 
C 762 3072 877 3155 877 3321 
C 877 3486 762 3569 627 3569 
C 602 3569 570 3569 544 3557 
C 730 3959 1235 4032 1459 4032 
C 1683 4032 2106 3925 2106 3320 
C 2106 3143 2080 2828 1862 2550 
C 1670 2304 1453 2304 1242 2284 
C 1210 2284 1062 2269 1037 2269 
C 992 2263 966 2257 966 2208 
C 966 2163 973 2157 1101 2157 
L 1414 2157 
z
" transform="scale(0.015625)"/>
       </defs>
       <use xlink:href="#CMR17-33" transform="scale(0.996264)"/>
       <use xlink:href="#CMR17-30" transform="translate(45.690477 0)scale(0.996264)"/>
      </g>
     </g>
    </g>
    <g id="text_16">
     <!-- Percent $s_{error}$ ($\%$) -->
     <g transform="translate(25.726022 268.011923)rotate(-90)scale(0.2 -0.2)">
      <defs>
       <path id="CMR17-50" d="M 1267 2042 
L 2291 2042 
C 3117 2042 3718 2578 3718 3184 
C 3718 3791 3130 4352 2291 4352 
L 333 4352 
L 333 4186 
C 774 4186 845 4186 845 3899 
L 845 446 
C 845 160 774 160 333 160 
L 333 0 
C 518 0 858 0 1056 0 
C 1254 0 1594 0 1779 0 
L 1779 160 
C 1338 160 1267 160 1267 446 
L 1267 2042 
z
M 1254 2176 
L 1254 3938 
C 1254 4155 1267 4186 1523 4186 
L 2170 4186 
C 2995 4186 3232 3714 3232 3184 
C 3232 2604 2950 2176 2170 2176 
L 1254 2176 
z
" transform="scale(0.015625)"/>
       <path id="CMR17-63" d="M 2234 2240 
C 2112 2240 1933 2240 1933 2017 
C 1933 1838 2080 1787 2163 1787 
C 2208 1787 2394 1807 2394 2024 
C 2394 2467 1958 2803 1466 2803 
C 787 2803 211 2178 211 1363 
C 211 516 813 -64 1466 -64 
C 2259 -64 2458 677 2458 748 
C 2458 774 2451 793 2406 793 
C 2362 793 2355 787 2330 703 
C 2163 180 1798 51 1523 51 
C 1114 51 621 427 621 1369 
C 621 2338 1094 2688 1472 2688 
C 1722 2688 2093 2573 2234 2240 
z
" transform="scale(0.015625)"/>
       <path id="CMMI12-73" d="M 1459 1280 
C 1568 1261 1741 1223 1779 1216 
C 1862 1192 2150 1090 2150 783 
C 2150 586 1971 70 1229 70 
C 1094 70 614 70 486 436 
C 742 404 870 603 870 745 
C 870 880 781 950 653 950 
C 512 950 326 841 326 552 
C 326 173 710 -64 1222 -64 
C 2195 -64 2483 651 2483 984 
C 2483 1079 2483 1258 2278 1462 
C 2118 1616 1965 1648 1619 1718 
C 1446 1756 1171 1814 1171 2101 
C 1171 2229 1286 2689 1894 2689 
C 2163 2689 2426 2589 2490 2368 
C 2208 2368 2195 2125 2195 2119 
C 2195 1984 2317 1946 2374 1946 
C 2464 1946 2643 2015 2643 2281 
C 2643 2545 2400 2816 1901 2816 
C 1062 2816 838 2160 838 1899 
C 838 1414 1312 1312 1459 1280 
z
" transform="scale(0.015625)"/>
       <path id="CMMI12-65" d="M 1146 1479 
C 1318 1479 1754 1479 2061 1595 
C 2547 1783 2592 2158 2592 2274 
C 2592 2558 2349 2816 1926 2816 
C 1254 2816 288 2210 288 1073 
C 288 402 672 -64 1254 -64 
C 2125 -64 2675 609 2675 692 
C 2675 730 2637 762 2611 762 
C 2592 762 2586 756 2528 699 
C 2118 159 1510 64 1267 64 
C 902 64 710 350 710 822 
C 710 911 710 1071 806 1479 
L 1146 1479 
z
M 838 1600 
C 1114 2592 1722 2689 1926 2689 
C 2208 2689 2400 2522 2400 2277 
C 2400 1600 1376 1600 1107 1600 
L 838 1600 
z
" transform="scale(0.015625)"/>
       <path id="CMMI12-72" d="M 2490 2612 
C 2291 2574 2189 2433 2189 2293 
C 2189 2139 2310 2088 2400 2088 
C 2579 2088 2726 2242 2726 2433 
C 2726 2638 2528 2816 2208 2816 
C 1952 2816 1658 2701 1389 2312 
C 1344 2650 1088 2816 832 2816 
C 582 2816 454 2625 378 2484 
C 269 2254 173 1871 173 1839 
C 173 1814 198 1782 243 1782 
C 294 1782 301 1788 339 1935 
C 435 2318 557 2689 813 2689 
C 966 2689 1011 2580 1011 2395 
C 1011 2254 947 2005 902 1807 
L 723 1118 
C 698 996 627 709 595 594 
C 550 428 480 128 480 96 
C 480 6 550 -64 646 -64 
C 717 -64 838 -19 877 109 
C 896 160 1133 1124 1171 1271 
C 1203 1411 1242 1546 1274 1686 
C 1299 1775 1325 1878 1344 1961 
C 1363 2018 1536 2331 1696 2472 
C 1773 2542 1939 2689 2202 2689 
C 2304 2689 2406 2670 2490 2612 
z
" transform="scale(0.015625)"/>
       <path id="CMMI12-6f" d="M 2918 1756 
C 2918 2363 2522 2816 1939 2816 
C 1094 2816 262 1897 262 996 
C 262 390 659 -64 1242 -64 
C 2093 -64 2918 856 2918 1756 
z
M 1248 64 
C 928 64 691 319 691 766 
C 691 1060 845 1712 1024 2031 
C 1312 2523 1670 2689 1933 2689 
C 2246 2689 2490 2433 2490 1986 
C 2490 1731 2355 1047 2112 658 
C 1850 230 1498 64 1248 64 
z
" transform="scale(0.015625)"/>
      </defs>
      <use xlink:href="#CMR17-50" transform="scale(0.996264)"/>
      <use xlink:href="#CMR17-65" transform="translate(59.983847 0)scale(0.996264)"/>
      <use xlink:href="#CMR17-72" transform="translate(100.469507 0)scale(0.996264)"/>
      <use xlink:href="#CMR17-63" transform="translate(135.750275 0)scale(0.996264)"/>
      <use xlink:href="#CMR17-65" transform="translate(176.235935 0)scale(0.996264)"/>
      <use xlink:href="#CMR17-6e" transform="translate(216.721596 0)scale(0.996264)"/>
      <use xlink:href="#CMR17-74" transform="translate(265.014512 0)scale(0.996264)"/>
      <use xlink:href="#CMMI12-73" transform="translate(330.371246 0)scale(0.996264)"/>
      <use xlink:href="#CMMI12-65" transform="translate(376.321293 -14.943915)scale(0.697382)"/>
      <use xlink:href="#CMMI12-72" transform="translate(407.96955 -14.943915)scale(0.697382)"/>
      <use xlink:href="#CMMI12-72" transform="translate(440.638818 -14.943915)scale(0.697382)"/>
      <use xlink:href="#CMMI12-6f" transform="translate(473.308087 -14.943915)scale(0.697382)"/>
      <use xlink:href="#CMMI12-72" transform="translate(506.134649 -14.943915)scale(0.697382)"/>
      <use xlink:href="#CMR17-28" transform="translate(569.378016 0)scale(0.996264)"/>
      <use xlink:href="#CMR17-25" transform="translate(604.658784 0)scale(0.996264)"/>
      <use xlink:href="#CMR17-29" transform="translate(681.578374 0)scale(0.996264)"/>
     </g>
    </g>
   </g>
   <g id="line2d_29">
    <path d="M 54.420745 334.767198 
L 55.287922 335.70889 
L 56.154122 336.215432 
L 57.019797 336.360477 
L 58.750919 336.142637 
L 60.48254 335.996475 
L 66.542247 336.341275 
L 69.138965 336.256752 
L 70.004597 256.458702 
L 74.746629 256.513238 
L 76.643451 256.403158 
L 77.591955 322.998989 
L 86.386088 322.808731 
L 87.265676 318.61582 
L 93.453311 318.590582 
L 94.337276 318.479429 
L 95.221358 248.231381 
L 98.092593 248.049135 
L 100.963839 248.216966 
L 101.920839 247.894407 
L 102.878174 247.110284 
L 103.836323 298.321868 
L 104.741324 297.54401 
L 105.647132 297.263265 
L 106.553232 297.659219 
L 108.363634 299.609571 
L 109.267299 299.905774 
L 110.170656 298.439963 
L 111.075534 293.987983 
L 111.985033 285.299862 
L 112.903548 260.034166 
L 113.848284 268.979851 
L 114.783737 272.901621 
L 115.715119 273.336878 
L 116.64605 271.69069 
L 117.578689 269.044245 
L 118.514075 266.047583 
L 119.45257 319.249025 
L 120.335853 320.694717 
L 121.217635 321.495112 
L 122.098586 320.951303 
L 122.980102 318.20042 
L 123.864473 326.687314 
L 124.740035 330.222922 
L 125.611929 331.415974 
L 126.482585 331.113333 
L 127.353554 330.027958 
L 128.22565 328.553622 
L 129.099276 233.757521 
L 130.071283 237.253167 
L 131.039661 239.810626 
L 132.005386 238.400837 
L 133.94935 220.692993 
L 134.934915 238.101444 
L 135.902414 244.057647 
L 136.863731 242.649419 
L 137.826509 237.041127 
L 138.795108 229.503283 
L 139.77153 320.56758 
L 140.653444 321.508766 
L 141.534381 321.489276 
L 142.415338 320.626426 
L 143.297191 313.606105 
L 144.18633 314.103746 
L 145.074952 314.15201 
L 146.852182 314.045816 
L 147.740864 314.11045 
L 148.62948 263.117523 
L 149.571016 263.670924 
L 150.511978 264.035549 
L 151.452562 264.10587 
L 152.393073 263.748028 
L 153.333955 262.609724 
L 154.276018 183.69392 
L 155.299981 192.21807 
L 156.315098 194.065345 
L 157.328298 178.310993 
L 158.357847 237.692677 
L 159.32577 250.204707 
L 160.280707 250.367185 
L 161.235476 247.827324 
L 162.192881 247.298139 
L 163.150835 352.831028 
L 163.999266 353.953171 
L 164.846532 354.487149 
L 165.693244 354.51561 
L 168.234107 353.81496 
L 169.081517 229.936273 
L 170.057489 230.337244 
L 171.033045 230.903321 
L 172.008014 231.169446 
L 172.982707 230.529653 
L 173.958063 228.336989 
L 174.935695 297.038426 
L 175.842028 299.302349 
L 176.746011 300.26699 
L 177.648994 300.359128 
L 178.55188 299.954632 
L 180.359144 298.606477 
L 181.26385 329.755249 
L 183.006519 334.048642 
L 183.874443 336.083228 
L 184.740254 337.010097 
L 185.605104 335.700746 
L 186.471313 330.80943 
L 187.342598 320.796369 
L 188.224274 293.949857 
L 189.133813 314.532319 
L 190.02199 326.866182 
L 190.897367 332.133183 
L 191.767278 331.421546 
L 192.637928 325.548178 
L 193.514673 315.164636 
L 194.402194 301.001454 
L 195.304414 291.444841 
L 196.216552 293.229967 
L 197.126838 293.245496 
L 198.037107 292.957519 
L 198.947675 293.024353 
L 199.858174 293.308852 
L 200.768377 296.345272 
L 201.67543 296.967043 
L 202.581837 297.048497 
L 204.394591 296.90089 
L 205.301067 296.96792 
L 206.207473 364.454224 
L 207.043841 364.41209 
L 208.716585 364.605764 
L 209.552796 364.492067 
L 210.389125 363.724274 
L 211.22625 273.511663 
L 212.156999 276.503918 
L 213.084643 277.858002 
L 214.010882 277.739291 
L 214.937244 276.45491 
L 215.864938 274.182314 
L 216.794992 265.861538 
L 217.73368 271.350837 
L 218.666672 275.587951 
L 219.595266 276.680405 
L 220.522727 272.166333 
L 221.454873 259.087615 
L 222.400591 237.750136 
L 223.368454 257.571924 
L 224.315746 263.320071 
L 225.257072 256.882493 
L 226.205079 240.393864 
L 227.170199 203.548248 
L 228.173557 204.074864 
L 229.176368 203.902245 
L 230.179359 204.209674 
L 231.182031 285.682652 
L 232.100149 285.561702 
L 233.018392 289.510922 
L 233.932538 289.520934 
L 234.846672 269.930826 
L 235.781138 188.027427 
L 236.800603 247.947966 
L 237.757883 256.702672 
L 239.661967 241.205863 
L 240.626244 239.321962 
L 241.592476 250.429835 
L 242.547179 251.043019 
L 243.501247 254.139563 
L 244.452101 253.917147 
L 245.403185 238.723716 
L 246.370038 227.289493 
L 247.348757 268.66039 
L 248.284541 278.895406 
L 249.209703 274.574864 
L 251.079042 255.719058 
L 252.028257 270.20527 
L 252.962437 270.480606 
L 254.830141 270.575205 
L 256.697768 270.468119 
L 257.631676 270.342336 
L 258.565714 335.304741 
L 261.165384 335.426567 
L 265.497926 335.39296 
L 266.364454 288.647655 
L 271.854584 288.61479 
L 272.769659 346.429779 
L 277.900126 346.396567 
L 278.755234 312.138999 
L 284.099267 312.041708 
L 284.99003 225.479528 
L 286.95117 225.522546 
L 288.912279 225.532318 
L 289.892822 337.282163 
L 292.486391 337.354201 
L 295.944392 337.35252 
L 296.808886 297.872461 
L 300.430579 297.945664 
L 304.052202 297.910172 
L 304.95763 282.579284 
L 307.72145 282.761788 
L 308.642599 282.671388 
L 309.563843 282.262383 
L 310.48551 265.322389 
L 312.3594 273.778912 
L 313.289872 276.114423 
L 314.21792 275.289245 
L 315.146824 269.736325 
L 316.081492 257.995944 
L 317.028343 230.646041 
L 318.003579 239.431328 
L 318.969697 242.120212 
L 319.933025 241.670298 
L 320.896819 240.338145 
L 321.861997 239.497169 
L 322.828046 239.582928 
L 323.794007 305.958798 
L 324.691083 305.872176 
L 326.485302 306.180169 
L 327.382147 306.011517 
L 328.279168 304.671703 
L 329.177579 293.485172 
L 330.087599 300.527609 
L 330.990311 305.017878 
L 331.888363 306.630712 
L 332.78474 305.208811 
L 333.682594 300.586576 
L 334.585245 292.480261 
L 336.393714 317.497156 
L 337.278815 325.391599 
L 338.155723 329.377845 
L 339.028493 329.418671 
L 339.901222 325.424313 
L 340.778095 317.353163 
L 341.663345 305.484439 
L 342.560913 339.730311 
L 343.422939 339.996048 
L 344.28469 339.653381 
L 345.146797 339.736714 
L 346.008817 340.054971 
L 346.870507 339.224249 
L 347.733059 269.058703 
L 348.668429 284.459612 
L 349.587817 293.738913 
L 350.497574 296.535042 
L 351.404429 293.299994 
L 352.314642 284.593959 
L 353.23389 271.040779 
L 354.167203 299.230424 
L 355.071261 302.105526 
L 355.972335 302.576159 
L 357.773936 301.805131 
L 358.675322 301.857507 
L 359.576654 339.55056 
L 361.300978 339.653052 
L 363.887382 339.632058 
L 365.61161 339.593894 
L 366.473778 326.673454 
L 368.223011 330.167351 
L 369.094962 331.292011 
L 369.965746 331.574333 
L 370.836237 330.672816 
L 371.707664 328.241567 
L 372.581614 323.968437 
L 373.459999 276.355903 
L 374.387796 281.824492 
L 375.309918 284.909566 
L 376.228839 286.036731 
L 377.146589 285.691077 
L 378.064698 284.308555 
L 378.984243 282.226591 
L 379.905947 279.62427 
L 380.830353 308.661041 
L 381.724624 311.417391 
L 382.616034 313.669276 
L 383.505107 314.909897 
L 384.392893 314.425392 
L 385.281181 311.383994 
L 386.172626 304.934163 
L 387.070765 284.152214 
L 387.990471 292.611377 
L 388.901398 296.820949 
L 389.807957 297.668881 
L 390.713635 296.030633 
L 391.621014 292.64354 
L 392.531908 288.055729 
L 393.447563 300.299121 
L 394.350512 303.931192 
L 395.249692 306.432086 
L 396.146276 307.795366 
L 397.041445 307.916058 
L 397.936489 306.639951 
L 398.832857 303.786075 
L 399.732187 299.165624 
L 400.636313 314.06784 
L 401.524972 318.722065 
L 402.408801 321.614664 
L 403.289629 322.920649 
L 404.169101 322.805082 
L 405.048693 321.409227 
L 405.929733 318.844847 
L 406.813435 315.185012 
L 407.700935 280.553176 
L 408.624377 284.559774 
L 409.54366 287.263411 
L 410.460138 288.653157 
L 411.375173 288.705679 
L 412.290154 287.368728 
L 413.206522 284.533332 
L 414.125833 279.971637 
L 415.049878 273.141201 
L 415.981011 279.182751 
L 416.905875 282.91797 
L 417.826862 283.36477 
L 418.747386 279.495172 
L 419.671925 270.433252 
L 420.60587 224.944477 
L 421.587022 231.79456 
L 422.561066 233.614642 
L 423.533221 233.062196 
L 424.505949 232.118068 
L 425.479657 231.855772 
L 426.453638 232.402002 
L 427.427051 292.310082 
L 429.249921 291.635321 
L 430.161861 291.652319 
L 431.985342 292.416302 
L 432.896472 292.324607 
L 433.807697 290.921209 
L 434.720378 287.276445 
L 435.636842 234.978469 
L 436.607582 241.349607 
L 437.571709 244.087954 
L 438.532995 243.733421 
L 439.494648 241.088828 
L 440.459046 237.121947 
L 441.427561 245.06184 
L 444.308471 244.932068 
L 445.26888 297.534482 
L 446.174698 299.64161 
L 447.078329 300.620538 
L 447.980945 300.749776 
L 448.883426 300.361645 
L 449.78631 299.696456 
L 450.689884 298.798482 
L 451.594391 298.128369 
L 453.400231 306.960334 
L 454.296267 308.618932 
L 455.190581 303.711057 
L 456.089989 288.118912 
L 457.005579 221.604611 
L 457.990198 234.906468 
L 458.961012 233.861496 
L 459.932911 224.744302 
L 460.914271 201.292505 
L 461.91997 210.304658 
L 462.916317 211.121934 
L 463.911815 198.826522 
L 464.920073 27.647894 
L 466.105983 199.143665 
L 467.113912 260.61552 
L 468.058045 285.119952 
L 468.976747 291.414403 
L 469.888917 287.063991 
L 470.805601 276.103873 
L 472.677091 244.931446 
L 473.637501 229.074835 
L 474.614367 215.253752 
L 475.605577 227.575276 
L 476.584 229.294286 
L 477.560638 230.413073 
L 478.536116 230.635733 
L 479.511362 229.437313 
L 481.467697 222.895234 
L 482.450977 227.286075 
L 483.429699 229.223512 
L 484.406411 229.060996 
L 485.383292 227.177807 
L 486.362127 223.884198 
L 487.34438 317.262379 
L 488.229725 319.443348 
L 489.112805 320.729029 
L 489.994552 321.171616 
L 490.875839 320.755242 
L 491.757558 319.432433 
L 492.64065 317.141354 
L 493.52612 224.751348 
L 494.507473 227.001821 
L 495.486491 227.747749 
L 496.464735 226.975412 
L 497.44378 224.85225 
L 498.425028 245.654209 
L 499.384689 245.885295 
L 501.303592 245.830907 
L 502.263069 245.88531 
L 503.222489 335.704327 
L 504.088694 335.855911 
L 507.552923 335.865901 
L 508.41896 263.256948 
L 509.360351 263.645631 
L 510.30134 263.830111 
L 511.242137 263.682227 
L 512.183087 263.11533 
L 513.124626 347.248162 
L 513.97885 347.706754 
L 514.832599 347.883311 
L 515.686164 347.8489 
L 517.393543 347.461054 
L 518.247547 272.264255 
L 521.043514 272.386257 
L 521.975431 271.856573 
L 522.907898 247.006731 
L 524.824541 246.862051 
L 525.782948 247.006813 
L 526.741204 246.470019 
L 527.700017 207.674487 
L 528.699093 213.335533 
L 529.692294 215.410587 
L 530.683341 213.430052 
L 531.676444 207.335164 
L 532.675872 216.109193 
L 533.666194 221.437308 
L 534.650987 223.375983 
L 535.633767 222.985099 
L 536.616954 221.146732 
L 537.602048 218.552263 
L 538.589835 233.496686 
L 539.562112 234.407712 
L 540.533444 234.831147 
L 541.504336 234.919888 
L 542.475136 234.76903 
L 543.446093 234.419065 
L 544.417413 233.817458 
L 545.389358 292.961078 
L 547.206419 300.99909 
L 548.108641 303.819549 
L 549.007936 303.244857 
L 549.907828 296.835252 
L 550.814372 282.034993 
L 552.642578 312.867986 
L 553.532483 319.7413 
L 554.415255 321.264315 
L 555.296445 320.107373 
L 556.178837 318.204518 
L 557.063204 316.843445 
L 557.948983 316.651763 
L 557.948983 316.651763 
" clip-path="url(#pecef80d226)" style="fill: none; stroke: #ebb120; stroke-width: 3; stroke-linecap: square"/>
   </g>
   <g id="line2d_30">
    <path d="M 54.420745 295.89456 
L 169.618591 295.96617 
L 171.363828 296.036739 
L 224.591747 296.052037 
L 226.336977 295.956495 
L 420.079718 295.902191 
L 455.863443 295.852839 
L 456.736209 296.040631 
L 523.928574 295.981222 
L 557.962236 295.89467 
L 557.962236 295.89467 
" clip-path="url(#pecef80d226)" style="fill: none; stroke: #0072bd; stroke-width: 3; stroke-linecap: square"/>
   </g>
   <g id="patch_3">
    <path d="M 54.420745 381.453658 
L 54.420745 10.8 
" style="fill: none; stroke: #000000; stroke-width: 0.8; stroke-linejoin: miter; stroke-linecap: square"/>
   </g>
   <g id="patch_4">
    <path d="M 558.834961 381.453658 
L 558.834961 10.8 
" style="fill: none; stroke: #000000; stroke-width: 0.8; stroke-linejoin: miter; stroke-linecap: square"/>
   </g>
   <g id="patch_5">
    <path d="M 54.420745 381.453658 
L 558.834961 381.453658 
" style="fill: none; stroke: #000000; stroke-width: 0.8; stroke-linejoin: miter; stroke-linecap: square"/>
   </g>
   <g id="patch_6">
    <path d="M 54.420745 10.8 
L 558.834961 10.8 
" style="fill: none; stroke: #000000; stroke-width: 0.8; stroke-linejoin: miter; stroke-linecap: square"/>
   </g>
   <g id="legend_1">
    <g id="patch_7">
     <path d="M 64.920745 64.611489 
L 175.715857 64.611489 
Q 178.715857 64.611489 178.715857 61.611489 
L 178.715857 21.3 
Q 178.715857 18.3 175.715857 18.3 
L 64.920745 18.3 
Q 61.920745 18.3 61.920745 21.3 
L 61.920745 61.611489 
Q 61.920745 64.611489 64.920745 64.611489 
z
" style="fill: #ffffff; opacity: 0.8; stroke: #cccccc; stroke-linejoin: miter"/>
    </g>
    <g id="line2d_31">
     <path d="M 67.920745 29.55 
L 82.920745 29.55 
L 97.920745 29.55 
" style="fill: none; stroke: #ebb120; stroke-width: 3; stroke-linecap: square"/>
    </g>
    <g id="text_17">
     <!-- CO-Fixed -->
     <g transform="translate(109.920745 34.8)scale(0.15 -0.15)">
      <defs>
       <path id="CMR17-4f" d="M 4307 2135 
C 4307 3437 3366 4416 2304 4416 
C 1216 4416 294 3424 294 2135 
C 294 845 1229 -128 2298 -128 
C 3392 -128 4307 864 4307 2135 
z
M 2304 -13 
C 1574 -13 781 711 781 2217 
C 781 3716 1651 4301 2298 4301 
C 2976 4301 3821 3698 3821 2217 
C 3821 686 3008 -13 2304 -13 
z
" transform="scale(0.015625)"/>
       <path id="CMR17-2d" d="M 1632 1216 
L 1632 1496 
L 26 1496 
L 26 1216 
L 1632 1216 
z
" transform="scale(0.015625)"/>
       <path id="CMR17-46" d="M 3482 4325 
L 326 4325 
L 326 4160 
C 768 4160 838 4160 838 3874 
L 838 446 
C 838 160 768 160 326 160 
L 326 0 
C 512 0 870 0 1069 0 
C 1331 0 1638 0 1901 0 
L 1901 160 
L 1760 160 
C 1274 160 1261 223 1261 452 
L 1261 2075 
L 1837 2075 
C 2432 2075 2490 1865 2490 1332 
L 2605 1332 
L 2605 2987 
L 2490 2987 
C 2490 2450 2432 2240 1837 2240 
L 1261 2240 
L 1261 3911 
C 1261 4128 1274 4160 1530 4160 
L 2355 4160 
C 3322 4160 3430 3765 3520 2916 
L 3635 2916 
L 3482 4325 
z
" transform="scale(0.015625)"/>
       <path id="CMR17-69" d="M 992 3909 
C 992 4049 877 4170 730 4170 
C 589 4170 467 4056 467 3909 
C 467 3769 582 3648 730 3648 
C 870 3648 992 3763 992 3909 
z
M 243 2706 
L 243 2541 
C 602 2541 653 2502 653 2197 
L 653 427 
C 653 184 627 153 218 153 
L 218 -13 
C 371 0 646 0 806 0 
C 960 0 1222 0 1370 -13 
L 1370 153 
C 992 153 979 191 979 420 
L 979 2776 
L 243 2706 
z
" transform="scale(0.015625)"/>
       <path id="CMR17-78" d="M 1664 1477 
C 1856 1726 2074 2006 2253 2216 
C 2464 2458 2707 2560 2989 2560 
L 2989 2726 
C 2880 2726 2656 2726 2541 2726 
C 2368 2726 2170 2726 2022 2732 
L 2022 2566 
C 2112 2553 2163 2489 2163 2400 
C 2163 2285 2099 2215 2067 2171 
L 1594 1573 
L 1030 2306 
C 973 2376 973 2388 973 2420 
C 973 2497 1037 2560 1146 2560 
L 1146 2732 
C 992 2726 717 2726 557 2726 
C 384 2726 179 2726 38 2732 
L 38 2560 
C 384 2560 461 2534 614 2343 
L 1350 1395 
C 1363 1382 1395 1344 1395 1325 
C 1395 1299 838 619 768 530 
C 480 185 179 160 6 160 
L 6 0 
C 115 0 339 0 454 0 
C 582 0 864 0 979 -6 
L 979 160 
C 941 166 838 179 838 325 
C 838 440 890 510 947 586 
L 1478 1236 
L 2035 512 
C 2086 442 2163 346 2163 301 
C 2163 211 2086 160 1984 160 
L 1984 -6 
C 2138 0 2413 0 2573 0 
C 2746 0 2950 0 3091 -6 
L 3091 160 
C 2771 160 2675 172 2522 370 
L 1664 1477 
z
" transform="scale(0.015625)"/>
       <path id="CMR17-64" d="M 1869 4326 
L 1869 4160 
C 2246 4160 2304 4122 2304 3820 
L 2304 2345 
C 2278 2377 2016 2790 1498 2790 
C 845 2790 211 2208 211 1364 
C 211 525 806 -64 1434 -64 
C 1978 -64 2259 337 2291 380 
L 2291 -63 
L 3066 -63 
L 3066 128 
C 2688 128 2630 166 2630 473 
L 2630 4396 
L 1869 4326 
z
M 2291 755 
C 2291 563 2176 390 2029 262 
C 1811 70 1594 38 1472 38 
C 1286 38 621 134 621 1356 
C 621 2612 1363 2688 1530 2688 
C 1824 2688 2061 2522 2208 2291 
C 2291 2157 2291 2138 2291 2023 
L 2291 755 
z
" transform="scale(0.015625)"/>
      </defs>
      <use xlink:href="#CMR17-43" transform="scale(0.996264)"/>
      <use xlink:href="#CMR17-4f" transform="translate(66.509881 0)scale(0.996264)"/>
      <use xlink:href="#CMR17-2d" transform="translate(138.224669 0)scale(0.996264)"/>
      <use xlink:href="#CMR17-46" transform="translate(168.300635 0)scale(0.996264)"/>
      <use xlink:href="#CMR17-69" transform="translate(228.284482 0)scale(0.996264)"/>
      <use xlink:href="#CMR17-78" transform="translate(253.15554 0)scale(0.996264)"/>
      <use xlink:href="#CMR17-65" transform="translate(301.448456 0)scale(0.996264)"/>
      <use xlink:href="#CMR17-64" transform="translate(341.934117 0)scale(0.996264)"/>
     </g>
    </g>
    <g id="line2d_32">
     <path d="M 67.920745 50.455745 
L 82.920745 50.455745 
L 97.920745 50.455745 
" style="fill: none; stroke: #0072bd; stroke-width: 3; stroke-linecap: square"/>
    </g>
    <g id="text_18">
     <!-- CO-Free -->
     <g transform="translate(109.920745 55.705745)scale(0.15 -0.15)">
      <use xlink:href="#CMR17-43" transform="scale(0.996264)"/>
      <use xlink:href="#CMR17-4f" transform="translate(66.509881 0)scale(0.996264)"/>
      <use xlink:href="#CMR17-2d" transform="translate(138.224669 0)scale(0.996264)"/>
      <use xlink:href="#CMR17-46" transform="translate(168.300635 0)scale(0.996264)"/>
      <use xlink:href="#CMR17-72" transform="translate(220.477227 0)scale(0.996264)"/>
      <use xlink:href="#CMR17-65" transform="translate(255.757994 0)scale(0.996264)"/>
      <use xlink:href="#CMR17-65" transform="translate(296.243655 0)scale(0.996264)"/>
     </g>
    </g>
   </g>
  </g>
 </g>
 <defs>
  <clipPath id="pecef80d226">
   <rect x="54.420745" y="10.8" width="504.414216" height="370.653658"/>
  </clipPath>
 </defs>
</svg>
